<svg width="148" height="148" viewBox="0 0 148 148" fill="none" xmlns="http://www.w3.org/2000/svg">
<circle opacity="0.2" cx="74.7402" cy="74.74" r="55" stroke="#0BCE91"/>
<circle opacity="0.1" cx="74.0009" cy="74" r="64.62" stroke="#0BCE91"/>
<circle opacity="0.05" cx="74" cy="74" r="73.5" stroke="#0BCE91"/>
<path d="M74.266 117.452C98.117 117.452 117.452 98.1169 117.452 74.2659C117.452 50.415 98.117 31.08 74.266 31.08C50.4151 31.08 31.0801 50.415 31.0801 74.2659C31.0801 98.1169 50.4151 117.452 74.266 117.452Z" fill="#0BCE91"/>
<path d="M74.7289 110.977C94.7484 110.977 110.977 94.7479 110.977 74.7284C110.977 54.709 94.7484 38.48 74.7289 38.48C54.7094 38.48 38.4805 54.709 38.4805 74.7284C38.4805 94.7479 54.7094 110.977 74.7289 110.977Z" fill="#0E9979"/>
<g clip-path="url(#clip0)">
<path d="M93.8559 92.9933H92.9926V67.9566C92.9926 67.48 92.6058 67.0932 92.1292 67.0932H86.9492C86.4727 67.0932 86.0859 67.48 86.0859 67.9566V92.9932H82.6325V78.3166C82.6325 77.84 82.2457 77.4532 81.7691 77.4532H76.5891C76.1126 77.4532 75.7258 77.84 75.7258 78.3166V92.9932H72.2724V74.8632C72.2724 74.3867 71.8856 73.9999 71.4091 73.9999H66.2291C65.7525 73.9999 65.3657 74.3867 65.3657 74.8632V92.9932H61.9123V83.4966C61.9123 83.02 61.5255 82.6332 61.049 82.6332H55.8693C55.3927 82.6332 55.0059 83.02 55.0059 83.4966V92.9932H54.1427C53.6661 92.9933 53.2793 93.38 53.2793 93.8566C53.2793 94.3332 53.6661 94.72 54.1427 94.72H55.8693H61.0493H66.2293H71.4093H76.5893H81.7693H86.9493H92.1293H93.8559C94.3325 94.72 94.7193 94.3332 94.7193 93.8566C94.7193 93.38 94.3325 92.9933 93.8559 92.9933Z" fill="#17113D"/>
<path d="M89.5412 53.28C87.6366 53.28 86.0878 54.8288 86.0878 56.7334C86.0878 57.3722 86.2743 57.9627 86.5764 58.4773L80.9251 64.1287C80.4105 63.8265 79.82 63.64 79.1812 63.64C78.0986 63.64 77.142 64.1511 76.5083 64.9333L72.2659 63.7229C72.2659 63.6953 72.2745 63.6694 72.2745 63.64C72.2745 61.7355 70.7257 60.1866 68.8212 60.1866C66.9166 60.1866 65.3678 61.7355 65.3678 63.64C65.3678 64.1425 65.4801 64.6155 65.6734 65.0455L60.2776 69.3501C59.7493 69.0185 59.1294 68.82 58.4612 68.82C56.5566 68.82 55.0078 70.3688 55.0078 72.2734C55.0078 74.1779 56.5566 75.7267 58.4612 75.7267C60.3657 75.7267 61.9145 74.1779 61.9145 72.2734C61.9145 71.6673 61.7436 71.1044 61.4674 70.6089L66.7561 66.3907C67.3346 66.8258 68.0443 67.0934 68.8213 67.0934C70.0869 67.0934 71.185 66.401 71.7859 65.3823L75.7866 66.5236C75.7538 66.7101 75.7279 66.8983 75.7279 67.0934C75.7279 68.998 77.2767 70.5468 79.1813 70.5468C81.0858 70.5468 82.6346 68.998 82.6346 67.0934C82.6346 66.4546 82.4481 65.8641 82.146 65.3495L87.7991 59.6964C88.3119 60.0003 88.9024 60.1868 89.5413 60.1868C91.4458 60.1868 92.9946 58.638 92.9946 56.7334C92.9945 54.8288 91.4457 53.28 89.5412 53.28Z" fill="#17113D"/>
</g>
<defs>
<clipPath id="clip0">
<rect x="53.2793" y="53.28" width="41.44" height="41.44" fill="white"/>
</clipPath>
</defs>
</svg>
