<svg width="148" height="148" viewBox="0 0 148 148" fill="none" xmlns="http://www.w3.org/2000/svg">
<circle opacity="0.2" cx="74.7402" cy="74.74" r="55" stroke="#0BCE91"/>
<circle opacity="0.1" cx="74.0009" cy="74" r="64.62" stroke="#0BCE91"/>
<circle opacity="0.05" cx="74" cy="74" r="73.5" stroke="#0BCE91"/>
<path d="M74.266 117.452C98.117 117.452 117.452 98.1169 117.452 74.2659C117.452 50.415 98.117 31.08 74.266 31.08C50.4151 31.08 31.0801 50.415 31.0801 74.2659C31.0801 98.1169 50.4151 117.452 74.266 117.452Z" fill="#0BCE91"/>
<path d="M74.7289 110.977C94.7484 110.977 110.977 94.7479 110.977 74.7284C110.977 54.709 94.7484 38.48 74.7289 38.48C54.7094 38.48 38.4805 54.709 38.4805 74.7284C38.4805 94.7479 54.7094 110.977 74.7289 110.977Z" fill="#0E9979"/>
<path d="M92.9591 63.5822C92.9591 61.3743 92.082 59.2568 90.5207 57.6955C88.9595 56.1343 86.842 55.2572 84.634 55.2572H83.9077V48.84H78.3577V55.2572H73.0921V48.84H67.5421V55.2572H56.2402V60.8072H62.6574V87.083H56.2402V92.633H67.5421V99.0502H73.0921V92.633H78.3577V99.0502H83.9077V92.633H84.634C86.842 92.633 88.9595 91.7559 90.5207 90.1946C92.082 88.6334 92.9591 86.5159 92.9591 84.308V79.4947C92.9597 77.4447 92.2001 75.4672 90.8272 73.9447C92.2001 72.4223 92.9597 70.4448 92.9591 68.3947V63.5822ZM87.409 84.308C87.409 85.0439 87.1167 85.7498 86.5963 86.2702C86.0759 86.7906 85.37 87.083 84.634 87.083H68.2074V76.7197H84.634C85.37 76.7197 86.0759 77.0121 86.5963 77.5325C87.1167 78.0529 87.409 78.7588 87.409 79.4947V84.308ZM87.409 68.3947C87.409 69.1307 87.1167 69.8365 86.5963 70.3569C86.0759 70.8774 85.37 71.1697 84.634 71.1697H68.2074V60.8072H84.634C85.37 60.8072 86.0759 61.0995 86.5963 61.62C87.1167 62.1404 87.409 62.8462 87.409 63.5822V68.3947Z" fill="#17113D"/>
</svg>

