<svg width="582" height="447" viewBox="0 0 582 447" fill="none" xmlns="http://www.w3.org/2000/svg">
<g clip-path="url(#clip0)">
<path d="M106.66 58.573C111.354 38.7007 99.0459 18.7869 79.1705 14.0945C59.2951 9.40208 39.3783 21.7079 34.6852 41.5802C29.992 61.4526 42.2997 81.3663 62.1751 86.0588C82.0505 90.7512 101.967 78.4454 106.66 58.573Z" fill="#201A4B"/>
<path d="M65.8661 61.6062C65.8661 64.9355 63.1691 67.6321 59.8393 67.6321C56.5095 67.6321 53.8125 64.9355 53.8125 61.6062C53.8125 58.2769 56.5095 55.5803 59.8393 55.5803C63.1691 55.5803 65.8661 58.2769 65.8661 61.6062Z" fill="#1C1544"/>
<path d="M57.307 44.2002C57.307 46.1375 55.7395 47.7048 53.802 47.7048C51.8644 47.7048 50.2969 46.1375 50.2969 44.2002C50.2969 42.263 51.8644 40.6957 53.802 40.6957C55.7395 40.6957 57.307 42.263 57.307 44.2002Z" fill="#1C1544"/>
<path d="M34.7983 59.0556C34.9638 59.6981 3.14546 90.2169 11.3532 96.7198C19.5512 103.223 54.0568 86.5371 83.4606 62.7938C112.874 39.0407 139.737 10.2061 132.386 2.57393C125.035 -5.05821 88.2801 17.5461 88.2801 17.5461L92.6712 20.3498C92.6712 20.3498 114.89 6.09795 121.919 11.6273C128.949 17.1568 108.911 38.7682 80.6371 59.4061C52.3627 80.044 25.0328 94.5392 20.7975 88.8832C16.5524 83.2273 36.5703 64.3708 36.5703 64.3708L34.7983 59.0556Z" fill="#1C1544"/>
<path d="M518.774 424.22C531.603 413.302 533.15 394.052 522.23 381.225C511.31 368.398 492.058 366.851 479.229 377.77C466.4 388.688 464.853 407.938 475.773 420.765C486.693 433.591 505.945 435.139 518.774 424.22Z" fill="#1C1544"/>
<path d="M503.169 391.549C503.237 388.804 505.516 386.633 508.261 386.691C511.007 386.759 513.178 389.037 513.12 391.782C513.052 394.528 510.773 396.699 508.028 396.64C505.282 396.572 503.111 394.294 503.169 391.549Z" fill="#201A4B"/>
<path d="M509.888 406.064C509.927 404.467 511.251 403.201 512.847 403.24C514.444 403.279 515.71 404.603 515.671 406.2C515.632 407.796 514.308 409.062 512.711 409.023C511.114 408.984 509.849 407.66 509.888 406.064Z" fill="#201A4B"/>
<path d="M417.203 332.171C482.305 267.079 482.305 161.544 417.203 96.4516C352.101 31.3595 246.55 31.3595 181.448 96.4516C116.346 161.544 116.346 267.079 181.448 332.171C246.55 397.263 352.101 397.263 417.203 332.171Z" fill="#1C1544"/>
<path d="M442.027 157.08C440.654 155.415 440.459 149.954 437.188 153.079C437.421 150.334 436.321 143.792 441.189 144.405C446.505 145.067 444.071 150.83 445.308 153.789C446.759 157.255 451.597 157.547 454.363 159.504C456.232 160.838 457.352 162.814 458.413 164.391C451.393 141.991 439.739 121.655 424.618 104.434C424.608 104.57 424.589 104.697 424.579 104.833C421.045 104.599 417.871 109.291 418.523 112.251C418.63 112.747 420.061 113.604 420.246 114.685C420.422 115.755 419.497 116.213 419.468 117.05C419.39 119.007 418.883 120.856 421.532 121.392C423.236 118.14 427.062 121.995 427.831 124.157C429.194 127.943 427.539 129.851 430.226 132.918C431.268 134.106 434.364 135.566 433.741 137.669C433.137 139.742 431.541 139.353 430.022 138.769C427.558 137.824 426.234 134.115 423.343 134.008C421.415 138.817 423.216 145.048 421.697 150.178C420.85 153.03 419.808 153.137 422.272 155.25C423.158 156.009 423.771 155.162 424.803 156.398C425.416 157.129 425.426 158.696 425.358 159.582C426.721 158.754 427.919 157.489 429.671 157.664C427.062 159.903 427.471 164.108 425.66 166.97C423.391 170.553 421.502 169.356 418.387 170.787C412.944 173.298 415.758 178.185 415.174 182.235C414.833 184.6 412.886 186.596 411.961 188.864C410.637 192.106 409.819 195.406 409.76 198.891C409.692 202.951 410.997 206.64 411.766 210.592C412.389 213.795 412.409 219.909 415.534 221.758C417.423 222.878 423.489 222.664 426.03 223.053C428.493 223.423 431.58 222.089 433.731 223.18C435.766 224.211 435.571 227.667 438.317 226.889C439.865 226.451 440.761 222.819 442.698 222.138C445.804 221.048 448.258 223.89 449.115 226.334C450.205 229.439 448.589 229.546 447.752 232.856C447.09 235.465 447.732 238.23 448.589 240.673C450.322 245.609 448.404 243.448 446.603 248.052C447.888 248.432 449.271 248.51 450.585 248.5C450.692 250.262 451.062 252.861 450.653 254.594C449.514 259.432 444.831 262.09 444.587 267.707C444.354 272.847 446.72 279.028 445.746 284.061C445.035 287.741 440.868 290.146 441.559 294.4C443.886 292.901 445.658 290.535 448.219 289.279C459.591 266.743 466.036 241.296 466.036 214.331C466.036 199.154 463.972 184.474 460.175 170.504C457.391 169.258 454.859 167.467 452.6 165.004C449.728 161.879 444.646 160.244 442.027 157.08Z" fill="#201A4B"/>
<path d="M321.442 52.401C323.487 52.7709 325.804 52.7417 327.819 53.2382C330.117 53.7931 331.762 55.3701 334.236 54.3674C335.355 53.9196 336.3 53.0045 337.04 51.9726C324.918 49.169 312.309 47.6406 299.331 47.6406C268.875 47.6406 240.348 55.8471 215.773 70.1087C222.141 70.5078 220.71 77.6629 226.211 71.7734C228.655 69.1449 231.371 65.5528 234.487 63.2553C237.982 60.6756 241.974 62.4181 246.18 62.3111C244.778 63.3138 236.95 68.9502 237.816 70.7999C239.004 73.3309 243.356 70.2645 241.653 75.1514C240.134 79.5126 233.922 76.5434 230.076 76.8452C227.097 77.0789 225.471 79.0745 222.248 79.2303C218.869 79.3958 215.481 78.4417 212.19 78.5391C206.933 78.6948 203.564 81.7224 200.361 85.4119C198.501 87.5536 196.31 89.1501 194.957 91.7298C193.477 94.5432 194.071 98.2327 192.688 100.774C191.501 102.954 188.784 103.314 186.847 104.609C184.549 106.147 181.638 108.912 179.836 111.005C176.711 114.636 175.309 121.548 169.974 122.872C169.214 128.489 177.724 120.662 180.255 121.781C181.55 120.068 182.047 117.8 183.965 116.505C186.009 115.132 188.589 115.454 190.8 114.042C194.986 111.375 193.643 105.524 198.852 104.531C203.058 103.733 207.77 102.905 208.802 107.539C209.318 109.837 208.422 109.623 208.354 111.842C208.267 114.821 208.023 112.991 210.243 114.811C213.602 117.566 214.167 120.895 211.519 124.78C210.263 126.62 209.542 126.366 208.802 128.752C208.033 131.253 208.306 133.697 208.393 136.199C208.491 138.993 208.218 141.709 208.121 144.503C207.975 149.156 209.094 150.889 212.775 153.819C215.569 156.048 218.548 157.684 219.989 161.159C221.235 164.186 221.002 167.788 221.82 170.894C222.676 174.126 230.758 180.901 229.872 175.128C229.414 172.15 226.016 171.478 226.035 167.856C226.045 166.387 226.639 164.216 226.795 162.668C231.42 161.412 230.193 169.287 231.439 171.643C233.201 174.982 237.807 177.134 240.212 179.791C237.982 180.833 234.224 183.014 235.47 186.1C237.038 189.994 242.023 187.278 244.768 187.346C250.766 187.492 256.724 191.493 261.612 194.705C266.266 197.752 268.145 199.582 274.006 199.125C277.804 198.833 281.163 199.397 284.6 201.208C287.374 202.668 288.718 203.953 290.14 206.65C291.999 210.184 292.827 211.439 295.952 213.844C297.997 215.421 299.068 217.115 301.336 217.008C302.904 216.93 304.024 214.662 306.399 215.402C310.927 216.803 309.603 222.547 308.123 225.185C306.876 227.405 305.708 230.276 304.325 232.467C302.563 235.27 297.929 236.312 297.393 240.011C296.887 243.526 300.791 247.546 301.667 250.866C302.456 253.874 302.368 257.193 302.368 260.27C300.372 263.112 312.261 273.158 314.471 275.086C317.703 277.899 322.416 281.638 323.672 285.931C324.188 287.693 323.886 290.457 324.071 292.307C324.441 296.162 324.519 300.221 324.343 304.145C324.08 309.898 319.952 313.412 318.969 318.854C318.18 323.235 319.738 327.82 319.076 332.142C318.774 334.108 318.394 336.863 317.908 338.771C317.44 340.611 316.486 340.66 315.717 342.003C314.334 344.418 315.035 346.803 316.204 349.421C319.865 346.783 322.902 351.768 324.626 354.289C326.777 357.443 329.348 358.699 333.807 358.154C332.055 356.703 329.104 352.001 329.708 349.412C330.594 345.605 336.095 342.529 337.945 339.346C339.941 335.909 339.376 332.707 343.505 331.169C344.663 330.74 346.026 330.954 347.185 330.477C348.626 329.884 349.385 328.53 350.797 327.859C354.633 326.038 355.509 326.525 357.106 322.251C359.034 317.082 360.709 310.521 365.625 307.25C367.553 305.965 369.686 306.053 371.789 305.138C374.096 304.145 374.817 302.568 376.696 301.234C379.704 299.112 381.671 297.398 384.144 294.565C386.763 291.567 388.827 288.199 390.804 284.636C392.04 282.407 392.576 280.323 394.445 278.532C395.234 277.783 396.431 277.471 397.317 276.595C400.696 273.227 401.962 267.834 404.892 264.144C406.547 262.061 408.164 260.893 409.079 258.488C408.816 257.592 408.164 256.979 407.745 256.21C407.034 254.915 405.301 253.718 404.435 252.375C404.133 251.907 404.026 250.467 403.724 250.145C401.299 247.556 395.428 246.193 392.157 246.066C387.678 245.881 380.989 245.2 378.069 241.16C375.897 238.152 379.607 233.878 378.185 230.666C376.413 226.665 367.096 224.737 363.522 222.566C361.069 221.067 359.394 218.789 356.95 217.261C353.377 215.032 351.235 214.117 349.716 210.174C348.801 207.818 350.203 207.409 347.35 206.523C344.692 205.696 340.535 208.013 337.556 208.246C335.345 208.422 332.853 208.879 330.711 208.227C328.092 207.438 326.154 204.46 323.409 203.944C320.945 203.486 316.087 204.645 313.828 206.124C311.93 207.37 310.897 209.619 308.794 210.593C305.757 212.004 305.981 210.154 303.03 209.901C300.1 209.648 298.571 211.254 296.322 207.915C293.275 203.398 294.521 194.17 287.345 193.703C285.203 193.566 281.104 195.348 279.79 192.622C277.852 188.582 284.814 183.238 283.811 178.886C282.759 174.34 274.289 180.307 272.38 182.819C271.163 184.415 270.2 188.348 267.639 188.631C265.721 188.835 261.748 186.294 260.58 184.883C258.545 182.43 258.419 177.64 258.126 174.535C257.571 168.674 258.925 166.873 262.995 162.512C266.597 158.657 267.337 158.326 271.952 157.518C274.785 157.022 274.756 156.019 277.151 157.275C278.3 157.878 279.021 159.669 280.423 160.244C282.38 158.355 283.704 157.732 286.333 158.258C288.212 158.628 292.174 160.818 293.216 162.6C293.849 163.68 294.842 173.386 298.338 167.428C296.303 165.754 296.848 163.778 296.02 161.918C295.232 160.137 293.294 158.706 292.944 156.389C292.535 153.673 294.949 148.036 297.987 147.452L297.646 144.415C301.064 143.938 305.124 135.644 304.423 131.575C304.072 129.54 301.862 129.696 303.04 126.766C304.423 123.329 306.808 125.13 309.71 124.497C312.728 123.835 312.192 121.966 314.266 120.418C316.535 118.725 317.586 120.019 319.514 120.107C323.107 120.263 327.829 121.061 328.102 116.077C330.292 115.775 332.22 115.094 334.421 116.018C334.722 112.085 333.846 109.292 330.506 107.033C327.547 105.037 323.672 104.463 320.634 102.526C318.677 101.28 317.275 99.469 315.415 98.1451C312.416 96.0034 310.352 93.6379 307.646 91.2236C304.189 88.1474 300.859 92.0316 296.283 91.3891C290.217 90.5422 290.607 85.9668 286.858 83.2605C286.43 82.949 285.194 83.3676 284.639 83.095C283.947 82.7543 282.526 81.187 281.961 80.5834C280.053 78.5294 278.242 75.5213 278.047 72.4451C284.736 68.5998 286.43 77.7603 289.224 81.0896C290.49 82.5985 295.465 83.5428 291.571 85.9278C294.258 86.1128 296.663 85.7234 299.185 86.3172C300.372 86.5996 301.385 87.2421 302.68 87.3199C302.953 85.2464 302.203 83.2021 301.794 81.2162C301.609 80.3011 301.872 79.3568 301.482 78.4709C300.927 77.1762 299.555 76.5337 299.039 75.4629C297.559 72.3769 299.409 72.3769 296.04 70.5176C293.723 69.2423 290.938 68.3272 288.533 67.2466C286.878 66.5068 285.106 65.8546 283.85 64.6085C283.256 64.0147 279.488 60.0526 279.206 59.3322C276.548 52.7125 286.917 58.7286 289.293 59.2933C293.148 60.2083 297.082 61.7075 300.772 63.1093C303.839 64.2775 303.878 64.9589 305.056 68.0254C307.178 73.5548 310.167 70.9167 313.536 74.6159C315.571 76.8452 317.158 80.8462 318.91 83.4844C321.121 86.8137 329.805 97.2008 334.654 92.2068C337.254 89.5297 332.23 84.8473 332.132 82.2383C332.025 79.4542 333.904 77.7506 335.823 76.2319C339.045 73.7009 339.785 72.6495 335.978 69.5635C331.295 65.7767 326.145 65.1634 320.556 63.3916C314.49 61.4641 312.874 57.9693 309.807 53.0532C311.832 52.6833 313.964 52.5178 316.038 52.3328C317.81 52.1576 319.65 52.0797 321.442 52.401ZM259.645 95.137C258.857 97.2106 257.406 96.5681 256.053 97.6292C253.969 99.2646 257.649 102.156 256.16 103.207C255.634 103.577 252.762 103.431 252.109 103.217C250.444 102.662 249.928 101.484 247.971 101.504C245.411 101.533 242.84 101.027 243.405 97.8044C243.668 96.2955 245.197 94.7963 244.476 93.1414C244.126 92.3431 242.509 91.0776 241.789 90.5908C241.117 90.1333 240.28 90.2015 239.696 89.8315C238.371 89.0041 238.878 85.7332 240.348 85.1588C240.397 89.666 247.095 85.5969 248.478 87.6704C249.773 89.7147 247.105 90.5422 248.857 91.905C249.87 92.6936 252.567 92.7033 253.589 92.4015C255.167 91.944 257.795 89.5687 259.353 91.2918C260.006 92.0024 259.967 94.2998 259.645 95.137ZM281.114 87.1836C282.779 87.6607 282.477 88.4589 283.353 89.7731C284.346 91.2626 285.992 91.1165 287.17 92.2068C289.4 94.2609 285.885 96.9672 287.18 99.508C288.319 101.728 301.054 105.037 292.739 107.734C290.295 108.522 288.864 106.926 286.654 106.303C284.824 105.787 281.211 106.098 279.537 107.072C275.486 109.428 284.58 113.809 278.962 115.502C277.823 115.843 274.133 115.629 273.744 114.217C273.393 112.962 275.146 112.991 275.516 111.793C276.947 107.072 271.154 109.983 269.547 109.574C267.269 108.99 267.98 104.901 269.781 103.986C270.764 103.49 273.237 103.752 274.328 103.733C276.109 103.704 277.891 103.976 279.673 103.811C280.501 100.394 275.37 98.6513 272.663 98.2911C270.54 98.0088 270.258 97.5805 268.505 96.3052C266.402 94.7768 265.477 95.1954 266.957 92.3918C268.252 89.9386 270.355 88.6341 272.468 86.9792C273.471 86.4925 274.23 87.5146 275.204 87.6217C277.151 87.8456 279.167 86.6288 281.114 87.1836Z" fill="#201A4B"/>
<path d="M295.768 174.126C293.87 173.464 287.103 175.907 289.878 177.903C291.757 179.256 296.216 177.513 298.514 178.049C300.89 178.594 303.674 177.728 305.923 178.643C307.588 179.314 308.484 180.853 310.344 181.32C312.583 181.884 313.771 180.969 311.677 179.217C310.207 177.99 308.163 177.659 306.449 176.871C305.154 176.277 303.986 175.099 302.691 174.758C300.977 174.301 297.122 175.849 295.768 174.126Z" fill="#201A4B"/>
<path d="M319.418 184.26C317.743 185.311 316.166 185.837 315.611 187.988C314.958 190.49 316 190.032 317.694 189.059C318.775 188.436 320.245 187.384 321.589 187.453C322.845 187.521 323.974 188.485 325.23 188.708C327.46 189.108 329.904 188.777 331.666 187.238C333.058 186.022 333.165 184.445 330.984 184.094C329.339 183.831 326.7 184.639 324.987 184.814C323.156 184.99 320.333 185.077 319.418 184.26Z" fill="#201A4B"/>
<path d="M398.223 344.301C394.406 346.919 392.089 350.502 387.591 352.361C382.693 354.376 378.107 357.141 373.083 359.137C368.137 361.103 362.578 364.316 357.369 365.581C353.027 366.642 348.129 364.569 343.758 364.686C339.074 364.812 334.722 365.756 330.302 366.895C327.274 367.674 327.371 367.119 325.025 366.224C323.292 365.562 323.321 365.503 321.383 365.299C319.874 365.143 318.365 365.279 316.924 364.968C316.846 367.061 321.471 371.305 323.224 372.639C309.622 373.817 295.076 372.094 281.533 370.682C277.55 370.264 275.184 371.996 271.368 372.493C267.853 372.951 264.874 371.042 261.33 371.013C257.065 370.984 255.196 371.86 253.375 374.518C267.98 378.694 283.373 380.982 299.321 380.982C339.97 380.982 377.202 366.418 406.129 342.256C406.119 341.711 406.08 341.176 406.002 340.67C403.792 341.585 400.238 342.918 398.223 344.301Z" fill="#201A4B"/>
<path d="M137.785 215.986C138.389 214.447 138.915 212.267 138.525 210.602C138.087 208.714 137.201 208.879 136.325 207.37C133.92 203.213 137.503 202.727 137.493 199.222C137.483 197.178 133.248 192.32 136.052 190.227C137.318 189.283 141.952 191.571 144.221 190.617C143.822 187.258 140.511 188.28 139.168 186.002C137.162 182.595 140.492 181.875 141.524 180.356C144.873 175.44 140.132 172.948 138.924 168.917C134.845 183.364 132.605 198.58 132.605 214.331C132.605 214.934 132.644 215.518 132.654 216.122C133.891 215.041 135.478 214.74 137.785 215.986Z" fill="#201A4B"/>
<path d="M143.277 168.674C144.952 168.139 144.299 164.06 144.611 162.94C145.468 159.796 147.795 155.756 149.528 153.167C152.274 149.058 151.047 147.54 150.433 142.517C150.326 141.66 150.268 140.745 150.2 139.839C146.14 147.958 142.693 156.437 139.977 165.247C140.902 166.688 142.109 169.044 143.277 168.674Z" fill="#201A4B"/>
<path d="M139.538 196.078C136.948 203.71 145.126 204.791 145.282 211.108C145.341 213.435 144.143 221.447 149.011 220.853C150.978 216.424 147.833 215.801 148.388 211.683C148.768 208.899 150.783 208.1 147.658 205.784C146.791 205.141 145.272 205.131 144.581 204.45C143.646 203.525 143.802 202.26 143.218 201.335C142.186 199.699 140.541 198.638 139.538 196.078Z" fill="#201A4B"/>
<path d="M139.538 222.42C137.474 226.967 133.667 243.331 141.037 243.642C141.855 243.672 143.354 242.182 144.192 242.737C144.844 243.165 144.279 244.879 144.581 245.044C146.48 246.115 146.957 246.388 147.716 243.107C148.32 240.518 147.006 240.41 146.616 238.629C146.266 237.023 146.47 235.66 146.577 233.956C141.816 232.788 151.426 231.776 151.046 229.858C150.764 228.398 143.656 228.816 142.624 229.137C142.381 227.843 142.653 226.392 142.838 225.185C141.261 224.455 140.784 222.781 139.538 222.42Z" fill="#201A4B"/>
<path d="M163.528 237.286C159.38 237.529 157.209 233.752 152.341 235.231C152.322 236.234 152.078 237.334 152.078 238.249C153.178 237.918 158.28 236.731 157.462 239.661C156.781 242.114 152.341 239.018 153.11 242.63C154.376 242.484 156.372 241.54 157.618 241.695C159.429 241.929 160.14 242.912 161.844 243.282C164.112 243.779 163.82 242.659 166.215 244.353C168.085 245.677 170.022 247.721 170.636 249.766C171.95 254.137 170.003 255.86 175.601 256.541C178.512 256.892 184.695 260.085 184.52 255.285C187.304 256.22 191.569 264.504 195.288 263.677C199.961 262.635 190.916 255.363 190.946 254.555C192.786 254.39 196.875 252.637 198.297 251.791C199.845 250.866 201.188 251.09 200.643 248.13C198.433 247.877 197.459 248.948 195.736 249.376C193.779 249.873 191.647 249.873 189.553 249.698C184.218 249.259 179.895 247.41 175.737 244.012C173.508 242.192 171.6 240.664 169.273 238.94C167.754 237.821 167.812 237.11 166.06 236.594C164.95 236.283 163.927 236.877 163.528 237.286Z" fill="#201A4B"/>
<path d="M140.223 248.091C143.202 248.091 146.386 248.451 149.346 248.101C150.368 247.984 151.536 246.339 152.675 247.487C153.094 247.906 152.773 250.534 152.403 250.953C150.602 252.949 140.661 252.316 141.245 248.441" fill="#201A4B"/>
<path d="M185.817 271.426C185.535 266.179 183.51 266.909 181.086 263.55C180.248 265.721 179.314 270.063 176.383 270.384C172.05 270.861 171.359 264.378 168.769 262.616C165.06 260.075 156.628 262.538 155.761 265.994C152.315 267.347 152.091 268.972 150.698 271.873C149.803 273.733 148.547 275.904 147.232 277.821C146.726 278.561 146.278 279.067 145.879 279.535C149.082 287.07 152.84 294.322 157.076 301.234C157.416 301.341 157.816 301.419 158.283 301.458C161.944 301.74 163.911 297.7 166.841 298.08C168.974 298.352 170.531 301.935 172.284 303.395C177.103 307.406 185.292 310.385 187.181 316.323C188.32 319.905 189.751 321.473 192 324.549C193.577 326.7 193.256 330.516 195.564 331.83C195.778 328.326 195.924 325.23 196.878 321.784C198.017 317.656 196.81 314.259 198.718 310.599C200.656 306.88 203.664 303.921 203.323 299.355C203.09 296.25 200.792 292.326 198.582 290.097C192.263 283.711 186.353 281.326 185.817 271.426Z" fill="#201A4B"/>
<path d="M228.042 306.861C225.335 307.377 226.27 312.653 225.501 314.795C224.42 317.822 223.339 317.511 220.165 318.328C218.442 318.776 215.852 319.243 214.187 320.012C211.247 321.375 211.013 323.809 210.156 326.729C213.788 327.041 215.891 322.777 219.162 322.105C221.976 321.521 224.284 322.797 227.205 321.521C234.536 318.328 232.715 311.095 233.718 305.215C231.566 304.826 230.077 306.14 228.042 306.861Z" fill="#201A4B"/>
<path d="M231.091 276.118C230.146 278.289 231.12 283.477 234.304 280.333C235.774 278.873 235.667 275.29 232.843 275.495C232.824 275.943 232.619 276.079 232.444 276.458" fill="#201A4B"/>
<path d="M255.072 281.531C252.424 283.604 258.11 287.118 259.054 283.818C259.736 281.423 255.938 280.645 255.072 281.531Z" fill="#201A4B"/>
<path d="M212.503 224.114C213.272 226.032 218.267 227.619 219.182 230.851C220.029 233.839 219.231 236.429 223.602 236.555C223.495 234.424 224.664 231.63 223.671 229.77C223.223 228.923 221.743 228.748 221.188 227.833C220.565 226.801 221.042 225.701 220.604 224.786C219.679 222.839 211.5 218.342 212.503 224.114Z" fill="#201A4B"/>
<path d="M339.018 373.272C244.575 373.272 168.019 296.727 168.019 202.298C168.019 138.759 202.709 83.348 254.156 53.8806C184.045 73.5742 132.617 137.922 132.617 214.321C132.617 306.374 207.256 381.001 299.323 381.001C317.335 381.001 334.656 378.11 350.906 372.824C346.982 373.097 343.02 373.272 339.018 373.272Z" fill="#201A4B"/>
<path d="M132.63 376.864L133.175 377.847C133.789 378.947 134.694 379.853 135.814 380.456L136.807 380.992L135.814 381.527C134.704 382.131 133.789 383.036 133.175 384.136L132.63 385.119L132.085 384.136C131.471 383.036 130.566 382.131 129.446 381.527L128.453 380.992L129.446 380.456C130.556 379.853 131.471 378.947 132.085 377.847L132.63 376.864Z" fill="#201A4B"/>
<path d="M161.985 74.8397L162.531 75.8229C163.144 76.923 164.05 77.8283 165.169 78.4319L166.162 78.9673L165.169 79.5027C164.059 80.1063 163.144 81.0116 162.531 82.1117L161.985 83.0949L161.44 82.1117C160.827 81.0116 159.921 80.1063 158.802 79.5027L157.809 78.9673L158.802 78.4319C159.912 77.8283 160.827 76.923 161.44 75.8229L161.985 74.8397Z" fill="#201A4B"/>
<path d="M497.127 193L498.052 194.694C499.094 196.592 500.661 198.159 502.56 199.201L504.254 200.126L502.56 201.051C500.661 202.092 499.094 203.66 498.052 205.558L497.127 207.252L496.202 205.558C495.16 203.66 493.593 202.092 491.694 201.051L490 200.126L491.694 199.201C493.593 198.159 495.16 196.592 496.202 194.694L497.127 193Z" fill="#201A4B"/>
<path d="M473.032 70.7122L473.578 71.6954C474.181 72.7954 475.096 73.7008 476.216 74.3043L477.209 74.8397L476.216 75.3752C475.106 75.9787 474.191 76.8841 473.578 77.9841L473.032 78.9673L472.487 77.9841C471.883 76.8841 470.968 75.9787 469.849 75.3752L468.855 74.8397L469.849 74.3043C470.959 73.7008 471.874 72.7954 472.487 71.6954L473.032 70.7122Z" fill="#201A4B"/>
<path d="M369.681 26L370.226 26.9832C370.83 28.0833 371.745 28.9886 372.865 29.5922L373.858 30.1276L372.865 30.663C371.755 31.2666 370.839 32.1719 370.226 33.2719L369.681 34.2552L369.136 33.2719C368.532 32.1719 367.617 31.2666 366.497 30.663L365.504 30.1276L366.497 29.5922C367.607 28.9886 368.522 28.0833 369.136 26.9832L369.681 26Z" fill="#201A4B"/>
<path d="M36.8828 293.806L37.8078 295.5C38.8496 297.398 40.4171 298.966 42.3157 300.007L44.0098 300.932L42.3157 301.857C40.4171 302.899 38.8496 304.466 37.8078 306.364L36.8828 308.058L35.9481 306.364C34.9064 304.466 33.3388 302.899 31.4402 301.857L29.7461 300.932L31.4402 300.007C33.3388 298.966 34.9064 297.398 35.9481 295.5L36.8828 293.806Z" fill="#201A4B"/>
<path d="M515.363 131.808C528.926 131.49 539.663 120.24 539.346 106.679C539.028 93.1188 527.776 82.383 514.214 82.7004C500.651 83.0178 489.914 94.2682 490.231 107.829C490.549 121.389 501.801 132.125 515.363 131.808Z" fill="#332B68"/>
<path d="M522.802 97.853C522.85 95.6432 524.691 93.8909 526.901 93.9396C529.111 93.9883 530.863 95.8281 530.815 98.038C530.766 100.248 528.926 102 526.716 101.951C524.496 101.903 522.753 100.073 522.802 97.853Z" fill="#0D0735"/>
<path d="M530.817 107.208C530.846 105.923 531.917 104.901 533.202 104.93C534.488 104.959 535.51 106.03 535.481 107.315C535.452 108.6 534.381 109.622 533.095 109.593C531.8 109.564 530.788 108.493 530.817 107.208Z" fill="#0D0735"/>
<path d="M527.693 114.363C528.17 114.373 528.54 114.772 528.53 115.239C528.521 115.716 528.121 116.086 527.654 116.077C527.177 116.067 526.807 115.668 526.817 115.2C526.826 114.723 527.216 114.353 527.693 114.363Z" fill="#0D0735"/>
<path d="M47.5149 172.354L48.0504 173.337C48.6541 174.437 49.5596 175.342 50.6598 175.946L51.6431 176.481L50.6598 177.017C49.5596 177.62 48.6541 178.526 48.0504 179.626L47.5149 180.609L46.9794 179.626C46.3758 178.526 45.4703 177.62 44.3701 177.017L43.3867 176.481L44.3701 175.946C45.4703 175.342 46.3758 174.437 46.9794 173.337L47.5149 172.354Z" fill="#455A64"/>
<path d="M241.492 115.931L242.027 116.914C242.631 118.014 243.536 118.919 244.636 119.523L245.62 120.058L244.636 120.594C243.536 121.197 242.631 122.102 242.027 123.202L241.492 124.186L240.956 123.202C240.352 122.102 239.447 121.197 238.347 120.594L237.363 120.058L238.347 119.523C239.447 118.919 240.352 118.014 240.956 116.914L241.492 115.931Z" fill="#455A64"/>
<path d="M173.384 91.8855L173.657 92.3722C173.959 92.9271 174.407 93.3749 174.962 93.6767L175.449 93.9493L174.962 94.2219C174.407 94.5236 173.959 94.9714 173.657 95.5263L173.384 96.0131L173.112 95.5263C172.81 94.9714 172.362 94.5236 171.807 94.2219L171.32 93.9493L171.807 93.6767C172.362 93.3749 172.81 92.9271 173.112 92.3722L173.384 91.8855Z" fill="#455A64"/>
<path d="M454.365 107.529L454.638 108.016C454.939 108.571 455.387 109.019 455.942 109.321L456.429 109.593L455.942 109.866C455.387 110.168 454.939 110.615 454.638 111.17L454.365 111.657L454.092 111.17C453.79 110.615 453.343 110.168 452.788 109.866L452.301 109.593L452.788 109.321C453.343 109.019 453.79 108.571 454.092 108.016L454.365 107.529Z" fill="#455A64"/>
<path d="M518.978 190.003L519.251 190.49C519.553 191.045 520.001 191.493 520.556 191.794L521.042 192.067L520.556 192.34C520.001 192.641 519.553 193.089 519.251 193.644L518.978 194.131L518.706 193.644C518.404 193.089 517.946 192.641 517.401 192.34L516.914 192.067L517.401 191.794C517.956 191.493 518.404 191.045 518.706 190.49L518.978 190.003Z" fill="#455A64"/>
<path d="M433.724 390.872L433.997 391.359C434.299 391.914 434.747 392.362 435.302 392.664L435.788 392.936L435.302 393.209C434.747 393.51 434.299 393.958 433.997 394.513L433.724 395L433.452 394.513C433.15 393.958 432.692 393.51 432.147 393.209L431.66 392.936L432.147 392.664C432.702 392.362 433.15 391.914 433.452 391.359L433.724 390.872Z" fill="#455A64"/>
<path d="M523.677 309.411L523.95 309.898C524.252 310.453 524.7 310.901 525.255 311.202L525.741 311.475L525.255 311.747C524.7 312.049 524.252 312.497 523.95 313.052L523.677 313.539L523.405 313.052C523.103 312.497 522.645 312.049 522.1 311.747L521.613 311.475L522.1 311.202C522.655 310.901 523.103 310.453 523.405 309.898L523.677 309.411Z" fill="#455A64"/>
<path d="M314.486 332.551L314.759 333.038C315.06 333.592 315.518 334.04 316.063 334.342L316.55 334.615L316.063 334.887C315.508 335.189 315.06 335.637 314.759 336.192L314.486 336.678L314.213 336.192C313.912 335.637 313.464 335.189 312.909 334.887L312.422 334.615L312.909 334.342C313.464 334.04 313.912 333.592 314.213 333.038L314.486 332.551Z" fill="#455A64"/>
<path d="M183.802 309.411L184.075 309.898C184.377 310.453 184.825 310.901 185.38 311.202L185.866 311.475L185.38 311.747C184.825 312.049 184.377 312.497 184.075 313.052L183.802 313.539L183.53 313.052C183.228 312.497 182.78 312.049 182.225 311.747L181.738 311.475L182.225 311.202C182.78 310.901 183.228 310.453 183.53 309.898L183.802 309.411Z" fill="#455A64"/>
<path d="M2.06411 187.842L2.33672 188.329C2.63855 188.884 3.08642 189.331 3.64139 189.633L4.12821 189.906L3.64139 190.178C3.08642 190.48 2.63855 190.928 2.33672 191.483L2.06411 191.97L1.79149 191.483C1.48966 190.928 1.04179 190.48 0.486817 190.178L0 189.906L0.486817 189.633C1.04179 189.331 1.48966 188.884 1.79149 188.329L2.06411 187.842Z" fill="#455A64"/>
<path d="M231.959 340.164L232.884 341.857C233.926 343.756 235.493 345.323 237.392 346.365L239.086 347.289L237.392 348.214C235.493 349.256 233.926 350.823 232.884 352.722L231.959 354.415L231.034 352.722C229.992 350.823 228.425 349.256 226.526 348.214L224.832 347.289L226.526 346.365C228.425 345.323 229.992 343.756 231.034 341.857L231.959 340.164Z" fill="#455A64"/>
<path d="M411.002 158.014L411.927 159.708C412.969 161.607 414.536 163.174 416.435 164.216L418.129 165.14L416.435 166.065C414.536 167.107 412.969 168.674 411.927 170.572L411.002 172.266L410.077 170.572C409.035 168.674 407.468 167.107 405.569 166.065L403.875 165.14L405.569 164.216C407.468 163.174 409.035 161.607 410.077 159.708L411.002 158.014Z" fill="#455A64"/>
</g>
<path d="M505.839 337.6C505.82 337.736 481.888 334.582 452.396 330.542C422.885 326.502 398.992 323.115 399.012 322.978C399.031 322.842 422.953 325.996 452.464 330.036C481.956 334.076 505.858 337.454 505.839 337.6Z" fill="#0D0735"/>
<path d="M162.213 126.519C162.194 126.655 143.149 123.423 119.685 119.296C96.2105 115.168 77.2149 111.712 77.2344 111.576C77.2539 111.44 96.2982 114.672 119.772 118.799C143.237 122.927 162.242 126.383 162.213 126.519Z" fill="#0D0735"/>
<path d="M109.15 107.332C109.121 107.468 97.2714 105.326 82.6766 102.542C68.0818 99.758 56.2716 97.3924 56.3008 97.2464C56.33 97.1101 68.1792 99.2518 82.774 102.036C97.3687 104.83 109.179 107.195 109.15 107.332Z" fill="#0D0735"/>
<path d="M528.204 349.039C528.184 349.175 516.296 347.549 501.663 345.398C487.019 343.246 475.18 341.397 475.199 341.26C475.219 341.124 487.097 342.75 501.741 344.901C516.374 347.043 528.223 348.893 528.204 349.039Z" fill="#0D0735"/>
<path d="M319.894 180.061C319.047 180.82 293.732 183.819 293.732 183.819L276.382 175.885L270.297 182.777C270.297 182.777 290.724 194.147 292.914 194.42C295.105 194.693 310.761 192.911 310.761 192.911L319.894 180.061Z" fill="#455A64"/>
<path d="M268.585 181.346L268.595 181.317C266.268 180.538 263.698 179.623 262.354 178.971C259.589 177.617 259.706 177.364 259.92 177.072C260.494 176.284 264.876 179.272 264.311 178.085C263.746 176.897 258.518 175.047 259.151 174.239C259.978 173.188 264.506 176.41 264.915 176.654C265.304 176.887 265.684 176.323 265.314 176.118C264.769 175.826 259.17 172.653 259.969 171.621C260.416 171.046 261.371 171.942 261.371 171.942C261.371 171.942 266.395 175.301 266.755 174.794C267.125 174.288 264.233 172.215 263.211 171.582C262.198 170.959 262.081 170.229 262.734 170.005C263.172 169.859 266.356 171.708 267.349 172.361C268.342 173.003 271.049 174.824 270.445 172.847C269.841 170.861 270.133 169.119 270.533 168.7C270.941 168.282 271.672 168.691 271.584 169.333C271.516 169.849 271.662 170.745 271.798 171.407C271.915 171.961 272.12 172.487 272.412 172.964C272.752 173.519 273.064 173.986 273.337 174.366C273.337 174.366 274.115 175.378 273.872 176.488C273.629 177.598 270.046 181.735 270.046 181.735L268.585 181.346Z" fill="#0D0735"/>
<path d="M276.131 176.294L270.922 182.826C270.591 183.244 269.997 183.361 269.529 183.098L269.49 183.079C268.897 182.748 268.741 181.959 269.169 181.424L274.417 174.921C274.738 174.532 275.274 174.405 275.731 174.61C276.374 174.911 276.569 175.739 276.131 176.294Z" fill="#0D0735"/>
<path d="M292.856 194.42C292.798 194.361 293.275 193.923 293.83 193.076C294.385 192.239 294.998 190.954 295.144 189.426C295.291 187.907 294.94 186.515 294.551 185.59C294.161 184.656 293.781 184.14 293.85 184.091C293.888 184.052 294.385 184.5 294.882 185.444C295.378 186.369 295.816 187.839 295.66 189.475C295.505 191.11 294.794 192.463 294.132 193.281C293.46 194.128 292.886 194.469 292.856 194.42Z" fill="#0D0735"/>
<path d="M272.306 180.703C272.325 180.674 272.646 180.82 273.211 181.122C273.873 181.482 274.662 181.91 275.587 182.417C277.709 183.575 280.416 185.055 283.415 186.69C286.443 188.287 289.179 189.718 291.311 190.847C292.246 191.334 293.034 191.762 293.706 192.113C294.271 192.414 294.573 192.599 294.553 192.629C294.534 192.658 294.203 192.541 293.619 192.288C293.025 192.035 292.187 191.655 291.155 191.168C289.081 190.195 286.258 188.783 283.181 187.138C280.104 185.493 277.369 183.916 275.412 182.728C274.428 182.134 273.649 181.648 273.114 181.297C272.568 180.947 272.286 180.742 272.306 180.703Z" fill="#0D0735"/>
<path d="M294.531 192.346C294.512 192.21 297.842 191.684 301.95 191.168C306.069 190.653 309.418 190.36 309.438 190.497C309.457 190.633 306.127 191.159 302.009 191.675C297.9 192.191 294.541 192.492 294.531 192.346Z" fill="#0D0735"/>
<path d="M265.051 182.037L264.33 182.261C263.327 182.582 262.256 182.027 261.935 181.025L258.732 170.969C258.411 169.966 258.965 168.895 259.968 168.574L260.689 168.35C261.692 168.029 262.763 168.584 263.084 169.586L266.287 179.642C266.609 180.645 266.054 181.716 265.051 182.037Z" fill="#455A64"/>
<path d="M335.639 196.659L342.572 197.817C345.531 198.314 348.433 196.659 349.514 193.855L356.417 176.04C357.867 172.292 355.511 168.165 351.548 167.503L350.653 167.357C344.178 166.276 337.83 169.898 335.454 176.011L330.771 188.121C329.32 191.869 331.677 195.997 335.639 196.659Z" fill="#0D0735"/>
<path d="M332.045 148.422C328.813 146.534 326.116 148.938 326.086 151.606C326.077 152.462 326.271 152.813 325.853 153.047C325.58 153.193 324.84 153.251 324.607 153.446C323.993 153.971 323.672 154.721 323.672 155.198C323.691 156.882 324.996 157.982 325.902 159.403" fill="#0D0735"/>
<path d="M335.416 148.598C333.946 148.101 332.194 148.569 331.171 149.737C330.792 150.165 330.5 150.71 330.548 151.275C330.607 151.956 331.142 152.521 331.765 152.794C332.388 153.066 333.089 153.095 333.771 153.086C334.735 153.076 335.796 152.969 336.439 152.258C337.072 151.567 337.091 150.438 336.614 149.63C336.127 148.822 335.231 148.316 334.307 148.15" fill="#0D0735"/>
<path d="M332.175 181.755C328.845 181.317 326.635 178.094 327.414 174.833C327.842 173.062 328.193 171.621 328.193 171.621C328.193 171.621 323.85 170.355 324.376 165.916C324.668 163.424 325.476 159.374 326.119 156.308C326.664 153.718 328.514 151.596 331.016 150.71C336.43 149.182 338.251 151.401 342.223 155.383L342.817 155.977L338.455 177.286C337.851 180.197 335.115 182.144 332.175 181.755Z" fill="#FFBE9D"/>
<path d="M326.997 159.248C327.289 159.043 327.367 158.644 327.162 158.342C326.958 158.05 326.558 157.972 326.257 158.177C325.965 158.381 325.887 158.78 326.091 159.082C326.305 159.374 326.704 159.452 326.997 159.248Z" fill="#0D0735"/>
<path d="M326.158 157.914C326.217 158.002 326.694 157.719 327.307 157.797C327.92 157.865 328.32 158.245 328.398 158.177C328.437 158.148 328.388 158.002 328.213 157.826C328.037 157.651 327.735 157.476 327.356 157.427C326.976 157.379 326.635 157.486 326.431 157.612C326.207 157.749 326.129 157.875 326.158 157.914Z" fill="#0D0735"/>
<path d="M332.661 159.355C332.33 159.501 332.184 159.88 332.33 160.211C332.476 160.542 332.856 160.688 333.187 160.542C333.518 160.396 333.664 160.017 333.518 159.686C333.372 159.355 332.982 159.209 332.661 159.355Z" fill="#0D0735"/>
<path d="M332.525 159.209C332.584 159.296 333.061 159.014 333.674 159.092C334.288 159.16 334.687 159.54 334.765 159.472C334.804 159.442 334.755 159.296 334.58 159.121C334.414 158.946 334.103 158.771 333.723 158.722C333.343 158.673 333.002 158.78 332.798 158.907C332.574 159.034 332.496 159.17 332.525 159.209Z" fill="#0D0735"/>
<path d="M329.537 164.125C329.547 164.076 329.177 163.95 328.573 163.784C328.417 163.745 328.291 163.697 328.291 163.609C328.271 163.512 328.359 163.346 328.466 163.171C328.68 162.791 328.885 162.402 329.108 161.993C330.004 160.319 330.666 158.917 330.579 158.868C330.491 158.819 329.693 160.143 328.797 161.827C328.583 162.236 328.378 162.626 328.174 163.015C328.086 163.19 327.95 163.395 327.999 163.667C328.028 163.804 328.135 163.92 328.242 163.959C328.339 164.008 328.437 164.018 328.505 164.027C329.138 164.135 329.527 164.174 329.537 164.125Z" fill="#0D0735"/>
<path d="M328.193 171.562C328.193 171.562 330.958 172.156 334.181 170.677C334.181 170.677 332.399 173.685 328.027 172.701L328.193 171.562Z" fill="#EB996E"/>
<path d="M341.689 160.591C341.786 160.572 345.35 160.893 344.123 164.154C343.062 166.977 340.102 165.459 340.121 165.361C340.141 165.264 341.689 160.591 341.689 160.591Z" fill="#FFBE9D"/>
<path d="M341.6 164.329C341.62 164.319 341.639 164.378 341.717 164.436C341.785 164.495 341.922 164.563 342.087 164.543C342.418 164.514 342.808 164.105 342.963 163.599C343.041 163.346 343.061 163.083 343.022 162.85C342.993 162.616 342.895 162.431 342.759 162.363C342.623 162.285 342.486 162.343 342.428 162.421C342.369 162.489 342.369 162.548 342.35 162.557C342.34 162.567 342.301 162.489 342.36 162.382C342.389 162.334 342.438 162.275 342.525 162.236C342.613 162.197 342.72 162.197 342.817 162.236C343.031 162.314 343.178 162.567 343.216 162.82C343.265 163.073 343.255 163.375 343.168 163.667C342.993 164.242 342.545 164.689 342.097 164.699C341.883 164.699 341.727 164.592 341.659 164.495C341.581 164.397 341.591 164.329 341.6 164.329Z" fill="#EB996E"/>
<path d="M338.504 160.358C338.426 160.679 338.591 161.01 338.805 161.253C339.02 161.497 339.302 161.691 339.526 161.925C339.876 162.305 340.1 162.801 340.139 163.317C340.159 163.541 340.139 163.774 340.207 163.989C340.276 164.203 340.451 164.407 340.685 164.407C341.045 164.407 341.201 163.969 341.249 163.619C341.483 162.149 341.726 160.679 341.96 159.209L338.406 157.661L338.62 160.153" fill="#0D0735"/>
<path d="M331.125 149.445C331.787 149.279 332.566 149.308 332.712 149.98C332.858 150.652 332.634 151.343 332.371 151.966C332.108 152.599 331.797 153.232 331.777 153.923C331.758 154.779 332.235 155.636 332.985 156.064C333.734 156.493 334.718 156.473 335.448 156.016C335.409 156.95 335.38 157.895 335.652 158.78C335.925 159.666 336.577 160.494 337.483 160.727C338.388 160.961 339.488 160.387 339.596 159.462C339.781 160.056 340.092 160.64 340.598 161C341.105 161.36 341.835 161.467 342.361 161.127C342.886 160.796 343.081 159.978 342.672 159.501C342.964 160.28 343.763 160.864 344.6 160.835C345.428 160.805 346.216 160.114 346.275 159.287C346.343 158.459 345.613 157.632 344.775 157.651C345.321 157.69 345.895 157.729 346.392 157.486C346.878 157.242 347.219 156.61 346.956 156.133C346.635 155.558 345.798 155.636 345.204 155.354C344.23 154.896 344.094 153.611 343.782 152.589C343.218 150.73 341.708 149.25 339.946 148.452C338.184 147.654 336.178 147.478 334.25 147.663C332.985 147.8 331.514 148.247 331.125 149.445Z" fill="#0D0735"/>
<path d="M328.425 157.009C328.25 157.262 327.85 157.301 327.48 157.213C327.111 157.116 326.779 156.902 326.741 156.59C326.702 156.288 327.169 155.987 327.753 156.133C328.337 156.269 328.6 156.756 328.425 157.009Z" fill="#0D0735"/>
<path d="M334.61 158.118C334.386 158.333 333.957 158.265 333.548 158.187C333.139 158.089 332.73 157.982 332.604 157.7C332.555 157.554 332.633 157.379 332.847 157.233C333.061 157.096 333.412 157.018 333.782 157.096C334.152 157.174 334.444 157.388 334.58 157.593C334.717 157.817 334.707 158.011 334.61 158.118Z" fill="#0D0735"/>
<path d="M332.077 164.427C332.175 164.446 331.941 165.176 331.181 165.624C330.422 166.082 329.672 165.926 329.692 165.828C329.692 165.721 330.344 165.692 330.987 165.303C331.649 164.923 331.99 164.378 332.077 164.427Z" fill="#0D0735"/>
<path d="M346.038 189.854C343.107 200.329 338.171 217.452 336.302 221.171L302.848 212.643L309.955 190.711C312.097 184.101 317.316 178.883 323.995 176.946C324.063 176.926 324.141 176.907 324.209 176.887C328.62 175.641 334.296 176.284 339.505 177.822C344.597 179.331 347.469 184.733 346.038 189.854Z" fill="#455A64"/>
<path d="M304.133 208.671C304.133 208.662 304.299 208.671 304.61 208.72C304.971 208.778 305.418 208.856 305.973 208.944C307.22 209.168 308.923 209.479 311.046 209.859C313.227 210.268 315.817 210.755 318.728 211.3C320.198 211.582 321.746 211.874 323.362 212.176C323.771 212.254 324.18 212.332 324.589 212.41C324.959 212.468 325.3 212.38 325.582 212.127C326.147 211.621 326.478 210.774 326.653 209.956L326.663 209.937V209.927C327.52 207.455 328.357 204.777 329.136 201.993C329.75 199.803 330.295 197.652 330.782 195.559C331.21 193.466 331.872 191.431 331.648 189.533C331.531 188.588 331.103 187.751 330.441 187.148C329.788 186.534 328.99 186.116 328.201 185.756C326.614 185.045 325.066 184.539 323.616 184.208C320.724 183.536 318.29 183.507 316.625 183.575C315.797 183.614 315.145 183.682 314.717 183.731C314.278 183.779 314.045 183.799 314.045 183.779C314.045 183.76 314.269 183.711 314.697 183.624C315.135 183.546 315.778 183.448 316.615 183.37C318.28 183.234 320.743 183.215 323.694 183.848C325.164 184.159 326.751 184.655 328.377 185.366C329.185 185.726 330.022 186.155 330.752 186.817C331.483 187.469 331.989 188.442 332.115 189.465C332.252 190.487 332.125 191.538 331.93 192.56C331.726 193.582 331.502 194.614 331.268 195.666C330.791 197.768 330.246 199.93 329.633 202.13C328.854 204.923 327.997 207.601 327.13 210.083L327.14 210.044C326.926 210.949 326.614 211.835 325.894 212.487C325.534 212.818 324.988 212.964 324.521 212.877C324.112 212.799 323.703 212.711 323.294 212.633C321.678 212.312 320.13 212.001 318.67 211.709C315.758 211.125 313.169 210.599 310.997 210.161C308.885 209.723 307.19 209.363 305.954 209.109C305.409 208.983 304.961 208.886 304.61 208.808C304.289 208.73 304.123 208.691 304.133 208.671Z" fill="#0D0735"/>
<g opacity="0.7">
<g opacity="0.7">
<g opacity="0.7">
<path opacity="0.7" d="M324.336 192.239C324.511 193.028 325.29 193.524 326.079 193.359C326.867 193.183 327.364 192.405 327.198 191.616C327.023 190.828 326.244 190.331 325.456 190.497C324.657 190.672 324.161 191.451 324.336 192.239Z" fill="white"/>
</g>
</g>
</g>
<g opacity="0.7">
<g opacity="0.7">
<g opacity="0.7">
<path opacity="0.7" d="M322.808 198.995C322.983 199.784 323.762 200.28 324.551 200.115C325.34 199.939 325.836 199.161 325.671 198.372C325.505 197.583 324.716 197.087 323.928 197.252C323.139 197.428 322.633 198.207 322.808 198.995Z" fill="white"/>
</g>
</g>
</g>
<g opacity="0.7">
<g opacity="0.7">
<g opacity="0.7">
<path opacity="0.7" d="M320.675 205.712C320.851 206.501 321.629 206.997 322.418 206.832C323.207 206.656 323.703 205.878 323.538 205.089C323.363 204.301 322.584 203.804 321.795 203.97C321.006 204.145 320.5 204.924 320.675 205.712Z" fill="white"/>
</g>
</g>
</g>
<path d="M314.153 189.358C314.192 189.221 316.022 189.504 318.252 189.981C320.481 190.458 322.273 190.964 322.244 191.1C322.224 191.236 320.384 190.964 318.145 190.477C315.905 189.99 314.123 189.494 314.153 189.358Z" fill="#0D0735"/>
<path d="M311.738 196.201C311.758 196.065 313.793 196.23 316.256 196.717C318.719 197.194 320.676 197.798 320.637 197.934C320.599 198.07 318.612 197.691 316.159 197.214C313.715 196.727 311.719 196.338 311.738 196.201Z" fill="#0D0735"/>
<path d="M310.91 203.405C310.94 203.269 312.604 203.493 314.63 203.901C316.655 204.31 318.281 204.758 318.252 204.894C318.222 205.031 316.557 204.807 314.532 204.398C312.507 203.989 310.891 203.551 310.91 203.405Z" fill="#0D0735"/>
<path d="M340.431 178.192C340.431 178.192 340.606 176.887 339.117 176.118C337.627 175.349 327.17 175.038 327.17 175.038C327.17 175.038 324.356 175.232 323.996 176.936L340.431 178.192Z" fill="#455A64"/>
<path d="M324.337 177.355C324.366 177.286 325.174 177.627 326.566 177.754C327.949 177.871 329.916 177.939 332.067 178.046C334.219 178.133 336.157 178.133 337.568 178.056C338.97 177.987 339.847 177.89 339.856 177.968C339.866 178.026 339.009 178.26 337.598 178.416C336.186 178.581 334.219 178.64 332.048 178.552C329.886 178.445 327.949 178.318 326.527 178.114C325.096 177.89 324.308 177.403 324.337 177.355Z" fill="#0D0735"/>
<path d="M336.72 178.153C336.594 178.085 336.779 177.549 336.682 176.917C336.613 176.274 336.302 175.807 336.409 175.709C336.487 175.593 337.09 176.021 337.188 176.848C337.295 177.676 336.828 178.24 336.72 178.153Z" fill="#0D0735"/>
<path d="M333.031 178.513C332.914 178.425 333.215 177.841 333.284 177.062C333.371 176.284 333.177 175.651 333.313 175.592C333.43 175.515 333.887 176.176 333.79 177.111C333.702 178.046 333.128 178.61 333.031 178.513Z" fill="#0D0735"/>
<path d="M328.942 177.9C328.805 177.919 328.64 177.218 328.912 176.401C329.175 175.583 329.73 175.115 329.828 175.203C329.935 175.291 329.623 175.836 329.399 176.556C329.156 177.267 329.088 177.9 328.942 177.9Z" fill="#0D0735"/>
<path d="M315.399 159.491C315.389 159.491 315.37 159.384 315.341 159.189C315.312 158.956 315.282 158.654 315.234 158.284C315.175 157.885 315.136 157.388 315.146 156.804C315.146 156.22 315.127 155.539 315.234 154.779C315.341 153.251 315.759 151.401 316.577 149.386C317.395 147.371 318.7 145.21 320.628 143.244C322.546 141.297 325.077 139.505 328.164 138.483C331.221 137.481 334.784 137.062 338.357 137.86C340.149 138.201 341.921 138.863 343.596 139.778C344.452 140.206 345.231 140.771 346.039 141.316C346.789 141.939 347.568 142.543 348.24 143.273C351.054 146.076 352.972 149.931 353.595 154.098C353.867 156.191 353.819 158.284 353.459 160.299C353.127 162.324 352.378 164.232 351.453 165.984C351.005 166.87 350.431 167.668 349.885 168.476C349.262 169.226 348.668 169.985 347.967 170.637C346.614 171.981 345.095 173.1 343.469 173.928C340.256 175.68 336.722 176.274 333.499 176.157C330.257 176.031 327.326 175.018 324.941 173.675C322.546 172.322 320.696 170.599 319.342 168.895C317.999 167.182 317.084 165.517 316.558 164.086C316.246 163.385 316.071 162.723 315.915 162.158C315.73 161.594 315.643 161.107 315.584 160.708C315.526 160.338 315.477 160.036 315.438 159.803C315.399 159.598 315.389 159.501 315.399 159.491C315.409 159.491 315.438 159.588 315.487 159.793C315.535 160.017 315.604 160.309 315.682 160.679C315.759 161.068 315.867 161.555 316.061 162.11C316.236 162.665 316.421 163.317 316.743 163.998C317.288 165.41 318.223 167.036 319.566 168.71C320.92 170.375 322.75 172.049 325.116 173.354C327.472 174.648 330.344 175.622 333.519 175.729C336.663 175.816 340.12 175.232 343.245 173.509C344.822 172.692 346.302 171.591 347.626 170.287C348.318 169.654 348.882 168.905 349.496 168.175C350.031 167.386 350.596 166.607 351.024 165.741C352.894 162.353 353.634 158.226 353.098 154.156C352.485 150.107 350.625 146.349 347.889 143.614C347.237 142.903 346.478 142.309 345.747 141.705C344.959 141.17 344.199 140.615 343.372 140.197C341.746 139.301 340.013 138.658 338.27 138.318C334.794 137.529 331.308 137.919 328.31 138.882C325.291 139.866 322.799 141.598 320.9 143.497C318.992 145.405 317.687 147.527 316.86 149.493C316.032 151.47 315.584 153.29 315.458 154.799C315.341 155.548 315.341 156.22 315.331 156.804C315.302 157.388 315.331 157.885 315.37 158.284C315.389 158.664 315.409 158.965 315.428 159.189C315.409 159.384 315.409 159.491 315.399 159.491Z" fill="#0D0735"/>
<path d="M321.183 149.338C321.135 149.308 321.553 148.423 322.517 147.177C323.472 145.93 325.049 144.363 327.103 143.098C329.167 141.832 331.27 141.131 332.809 140.839C334.357 140.537 335.34 140.567 335.34 140.625C335.35 140.713 334.386 140.81 332.887 141.19C331.387 141.569 329.372 142.299 327.366 143.536C325.36 144.772 323.803 146.252 322.79 147.42C321.777 148.569 321.252 149.386 321.183 149.338Z" fill="#455A64"/>
<path d="M320.267 152.531C320.131 152.54 319.995 152.024 320.18 151.421C320.365 150.817 320.764 150.467 320.871 150.554C320.988 150.642 320.813 151.061 320.657 151.567C320.501 152.083 320.413 152.531 320.267 152.531Z" fill="#455A64"/>
<path d="M401.047 213.675L407.979 214.834C410.939 215.33 413.84 213.675 414.921 210.872L421.824 193.057C423.275 189.309 420.918 185.181 416.956 184.519L416.06 184.373C409.585 183.293 403.237 186.914 400.862 193.028L396.169 205.128C394.728 208.886 397.084 213.013 401.047 213.675Z" fill="#455A64"/>
<path d="M526.792 242.393L533.87 253.053C531.767 265.669 522.556 275.93 510.23 279.376L469.055 290.892L441.19 290.97L85.2676 234.664L63.6042 226.915C53.1571 223.177 46.8869 212.497 48.7076 201.555L51.2878 186.087C51.687 183.711 53.5661 181.862 55.9515 181.502L57.6067 181.258C57.6067 181.258 61.2383 166.257 70.9357 164.203C106.561 154.867 158.806 157.972 215.141 164.125L252.587 152.511C270.161 147.06 288.348 144.11 306.624 143.652C308.026 145.453 309.486 147.176 310.596 148.792C310.742 149.007 310.888 149.231 311.034 149.454C292.36 149.25 273.939 151.869 255.488 157.739L217.867 172.107L407.735 197.116C407.327 191.889 411.864 187.625 417.043 188.491L461.548 195.899L467.916 202.169L516.52 212.702C520.823 213.588 530.783 220.246 526.792 242.393Z" fill="#0BCE91"/>
<path d="M255.486 157.729C271.98 152.492 288.444 149.893 305.083 149.532C302.825 152.589 307.44 155.617 307.508 156.133L305.59 158.06C291.764 158.157 278.104 160.26 264.415 164.602L238.107 174.648L217.855 172.088L255.486 157.729Z" fill="#0D0735"/>
<path d="M68.776 181.901L57.9297 180.09C58.7962 177.228 61.5029 169.664 66.8092 166.004L81.0827 168.379C83.7018 168.817 84.8507 171.942 83.1371 173.967L79.8754 177.822C77.159 181.044 72.9431 182.592 68.776 181.901Z" fill="#201A4B"/>
<path d="M70.1966 181.443C72.0562 176.829 74.4319 170.755 78.9788 168.029L81.0916 168.379C83.7106 168.817 84.8595 171.942 83.1459 173.967L79.8843 177.822C77.421 180.733 73.7309 182.261 69.9727 182.018C70.0408 181.823 70.1187 181.638 70.1966 181.443Z" fill="#201A4B"/>
<g opacity="0.7">
<g opacity="0.7">
<path opacity="0.7" d="M168.026 247.786C169.973 242.51 171.142 236.815 171.346 230.896C172.193 206.345 159.03 186.583 135.205 182.611C114.476 179.155 95.3441 189.533 88.1879 213.042C86.0459 220.071 85.228 227.489 85.6369 234.722L168.026 247.786Z" fill="black"/>
</g>
</g>
<g opacity="0.7">
<g opacity="0.7">
<path opacity="0.7" d="M469.053 290.892C469.15 289.997 469.218 289.082 469.345 288.137C473.541 257.618 456.318 233.427 432.065 229.387C409.914 225.698 388.884 240.719 385.204 262.866C384.074 269.622 382.779 275.959 382.73 281.703L441.188 290.97L469.053 290.892Z" fill="black"/>
</g>
</g>
<path d="M460.831 271.768C462.052 252.208 447.184 235.362 427.621 234.141C408.058 232.92 391.209 247.786 389.988 267.346C388.767 286.906 403.636 303.752 423.199 304.973C442.762 306.194 459.61 291.327 460.831 271.768Z" fill="#0D0735"/>
<path d="M390.395 263.644C390.385 263.673 390.375 263.703 390.375 263.732C387.152 283.065 400.219 301.338 419.555 304.56C438.891 307.782 457.166 294.718 460.389 275.385C460.399 275.355 460.399 275.326 460.399 275.297L390.395 263.644Z" fill="#0D0735"/>
<path d="M400.803 265.465C398.544 279.035 407.716 291.866 421.288 294.134C434.861 296.393 447.693 287.222 449.962 273.652C452.22 260.081 443.049 247.251 429.476 244.983C415.904 242.724 403.062 251.894 400.803 265.465Z" fill="#201A4B"/>
<path d="M429.476 244.992C415.904 242.734 403.071 251.904 400.812 265.475L449.962 273.662C452.22 260.082 443.049 247.251 429.476 244.992Z" fill="#201A4B"/>
<path d="M410.411 267.071C409.038 275.336 414.617 283.153 422.893 284.535C431.159 285.908 438.977 280.33 440.36 272.055C441.733 263.79 436.154 255.973 427.878 254.591C419.602 253.218 411.784 258.796 410.411 267.071Z" fill="#0D0735"/>
<path d="M164.502 230.832C167.395 211.451 154.026 193.394 134.641 190.502C115.257 187.609 97.1975 200.976 94.3046 220.357C91.4116 239.739 104.781 257.796 124.165 260.688C143.549 263.581 161.609 250.214 164.502 230.832Z" fill="#0D0735"/>
<path d="M94.4297 219.662C94.42 219.691 94.4103 219.721 94.4103 219.75C91.1875 239.083 104.254 257.355 123.59 260.578C142.926 263.8 161.202 250.736 164.424 231.402C164.434 231.373 164.434 231.344 164.434 231.315L94.4297 219.662Z" fill="#0D0735"/>
<path d="M104.838 221.492C102.579 235.063 111.751 247.893 125.323 250.162C138.896 252.42 151.728 243.25 153.997 229.679C156.256 216.109 147.084 203.279 133.512 201.01C119.939 198.752 107.097 207.922 104.838 221.492Z" fill="#201A4B"/>
<path d="M133.511 201.01C119.939 198.752 107.106 207.922 104.848 221.492L153.997 229.679C156.256 216.109 147.084 203.269 133.511 201.01Z" fill="#201A4B"/>
<path d="M114.446 223.089C113.073 231.354 118.652 239.171 126.928 240.553C135.194 241.926 143.012 236.348 144.395 228.073C145.768 219.808 140.189 211.991 131.913 210.609C123.637 209.236 115.819 214.824 114.446 223.089Z" fill="#0D0735"/>
<path d="M242.052 175.291L217.867 172.098L240.037 163.628L242.052 175.291Z" fill="#0BCE91"/>
<g opacity="0.3">
<g opacity="0.3">
<path opacity="0.3" d="M242.052 175.291L217.867 172.098L240.037 163.628L242.052 175.291Z" fill="black"/>
</g>
</g>
<path d="M251.33 180.129L241.331 178.464C239.88 178.221 239.13 175.466 239.656 172.312C240.124 169.489 241.477 167.24 242.83 167.026L253.803 165.293L251.33 180.129Z" fill="#0BCE91"/>
<g opacity="0.4">
<g opacity="0.4">
<path opacity="0.4" d="M62.7686 207.25C62.1163 211.174 59.6433 214.026 57.2579 213.627C54.8627 213.228 53.4607 209.723 54.113 205.81C54.7653 201.886 57.2384 199.034 59.6238 199.433C62.0092 199.823 63.421 203.327 62.7686 207.25Z" fill="black"/>
</g>
</g>
<path d="M526.79 242.393C526.79 242.413 526.557 242.393 526.109 242.345C525.612 242.286 524.96 242.208 524.162 242.121C522.468 241.907 520.024 241.585 516.996 241.254C513.968 240.904 510.356 240.544 506.344 240.261C502.333 240.018 497.893 239.823 493.278 240.203C490.98 240.427 488.741 240.768 486.667 241.42C484.583 242.053 482.714 243.016 480.981 244.029C477.466 245.985 474.691 248.341 472.218 250.132C469.765 251.953 467.603 253.209 466.026 253.871C465.237 254.202 464.604 254.426 464.176 254.542C463.738 254.669 463.514 254.718 463.504 254.708C463.485 254.649 464.4 254.416 465.948 253.695C467.486 252.985 469.589 251.7 472.014 249.85C474.448 248.03 477.223 245.635 480.757 243.63C482.49 242.598 484.408 241.605 486.531 240.952C488.653 240.281 490.922 239.93 493.249 239.706C497.912 239.317 502.362 239.531 506.393 239.804C510.424 240.115 514.036 240.505 517.054 240.904C520.082 241.283 522.526 241.653 524.21 241.926C525.009 242.062 525.651 242.169 526.148 242.247C526.557 242.325 526.79 242.374 526.79 242.393Z" fill="#0D0735"/>
<g opacity="0.5">
<g opacity="0.5">
<g opacity="0.5">
<path opacity="0.5" d="M467.829 291.35C467.829 291.35 467.985 291.272 468.297 291.136C468.608 291 469.056 290.785 469.611 290.445C470.711 289.753 472.259 288.498 473.545 286.366C474.869 284.263 475.774 281.274 476.018 277.75C476.242 274.226 476.047 270.167 475.463 265.757C474.849 261.347 473.739 256.558 471.821 251.68C469.893 246.823 467.128 241.877 463.321 237.39C459.524 232.912 454.676 228.872 448.892 226.136C443.119 223.381 436.546 221.843 429.76 221.541C422.974 221.22 416.305 221.989 410.103 223.586C403.91 225.202 398.176 227.82 393.599 231.51C388.965 235.151 385.528 239.687 382.928 244.214C380.319 248.76 378.528 253.335 377.155 257.57C376.483 259.692 375.908 261.737 375.431 263.693C374.935 265.64 374.536 267.49 374.351 269.252C373.932 272.756 374.623 275.901 376.142 277.877C377.603 279.912 379.462 280.788 380.718 281.07C382.003 281.323 382.704 281.138 382.704 281.187C382.704 281.187 382.539 281.216 382.198 281.255C381.857 281.284 381.351 281.274 380.699 281.167C379.414 280.914 377.496 280.048 375.986 277.994C374.399 275.998 373.669 272.766 374.068 269.223C374.244 267.441 374.633 265.572 375.12 263.615C375.587 261.659 376.152 259.595 376.814 257.463C378.167 253.199 379.949 248.594 382.558 244.009C383.873 241.722 385.382 239.444 387.154 237.253C388.926 235.073 390.99 233.009 393.307 231.15C397.942 227.402 403.735 224.744 409.976 223.109C416.227 221.493 422.935 220.714 429.78 221.035C436.615 221.337 443.265 222.894 449.097 225.688C454.948 228.473 459.846 232.561 463.672 237.088C467.508 241.624 470.283 246.618 472.211 251.525C474.129 256.441 475.219 261.269 475.813 265.699C476.378 270.138 476.553 274.207 476.3 277.76C476.037 281.313 475.083 284.341 473.72 286.463C472.386 288.605 470.799 289.861 469.67 290.523C468.521 291.184 467.829 291.35 467.829 291.35Z" fill="white"/>
</g>
</g>
</g>
<path d="M197.887 242.919C197.867 242.919 197.887 242.646 197.925 242.121C197.974 241.556 198.052 240.797 198.14 239.843C198.354 237.818 198.646 234.975 199.006 231.481C199.795 224.384 200.876 214.659 202.073 203.911C202.726 198.547 203.066 193.349 204.546 188.822C205.267 186.574 206.328 184.539 207.516 182.816C208.674 181.073 209.872 179.516 211.07 178.192C213.465 175.544 215.792 173.782 217.466 172.721C218.304 172.176 218.975 171.806 219.443 171.562C219.91 171.319 220.154 171.202 220.163 171.212C220.173 171.231 219.939 171.377 219.491 171.65C219.044 171.923 218.391 172.322 217.573 172.886C215.938 173.996 213.669 175.778 211.332 178.435C210.164 179.759 208.996 181.307 207.866 183.05C206.698 184.773 205.695 186.739 204.994 188.968C203.563 193.417 203.232 198.606 202.579 203.97C201.333 214.707 200.194 224.423 199.366 231.519C198.938 235.005 198.588 237.837 198.334 239.862C198.208 240.807 198.101 241.566 198.033 242.13C197.945 242.656 197.896 242.929 197.887 242.919Z" fill="#0D0735"/>
<path d="M181.805 240.271C181.805 240.271 181.999 240.281 182.379 240.329C182.778 240.378 183.343 240.456 184.064 240.553C185.563 240.767 187.754 241.079 190.548 241.468C196.195 242.286 204.344 243.474 214.392 244.934C234.537 247.913 262.334 252.031 293.042 256.567C305.339 258.407 317.179 260.169 328.025 261.785L327.792 261.882C334.091 252.625 339.349 243.591 343.448 235.228C345.482 231.033 347.196 226.993 348.53 223.157C349.864 219.312 350.837 215.671 351.636 212.361C353.233 205.722 353.934 200.329 354.235 196.63C354.391 194.78 354.44 193.349 354.459 192.375C354.459 191.908 354.469 191.538 354.469 191.275C354.469 191.032 354.479 190.906 354.479 190.906C354.479 190.906 354.498 191.032 354.518 191.275C354.528 191.519 354.547 191.889 354.547 192.375C354.557 193.349 354.537 194.78 354.401 196.639C354.148 200.348 353.495 205.761 351.938 212.429C351.159 215.759 350.214 219.409 348.88 223.274C347.556 227.139 345.852 231.198 343.827 235.413C339.748 243.824 334.51 252.868 328.2 262.165L328.113 262.291L327.967 262.272C317.12 260.656 305.281 258.904 292.984 257.073C262.285 252.469 234.498 248.312 214.353 245.294C204.305 243.766 196.176 242.529 190.528 241.663C187.734 241.225 185.553 240.884 184.054 240.651C183.324 240.534 182.769 240.436 182.369 240.378C181.999 240.31 181.805 240.271 181.805 240.271Z" fill="#0D0735"/>
<g opacity="0.3">
<g opacity="0.3">
<g opacity="0.3">
<path opacity="0.3" d="M251.33 180.129L241.331 178.464C239.88 178.221 239.13 175.466 239.656 172.312C240.124 169.489 241.477 167.24 242.83 167.026L253.803 165.293L251.33 180.129Z" fill="white"/>
</g>
</g>
</g>
<path d="M88.9372 213.15C88.8983 213.169 88.6062 212.614 88.0025 211.641C87.4086 210.667 86.4642 209.314 85.1011 207.805C82.4139 204.778 77.7794 201.361 71.957 199.209C66.125 197.058 60.4876 196.308 56.447 195.831C54.4219 195.598 52.7764 195.452 51.6373 195.335C50.4981 195.228 49.875 195.15 49.875 195.111C49.875 195.092 50.0308 195.092 50.3326 195.092C50.6929 195.101 51.131 195.121 51.647 195.13C52.7862 195.179 54.4414 195.277 56.4762 195.461C60.5363 195.841 66.2223 196.542 72.1226 198.723C78.0228 200.903 82.706 204.418 85.364 207.562C86.7076 209.119 87.6228 210.521 88.1681 211.534C88.4602 212.03 88.6257 212.449 88.762 212.712C88.8886 212.994 88.947 213.14 88.9372 213.15Z" fill="#0D0735"/>
<path d="M92.6886 187.002C92.6691 187.138 84.2861 185.863 73.985 184.15C63.6743 182.436 55.3399 180.927 55.3594 180.791C55.3789 180.655 63.7521 181.93 74.0629 183.653C84.3737 185.366 92.708 186.866 92.6886 187.002Z" fill="#0D0735"/>
<g opacity="0.5">
<g opacity="0.5">
<g opacity="0.5">
<path opacity="0.5" d="M180.848 246.034C180.848 246.034 180.858 245.869 180.897 245.547C180.936 245.207 181.004 244.739 181.072 244.136C181.16 243.513 181.248 242.744 181.326 241.838C181.423 240.933 181.511 239.882 181.569 238.694C181.871 233.963 181.812 227.032 180.245 218.679C179.466 214.503 178.268 209.996 176.574 205.313C174.88 200.631 172.728 195.705 169.642 191.032C166.585 186.35 162.33 182.115 157.111 178.971C151.922 175.787 145.885 173.607 139.537 172.487C136.344 171.962 133.16 171.747 130.005 171.738C126.86 171.806 123.764 172.088 120.765 172.624C117.786 173.217 114.855 173.909 112.11 174.95L111.078 175.31L110.075 175.729C109.403 176.011 108.741 176.284 108.079 176.566C107.436 176.878 106.794 177.199 106.161 177.51L105.207 177.978L104.292 178.503C99.4039 181.229 95.1978 184.597 91.829 188.267C88.431 191.918 85.7925 195.773 83.777 199.501C81.7616 203.23 80.3693 206.832 79.3957 210.044C78.9575 211.67 78.5291 213.179 78.276 214.6C77.9547 216.012 77.7892 217.316 77.6237 218.494C77.4192 219.662 77.4095 220.723 77.3121 221.629C77.2147 222.544 77.2245 223.313 77.205 223.936C77.1855 224.549 77.1758 225.017 77.166 225.357C77.1563 225.679 77.1368 225.844 77.1368 225.844C77.1368 225.844 77.1174 225.679 77.1174 225.357C77.1174 225.017 77.1076 224.54 77.1076 223.936C77.1076 223.313 77.0882 222.534 77.166 221.619C77.2439 220.704 77.2439 219.643 77.4289 218.465C77.5847 217.287 77.7308 215.963 78.0423 214.552C78.2857 213.121 78.7044 211.602 79.1328 209.957C80.0967 206.715 81.4598 203.084 83.4752 199.317C85.4809 195.559 88.1292 191.655 91.5369 187.966C94.9154 184.257 99.1507 180.849 104.077 178.085L105.002 177.559L105.956 177.082C106.599 176.771 107.242 176.449 107.894 176.128C108.566 175.846 109.228 175.563 109.909 175.281L110.922 174.853L111.964 174.483C114.729 173.432 117.679 172.731 120.688 172.127C123.716 171.582 126.841 171.3 130.015 171.231C133.189 171.231 136.412 171.455 139.634 171.991C146.051 173.12 152.146 175.32 157.384 178.552C162.661 181.726 166.974 186.038 170.051 190.779C173.157 195.51 175.299 200.465 176.983 205.177C178.668 209.898 179.855 214.435 180.615 218.621C182.143 227.012 182.143 233.973 181.783 238.714C181.413 243.454 180.848 246.034 180.848 246.034Z" fill="white"/>
</g>
</g>
</g>
<path d="M211.783 177.549C211.783 177.559 211.656 177.54 211.413 177.51C211.14 177.471 210.78 177.413 210.323 177.335C209.339 177.17 207.947 176.936 206.155 176.624C202.533 176.04 197.295 175.164 190.791 174.278C184.288 173.383 176.537 172.448 167.892 171.669C159.255 170.891 149.733 170.287 139.724 169.956C129.715 169.635 120.174 169.713 111.499 169.83C102.823 169.937 94.9857 169.83 88.4332 169.343C81.8806 168.856 76.6132 167.99 73.0302 167.211C71.229 166.841 69.8465 166.481 68.9215 166.218C68.4736 166.091 68.1231 165.994 67.8602 165.926C67.6266 165.858 67.5 165.819 67.5 165.809C67.5 165.799 67.6266 165.819 67.87 165.877C68.1329 165.936 68.4931 166.013 68.941 166.121C69.8757 166.344 71.268 166.675 73.0692 167.016C76.6619 167.727 81.9195 168.545 88.4624 168.983C95.0052 169.43 102.823 169.499 111.499 169.362C120.174 169.226 129.725 169.129 139.744 169.45C149.762 169.781 159.285 170.404 167.93 171.202C176.576 172.01 184.336 172.984 190.84 173.928C197.344 174.853 202.572 175.787 206.185 176.43C207.966 176.77 209.359 177.043 210.332 177.228C210.79 177.325 211.14 177.394 211.413 177.452C211.666 177.51 211.793 177.54 211.783 177.549Z" fill="#0D0735"/>
<path d="M374.661 269.31C374.642 269.446 364.097 267.811 351.109 265.65C338.121 263.489 327.615 261.62 327.645 261.483C327.664 261.347 338.209 262.982 351.197 265.144C364.175 267.314 374.681 269.174 374.661 269.31Z" fill="#0D0735"/>
<path d="M468.112 202.451C468.131 202.461 468.092 202.636 467.995 202.957C467.888 203.337 467.752 203.814 467.586 204.388C467.226 205.625 466.681 207.416 466.174 209.655C465.668 211.894 465.201 214.61 465.337 217.638C465.464 220.646 466.427 223.936 468.462 226.769C470.488 229.611 473.136 231.734 475.726 233.281C478.325 234.839 480.886 235.861 483.038 236.659C485.199 237.448 486.991 237.993 488.217 238.392C488.782 238.577 489.249 238.733 489.629 238.86C489.95 238.967 490.116 239.035 490.116 239.054C490.106 239.074 489.931 239.035 489.6 238.957C489.211 238.86 488.743 238.733 488.159 238.587C486.913 238.246 485.112 237.75 482.921 237C480.74 236.241 478.14 235.248 475.492 233.69C472.853 232.133 470.127 229.981 468.053 227.071C465.95 224.17 464.977 220.743 464.87 217.667C464.763 214.571 465.279 211.826 465.824 209.587C466.389 207.338 466.982 205.566 467.401 204.34C467.615 203.726 467.781 203.259 467.907 202.938C468.024 202.617 468.092 202.451 468.112 202.451Z" fill="#0D0735"/>
<path d="M527.53 237.827C526.965 240.329 524.151 239.619 521.065 238.197C516.167 235.939 513.938 230.001 516.421 225.211C516.44 225.182 516.45 225.153 516.469 225.123C518.027 222.193 521.143 220.149 524.463 220.256L525.154 220.334C525.164 220.324 529.263 230.176 527.53 237.827Z" fill="#201A4B"/>
<path d="M333.145 198.421C333.145 198.401 333.301 198.411 333.583 198.44C333.865 198.479 334.294 198.528 334.819 198.693C335.335 198.849 336.017 199.229 336.367 199.988C336.728 200.709 336.776 201.779 336.173 202.646C335.589 203.512 334.527 204.096 333.339 204.223C332.152 204.369 330.905 204.116 329.659 203.853C327.137 203.327 324.372 202.743 321.481 202.13C320.75 201.974 320.001 201.789 319.339 201.38C318.686 200.981 318.122 200.339 317.985 199.55C317.839 198.752 318.209 197.973 318.725 197.477C319.232 196.951 319.913 196.63 320.575 196.513C321.919 196.269 323.155 196.552 324.275 196.698C325.404 196.873 326.456 197.068 327.41 197.253C329.25 197.613 330.779 197.915 331.928 198.139C332.999 198.343 333.583 198.44 333.583 198.479C333.583 198.499 333.427 198.489 333.145 198.47C332.862 198.45 332.434 198.401 331.899 198.333C330.818 198.197 329.27 197.934 327.352 197.603C326.397 197.438 325.346 197.272 324.217 197.116C323.087 196.98 321.87 196.737 320.663 196.97C320.059 197.087 319.504 197.36 319.076 197.808C318.647 198.246 318.375 198.859 318.482 199.462C318.589 200.066 319.037 200.601 319.611 200.952C320.186 201.302 320.877 201.478 321.597 201.633C324.489 202.256 327.245 202.85 329.766 203.395C331.012 203.668 332.2 203.931 333.301 203.804C334.381 203.697 335.355 203.181 335.881 202.432C336.426 201.692 336.406 200.757 336.114 200.105C335.822 199.414 335.258 199.063 334.761 198.878C333.748 198.538 333.135 198.47 333.145 198.421Z" fill="#0D0735"/>
<path d="M359.559 194.945L341.547 188.696C337.73 187.518 336.124 187.372 335.754 184.471C336.289 179.856 338.227 177.832 341.625 178.494C341.489 177.686 360.883 184.12 369.052 186.866C371.301 187.625 373.083 189.348 373.92 191.568" fill="#455A64"/>
<path d="M359.61 194.994C359.561 194.984 359.639 194.06 360.291 192.726C360.924 191.412 362.248 189.698 364.293 188.657C366.347 187.625 368.509 187.576 369.94 187.858C371.4 188.141 372.189 188.637 372.16 188.676C372.13 188.764 371.303 188.394 369.881 188.209C368.489 188.024 366.444 188.131 364.517 189.104C362.589 190.078 361.294 191.655 360.603 192.882C359.902 194.137 359.697 195.014 359.61 194.994Z" fill="#0D0735"/>
<path d="M341.789 187.245C341.828 187.109 346.132 188.141 351.399 189.543C356.676 190.944 360.921 192.2 360.882 192.337C360.843 192.473 356.54 191.441 351.273 190.039C345.995 188.628 341.75 187.372 341.789 187.245Z" fill="#0D0735"/>
<g opacity="0.2">
<g opacity="0.2">
<g opacity="0.2">
<path opacity="0.2" d="M357.562 194.537C357.066 193.047 357.747 191.344 358.954 190.341C360.162 189.338 362.167 189.085 363.735 189.105C361.807 190.555 360.045 192.609 359.548 194.975L357.562 194.537Z" fill="black"/>
</g>
</g>
</g>
<path d="M349.268 208.672L349.248 208.643C347.233 210.064 344.955 211.602 343.621 212.293C340.875 213.724 340.739 213.481 340.632 213.13C340.33 212.196 345.373 210.434 344.069 210.181C342.764 209.928 338.149 213.052 337.876 212.059C337.516 210.765 342.832 209.022 343.27 208.837C343.699 208.662 343.465 208.02 343.076 208.204C342.521 208.467 336.601 211.115 336.241 209.85C336.036 209.149 337.331 208.905 337.331 208.905C337.331 208.905 343.046 206.842 342.861 206.248C342.667 205.644 339.269 206.744 338.149 207.202C337.039 207.65 336.377 207.299 336.591 206.647C336.737 206.199 340.135 204.739 341.245 204.32C342.365 203.902 345.451 202.802 343.484 202.101C341.518 201.41 340.272 200.134 340.174 199.55C340.077 198.966 340.846 198.625 341.313 199.073C341.683 199.433 342.501 199.852 343.124 200.134C343.64 200.368 344.186 200.524 344.75 200.572C345.403 200.631 345.967 200.65 346.444 200.66C346.444 200.66 347.73 200.631 348.479 201.487C349.229 202.344 350.446 207.718 350.446 207.718L349.268 208.672Z" fill="#0D0735"/>
<path d="M349.13 199.735L352.216 207.543C352.411 208.049 352.226 208.623 351.758 208.896L351.72 208.915C351.135 209.266 350.366 209.003 350.123 208.37L347.075 200.534C346.89 200.057 347.056 199.521 347.465 199.229C348.049 198.82 348.867 199.064 349.13 199.735Z" fill="#0D0735"/>
<path d="M348.723 199.131L351.614 207.387L370.98 200.144C374.154 198.956 375.673 195.345 374.3 192.249L372.859 189.601L348.723 199.131Z" fill="#455A64"/>
<path d="M350.192 203.317C350.172 203.239 351.574 202.84 353.804 202.062C356.033 201.293 359.071 200.115 362.401 198.742C365.731 197.36 368.749 196.094 370.949 195.247C372.05 194.819 372.955 194.488 373.578 194.283C374.211 194.069 374.562 193.972 374.571 194.011C374.581 194.04 374.25 194.206 373.646 194.468C372.936 194.78 372.079 195.15 371.076 195.578C368.905 196.513 365.916 197.827 362.576 199.209C359.237 200.592 356.16 201.721 353.891 202.402C352.762 202.753 351.827 202.996 351.185 203.142C350.562 203.288 350.201 203.347 350.192 203.317Z" fill="#0D0735"/>
<path d="M338.267 187.926C338.209 187.946 337.985 187.362 337.888 186.379C337.79 185.395 337.897 183.994 338.433 182.563C338.978 181.132 339.825 180.012 340.546 179.331C341.266 178.649 341.821 178.367 341.85 178.415C341.899 178.484 341.432 178.863 340.799 179.584C340.166 180.294 339.416 181.394 338.9 182.748C338.394 184.101 338.238 185.425 338.238 186.379C338.238 187.313 338.345 187.907 338.267 187.926Z" fill="#0D0735"/>
<path d="M329.893 178.241C329.99 178.357 328.725 179.516 327.361 181.122C325.989 182.719 325.025 184.14 324.898 184.062C324.781 183.994 325.57 182.427 326.972 180.791C328.374 179.156 329.815 178.133 329.893 178.241Z" fill="#0D0735"/>
<path d="M323.088 179.331C322.63 179.584 322.581 180.343 323.01 180.655C323.438 180.966 324.149 180.684 324.246 180.168C324.353 179.652 323.799 179.126 323.282 179.253" fill="#201A4B"/>
<path d="M321.783 181.102C321.325 181.355 321.277 182.115 321.705 182.426C322.134 182.738 322.844 182.455 322.942 181.94C323.049 181.424 322.494 180.898 321.978 181.024" fill="#201A4B"/>
<path d="M330.215 180.509C330.322 180.606 330.322 180.762 330.225 180.879C330.128 180.986 329.962 181.005 329.855 180.908C329.748 180.81 329.748 180.655 329.845 180.538C329.943 180.431 330.108 180.411 330.215 180.509Z" fill="#0D0735"/>
<path d="M328.522 183.098C328.619 183.205 328.629 183.342 328.56 183.41C328.483 183.478 328.346 183.449 328.259 183.342C328.161 183.234 328.152 183.098 328.22 183.03C328.288 182.962 328.424 182.991 328.522 183.098Z" fill="#0D0735"/>
<g opacity="0.5">
<path opacity="0.5" d="M269.431 178.922C269.431 178.922 237.953 211.904 237.953 230.156C237.953 230.156 247.173 223.245 251.954 222.982C251.954 222.982 240.709 232.483 239.891 255.253C239.891 255.253 260.872 217.482 285.486 207.318C285.486 207.318 267.221 211.884 262.781 214.503C262.781 214.503 287.034 189.796 302.32 183.312C302.32 183.322 277.833 180.051 269.431 178.922Z" fill="white"/>
</g>
<defs>
<clipPath id="clip0">
<rect width="582" height="447" fill="white"/>
</clipPath>
</defs>
</svg>
