<svg width="148" height="148" viewBox="0 0 148 148" fill="none" xmlns="http://www.w3.org/2000/svg">
<circle opacity="0.2" cx="74.7402" cy="74.74" r="55" stroke="#0BCE91"/>
<circle opacity="0.1" cx="74.0009" cy="74" r="64.62" stroke="#0BCE91"/>
<circle opacity="0.05" cx="74" cy="74" r="73.5" stroke="#0BCE91"/>
<path d="M74.266 117.452C98.117 117.452 117.452 98.1169 117.452 74.2659C117.452 50.415 98.117 31.08 74.266 31.08C50.4151 31.08 31.0801 50.415 31.0801 74.2659C31.0801 98.1169 50.4151 117.452 74.266 117.452Z" fill="#0BCE91"/>
<path d="M74.7289 110.977C94.7484 110.977 110.977 94.7479 110.977 74.7284C110.977 54.709 94.7484 38.48 74.7289 38.48C54.7094 38.48 38.4805 54.709 38.4805 74.7284C38.4805 94.7479 54.7094 110.977 74.7289 110.977Z" fill="#0E9979"/>
<path d="M80.1289 51.1324C67.4983 47.7488 54.5171 55.243 51.1335 67.8736C48.2406 78.6666 53.2921 89.7143 62.7051 94.8101C58.576 91.7142 56.2625 86.5963 56.8492 81.316C56.9377 80.1168 57.1628 78.9692 57.4727 77.8622C58.3288 75.4306 58.1443 75.0284 63.9449 67.4087C67.9005 62.2133 69.1735 58.1138 69.4908 55.3759C69.893 56.3242 72.2583 61.3535 74.6493 66.7814C74.9371 67.5858 75.0073 68.5489 74.749 69.7075C73.2878 76.3051 61.432 77.3272 67.8746 81.9691C74.7121 86.8952 74.0294 91.8839 68.9226 97.1273C70.3432 97.441 71.7638 97.6181 73.1734 97.6697C80.627 92.419 79.5422 86.231 72.7047 81.3086C66.2621 76.6593 78.0109 76.1981 79.4721 69.6005C79.7488 68.3459 79.4905 67.1504 78.9333 66.0471C83.1029 63.0288 86.7191 60.5159 87.2726 60.0805C86.1656 62.6044 85.2025 66.8072 86.0364 73.3273C87.1065 81.6813 86.9515 82.8879 86.5789 84.7772C86.28 86.1719 85.8409 87.5741 85.1841 88.9283C83.0476 93.7843 78.4905 97.0498 73.3763 97.666C84.0771 97.9576 93.9771 90.9135 96.8664 80.1242C100.254 67.4972 92.7595 54.5161 80.1289 51.1324ZM81.8816 58.6341L77.1954 62.1764L74.856 56.7522L74.8818 56.7596L74.856 56.7485L79.5422 53.2062L81.8816 58.6304L81.8521 58.6267L81.8816 58.6341Z" fill="#17113D"/>
</svg>
