<svg width="20" height="20" viewBox="0 0 20 20" fill="none" xmlns="http://www.w3.org/2000/svg">
<path d="M15.3198 6.66675H16.204C16.9207 6.66675 17.5007 7.24675 17.5007 7.96341V16.2042C17.5007 16.9201 16.9207 17.5001 16.204 17.5001H7.13065C6.41398 17.5001 5.83398 16.9201 5.83398 16.2034V15.0001" stroke="#686195" stroke-linecap="round" stroke-linejoin="round"/>
<path d="M3.33424 15.0002H12.7609C13.3184 15.0002 13.8384 14.7218 14.1476 14.2577L14.7592 13.3393C15.1242 12.7918 15.3192 12.1485 15.3192 11.4902V5.00016C15.3192 4.07933 14.5734 3.3335 13.6526 3.3335H5.31924C4.39841 3.3335 3.65258 4.07933 3.65258 5.00016V10.8802C3.65258 11.3977 3.53174 11.9077 3.30091 12.371L2.58924 13.7943C2.31174 14.3485 2.71508 15.0002 3.33424 15.0002V15.0002Z" stroke="#686195" stroke-linecap="round" stroke-linejoin="round"/>
<path d="M6.98242 2.50012V4.16679" stroke="#686195" stroke-linecap="round" stroke-linejoin="round"/>
<path d="M11.9824 2.50012V4.16679" stroke="#686195" stroke-linecap="round" stroke-linejoin="round"/>
<path d="M6.82617 7.50012H11.8262" stroke="#686195" stroke-linecap="round" stroke-linejoin="round"/>
<path d="M6.82617 10.8335H11.8262" stroke="#686195" stroke-linecap="round" stroke-linejoin="round"/>
</svg>
