<svg width="20" height="20" viewBox="0 0 20 20" fill="none" xmlns="http://www.w3.org/2000/svg">
<path d="M5 10.8334H10" stroke="#686195" stroke-linecap="round" stroke-linejoin="round"/>
<path d="M5 14.1668H10" stroke="#686195" stroke-linecap="round" stroke-linejoin="round"/>
<path d="M15.8312 4.81262C15.7279 4.81262 15.6437 4.89679 15.6445 5.00012C15.6445 5.10346 15.7287 5.18762 15.832 5.18762C15.9354 5.18762 16.0195 5.10346 16.0195 5.00012C16.0195 4.89679 15.9354 4.81262 15.8312 4.81262" stroke="#686195" stroke-linecap="round" stroke-linejoin="round"/>
<path d="M1.66602 15.8335C1.66602 16.7543 2.41185 17.5001 3.33268 17.5001H11.666C12.5868 17.5001 13.3327 16.7543 13.3327 15.8335V2.50012H3.33268C2.41185 2.50012 1.66602 3.24596 1.66602 4.16679V15.8335Z" stroke="#686195" stroke-linecap="round" stroke-linejoin="round"/>
<path d="M13.3327 2.50012H16.666C17.5868 2.50012 18.3327 3.24596 18.3327 4.16679V5.83346C18.3327 6.75429 17.5868 7.50012 16.666 7.50012H1.66602" stroke="#686195" stroke-linecap="round" stroke-linejoin="round"/>
</svg>
