<svg width="143" height="143" viewBox="0 0 143 143" fill="none" xmlns="http://www.w3.org/2000/svg">
<g clip-path="url(#clip0)">
<path d="M58.6899 79.396H84.3108" stroke="#332B68" stroke-width="3" stroke-linecap="round" stroke-linejoin="round" stroke-dasharray="10 10"/>
<path d="M47.6665 60.0312H95.3332" stroke="#332B68" stroke-width="3" stroke-linecap="round" stroke-linejoin="round" stroke-dasharray="10 10"/>
<path d="M58.6899 40.6665H84.3108" stroke="#332B68" stroke-width="3" stroke-linecap="round" stroke-linejoin="round" stroke-dasharray="10 10"/>
<path d="M125.124 60.2759C125.124 87.3207 101.005 109.027 71.4994 109.027C67.6801 109.027 63.9621 108.652 60.3633 107.96" stroke="#332B68" stroke-width="3" stroke-linecap="round" stroke-linejoin="round" stroke-dasharray="10 10"/>
<path d="M39.319 99.2136C26.3358 90.3357 17.875 76.2621 17.875 60.2759" stroke="#332B68" stroke-width="3" stroke-linecap="round" stroke-linejoin="round" stroke-dasharray="10 10"/>
<path d="M39.3186 99.2144C39.3126 104.303 39.3245 111.167 39.3245 118.37" stroke="#332B68" stroke-width="3" stroke-linecap="round" stroke-linejoin="round" stroke-dasharray="10 10"/>
<path d="M17.875 60.2749C17.875 33.23 41.9943 11.5298 71.5 11.5298C101.006 11.5298 125.125 33.236 125.125 60.2809" stroke="#332B68" stroke-width="3" stroke-linecap="round" stroke-linejoin="round" stroke-dasharray="10 10"/>
<path d="M60.3586 107.937L39.3257 118.364" stroke="#332B68" stroke-width="3" stroke-linecap="round" stroke-linejoin="round" stroke-dasharray="10 10"/>
</g>
<defs>
<clipPath id="clip0">
<rect width="143" height="143" fill="white"/>
</clipPath>
</defs>
</svg>
