<svg width="540" height="514" viewBox="0 0 540 514" fill="none" xmlns="http://www.w3.org/2000/svg">
<path d="M61.4561 94.0949C77.0666 94.0949 89.7214 81.4361 89.7214 65.8206C89.7214 50.2052 77.0666 37.5464 61.4561 37.5464C45.8455 37.5464 33.1907 50.2052 33.1907 65.8206C33.1907 81.4361 45.8455 94.0949 61.4561 94.0949Z" fill="#41397D"/>
<path d="M74.4502 66.6996C74.4502 66.7862 73.0394 66.8605 70.7004 66.91C68.3739 66.9719 65.1191 67.009 61.456 67.0214H61.1343V66.6996C61.1343 66.1177 61.1343 65.4988 61.1343 64.8674C61.1343 60.7699 61.1714 57.0685 61.2333 54.3822C61.2952 51.6959 61.3694 50.037 61.456 50.037C61.5427 50.037 61.6293 51.6959 61.6788 54.3822C61.7407 57.0685 61.7778 60.7699 61.7778 64.8674C61.7778 65.4988 61.7778 66.1177 61.7778 66.6996L61.456 66.3777C65.1191 66.3901 68.3739 66.4272 70.7004 66.4891C73.0394 66.5386 74.4502 66.6129 74.4502 66.6996Z" fill="#1C1544"/>
<path d="M61.5427 42.201C61.716 42.201 61.8645 43.2656 61.8645 44.5778C61.8645 45.89 61.716 46.9546 61.5427 46.9546C61.3695 46.9546 61.2209 45.89 61.2209 44.5778C61.2209 43.2656 61.3695 42.201 61.5427 42.201Z" fill="#1C1544"/>
<path d="M74.4254 46.0138C74.5492 46.1376 73.918 46.9794 73.0023 47.8954C72.0865 48.8115 71.245 49.4428 71.1212 49.3191C70.9974 49.1953 71.6286 48.3535 72.5444 47.4374C73.4601 46.5213 74.3017 45.89 74.4254 46.0138Z" fill="#1C1544"/>
<path d="M81.9496 54.2336C82.0362 54.3946 81.17 54.9888 80.0685 55.6572C78.9795 56.3257 78.0514 56.8085 77.94 56.6723C77.841 56.5362 78.6083 55.7934 79.7344 55.1126C80.8606 54.4317 81.8754 54.0851 81.9496 54.2336Z" fill="#1C1544"/>
<path d="M86.3678 66.452C86.3678 66.6253 84.9198 66.7738 83.1254 66.7738C81.331 66.7738 79.8831 66.6253 79.8831 66.452C79.8831 66.2786 81.331 66.1301 83.1254 66.1301C84.9198 66.1301 86.3678 66.2663 86.3678 66.452Z" fill="#1C1544"/>
<path d="M41.4699 66.0187C41.4699 66.192 40.0962 66.3406 38.4132 66.3406C36.7301 66.3406 35.3564 66.192 35.3564 66.0187C35.3564 65.8454 36.7301 65.6968 38.4132 65.6968C40.1086 65.6968 41.4699 65.8454 41.4699 66.0187Z" fill="#1C1544"/>
<path d="M44.6502 75.1051C44.7616 75.2412 43.7716 76.2316 42.4226 77.3086C41.0737 78.398 39.8981 79.1531 39.7991 79.0169C39.7001 78.8808 40.6901 77.8904 42.0266 76.8134C43.3508 75.7364 44.5265 74.9689 44.6502 75.1051Z" fill="#1C1544"/>
<path d="M52.4838 82.1365C52.6324 82.2479 51.9146 83.4611 51.0359 84.9342C50.1449 86.4074 49.4148 87.6081 49.2415 87.5339C49.0806 87.4596 49.5756 86.1102 50.479 84.6C51.3824 83.1021 52.3477 82.0375 52.4838 82.1365Z" fill="#1C1544"/>
<path d="M61.5427 91.2105C61.3695 91.2105 61.2209 89.7621 61.2209 87.9671C61.2209 86.1722 61.3695 84.7238 61.5427 84.7238C61.716 84.7238 61.8645 86.1722 61.8645 87.9671C61.8645 89.7621 61.7283 91.2105 61.5427 91.2105Z" fill="#1C1544"/>
<path d="M75.5022 86.8902C75.4031 87.0387 74.1037 86.3578 72.7424 85.1694C71.3811 83.981 70.5272 82.7802 70.6634 82.6688C70.7995 82.545 71.839 83.5354 73.1756 84.6866C74.4874 85.8379 75.6012 86.7416 75.5022 86.8902Z" fill="#1C1544"/>
<path d="M82.0487 79.834C81.925 79.9578 80.9226 79.1655 79.8088 78.0514C78.695 76.9372 77.8906 75.9345 78.0267 75.8107C78.1629 75.6869 79.1529 76.4792 80.2667 77.5933C81.3805 78.7075 82.1725 79.7102 82.0487 79.834Z" fill="#1C1544"/>
<path d="M44.3533 57.3161C44.2295 57.4398 43.3385 56.759 42.3608 55.781C41.3832 54.8031 40.7025 53.9118 40.8263 53.788C40.95 53.6642 41.8411 54.345 42.8187 55.323C43.7964 56.2886 44.477 57.1799 44.3533 57.3161Z" fill="#1C1544"/>
<path d="M52.4344 48.7991C52.3107 48.9229 51.432 48.2544 50.4791 47.3012C49.5262 46.348 48.8456 45.4815 48.9817 45.3453C49.1055 45.2215 49.9841 45.89 50.937 46.8432C51.8899 47.7964 52.5582 48.6629 52.4344 48.7991Z" fill="#1C1544"/>
<path d="M120.314 499.355C137.293 489.452 142.651 468.915 143.554 450.135C143.703 447.003 144.322 443.735 143.059 440.863C141.797 438.004 138.481 435.837 135.572 436.927C133.159 437.83 131.934 440.442 130.449 442.572C128.481 445.406 125.697 447.647 122.541 448.972C120.462 449.838 117.95 450.272 116.081 449.021C113.507 447.313 113.495 443.562 113.767 440.455C114.274 434.661 114.794 428.868 115.301 423.074C115.574 419.967 115.846 416.798 115.116 413.765C114.386 410.732 112.48 407.823 109.596 406.746C106.701 405.669 102.914 407.08 102.035 410.076C101.676 411.326 101.825 412.651 101.627 413.938C101.429 415.226 100.711 416.6 99.461 416.86C98.1863 417.12 97.023 416.142 96.1691 415.151C93.2238 411.747 91.3675 407.526 89.672 403.342C87.9642 399.157 86.3307 394.874 83.6947 391.21C81.0588 387.546 77.2595 384.5 72.8291 383.881C68.3988 383.262 63.4239 385.627 61.9512 389.898C60.4661 394.193 62.6566 398.848 65.144 402.624C68.8443 408.231 73.3365 413.282 78.4599 417.59C79.3881 418.37 80.3781 419.2 80.6628 420.388C81.1702 422.517 79.0292 424.411 76.9378 424.931C74.5617 425.513 72.0619 425.067 69.6115 425.154C67.1612 425.241 64.451 426.095 63.3496 428.311C61.815 431.381 64.2035 434.934 66.6291 437.335C71.505 442.138 77.1977 446.075 83.3853 448.935C85.6005 449.962 87.9519 450.89 89.6597 452.648C91.3675 454.406 88.0385 459.865 86.7514 461.958C85.452 464.062 86.7515 461.958 84.3878 461.314C82.0241 460.67 79.9945 459.197 77.7793 458.145C73.6459 456.176 68.1017 456.028 65.0574 459.494C63.065 461.772 62.6195 465.139 63.3001 468.11C63.9684 471.081 65.6143 473.718 67.384 476.181C73.5717 484.773 81.8013 491.965 91.4293 496.223C101.057 500.457 110.166 502.141 120.314 499.355Z" fill="#41397D"/>
<path d="M119.41 513.257C119.336 505.78 118.432 496.892 116.44 487.211C114.46 477.531 111.416 467.107 107.851 456.3C106.948 453.602 106.057 450.94 105.178 448.316C104.3 445.691 103.421 443.104 102.406 440.616C100.401 435.627 98.0996 430.997 95.773 426.652C93.4464 422.319 91.0827 418.283 88.8428 414.533C86.5905 410.782 84.4372 407.328 82.3333 404.258C78.1381 398.105 74.1903 393.562 71.344 390.542C69.9208 389.031 68.7823 387.892 68.0026 387.137C67.6314 386.778 67.3344 386.493 67.1116 386.283C66.9012 386.097 66.8022 385.998 66.7899 386.011C66.7775 386.023 66.8765 386.122 67.0621 386.333C67.2725 386.555 67.5571 386.852 67.916 387.236C68.6709 388.028 69.7847 389.18 71.1831 390.715C73.9676 393.772 77.8658 398.353 81.9992 404.505C84.0783 407.575 86.2068 411.042 88.4344 414.793C90.6496 418.556 93.0009 422.591 95.3027 426.924C97.6046 431.257 99.894 435.887 101.886 440.838C102.889 443.314 103.755 445.889 104.634 448.514C105.512 451.138 106.403 453.8 107.294 456.498C110.859 467.293 113.915 477.692 115.92 487.335C117.937 496.966 118.89 505.83 119.002 513.27" fill="#1C1544"/>
<path d="M102.245 440.579C102.283 440.591 102.431 440.121 102.654 439.279C102.889 438.437 103.186 437.199 103.533 435.664C104.226 432.606 105.042 428.348 105.921 423.644C106.8 418.94 107.678 414.706 108.408 411.673C108.767 410.15 109.077 408.925 109.299 408.071C109.522 407.216 109.621 406.746 109.584 406.734C109.547 406.721 109.374 407.179 109.089 408.009C108.804 408.838 108.433 410.051 108.012 411.561C107.171 414.582 106.23 418.828 105.352 423.532C104.498 428.175 103.718 432.371 103.137 435.577C102.864 437.026 102.629 438.239 102.443 439.217C102.283 440.096 102.208 440.566 102.245 440.579Z" fill="#1C1544"/>
<path d="M62.8916 429.833C62.8916 429.87 63.4485 429.982 64.4756 430.155C65.4904 430.328 66.9631 430.576 68.7823 430.935C72.4083 431.628 77.3832 432.767 82.8284 434.265C88.2612 435.775 93.1247 437.335 96.6145 438.573C98.3595 439.18 99.7579 439.712 100.736 440.071C101.701 440.43 102.245 440.616 102.258 440.579C102.27 440.541 101.763 440.281 100.81 439.861C99.8693 439.44 98.4832 438.845 96.7507 438.189C93.2979 436.852 88.4344 435.206 82.9769 433.696C77.5193 432.198 72.5073 431.121 68.8565 430.527C67.025 430.217 65.5399 430.031 64.5128 429.92C63.4732 429.821 62.904 429.784 62.8916 429.833Z" fill="#1C1544"/>
<path d="M116.007 486.431C116.019 486.444 116.13 486.283 116.316 485.961C116.539 485.59 116.799 485.132 117.12 484.574C117.814 483.361 118.766 481.591 119.917 479.375C122.219 474.956 125.214 468.741 128.419 461.846C131.624 454.951 134.557 448.724 136.76 444.255C137.837 442.089 138.728 440.306 139.396 438.982C139.681 438.4 139.916 437.929 140.102 437.546C140.262 437.211 140.337 437.038 140.312 437.026C140.3 437.013 140.188 437.174 140.003 437.496C139.78 437.867 139.52 438.326 139.198 438.883C138.505 440.096 137.552 441.866 136.401 444.082C134.1 448.501 131.105 454.716 127.899 461.611C124.694 468.506 121.761 474.733 119.558 479.202C118.482 481.368 117.591 483.151 116.922 484.475C116.638 485.057 116.403 485.528 116.217 485.911C116.069 486.246 115.994 486.431 116.007 486.431Z" fill="#1C1544"/>
<path d="M64.3026 464.953C64.2902 464.978 64.4758 465.065 64.81 465.213C65.2184 465.387 65.7134 465.597 66.3074 465.857C67.6934 466.439 69.5621 467.219 71.8392 468.172C76.5171 470.128 82.9399 472.888 90.031 475.971C97.1221 479.041 103.582 481.752 108.297 483.609C110.648 484.537 112.567 485.268 113.903 485.751C114.522 485.973 115.029 486.147 115.438 486.295C115.797 486.419 115.982 486.469 115.995 486.444C116.007 486.419 115.821 486.332 115.487 486.184C115.079 486.01 114.584 485.8 113.99 485.54C112.604 484.958 110.735 484.178 108.458 483.225C103.78 481.269 97.3572 478.509 90.2661 475.426C83.1751 472.356 76.7151 469.645 72.0001 467.788C69.6488 466.86 67.7306 466.129 66.394 465.647C65.7753 465.424 65.2679 465.25 64.8595 465.102C64.5006 464.99 64.315 464.929 64.3026 464.953Z" fill="#1C1544"/>
<path d="M484.373 458.987H476.799V512.762H484.373V458.987Z" fill="#1C1544"/>
<path d="M457.271 458.987H449.697V512.762H457.271V458.987Z" fill="#1C1544"/>
<path d="M389.243 458.987H381.669V512.762H389.243V458.987Z" fill="#1C1544"/>
<path d="M365.94 458.987H358.367V512.762H365.94V458.987Z" fill="#1C1544"/>
<path d="M383.043 366.563C383.043 366.563 362.364 360.584 356.176 369.212C349.988 377.84 349.333 460.967 349.333 460.967C349.333 460.967 389.379 461.698 390.122 460.967C390.852 460.249 383.043 366.563 383.043 366.563Z" fill="#2A2359"/>
<path d="M500.411 450.791L498.58 293.005C497.293 273.953 483.47 271.205 481.452 270.054C472.963 265.226 392.015 262.168 385.358 280.836C378.7 299.504 385.358 446.397 385.358 446.397L500.411 450.791Z" fill="#2A2359"/>
<path d="M500.362 446.397C500.362 446.397 479.967 416.315 456.008 415.325C432.05 414.334 380.395 415.325 380.395 415.325C380.395 415.325 357.5 416.191 355.904 444.565V461.301H500.362V446.397Z" fill="#2A2359"/>
<path d="M499.756 366.687C499.756 366.687 465.451 357.811 459.238 369.484C453.038 381.17 451.937 461.648 451.937 461.648C451.937 461.648 501.476 463.468 501.599 461.388C501.711 459.308 499.756 366.687 499.756 366.687Z" fill="#41397D"/>
<path d="M501.599 366.315C501.599 366.315 478.94 360.485 472.752 369.113C466.565 377.741 464.931 462.057 464.931 462.057C464.931 462.057 501.092 463.121 501.835 462.391C502.577 461.66 501.599 366.315 501.599 366.315Z" fill="#1C1544"/>
<path d="M483.94 364.31C483.927 364.31 483.915 364.174 483.878 363.914C483.853 363.617 483.816 363.233 483.779 362.738C483.705 361.661 483.593 360.15 483.445 358.219C483.185 354.245 482.801 348.588 482.331 341.594C481.886 334.562 481.353 326.206 480.772 316.934C480.487 312.292 480.178 307.427 479.868 302.376C479.497 297.338 479.509 292.04 478 286.939C477.22 284.414 476.044 282.025 474.324 280.106C472.641 278.15 470.673 276.491 468.57 275.142C464.362 272.418 459.734 270.698 455.204 269.844C452.939 269.398 450.7 269.286 448.484 269.2C446.282 269.113 444.153 269.026 442.086 268.952C437.953 268.816 434.104 268.742 430.59 268.717C423.56 268.667 417.88 268.804 413.957 269.039C412.002 269.15 410.48 269.262 409.44 269.361C408.957 269.398 408.561 269.435 408.264 269.46C408.004 269.472 407.868 269.485 407.856 269.472C407.856 269.46 407.992 269.435 408.252 269.398C408.549 269.361 408.933 269.299 409.415 269.237C410.442 269.088 411.965 268.94 413.92 268.791C417.843 268.494 423.536 268.271 430.577 268.271C434.092 268.271 437.953 268.321 442.086 268.432C444.153 268.507 446.294 268.581 448.497 268.655C450.687 268.742 452.989 268.841 455.291 269.286C459.894 270.141 464.597 271.861 468.891 274.634C471.032 276.021 473.05 277.704 474.782 279.722C476.564 281.703 477.789 284.191 478.581 286.778C480.128 292.015 480.091 297.338 480.462 302.364C480.759 307.415 481.044 312.28 481.329 316.922C481.861 326.194 482.343 334.55 482.752 341.594C483.135 348.588 483.445 354.258 483.655 358.232C483.742 360.163 483.816 361.685 483.866 362.762C483.878 363.258 483.89 363.641 483.903 363.938C483.965 364.174 483.952 364.31 483.94 364.31Z" fill="#1C1544"/>
<path d="M485.041 296.1C485.053 296.286 483.803 296.471 482.281 296.768C480.759 297.053 479.534 297.338 479.472 297.165C479.41 297.004 480.586 296.434 482.157 296.125C483.729 295.828 485.041 295.927 485.041 296.1Z" fill="#1C1544"/>
<path d="M488.135 299.851C488.098 300.037 486.279 299.851 484.039 299.665C481.799 299.467 479.967 299.343 479.967 299.17C479.967 298.997 481.811 298.836 484.088 299.034C486.378 299.207 488.172 299.678 488.135 299.851Z" fill="#1C1544"/>
<path d="M486.192 328.039C486.18 328.212 485.115 328.299 483.804 328.224C482.492 328.15 481.44 327.939 481.452 327.766C481.465 327.593 482.529 327.506 483.841 327.58C485.14 327.655 486.192 327.865 486.192 328.039Z" fill="#1C1544"/>
<path d="M450.712 317.244C450.774 317.355 449.623 317.467 448.893 318.853C448.559 319.509 448.361 320.462 448.732 321.329C449.078 322.208 450.118 322.802 451.232 322.777C452.345 322.765 453.36 322.134 453.682 321.242C454.028 320.351 453.793 319.41 453.434 318.766C452.667 317.405 451.516 317.33 451.578 317.219C451.578 317.194 451.838 317.145 452.296 317.293C452.741 317.429 453.348 317.826 453.83 318.531C454.288 319.237 454.635 320.314 454.239 321.453C453.868 322.616 452.568 323.421 451.244 323.421C449.92 323.458 448.596 322.691 448.187 321.552C447.754 320.425 448.076 319.336 448.509 318.618C448.967 317.887 449.561 317.479 450.006 317.33C450.44 317.182 450.699 317.219 450.712 317.244Z" fill="#1C1544"/>
<path d="M453.756 316.513C453.781 316.575 452.989 316.897 451.64 317.046C450.291 317.194 448.373 317.07 446.405 316.377C444.437 315.672 442.878 314.545 441.925 313.579C440.972 312.614 440.564 311.859 440.626 311.822C440.712 311.76 441.232 312.391 442.235 313.245C443.225 314.099 444.747 315.102 446.615 315.783C448.484 316.452 450.303 316.637 451.615 316.612C452.927 316.563 453.731 316.414 453.756 316.513Z" fill="#1C1544"/>
<path d="M446.071 337.199C445.984 337.212 445.687 336.32 445.353 334.822C445.044 333.337 444.66 331.158 445.192 328.794C445.749 326.404 447.358 324.659 448.781 323.953C450.229 323.223 451.268 323.458 451.244 323.508C451.256 323.631 450.266 323.582 449.004 324.349C447.754 325.092 446.343 326.751 445.823 328.93C445.328 331.133 445.601 333.25 445.799 334.736C446.021 336.234 446.17 337.174 446.071 337.199Z" fill="#1C1544"/>
<path d="M460.439 330.341C460.426 330.415 459.721 330.341 458.694 329.858C457.679 329.388 456.392 328.422 455.402 326.986C454.424 325.55 453.979 324.003 453.904 322.889C453.818 321.762 454.003 321.081 454.078 321.094C454.189 321.106 454.164 321.787 454.362 322.827C454.548 323.879 455.031 325.29 455.946 326.627C456.874 327.964 458.013 328.905 458.929 329.462C459.82 330.019 460.463 330.242 460.439 330.341Z" fill="#1C1544"/>
<path d="M412.509 317.244C412.571 317.355 411.42 317.467 410.69 318.853C410.355 319.509 410.157 320.462 410.529 321.329C410.875 322.208 411.915 322.802 413.029 322.777C414.142 322.765 415.157 322.134 415.479 321.242C415.825 320.351 415.59 319.41 415.231 318.766C414.464 317.405 413.313 317.33 413.375 317.219C413.375 317.194 413.635 317.145 414.093 317.293C414.538 317.429 415.157 317.826 415.627 318.531C416.085 319.237 416.432 320.314 416.036 321.453C415.664 322.616 414.365 323.421 413.041 323.421C411.717 323.458 410.393 322.691 409.984 321.552C409.551 320.425 409.873 319.336 410.306 318.618C410.764 317.887 411.358 317.479 411.803 317.33C412.249 317.182 412.509 317.219 412.509 317.244Z" fill="#1C1544"/>
<path d="M415.566 316.513C415.59 316.575 414.798 316.897 413.449 317.046C412.1 317.194 410.182 317.07 408.215 316.377C406.247 315.672 404.688 314.545 403.735 313.579C402.782 312.614 402.373 311.859 402.435 311.822C402.522 311.76 403.042 312.391 404.044 313.245C405.034 314.099 406.556 315.102 408.425 315.783C410.306 316.452 412.113 316.637 413.425 316.612C414.724 316.563 415.541 316.414 415.566 316.513Z" fill="#1C1544"/>
<path d="M407.88 337.199C407.794 337.212 407.497 336.32 407.163 334.822C406.853 333.337 406.47 331.158 407.002 328.794C407.559 326.404 409.167 324.659 410.591 323.953C412.038 323.223 413.078 323.458 413.053 323.508C413.066 323.631 412.076 323.582 410.813 324.349C409.563 325.092 408.153 326.751 407.633 328.93C407.138 331.133 407.422 333.25 407.608 334.736C407.831 336.234 407.967 337.174 407.88 337.199Z" fill="#1C1544"/>
<path d="M422.236 330.341C422.224 330.415 421.518 330.341 420.491 329.858C419.476 329.388 418.189 328.422 417.199 326.986C416.222 325.55 415.776 324.003 415.702 322.889C415.615 321.762 415.801 321.081 415.875 321.094C415.986 321.106 415.962 321.787 416.16 322.827C416.345 323.879 416.828 325.29 417.744 326.627C418.672 327.964 419.81 328.905 420.726 329.462C421.63 330.019 422.273 330.242 422.236 330.341Z" fill="#1C1544"/>
<path d="M383.81 363.951C383.86 363.951 383.872 364.669 383.847 365.969C383.823 367.38 383.785 369.237 383.736 371.465C383.625 376.107 383.488 382.52 383.402 389.613C383.315 396.706 383.29 403.119 383.29 407.761C383.278 410.002 383.266 411.846 383.266 413.257C383.253 414.557 383.216 415.275 383.179 415.275C383.142 415.275 383.08 414.557 383.018 413.257C382.956 411.958 382.894 410.076 382.845 407.761C382.734 403.119 382.684 396.694 382.771 389.601C382.857 382.507 383.08 376.095 383.29 371.453C383.402 369.125 383.513 367.256 383.6 365.956C383.686 364.669 383.761 363.951 383.81 363.951Z" fill="#1C1544"/>
<path d="M454.994 415.548C454.994 415.56 454.882 415.572 454.647 415.572C454.387 415.585 454.053 415.585 453.645 415.597C452.717 415.61 451.43 415.61 449.796 415.622C446.393 415.622 441.566 415.622 435.626 415.61C429.624 415.585 422.508 415.548 414.6 415.51C410.64 415.486 406.495 415.461 402.188 415.436C397.881 415.411 393.426 415.411 388.897 415.783C384.367 416.154 379.974 416.934 375.915 418.308C371.868 419.682 368.18 421.638 365.136 424.114C363.614 425.352 362.253 426.701 361.102 428.15C360.52 428.88 359.988 429.61 359.518 430.378C359.01 431.133 358.577 431.901 358.169 432.668C356.498 435.738 355.533 438.895 354.926 441.792C353.738 447.635 353.986 452.537 354.221 455.855C354.345 457.526 354.493 458.813 354.605 459.68C354.654 460.088 354.691 460.41 354.716 460.67C354.741 460.893 354.741 461.017 354.728 461.017C354.716 461.017 354.691 460.905 354.642 460.682C354.592 460.423 354.53 460.101 354.468 459.692C354.32 458.826 354.122 457.538 353.961 455.867C353.639 452.549 353.33 447.622 354.468 441.693C355.062 438.746 356.015 435.54 357.686 432.408C358.094 431.616 358.54 430.836 359.047 430.069C359.518 429.289 360.074 428.521 360.656 427.778C361.832 426.293 363.218 424.894 364.765 423.631C367.859 421.094 371.621 419.1 375.717 417.689C379.826 416.278 384.281 415.486 388.847 415.114C393.414 414.731 397.894 414.743 402.2 414.768C406.507 414.805 410.653 414.842 414.613 414.879C422.508 414.966 429.637 415.052 435.639 415.114C441.591 415.201 446.418 415.275 449.808 415.325C451.442 415.362 452.729 415.399 453.657 415.411C454.066 415.424 454.4 415.436 454.66 415.449C454.882 415.523 454.994 415.535 454.994 415.548Z" fill="#1C1544"/>
<path d="M179.406 278.199C179.406 278.373 171.324 278.521 161.375 278.521C151.412 278.521 143.344 278.373 143.344 278.199C143.344 278.026 151.412 277.878 161.375 277.878C171.337 277.878 179.406 278.026 179.406 278.199Z" fill="#201A4B"/>
<path d="M178.75 282.842C178.75 283.015 170.817 283.164 161.041 283.164C151.264 283.164 143.332 283.015 143.332 282.842C143.332 282.668 151.264 282.52 161.041 282.52C170.83 282.52 178.75 282.668 178.75 282.842Z" fill="#201A4B"/>
<path d="M178.75 287.484C178.75 287.657 170.817 287.806 161.041 287.806C151.264 287.806 143.332 287.657 143.332 287.484C143.332 287.311 151.264 287.162 161.041 287.162C170.83 287.162 178.75 287.311 178.75 287.484Z" fill="#201A4B"/>
<path d="M178.75 292.126C178.75 292.299 170.817 292.448 161.041 292.448C151.264 292.448 143.332 292.299 143.332 292.126C143.332 291.953 151.264 291.804 161.041 291.804C170.83 291.804 178.75 291.953 178.75 292.126Z" fill="#201A4B"/>
<path d="M178.75 296.768C178.75 296.942 170.817 297.09 161.041 297.09C151.264 297.09 143.332 296.942 143.332 296.768C143.332 296.595 151.264 296.447 161.041 296.447C170.83 296.447 178.75 296.595 178.75 296.768Z" fill="#201A4B"/>
<path d="M160.608 301.411C160.608 301.584 156.746 301.732 151.97 301.732C147.205 301.732 143.332 301.584 143.332 301.411C143.332 301.237 147.193 301.089 151.97 301.089C156.746 301.089 160.608 301.237 160.608 301.411Z" fill="#201A4B"/>
<path d="M170.706 273.124C170.706 273.297 164.555 273.446 156.969 273.446C149.383 273.446 143.232 273.297 143.232 273.124C143.232 272.951 149.383 272.802 156.969 272.802C164.555 272.802 170.706 272.951 170.706 273.124Z" fill="#0BCE91"/>
<path d="M188.96 312.998C188.96 312.998 188.935 312.651 188.935 312.007C188.923 311.339 188.923 310.398 188.898 309.197C188.885 306.721 188.861 303.131 188.824 298.588C188.786 289.465 188.737 276.454 188.687 260.831L188.96 261.104C172.5 261.116 152.923 261.128 131.946 261.153C131.872 261.215 132.553 260.547 132.268 260.844V260.856V260.881V260.93V261.042V261.265V261.71V262.602V264.372C132.268 265.548 132.268 266.724 132.268 267.888C132.268 270.227 132.268 272.542 132.268 274.832C132.268 279.425 132.268 283.906 132.256 288.289C132.243 297.041 132.231 305.335 132.231 312.985L131.946 312.701C148.938 312.762 163.145 312.812 173.144 312.849C178.131 312.886 182.067 312.911 184.789 312.923C186.113 312.936 187.153 312.948 187.883 312.961C188.217 312.973 188.477 312.973 188.687 312.973C188.861 312.985 188.96 312.985 188.96 312.998C188.96 312.998 188.885 313.01 188.712 313.01C188.514 313.01 188.267 313.022 187.945 313.022C187.227 313.035 186.212 313.047 184.913 313.06C182.203 313.072 178.292 313.097 173.342 313.134C163.293 313.171 149.024 313.22 131.959 313.282H131.674V312.998C131.662 305.347 131.649 297.066 131.649 288.301C131.649 283.919 131.649 279.425 131.637 274.845C131.637 272.555 131.637 270.24 131.637 267.9C131.637 266.736 131.637 265.56 131.637 264.384V262.614V261.723V261.277V261.054V260.943V260.893V260.869V260.856C131.352 261.141 132.033 260.448 131.959 260.522C152.923 260.534 172.513 260.559 188.972 260.571H189.244V260.844C189.182 276.541 189.133 289.601 189.108 298.774C189.083 303.292 189.059 306.858 189.034 309.321C189.022 310.509 189.009 311.425 188.997 312.082C188.984 312.688 188.96 312.998 188.96 312.998Z" fill="#201A4B"/>
<path d="M153.69 119.745L181.101 119.571C181.052 111.5 177.859 103.268 172.29 96.9545C165.719 89.5146 155.843 84.7609 143.901 86.0607C142.601 86.1969 141.265 86.4074 139.916 86.7045C139.879 86.7168 139.854 86.7168 139.817 86.7168L147.242 119.745H153.69Z" fill="#0BCE91"/>
<path d="M162.13 153.788C171.77 149.17 179.492 140.072 180.792 127.123C180.829 126.776 180.854 126.43 180.878 126.071C180.891 125.848 180.916 125.625 180.928 125.402C180.965 124.746 180.977 124.09 180.99 123.409C180.99 123.384 180.99 123.347 180.99 123.322C180.99 123.298 180.99 123.273 180.99 123.236L153.578 123.421L147.143 123.459L139.941 156.499L139.928 156.536C142.242 157.044 144.631 157.279 147.032 157.266C152.167 157.254 157.378 156.066 162.13 153.788Z" fill="#9DEBD3"/>
<path d="M143.827 121.515L136.401 88.4871C121.279 91.8666 109.98 105.372 109.98 121.515C109.98 137.744 121.39 151.3 136.624 154.605L143.827 121.565" fill="#116C65"/>
<path d="M69.5249 267.293H62.1121V323.285H69.5249V267.293Z" fill="#0BCE91"/>
<path d="M58.1026 290.864H50.6897V323.297H58.1026V290.864Z" fill="#2A2359"/>
<path d="M46.68 285.8H39.2671V323.285H46.68V285.8Z" fill="#0BCE91"/>
<path d="M35.2451 308.182H27.8323V323.297H35.2451V308.182Z" fill="#2A2359"/>
<path d="M92.3823 255.063H84.9695V323.285H92.3823V255.063Z" fill="#0BCE91"/>
<path d="M80.9597 261.302H73.5469V323.297H80.9597V261.302Z" fill="#2A2359"/>
<path d="M115.24 248.316H107.827V323.297H115.24V248.316Z" fill="#0BCE91"/>
<path d="M103.805 233.51H96.3918V323.297H103.805V233.51Z" fill="#2A2359"/>
<path d="M35.0594 330.316C35.0594 330.49 33.5868 330.638 31.78 330.638C29.9732 330.638 28.5005 330.49 28.5005 330.316C28.5005 330.143 29.9732 329.994 31.78 329.994C33.5991 329.994 35.0594 330.143 35.0594 330.316Z" fill="#201A4B"/>
<path d="M46.3212 330.316C46.3212 330.49 44.8485 330.638 43.0417 330.638C41.2349 330.638 39.7622 330.49 39.7622 330.316C39.7622 330.143 41.2349 329.994 43.0417 329.994C44.8609 329.994 46.3212 330.143 46.3212 330.316Z" fill="#201A4B"/>
<path d="M57.5951 330.316C57.5951 330.49 56.1224 330.638 54.3156 330.638C52.5088 330.638 51.0361 330.49 51.0361 330.316C51.0361 330.143 52.5088 329.994 54.3156 329.994C56.1224 329.994 57.5951 330.143 57.5951 330.316Z" fill="#201A4B"/>
<path d="M68.8566 330.316C68.8566 330.49 67.3839 330.638 65.5771 330.638C63.7703 330.638 62.2976 330.49 62.2976 330.316C62.2976 330.143 63.7703 329.994 65.5771 329.994C67.3839 329.994 68.8566 330.143 68.8566 330.316Z" fill="#201A4B"/>
<path d="M80.1183 330.316C80.1183 330.49 78.6456 330.638 76.8388 330.638C75.032 330.638 73.5593 330.49 73.5593 330.316C73.5593 330.143 75.032 329.994 76.8388 329.994C78.6456 329.994 80.1183 330.143 80.1183 330.316Z" fill="#201A4B"/>
<path d="M91.38 330.316C91.38 330.49 89.9073 330.638 88.1005 330.638C86.2937 330.638 84.821 330.49 84.821 330.316C84.821 330.143 86.2937 329.994 88.1005 329.994C89.9197 329.994 91.38 330.143 91.38 330.316Z" fill="#201A4B"/>
<path d="M102.641 330.316C102.641 330.49 101.169 330.638 99.362 330.638C97.5552 330.638 96.0825 330.49 96.0825 330.316C96.0825 330.143 97.5552 329.994 99.362 329.994C101.181 329.994 102.641 330.143 102.641 330.316Z" fill="#201A4B"/>
<path d="M113.915 330.316C113.915 330.49 112.443 330.638 110.636 330.638C108.829 330.638 107.356 330.49 107.356 330.316C107.356 330.143 108.829 329.994 110.636 329.994C112.443 329.994 113.915 330.143 113.915 330.316Z" fill="#201A4B"/>
<path d="M117.851 336.914C117.851 337.088 109.794 337.236 99.8693 337.236C89.9319 337.236 81.8755 337.088 81.8755 336.914C81.8755 336.741 89.9319 336.593 99.8693 336.593C109.807 336.593 117.851 336.741 117.851 336.914Z" fill="#201A4B"/>
<path d="M96.3919 340.702C96.3919 340.876 93.5704 341.024 90.0805 341.024C86.5906 341.024 83.769 340.876 83.769 340.702C83.769 340.529 86.5906 340.381 90.0805 340.381C93.5704 340.381 96.3919 340.529 96.3919 340.702Z" fill="#201A4B"/>
<path d="M97.2581 230.255C97.2581 230.23 97.6417 230.193 98.2852 230.453C98.9164 230.7 99.7579 231.356 100.265 232.508C100.513 233.077 100.674 233.77 100.587 234.513C100.5 235.256 100.166 236.036 99.5599 236.63C98.409 237.818 96.3176 238.437 94.5231 237.509C92.7658 236.543 92.0728 234.501 92.3203 232.879C92.4317 232.05 92.8153 231.307 93.298 230.75C93.793 230.205 94.387 229.834 94.9563 229.586C96.1072 229.116 97.1467 229.165 97.8026 229.339C98.4585 229.512 98.7679 229.735 98.7555 229.759C98.7308 229.809 98.3966 229.66 97.7531 229.574C97.122 229.487 96.169 229.512 95.1419 229.995C94.1395 230.453 93.0752 231.48 92.9143 232.941C92.7163 234.352 93.3722 236.122 94.8325 236.927C96.3052 237.695 98.1491 237.199 99.1515 236.197C100.228 235.182 100.265 233.684 99.8445 232.669C99.4362 231.616 98.7184 230.973 98.1739 230.675C97.617 230.366 97.2457 230.317 97.2581 230.255Z" fill="#201A4B"/>
<path d="M103.112 128.237C103.112 128.249 102.963 128.262 102.678 128.274C102.344 128.287 101.924 128.299 101.404 128.311C100.216 128.324 98.5699 128.348 96.466 128.386L96.6145 128.237C96.7136 137.014 96.7878 154.493 96.7878 174.585C96.7507 189.193 96.7135 202.426 96.6888 212.069C96.6517 216.823 96.6146 220.685 96.5898 223.434C96.5651 224.733 96.5403 225.761 96.5279 226.516C96.5032 227.222 96.4908 227.593 96.466 227.593C96.4413 227.593 96.4165 227.222 96.4042 226.516C96.3918 225.749 96.367 224.721 96.3423 223.434C96.3175 220.685 96.2804 216.823 96.2433 212.069C96.2185 202.426 96.1814 189.205 96.1443 174.585C96.1443 154.493 96.2185 137.014 96.3175 128.237V128.076H96.466C98.5822 128.113 100.228 128.126 101.404 128.15C101.924 128.163 102.344 128.175 102.678 128.187C102.963 128.2 103.112 128.212 103.112 128.237Z" fill="#201A4B"/>
<path d="M49.0189 187.583C49.0189 187.756 40.9378 187.905 30.988 187.905C21.0258 187.905 12.957 187.756 12.957 187.583C12.957 187.41 21.0258 187.261 30.988 187.261C40.9378 187.261 49.0189 187.397 49.0189 187.583Z" fill="#201A4B"/>
<path d="M48.3629 192.225C48.3629 192.399 40.4303 192.547 30.6538 192.547C20.8772 192.547 12.9446 192.399 12.9446 192.225C12.9446 192.052 20.8772 191.904 30.6538 191.904C40.4303 191.904 48.3629 192.04 48.3629 192.225Z" fill="#201A4B"/>
<path d="M48.3629 196.868C48.3629 197.041 40.4303 197.189 30.6538 197.189C20.8772 197.189 12.9446 197.041 12.9446 196.868C12.9446 196.694 20.8772 196.546 30.6538 196.546C40.4303 196.546 48.3629 196.694 48.3629 196.868Z" fill="#201A4B"/>
<path d="M48.3629 201.51C48.3629 201.683 40.4303 201.832 30.6538 201.832C20.8772 201.832 12.9446 201.683 12.9446 201.51C12.9446 201.337 20.8772 201.188 30.6538 201.188C40.4303 201.188 48.3629 201.337 48.3629 201.51Z" fill="#201A4B"/>
<path d="M48.3629 206.152C48.3629 206.325 40.4303 206.474 30.6538 206.474C20.8772 206.474 12.9446 206.325 12.9446 206.152C12.9446 205.979 20.8772 205.83 30.6538 205.83C40.4303 205.83 48.3629 205.979 48.3629 206.152Z" fill="#201A4B"/>
<path d="M30.2206 210.794C30.2206 210.968 26.3595 211.116 21.5826 211.116C16.8181 211.116 12.9446 210.968 12.9446 210.794C12.9446 210.621 16.8057 210.472 21.5826 210.472C26.3471 210.472 30.2206 210.621 30.2206 210.794Z" fill="#201A4B"/>
<path d="M40.3066 182.508C40.3066 182.681 34.156 182.83 26.5699 182.83C18.9838 182.83 12.8333 182.681 12.8333 182.508C12.8333 182.334 18.9838 182.186 26.5699 182.186C34.156 182.186 40.3066 182.322 40.3066 182.508Z" fill="#0BCE91"/>
<path d="M57.4094 221.775C57.4094 221.775 57.3846 221.428 57.3846 220.784C57.3722 220.116 57.3722 219.175 57.3475 217.974C57.3351 215.498 57.3104 211.908 57.2732 207.365C57.2361 198.242 57.1866 185.231 57.1371 169.608L57.4094 169.881C40.9501 169.893 21.3722 169.906 0.395953 169.93C0.321701 170.005 1.00235 169.324 0.717713 169.621V169.633V169.658V169.708V169.819V170.042V170.487V171.379V173.149C0.717713 174.325 0.717713 175.501 0.717713 176.665C0.717713 179.004 0.717713 181.319 0.717713 183.609C0.717713 188.202 0.717713 192.683 0.705338 197.066C0.692963 205.818 0.680587 214.112 0.680587 221.762L0.395953 221.478C17.3874 221.54 31.5943 221.589 41.5936 221.626C46.5809 221.663 50.5163 221.688 53.2389 221.7C54.563 221.713 55.6026 221.725 56.3327 221.738C56.6668 221.75 56.9267 221.75 57.1371 221.75C57.3104 221.775 57.4094 221.775 57.4094 221.775C57.4094 221.775 57.3351 221.787 57.1618 221.787C56.9638 221.787 56.7163 221.8 56.3946 221.8C55.6768 221.812 54.662 221.824 53.3626 221.837C50.6524 221.849 46.7418 221.874 41.7916 221.911C31.7428 221.948 17.474 221.998 0.408329 222.06H0.123695V221.775C0.111319 214.124 0.098944 205.843 0.098944 197.078C0.098944 192.696 0.098944 188.202 0.0865686 183.622C0.0865686 181.332 0.0865686 179.017 0.0865686 176.677C0.0865686 175.513 0.0865686 174.337 0.0865686 173.161V171.391V170.5V170.054V169.831V169.72V169.67V169.646V169.633C-0.198065 169.918 0.482581 169.225 0.408329 169.299C21.3722 169.311 40.9625 169.336 57.4217 169.349H57.694V169.621C57.6321 185.318 57.5826 198.378 57.5579 207.551C57.5331 212.069 57.5084 215.635 57.4836 218.098C57.4712 219.287 57.4589 220.203 57.4465 220.859C57.4341 221.478 57.4094 221.775 57.4094 221.775Z" fill="#201A4B"/>
<path d="M40.3313 243.587C40.158 243.587 40.0095 238.945 40.0095 233.213C40.0095 227.482 40.158 222.839 40.3313 222.839C40.5045 222.839 40.653 227.482 40.653 233.213C40.653 238.945 40.5045 243.587 40.3313 243.587Z" fill="#201A4B"/>
<path d="M42.6951 238.858C42.8683 238.945 41.5442 241.049 41.3957 243.983C41.3957 244.033 41.3957 244.07 41.3833 244.119L41.3214 245.048L40.7893 244.293C39.0567 241.829 38.5865 239.415 38.7473 239.39C38.933 239.329 39.6631 241.569 41.3214 243.921L40.7398 244.095C40.7398 244.045 40.7398 243.996 40.7521 243.958C40.9254 240.802 42.5837 238.734 42.6951 238.858Z" fill="#201A4B"/>
<path d="M394.799 97.2268C394.626 97.2268 394.478 96.3974 394.478 95.3699C394.478 94.3425 394.626 93.5131 394.799 93.5131C394.973 93.5131 395.121 94.3425 395.121 95.3699C395.121 96.385 394.985 97.2268 394.799 97.2268Z" fill="#201A4B"/>
<path d="M394.799 104.654C394.626 104.654 394.478 103.825 394.478 102.798C394.478 101.77 394.626 100.941 394.799 100.941C394.973 100.941 395.121 101.77 395.121 102.798C395.121 103.825 394.985 104.654 394.799 104.654Z" fill="#201A4B"/>
<path d="M394.799 112.094C394.626 112.094 394.478 111.265 394.478 110.237C394.478 109.21 394.626 108.381 394.799 108.381C394.973 108.381 395.121 109.21 395.121 110.237C395.121 111.265 394.985 112.094 394.799 112.094Z" fill="#201A4B"/>
<path d="M394.799 119.51C394.626 119.51 394.478 118.68 394.478 117.653C394.478 116.625 394.626 115.796 394.799 115.796C394.973 115.796 395.121 116.625 395.121 117.653C395.121 118.68 394.985 119.51 394.799 119.51Z" fill="#201A4B"/>
<path d="M394.799 126.925C394.626 126.925 394.478 126.095 394.478 125.068C394.478 124.04 394.626 123.211 394.799 123.211C394.973 123.211 395.121 124.04 395.121 125.068C395.121 126.095 394.985 126.925 394.799 126.925Z" fill="#201A4B"/>
<path d="M394.799 134.352C394.626 134.352 394.478 133.523 394.478 132.495C394.478 131.468 394.626 130.638 394.799 130.638C394.973 130.638 395.121 131.468 395.121 132.495C395.121 133.51 394.985 134.352 394.799 134.352Z" fill="#201A4B"/>
<path d="M394.799 141.767C394.626 141.767 394.478 140.938 394.478 139.911C394.478 138.883 394.626 138.054 394.799 138.054C394.973 138.054 395.121 138.883 395.121 139.911C395.121 140.938 394.985 141.767 394.799 141.767Z" fill="#201A4B"/>
<path d="M394.799 149.195C394.626 149.195 394.478 148.366 394.478 147.338C394.478 146.311 394.626 145.481 394.799 145.481C394.973 145.481 395.121 146.311 395.121 147.338C395.121 148.366 394.985 149.195 394.799 149.195Z" fill="#201A4B"/>
<path d="M436.566 84.4762H247.693C244.983 84.4762 242.792 82.2851 242.792 79.574V4.90219C242.792 2.19113 244.983 0 247.693 0H436.566C439.276 0 441.467 2.19113 441.467 4.90219V79.574C441.467 82.2727 439.264 84.4762 436.566 84.4762Z" fill="#2A2359"/>
<path d="M301.192 31.3815C298.21 24.9566 292.257 19.7821 283.693 18.8165C283.471 18.7918 283.235 18.767 283 18.7422C282.852 18.7299 282.703 18.7175 282.555 18.7051C282.122 18.6803 281.688 18.6556 281.243 18.6556C281.218 18.6556 281.206 18.6556 281.181 18.6556C281.156 18.6556 281.144 18.6556 281.132 18.6556L281.033 36.8036L281.008 41.0745L302.813 46.1004L302.838 46.1128C303.185 44.5902 303.37 43.0056 303.382 41.4087C303.407 38.0044 302.652 34.5382 301.192 31.3815Z" fill="#0BCE91"/>
<path d="M277.691 43.4265L277.741 39.4156L277.84 21.2676C272.493 21.2305 267.024 23.2854 262.804 26.9249C257.829 31.2206 254.599 37.7197 255.366 45.63C255.44 46.4099 255.552 47.2022 255.712 48.0069L255.552 48.044C258.46 58.4921 267.89 66.4025 277.209 65.7959C287.926 65.1026 297.009 58.4673 299.311 48.4154L277.691 43.4265Z" fill="#134D58"/>
<path d="M356.002 28.2C356.002 28.3733 347.253 28.5219 336.449 28.5219C325.645 28.5219 316.896 28.3733 316.896 28.2C316.896 28.0267 325.645 27.8781 336.449 27.8781C347.24 27.8781 356.002 28.0267 356.002 28.2Z" fill="#201A4B"/>
<path d="M356.002 35.7142C356.002 35.8875 347.253 36.0361 336.449 36.0361C325.645 36.0361 316.896 35.8875 316.896 35.7142C316.896 35.5409 325.645 35.3924 336.449 35.3924C347.24 35.3924 356.002 35.5409 356.002 35.7142Z" fill="#201A4B"/>
<path d="M356.002 43.2408C356.002 43.4141 347.253 43.5627 336.449 43.5627C325.645 43.5627 316.896 43.4141 316.896 43.2408C316.896 43.0675 325.645 42.919 336.449 42.919C347.24 42.919 356.002 43.0552 356.002 43.2408Z" fill="#201A4B"/>
<path d="M356.002 50.7551C356.002 50.9284 347.253 51.0769 336.449 51.0769C325.645 51.0769 316.896 50.9284 316.896 50.7551C316.896 50.5817 325.645 50.4332 336.449 50.4332C347.24 50.4332 356.002 50.5694 356.002 50.7551Z" fill="#201A4B"/>
<path d="M339.803 58.8759C339.803 58.9625 338.516 59.0492 336.449 59.0987C334.37 59.1606 331.512 59.1977 328.343 59.1977C325.175 59.1977 322.317 59.1606 320.238 59.0987C318.158 59.0368 316.884 58.9625 316.884 58.8759C316.884 58.7892 318.171 58.7025 320.238 58.653C322.317 58.5911 325.175 58.554 328.343 58.554C331.512 58.554 334.37 58.5911 336.449 58.653C338.528 58.7149 339.803 58.7892 339.803 58.8759Z" fill="#201A4B"/>
<path d="M383.859 21.3047C383.847 21.2676 384.119 21.0819 384.701 20.8467C385.27 20.6239 386.161 20.3763 387.3 20.3763C387.584 20.3763 387.881 20.3887 388.191 20.4382C388.339 20.4629 388.5 20.4877 388.661 20.5125L388.723 20.5248H388.735C388.574 20.2649 388.958 20.8838 388.921 20.8219V20.8343V20.8591L388.896 20.9705L388.847 21.2057C388.711 21.8494 388.562 22.5303 388.414 23.2483C388.092 24.709 387.733 26.2936 387.362 27.9648L387.312 28.2124H387.052C386.533 28.2124 385.976 28.2124 385.419 28.2C383.402 28.1752 381.483 28.1628 379.738 28.1381H379.441L379.454 27.841C379.479 26.5907 379.788 25.4394 380.258 24.5233C380.728 23.6073 381.335 22.914 381.892 22.4312C382.449 21.9485 382.968 21.6513 383.327 21.4904C383.637 21.3295 383.847 21.28 383.859 21.3047C383.909 21.3914 383.105 21.7132 382.09 22.7036C381.075 23.6568 379.986 25.5013 379.998 27.8657L379.714 27.5686C381.459 27.5686 383.377 27.5686 385.394 27.5686C385.951 27.5686 386.508 27.581 387.028 27.581L386.718 27.8286C387.114 26.1698 387.485 24.5852 387.832 23.1369C388.005 22.4312 388.166 21.7628 388.327 21.119L388.389 20.8838L388.414 20.7724L388.426 20.7477V20.7353C388.389 20.6734 388.772 21.2923 388.612 21.0324H388.599L388.55 21.02C388.401 20.9829 388.253 20.9581 388.117 20.9334C387.832 20.8838 387.547 20.8591 387.287 20.8343C385.122 20.7229 383.884 21.4161 383.859 21.3047Z" fill="#1C1544"/>
<path d="M387.782 28.9799L386.47 28.9675L380.543 28.9304C380.53 30.6758 381.199 32.4708 382.387 33.8449C383.785 35.4666 385.914 36.5189 388.5 36.2713C388.76 36.2465 389.007 36.2094 389.28 36.1599L389.292 36.2094C392.708 35.2562 395.282 32.1737 395.096 29.1284C394.873 25.6251 392.708 22.6541 389.416 21.9113L387.782 28.9799Z" fill="#524896"/>
<path d="M383.859 47.9573C381.768 48.9353 380.072 50.8788 379.751 53.6765C379.738 53.7508 379.738 53.8251 379.726 53.8994C379.726 53.9489 379.714 53.9984 379.714 54.0479C379.701 54.1841 379.701 54.3326 379.701 54.4812C379.701 54.4936 379.701 54.4936 379.701 54.5059V54.5183L385.629 54.5555L387.027 54.5678L388.673 47.4374V47.425C388.178 47.3136 387.659 47.2517 387.139 47.2517C386.013 47.2269 384.886 47.4745 383.859 47.9573Z" fill="#524896"/>
<path d="M387.782 55.6324C387.757 55.5953 387.881 54.8897 388.129 53.6518C388.401 52.3272 388.76 50.5941 389.193 48.5144L389.242 48.2915L389.478 48.3411C391.619 48.7496 393.945 50.5322 394.886 53.268C395.343 54.605 395.641 56.1648 395.195 57.7122C394.762 59.2348 393.759 60.6089 392.46 61.624C391.532 62.342 390.468 62.8619 389.391 63.1714L389.069 63.2705L388.995 62.9362L388.983 62.8867L389.354 63.1343C388.079 63.3819 386.767 63.32 385.579 62.9486C384.391 62.5772 383.364 61.9087 382.572 61.1041C380.963 59.47 380.283 57.3655 380.32 55.5829V55.3477H380.543C382.683 55.3972 384.466 55.4468 385.839 55.4839C387.089 55.5334 387.745 55.6077 387.782 55.6324C387.832 55.6696 387.101 55.7067 385.839 55.7439C384.466 55.7686 382.683 55.7934 380.543 55.8181L380.778 55.5829C380.79 57.2418 381.471 59.1977 382.968 60.6832C384.441 62.1935 386.829 62.9981 389.218 62.4906L389.527 62.4287L389.589 62.7382L389.601 62.7877L389.205 62.5525C390.208 62.2677 391.185 61.7849 392.052 61.1041C393.264 60.1633 394.18 58.9006 394.576 57.5265C394.985 56.1648 394.725 54.7164 394.316 53.4537C393.462 50.8912 391.346 49.22 389.366 48.7743L389.638 48.601C389.094 50.8169 388.636 52.5995 388.314 53.8003C388.005 55.0259 387.819 55.6696 387.782 55.6324Z" fill="#1C1544"/>
<path d="M427.223 51.7577C427.223 51.9311 421.679 52.0796 414.835 52.0796C407.991 52.0796 402.447 51.9311 402.447 51.7577C402.447 51.5844 407.991 51.4359 414.835 51.4359C421.679 51.4359 427.223 51.5844 427.223 51.7577Z" fill="#201A4B"/>
<path d="M414.848 55.063C414.848 55.2363 412.075 55.3849 408.66 55.3849C405.244 55.3849 402.472 55.2363 402.472 55.063C402.472 54.8897 405.244 54.7411 408.66 54.7411C412.075 54.7411 414.848 54.8897 414.848 55.063Z" fill="#201A4B"/>
<path d="M427.223 25.1299C427.223 25.3032 421.679 25.4518 414.835 25.4518C407.991 25.4518 402.447 25.3032 402.447 25.1299C402.447 24.9566 407.991 24.8081 414.835 24.8081C421.679 24.8081 427.223 24.9566 427.223 25.1299Z" fill="#201A4B"/>
<path d="M414.848 28.4352C414.848 28.6085 412.075 28.7571 408.66 28.7571C405.244 28.7571 402.472 28.6085 402.472 28.4352C402.472 28.2619 405.244 28.1133 408.66 28.1133C412.075 28.1133 414.848 28.2619 414.848 28.4352Z" fill="#201A4B"/>
<path d="M368.242 72.9016C368.068 72.9016 367.92 57.9969 367.92 39.6137C367.92 21.2305 368.068 6.32581 368.242 6.32581C368.415 6.32581 368.563 21.2305 368.563 39.6137C368.563 57.9969 368.415 72.9016 368.242 72.9016Z" fill="#201A4B"/>
<path d="M514.592 155.657H522.265V224.907H514.592V155.657Z" fill="#0BCE91"/>
<path d="M499.791 179.178H507.464V224.907H499.791V179.178Z" fill="#0BCE91"/>
<path d="M484.99 164.261H492.663V225.253H484.99V164.261Z" fill="#0BCE91"/>
<path d="M470.176 158.331H477.849V224.907H470.176V158.331Z" fill="#0BCE91"/>
<path d="M455.376 180.589H463.048V224.907H455.376V180.589Z" fill="#0BCE91"/>
<path d="M440.575 189.279H448.248V224.907H440.575V189.279Z" fill="#0BCE91"/>
<path d="M425.774 162.763H433.446V224.907H425.774V162.763Z" fill="#0BCE91"/>
<path d="M410.973 173.966H418.646V224.907H410.973V173.966Z" fill="#0BCE91"/>
<path d="M396.159 165.016H403.832V224.907H396.159V165.016Z" fill="#0BCE91"/>
<path d="M381.359 184.105H389.031V224.907H381.359V184.105Z" fill="#0BCE91"/>
<path d="M366.557 176.343H374.23V224.907H366.557V176.343Z" fill="#0BCE91"/>
<path d="M371.31 171.354C371.31 171.366 371.47 171.342 371.767 171.304C372.102 171.255 372.547 171.181 373.104 171.094C373.686 170.983 374.416 170.884 375.294 170.809C375.728 170.76 376.198 170.71 376.693 170.661C377.2 170.636 377.732 170.611 378.289 170.586C380.542 170.475 383.326 170.549 386.507 171.032C389.675 171.503 393.251 172.369 397.001 173.892C400.738 175.402 404.661 177.544 408.312 180.577C412.025 183.548 415.255 187.497 418.435 191.805C421.653 196.063 424.932 200.755 429.499 204.543C431.751 206.437 434.325 208.071 437.171 209.185C440.018 210.287 443.198 210.757 446.329 210.312C449.473 209.928 452.381 208.628 454.967 207.031C457.529 205.372 459.806 203.392 461.811 201.25C465.857 196.967 468.803 192.089 471.909 187.744C474.978 183.374 478.208 179.388 481.995 176.516C483.864 175.055 485.906 174.003 487.923 173.149C489.965 172.332 492.019 171.824 493.999 171.515C497.984 170.921 501.684 171.267 504.79 171.985C507.909 172.703 510.458 173.855 512.426 174.944C514.357 176.108 515.755 177.185 516.646 177.977C517.067 178.361 517.401 178.658 517.649 178.893C517.884 179.091 517.995 179.202 518.007 179.19C518.02 179.178 517.908 179.066 517.698 178.843C517.463 178.608 517.141 178.286 516.733 177.878C515.866 177.048 514.48 175.934 512.55 174.733C510.582 173.595 508.02 172.406 504.865 171.639C501.721 170.884 497.972 170.5 493.925 171.069C491.908 171.379 489.804 171.874 487.725 172.691C485.67 173.545 483.579 174.622 481.661 176.095C477.8 178.992 474.508 183.028 471.414 187.41C468.283 191.78 465.338 196.608 461.341 200.829C459.36 202.946 457.108 204.889 454.608 206.499C452.084 208.059 449.262 209.309 446.23 209.68C443.211 210.113 440.154 209.655 437.394 208.591C434.622 207.514 432.11 205.917 429.895 204.06C425.415 200.359 422.148 195.716 418.905 191.458C417.284 189.316 415.688 187.237 413.992 185.318C413.138 184.365 412.297 183.424 411.381 182.594C410.923 182.173 410.478 181.753 410.032 181.332C409.574 180.923 409.092 180.552 408.634 180.168C404.921 177.11 400.936 174.969 397.149 173.471C393.362 171.961 389.737 171.119 386.544 170.685C383.338 170.24 380.542 170.203 378.265 170.351C377.695 170.388 377.163 170.426 376.656 170.45C376.161 170.512 375.69 170.574 375.257 170.624C374.391 170.723 373.661 170.834 373.067 170.97C372.51 171.082 372.064 171.181 371.73 171.243C371.458 171.304 371.31 171.342 371.31 171.354Z" fill="#201A4B"/>
<path d="M530.705 229.735C530.878 229.735 531.026 209.99 531.026 185.64C531.026 161.277 530.878 141.532 530.705 141.532C530.531 141.532 530.383 161.277 530.383 185.64C530.383 209.977 530.531 229.735 530.705 229.735Z" fill="#201A4B"/>
<path d="M363.439 229.735C363.439 229.908 399.81 230.057 444.671 230.057C489.544 230.057 525.903 229.908 525.903 229.735C525.903 229.561 489.544 229.413 444.671 229.413C399.81 229.413 363.439 229.549 363.439 229.735Z" fill="#201A4B"/>
<path d="M511.325 235.182C511.325 235.355 513.874 235.503 517.017 235.503C520.161 235.503 522.71 235.355 522.71 235.182C522.71 235.008 520.161 234.86 517.017 234.86C513.874 234.86 511.325 235.008 511.325 235.182Z" fill="#201A4B"/>
<path d="M492.452 235.454C492.452 235.627 495.496 235.776 499.246 235.776C503.008 235.776 506.053 235.627 506.053 235.454C506.053 235.281 503.008 235.132 499.246 235.132C495.496 235.132 492.452 235.281 492.452 235.454Z" fill="#201A4B"/>
<path d="M476.352 235.454C476.352 235.627 479.396 235.776 483.146 235.776C486.908 235.776 489.953 235.627 489.953 235.454C489.953 235.281 486.908 235.132 483.146 235.132C479.396 235.132 476.352 235.281 476.352 235.454Z" fill="#201A4B"/>
<path d="M460.251 235.454C460.251 235.627 463.296 235.776 467.046 235.776C470.808 235.776 473.852 235.627 473.852 235.454C473.852 235.281 470.808 235.132 467.046 235.132C463.296 235.132 460.251 235.281 460.251 235.454Z" fill="#201A4B"/>
<path d="M444.151 235.454C444.151 235.627 447.195 235.776 450.945 235.776C454.707 235.776 457.751 235.627 457.751 235.454C457.751 235.281 454.707 235.132 450.945 235.132C447.195 235.132 444.151 235.281 444.151 235.454Z" fill="#201A4B"/>
<path d="M428.051 235.454C428.051 235.627 431.095 235.776 434.845 235.776C438.607 235.776 441.651 235.627 441.651 235.454C441.651 235.281 438.607 235.132 434.845 235.132C431.095 235.132 428.051 235.281 428.051 235.454Z" fill="#201A4B"/>
<path d="M411.95 235.454C411.95 235.627 414.995 235.776 418.744 235.776C422.506 235.776 425.551 235.627 425.551 235.454C425.551 235.281 422.506 235.132 418.744 235.132C414.995 235.132 411.95 235.281 411.95 235.454Z" fill="#201A4B"/>
<path d="M395.85 235.454C395.85 235.627 398.894 235.776 402.644 235.776C406.406 235.776 409.451 235.627 409.451 235.454C409.451 235.281 406.406 235.132 402.644 235.132C398.894 235.132 395.85 235.281 395.85 235.454Z" fill="#201A4B"/>
<path d="M379.762 235.454C379.762 235.627 382.806 235.776 386.556 235.776C390.318 235.776 393.362 235.627 393.362 235.454C393.362 235.281 390.318 235.132 386.556 235.132C382.806 235.132 379.762 235.281 379.762 235.454Z" fill="#201A4B"/>
<path d="M363.662 235.454C363.662 235.627 366.706 235.776 370.456 235.776C374.218 235.776 377.262 235.627 377.262 235.454C377.262 235.281 374.218 235.132 370.456 235.132C366.706 235.132 363.662 235.281 363.662 235.454Z" fill="#201A4B"/>
<path d="M469.855 188.549C469.867 188.462 469.187 188.574 468.939 189.44C468.828 189.849 468.828 190.43 469.249 190.926C469.657 191.433 470.474 191.545 471.093 191.26C471.724 191 472.182 190.307 472.07 189.663C471.971 189.032 471.538 188.635 471.167 188.45C470.338 188.066 469.805 188.499 469.88 188.549C469.904 188.648 470.387 188.462 470.932 188.846C471.192 189.032 471.451 189.353 471.476 189.725C471.513 190.096 471.253 190.48 470.82 190.678C470.399 190.864 469.929 190.802 469.682 190.542C469.422 190.282 469.348 189.861 469.385 189.552C469.459 188.871 469.904 188.635 469.855 188.549Z" fill="#201A4B"/>
<path d="M395.751 171.837C395.751 171.8 395.602 171.75 395.318 171.787C395.046 171.837 394.637 172.022 394.315 172.431C393.994 172.827 393.746 173.533 394.043 174.238C394.34 174.907 395.058 175.452 395.924 175.452C396.828 175.452 397.484 174.734 397.669 174.065C397.892 173.384 397.669 172.654 397.31 172.282C396.555 171.515 395.838 171.639 395.85 171.701C395.813 171.8 396.456 171.899 396.951 172.567C397.199 172.901 397.286 173.372 397.112 173.867C396.939 174.35 396.481 174.795 395.912 174.795C395.343 174.808 394.798 174.424 394.588 173.991C394.365 173.545 394.476 173.038 394.687 172.691C395.12 171.973 395.776 171.936 395.751 171.837Z" fill="#201A4B"/>
<path d="M394.551 139.502C394.373 139.502 394.229 139.086 394.229 138.574C394.229 138.061 394.373 137.645 394.551 137.645C394.729 137.645 394.873 138.061 394.873 138.574C394.873 139.086 394.729 139.502 394.551 139.502Z" fill="#201A4B"/>
<path d="M394.551 147.561C394.724 147.561 394.873 146.657 394.873 145.543C394.873 144.429 394.724 143.525 394.551 143.525C394.378 143.525 394.229 144.429 394.229 145.543C394.229 146.657 394.365 147.561 394.551 147.561Z" fill="#201A4B"/>
<path d="M394.551 155.62C394.724 155.62 394.873 154.716 394.873 153.602C394.873 152.488 394.724 151.584 394.551 151.584C394.378 151.584 394.229 152.488 394.229 153.602C394.229 154.716 394.365 155.62 394.551 155.62Z" fill="#201A4B"/>
<path d="M394.551 163.679C394.724 163.679 394.873 162.775 394.873 161.661C394.873 160.547 394.724 159.643 394.551 159.643C394.378 159.643 394.229 160.547 394.229 161.661C394.229 162.775 394.365 163.679 394.551 163.679Z" fill="#201A4B"/>
<path d="M394.551 169.559C394.724 169.559 394.873 169.138 394.873 168.631C394.873 168.123 394.724 167.702 394.551 167.702C394.378 167.702 394.229 168.123 394.229 168.631C394.229 169.138 394.365 169.559 394.551 169.559Z" fill="#201A4B"/>
<path d="M340 126.727C340 126.9 352.573 127.049 368.092 127.049C383.611 127.049 396.184 126.9 396.184 126.727C396.184 126.553 383.611 126.405 368.092 126.405C352.573 126.405 340 126.541 340 126.727Z" fill="#201A4B"/>
<path d="M359.182 120.364C359.182 120.537 367.275 120.686 377.25 120.686C387.237 120.686 395.33 120.537 395.33 120.364C395.33 120.19 387.237 120.042 377.25 120.042C367.275 120.042 359.182 120.178 359.182 120.364Z" fill="#201A4B"/>
<path d="M152.564 82.6193C152.737 82.6193 152.886 83.0402 152.886 83.5477C152.886 84.0553 152.737 84.4762 152.564 84.4762C152.391 84.4762 152.242 84.0553 152.242 83.5477C152.242 83.0278 152.391 82.6193 152.564 82.6193Z" fill="#201A4B"/>
<path d="M152.564 75.4393C152.737 75.4393 152.886 76.244 152.886 77.2343C152.886 78.2247 152.737 79.0293 152.564 79.0293C152.391 79.0293 152.242 78.2247 152.242 77.2343C152.242 76.244 152.391 75.4393 152.564 75.4393Z" fill="#201A4B"/>
<path d="M152.564 68.2717C152.737 68.2717 152.886 69.0764 152.886 70.0667C152.886 71.0571 152.737 71.8617 152.564 71.8617C152.391 71.8617 152.242 71.0571 152.242 70.0667C152.242 69.0764 152.391 68.2717 152.564 68.2717Z" fill="#201A4B"/>
<path d="M152.564 61.1165C152.737 61.1165 152.886 61.9211 152.886 62.9115C152.886 63.9018 152.737 64.7065 152.564 64.7065C152.391 64.7065 152.242 63.9018 152.242 62.9115C152.242 61.9088 152.391 61.1165 152.564 61.1165Z" fill="#201A4B"/>
<path d="M152.564 57.5389C152.742 57.5389 152.886 56.7352 152.886 55.7439C152.886 54.7525 152.742 53.9489 152.564 53.9489C152.386 53.9489 152.242 54.7525 152.242 55.7439C152.242 56.7352 152.386 57.5389 152.564 57.5389Z" fill="#201A4B"/>
<path d="M152.564 46.7813C152.737 46.7813 152.886 47.5859 152.886 48.5763C152.886 49.5666 152.737 50.3713 152.564 50.3713C152.391 50.3713 152.242 49.5666 152.242 48.5763C152.242 47.5859 152.391 46.7813 152.564 46.7813Z" fill="#201A4B"/>
<path d="M152.564 41.3344C152.737 41.3344 152.886 41.7553 152.886 42.2629C152.886 42.7704 152.737 43.1913 152.564 43.1913C152.391 43.1913 152.242 42.7704 152.242 42.2629C152.242 41.7553 152.391 41.3344 152.564 41.3344Z" fill="#201A4B"/>
<path d="M154.42 39.6013C154.42 39.7746 154 39.9232 153.492 39.9232C152.985 39.9232 152.564 39.7746 152.564 39.6013C152.564 39.428 152.985 39.2794 153.492 39.2794C154 39.2794 154.42 39.4156 154.42 39.6013Z" fill="#201A4B"/>
<path d="M162.044 39.6013C162.044 39.7746 161.19 39.9232 160.138 39.9232C159.086 39.9232 158.232 39.7746 158.232 39.6013C158.232 39.428 159.086 39.2794 160.138 39.2794C161.19 39.2794 162.044 39.4156 162.044 39.6013Z" fill="#201A4B"/>
<path d="M169.667 39.6013C169.667 39.7746 168.813 39.9232 167.761 39.9232C166.709 39.9232 165.855 39.7746 165.855 39.6013C165.855 39.428 166.709 39.2794 167.761 39.2794C168.813 39.2794 169.667 39.4156 169.667 39.6013Z" fill="#201A4B"/>
<path d="M177.29 39.6013C177.29 39.7746 176.436 39.9232 175.384 39.9232C174.332 39.9232 173.479 39.7746 173.479 39.6013C173.479 39.428 174.332 39.2794 175.384 39.2794C176.436 39.2794 177.29 39.4156 177.29 39.6013Z" fill="#201A4B"/>
<path d="M184.901 39.6013C184.901 39.7746 184.047 39.9232 182.995 39.9232C181.943 39.9232 181.089 39.7746 181.089 39.6013C181.089 39.428 181.943 39.2794 182.995 39.2794C184.047 39.2794 184.901 39.4156 184.901 39.6013Z" fill="#201A4B"/>
<path d="M192.512 39.6013C192.512 39.7746 191.658 39.9232 190.606 39.9232C189.554 39.9232 188.7 39.7746 188.7 39.6013C188.7 39.428 189.554 39.2794 190.606 39.2794C191.658 39.2794 192.512 39.4156 192.512 39.6013Z" fill="#201A4B"/>
<path d="M200.123 39.6013C200.123 39.7746 199.269 39.9232 198.217 39.9232C197.165 39.9232 196.311 39.7746 196.311 39.6013C196.311 39.428 197.165 39.2794 198.217 39.2794C199.281 39.2794 200.123 39.4156 200.123 39.6013Z" fill="#201A4B"/>
<path d="M207.746 39.6013C207.746 39.7746 206.892 39.9232 205.84 39.9232C204.788 39.9232 203.934 39.7746 203.934 39.6013C203.934 39.428 204.788 39.2794 205.84 39.2794C206.892 39.2794 207.746 39.4156 207.746 39.6013Z" fill="#201A4B"/>
<path d="M215.357 39.6013C215.357 39.7746 214.503 39.9232 213.451 39.9232C212.399 39.9232 211.545 39.7746 211.545 39.6013C211.545 39.428 212.399 39.2794 213.451 39.2794C214.503 39.2794 215.357 39.4156 215.357 39.6013Z" fill="#201A4B"/>
<path d="M222.98 39.6013C222.98 39.7746 222.126 39.9232 221.074 39.9232C220.022 39.9232 219.168 39.7746 219.168 39.6013C219.168 39.428 220.022 39.2794 221.074 39.2794C222.126 39.2794 222.98 39.4156 222.98 39.6013Z" fill="#201A4B"/>
<path d="M230.591 39.6013C230.591 39.7746 229.737 39.9232 228.685 39.9232C227.633 39.9232 226.779 39.7746 226.779 39.6013C226.779 39.428 227.633 39.2794 228.685 39.2794C229.737 39.2794 230.591 39.4156 230.591 39.6013Z" fill="#201A4B"/>
<path d="M236.296 39.6013C236.296 39.7746 235.875 39.9232 235.368 39.9232C234.86 39.9232 234.439 39.7746 234.439 39.6013C234.439 39.428 234.86 39.2794 235.368 39.2794C235.887 39.2794 236.296 39.4156 236.296 39.6013Z" fill="#201A4B"/>
<path d="M327.774 108.839H280.141C277.493 108.839 275.34 110.993 275.34 113.642V141.582C275.34 144.231 277.493 146.385 280.141 146.385H287.765V157.836L298.024 146.385H327.762C330.41 146.385 332.564 144.231 332.564 141.582V113.642C332.576 110.993 330.435 108.839 327.774 108.839Z" fill="#201A4B"/>
<path d="M298.272 128.237C298.272 129.339 297.38 130.23 296.279 130.23C295.178 130.23 294.287 129.339 294.287 128.237C294.287 127.135 295.178 126.244 296.279 126.244C297.38 126.244 298.272 127.135 298.272 128.237Z" fill="#524896"/>
<path d="M306.068 128.237C306.068 129.339 305.177 130.23 304.075 130.23C302.974 130.23 302.083 129.339 302.083 128.237C302.083 127.135 302.974 126.244 304.075 126.244C305.177 126.244 306.068 127.135 306.068 128.237Z" fill="#524896"/>
<path d="M313.642 128.237C313.642 129.339 312.751 130.23 311.649 130.23C310.548 130.23 309.657 129.339 309.657 128.237C309.657 127.135 310.548 126.244 311.649 126.244C312.751 126.244 313.642 127.135 313.642 128.237Z" fill="#524896"/>
<path d="M222.46 143.637C220.121 143.055 220.505 136.618 220.257 134.649C220.108 133.449 219.972 132.173 220.492 131.084C221.16 129.673 222.769 128.943 224.316 128.707C225.863 128.472 227.447 128.621 228.994 128.398C232.113 127.952 234.885 126.021 238.028 125.736C240.59 125.513 243.226 126.467 245.033 128.299C246.109 129.388 246.938 130.775 248.263 131.542C249.438 132.223 250.849 132.31 252.148 132.706C255.378 133.671 257.891 136.655 258.299 139.997C258.534 141.978 258.101 143.971 257.866 145.952C257.631 147.932 257.655 150.062 258.695 151.77C259.784 153.54 261.814 154.58 262.816 156.387C263.707 157.997 263.596 160.101 262.556 161.611C261.517 163.122 259.586 163.963 257.767 163.704C257.185 163.617 256.517 163.456 256.071 163.827C255.675 164.149 255.638 164.719 255.539 165.214C255.131 167.108 253.089 168.47 251.183 168.135C249.277 167.789 247.842 165.783 248.126 163.877" fill="#201A4B"/>
<path d="M249.562 184.86L229.068 183.226C228.944 180.836 229.118 171.577 229.118 171.577C229.118 171.577 220.591 170.252 220.492 161.723C220.393 153.194 221.866 133.609 221.866 133.609C231.729 129.363 243.127 130.799 251.641 137.348L252.903 138.326L249.562 184.86Z" fill="#FFBE9D"/>
<path d="M223.821 147.474C224.328 147.016 224.365 146.236 223.908 145.729C223.45 145.221 222.67 145.184 222.163 145.642C221.655 146.1 221.618 146.88 222.076 147.388C222.534 147.895 223.314 147.932 223.821 147.474Z" fill="#201A4B"/>
<path d="M221.755 146.311C221.891 146.459 222.72 145.815 223.895 145.803C225.071 145.778 225.925 146.41 226.049 146.249C226.111 146.187 225.975 145.914 225.603 145.63C225.244 145.345 224.613 145.073 223.883 145.085C223.153 145.097 222.534 145.382 222.175 145.667C221.816 145.976 221.693 146.249 221.755 146.311Z" fill="#201A4B"/>
<path d="M235.083 146.732C234.501 147.091 234.315 147.858 234.674 148.44C235.033 149.022 235.8 149.207 236.382 148.848C236.964 148.489 237.149 147.722 236.791 147.14C236.419 146.558 235.664 146.373 235.083 146.732Z" fill="#201A4B"/>
<path d="M234.501 147.35C234.637 147.499 235.466 146.855 236.642 146.843C237.818 146.818 238.672 147.45 238.795 147.289C238.857 147.227 238.721 146.954 238.35 146.67C237.991 146.385 237.36 146.113 236.63 146.125C235.9 146.137 235.281 146.422 234.922 146.707C234.563 147.016 234.439 147.289 234.501 147.35Z" fill="#201A4B"/>
<path d="M229.799 157.043C229.811 156.957 229.081 156.808 227.905 156.635C227.596 156.598 227.361 156.536 227.336 156.363C227.286 156.177 227.398 155.855 227.559 155.484C227.856 154.704 228.165 153.924 228.487 153.094C229.774 149.69 230.665 146.892 230.492 146.818C230.318 146.756 229.143 149.455 227.856 152.859C227.546 153.689 227.262 154.481 226.977 155.261C226.866 155.62 226.655 156.028 226.804 156.536C226.89 156.796 227.125 156.969 227.336 157.031C227.534 157.093 227.707 157.093 227.856 157.105C229.056 157.155 229.786 157.13 229.799 157.043Z" fill="#201A4B"/>
<path d="M233.61 158.343C234.835 157.613 230.244 160.138 227.855 160.014C227.855 160.014 229.229 162.206 231.679 161.302C234.241 160.373 233.61 158.343 233.61 158.343Z" fill="#524896"/>
<path d="M229.105 171.441C229.105 171.441 234.489 171.874 240.218 168.284C240.218 168.284 237.595 174.424 229.081 173.656L229.105 171.441Z" fill="#EB996E"/>
<path d="M251.592 147.091C251.765 146.992 257.643 145.085 258.398 152.302C259.153 159.519 251.616 157.898 251.579 157.7C251.542 157.489 251.592 147.091 251.592 147.091Z" fill="#FFBE9D"/>
<path d="M253.522 154.927C253.547 154.902 253.658 155.001 253.881 155.075C254.104 155.149 254.463 155.174 254.822 155.001C255.552 154.642 256.071 153.367 255.972 152.055C255.923 151.399 255.725 150.78 255.428 150.284C255.156 149.777 254.772 149.443 254.376 149.418C253.98 149.368 253.733 149.628 253.671 149.839C253.596 150.049 253.658 150.185 253.621 150.21C253.609 150.235 253.448 150.111 253.485 149.802C253.497 149.653 253.572 149.48 253.72 149.319C253.881 149.158 254.129 149.059 254.401 149.059C254.958 149.034 255.515 149.505 255.836 150.037C256.183 150.582 256.43 151.262 256.48 152.005C256.591 153.466 255.985 154.902 254.97 155.31C254.475 155.496 254.042 155.385 253.794 155.236C253.547 155.1 253.497 154.951 253.522 154.927Z" fill="#EB996E"/>
<path d="M221.903 133.176C223.537 136.197 227.125 137.732 230.553 137.868C233.981 138.004 237.335 137.001 240.652 136.085C242.446 135.59 244.624 135.206 245.936 136.531C246.703 137.299 246.926 138.437 247.062 139.514C247.359 141.904 247.396 144.33 247.161 146.719C247.062 147.685 246.926 148.663 247.174 149.591C247.409 150.52 248.151 151.411 249.104 151.485C250.602 151.609 251.53 149.913 252.037 148.489C252.742 146.521 253.448 144.528 253.708 142.448C253.955 140.369 253.708 138.165 252.606 136.382C251.369 134.377 249.215 133.127 247.087 132.112C242.805 130.069 238.177 128.559 233.437 128.534C228.697 128.497 223.821 130.069 220.492 133.449" fill="#201A4B"/>
<path d="M219.415 507.947L219.353 496.558L240.664 496.298L240.936 512.948L239.612 513.047C233.734 513.443 209.701 514.656 205.753 513.517C201.36 512.242 219.415 507.947 219.415 507.947Z" fill="#0BCE91"/>
<path d="M233.202 512.886C233.486 511.103 234.452 509.432 235.862 508.305C237.273 507.179 239.018 506.572 240.825 506.696L240.899 512.651L233.202 512.886Z" fill="#0BCE91"/>
<path d="M210.592 510.36C210.592 510.36 204.268 512.267 205.072 513.307C205.877 514.347 230.207 514.037 240.936 512.96L240.899 512.49L212.522 513.096C212.51 513.084 211.842 510.398 210.592 510.36Z" fill="#0BCE91"/>
<path d="M241.233 512.465C241.233 512.477 241.11 512.49 240.862 512.514C240.54 512.539 240.206 512.564 239.81 512.589C238.758 512.651 237.459 512.725 235.937 512.799C232.67 512.96 228.14 513.121 223.153 513.183C218.153 513.245 213.636 513.208 210.357 513.146C208.835 513.096 207.535 513.059 206.483 513.034C206.087 513.022 205.741 512.997 205.431 512.985C205.196 512.972 205.06 512.96 205.06 512.948C205.06 512.935 205.184 512.935 205.431 512.935C205.753 512.935 206.1 512.935 206.483 512.935C207.535 512.948 208.835 512.948 210.357 512.96C213.624 512.985 218.153 512.997 223.14 512.923C228.128 512.849 232.657 512.725 235.924 512.613C237.446 512.564 238.746 512.514 239.798 512.477C240.194 512.465 240.54 512.453 240.85 512.453C241.097 512.453 241.233 512.453 241.233 512.465Z" fill="#201A4B"/>
<path d="M212.522 513.418C212.448 513.431 212.374 512.502 211.78 511.574C211.198 510.633 210.394 510.175 210.443 510.113C210.455 510.051 211.371 510.435 212.002 511.437C212.634 512.44 212.584 513.431 212.522 513.418Z" fill="#201A4B"/>
<path d="M218.772 510.15C218.71 510.187 218.4 509.828 218.091 509.345C217.769 508.863 217.571 508.429 217.621 508.392C217.683 508.355 217.992 508.714 218.301 509.197C218.611 509.68 218.834 510.113 218.772 510.15Z" fill="#201A4B"/>
<path d="M220.479 509.209C220.43 509.259 220.096 509.048 219.724 508.714C219.353 508.392 219.093 508.083 219.143 508.033C219.192 507.984 219.526 508.194 219.898 508.528C220.269 508.85 220.529 509.16 220.479 509.209Z" fill="#201A4B"/>
<path d="M221.556 507.191C221.556 507.266 221.061 507.328 220.442 507.352C219.824 507.365 219.329 507.315 219.329 507.253C219.329 507.179 219.824 507.117 220.442 507.092C221.049 507.068 221.544 507.117 221.556 507.191Z" fill="#201A4B"/>
<path d="M221.903 505.755C221.927 505.817 221.383 506.065 220.665 506.127C219.947 506.189 219.366 506.04 219.378 505.978C219.39 505.904 219.947 505.941 220.64 505.879C221.333 505.817 221.878 505.693 221.903 505.755Z" fill="#201A4B"/>
<path d="M218.029 508.293C218.029 508.318 217.509 508.392 216.656 508.306C216.235 508.256 215.727 508.169 215.195 508.008C214.923 507.922 214.651 507.848 214.354 507.674C214.218 507.588 214.069 507.464 214.007 507.253C213.945 507.043 214.057 506.82 214.205 506.709C215.505 506.015 216.829 506.733 217.324 507.402C217.596 507.748 217.72 508.083 217.782 508.306C217.844 508.541 217.831 508.677 217.819 508.677C217.769 508.689 217.72 508.145 217.175 507.513C216.915 507.204 216.507 506.919 216 506.77C215.517 506.634 214.824 506.597 214.366 506.907C214.156 507.068 214.242 507.328 214.477 507.464C214.7 507.612 214.997 507.687 215.257 507.786C215.777 507.959 216.26 508.07 216.668 508.132C217.497 508.256 218.029 508.256 218.029 508.293Z" fill="#201A4B"/>
<path d="M217.67 508.367C217.646 508.38 217.448 508.033 217.497 507.414C217.522 507.117 217.633 506.746 217.856 506.411C218.091 506.102 218.401 505.681 218.982 505.694C219.304 505.731 219.465 506.09 219.415 506.325C219.391 506.56 219.292 506.771 219.193 506.944C218.995 507.29 218.772 507.563 218.561 507.786C218.141 508.207 217.794 508.38 217.782 508.355C217.757 508.318 218.054 508.107 218.425 507.662C218.611 507.439 218.809 507.167 218.982 506.832C219.168 506.535 219.292 506.015 218.945 505.966C218.599 505.941 218.252 506.288 218.054 506.56C217.844 506.857 217.732 507.179 217.683 507.451C217.584 508.008 217.72 508.355 217.67 508.367Z" fill="#201A4B"/>
<path d="M240.726 506.634C240.726 506.684 240.119 506.585 239.154 506.709C238.201 506.832 236.877 507.241 235.739 508.169C234.6 509.11 233.932 510.323 233.635 511.227C233.325 512.143 233.301 512.762 233.251 512.75C233.239 512.75 233.226 512.601 233.251 512.316C233.263 512.044 233.325 511.636 233.474 511.165C233.746 510.212 234.402 508.937 235.59 507.959C236.778 506.981 238.164 506.597 239.154 506.523C239.649 506.486 240.058 506.498 240.33 506.535C240.577 506.585 240.726 506.622 240.726 506.634Z" fill="#201A4B"/>
<path d="M238.399 497.795C238.473 497.795 238.572 499.751 238.634 502.178C238.696 504.592 238.684 506.56 238.622 506.56C238.548 506.56 238.449 504.604 238.387 502.178C238.325 499.764 238.325 497.795 238.399 497.795Z" fill="#201A4B"/>
<path d="M230.491 510.843C230.503 510.905 229.117 511.153 227.385 511.19C225.652 511.227 224.254 511.041 224.266 510.979C224.266 510.905 225.665 510.967 227.385 510.93C229.093 510.893 230.491 510.769 230.491 510.843Z" fill="#201A4B"/>
<path d="M234.674 510.781C234.724 510.831 234.563 511.078 234.427 511.4C234.278 511.722 234.216 512.007 234.142 512.007C234.068 512.007 234.031 511.673 234.192 511.301C234.352 510.93 234.625 510.732 234.674 510.781Z" fill="#201A4B"/>
<path d="M236.221 508.801C236.27 508.85 236.134 509.073 235.924 509.296C235.701 509.519 235.491 509.667 235.441 509.618C235.392 509.568 235.528 509.345 235.738 509.123C235.949 508.9 236.171 508.751 236.221 508.801Z" fill="#201A4B"/>
<path d="M238.461 507.872C238.449 507.947 238.164 507.947 237.855 508.058C237.545 508.169 237.323 508.343 237.261 508.293C237.199 508.256 237.384 507.947 237.768 507.81C238.152 507.687 238.486 507.81 238.461 507.872Z" fill="#201A4B"/>
<path d="M240.057 507.439C240.082 507.501 239.958 507.612 239.785 507.687C239.612 507.761 239.451 507.761 239.414 507.699C239.389 507.637 239.513 507.526 239.686 507.451C239.872 507.377 240.033 507.365 240.057 507.439Z" fill="#201A4B"/>
<path d="M328.343 502.066L324.878 491.222L304.533 497.597L309.446 513.517L310.733 513.208C316.438 511.759 339.667 505.446 343.07 503.131C346.845 500.544 328.343 502.066 328.343 502.066Z" fill="#0BCE91"/>
<path d="M316.76 511.041C315.943 509.432 314.495 508.145 312.812 507.513C311.117 506.882 309.273 506.845 307.59 507.526L309.372 513.22L316.76 511.041Z" fill="#0BCE91"/>
<path d="M337.477 501.621C337.477 501.621 344.085 501.472 343.639 502.71C343.194 503.948 319.965 511.202 309.446 513.517L309.335 513.047L336.499 504.802C336.499 504.802 336.301 502.042 337.477 501.621Z" fill="#0BCE91"/>
<path d="M309 513.133C309 513.146 309.124 513.121 309.359 513.059C309.669 512.985 310.003 512.898 310.387 512.812C311.401 512.539 312.651 512.205 314.136 511.821C317.292 510.955 321.648 509.704 326.413 508.219C331.19 506.733 335.471 505.285 338.565 504.208C340.001 503.688 341.226 503.255 342.216 502.896C342.587 502.76 342.909 502.636 343.206 502.524C343.429 502.438 343.553 502.388 343.54 502.376C343.54 502.363 343.416 502.401 343.181 502.475C342.884 502.574 342.55 502.685 342.179 502.797C341.176 503.131 339.951 503.539 338.503 504.022C335.397 505.062 331.103 506.473 326.338 507.959C321.574 509.444 317.23 510.719 314.087 511.636C312.614 512.056 311.377 512.415 310.362 512.713C309.991 512.824 309.656 512.923 309.347 513.01C309.124 513.084 309 513.121 309 513.133Z" fill="#201A4B"/>
<path d="M336.585 505.124C336.66 505.112 336.449 504.208 336.721 503.143C336.981 502.066 337.6 501.386 337.538 501.336C337.501 501.274 336.746 501.93 336.474 503.081C336.177 504.22 336.536 505.161 336.585 505.124Z" fill="#201A4B"/>
<path d="M329.63 503.96C329.705 503.985 329.878 503.539 330.026 502.982C330.175 502.425 330.249 501.955 330.175 501.93C330.101 501.905 329.927 502.351 329.779 502.908C329.63 503.465 329.568 503.936 329.63 503.96Z" fill="#201A4B"/>
<path d="M327.712 503.601C327.774 503.639 328.034 503.329 328.282 502.896C328.529 502.475 328.69 502.104 328.628 502.066C328.566 502.029 328.319 502.339 328.059 502.772C327.812 503.193 327.651 503.564 327.712 503.601Z" fill="#201A4B"/>
<path d="M326.066 502.004C326.091 502.079 326.586 501.98 327.168 501.806C327.762 501.633 328.22 501.435 328.195 501.361C328.17 501.286 327.675 501.385 327.093 501.559C326.512 501.732 326.054 501.93 326.066 502.004Z" fill="#201A4B"/>
<path d="M325.287 500.754C325.287 500.816 325.868 500.89 326.574 500.729C327.279 500.568 327.774 500.247 327.749 500.185C327.712 500.123 327.192 500.321 326.524 500.482C325.856 500.643 325.287 500.68 325.287 500.754Z" fill="#201A4B"/>
<path d="M329.767 501.967C329.779 501.992 330.299 501.905 331.066 501.546C331.45 501.373 331.895 501.125 332.366 500.804C332.588 500.63 332.836 500.482 333.059 500.222C333.158 500.098 333.269 499.925 333.257 499.714C333.244 499.504 333.071 499.318 332.898 499.256C331.45 498.996 330.41 500.098 330.15 500.89C330.002 501.299 329.977 501.658 330.002 501.893C330.014 502.128 330.064 502.264 330.076 502.252C330.126 502.252 330.002 501.707 330.324 500.952C330.485 500.581 330.769 500.172 331.215 499.875C331.636 499.59 332.279 499.355 332.811 499.491C333.071 499.578 333.059 499.85 332.873 500.061C332.7 500.271 332.452 500.445 332.242 500.606C331.796 500.927 331.376 501.187 331.004 501.373C330.249 501.769 329.754 501.918 329.767 501.967Z" fill="#201A4B"/>
<path d="M330.126 501.918C330.151 501.93 330.237 501.534 329.99 500.965C329.866 500.68 329.655 500.37 329.334 500.123C329.012 499.9 328.591 499.603 328.034 499.801C327.737 499.937 327.7 500.321 327.824 500.531C327.923 500.754 328.084 500.915 328.232 501.051C328.529 501.311 328.826 501.509 329.099 501.645C329.631 501.918 330.002 501.967 330.014 501.943C330.027 501.905 329.68 501.794 329.185 501.484C328.938 501.336 328.665 501.125 328.393 500.866C328.133 500.643 327.849 500.185 328.158 500.024C328.48 499.888 328.913 500.11 329.198 500.308C329.495 500.531 329.705 500.791 329.829 501.039C330.101 501.546 330.076 501.93 330.126 501.918Z" fill="#201A4B"/>
<path d="M307.677 507.439C307.702 507.488 308.246 507.204 309.199 507.018C310.139 506.832 311.526 506.808 312.899 507.34C314.273 507.872 315.275 508.825 315.857 509.593C316.439 510.373 316.649 510.942 316.698 510.93C316.711 510.93 316.674 510.781 316.575 510.521C316.476 510.261 316.29 509.902 316.005 509.494C315.461 508.677 314.434 507.662 312.998 507.105C311.563 506.548 310.127 506.61 309.162 506.845C308.679 506.956 308.296 507.105 308.048 507.228C307.801 507.34 307.677 507.427 307.677 507.439Z" fill="#201A4B"/>
<path d="M307.144 498.303C307.07 498.328 307.578 500.222 308.271 502.537C308.964 504.852 309.582 506.721 309.644 506.696C309.718 506.671 309.211 504.777 308.518 502.463C307.825 500.148 307.206 498.291 307.144 498.303Z" fill="#201A4B"/>
<path d="M318.703 508.256C318.716 508.318 320.114 508.12 321.76 507.625C323.418 507.129 324.693 506.523 324.656 506.461C324.631 506.387 323.319 506.894 321.686 507.377C320.052 507.872 318.691 508.182 318.703 508.256Z" fill="#201A4B"/>
<path d="M314.718 509.494C314.681 509.556 314.916 509.742 315.151 510.001C315.387 510.261 315.535 510.509 315.609 510.484C315.671 510.459 315.609 510.125 315.349 509.828C315.065 509.531 314.743 509.432 314.718 509.494Z" fill="#201A4B"/>
<path d="M312.627 508.095C312.589 508.157 312.787 508.33 313.072 508.479C313.344 508.627 313.604 508.689 313.629 508.627C313.666 508.565 313.468 508.392 313.183 508.244C312.911 508.095 312.664 508.033 312.627 508.095Z" fill="#201A4B"/>
<path d="M310.213 507.909C310.25 507.971 310.523 507.885 310.844 507.897C311.179 507.897 311.438 507.996 311.476 507.934C311.513 507.885 311.253 507.649 310.844 507.637C310.436 507.637 310.164 507.86 310.213 507.909Z" fill="#201A4B"/>
<path d="M308.555 507.984C308.555 508.058 308.704 508.12 308.889 508.132C309.075 508.145 309.236 508.095 309.236 508.021C309.236 507.947 309.087 507.885 308.902 507.872C308.716 507.872 308.555 507.922 308.555 507.984Z" fill="#201A4B"/>
<path d="M204.912 281.889L214.861 503.044L248.052 503.738L242.545 318.593L302.69 505.953L329.816 498.526L269.288 281.889" fill="#201A4B"/>
<path d="M301.267 504.691L302.814 507.674L331.562 499.281L329.817 494.453L301.267 504.691Z" fill="#2A2359"/>
<path d="M326.5 493.351C326.673 493.302 326.933 493.661 327.069 494.144C327.218 494.639 327.193 495.072 327.032 495.122C326.859 495.171 326.599 494.812 326.463 494.329C326.314 493.847 326.327 493.401 326.5 493.351Z" fill="#2A2359"/>
<path d="M324.347 486.171C324.52 486.122 324.891 486.877 325.188 487.88C325.485 488.87 325.584 489.712 325.423 489.774C325.25 489.823 324.879 489.068 324.582 488.065C324.285 487.075 324.174 486.221 324.347 486.171Z" fill="#2A2359"/>
<path d="M322.193 478.991C322.367 478.942 322.738 479.697 323.035 480.7C323.332 481.69 323.431 482.532 323.27 482.581C323.097 482.631 322.726 481.876 322.429 480.873C322.132 479.883 322.02 479.041 322.193 478.991Z" fill="#2A2359"/>
<path d="M320.04 471.811C320.213 471.762 320.585 472.517 320.882 473.52C321.179 474.51 321.278 475.352 321.117 475.414C320.944 475.463 320.572 474.708 320.275 473.705C319.978 472.703 319.867 471.861 320.04 471.811Z" fill="#2A2359"/>
<path d="M317.887 464.631C318.06 464.582 318.431 465.337 318.728 466.34C319.025 467.33 319.124 468.172 318.963 468.221C318.79 468.271 318.419 467.516 318.122 466.513C317.825 465.523 317.714 464.681 317.887 464.631Z" fill="#2A2359"/>
<path d="M315.733 457.452C315.907 457.402 316.278 458.157 316.575 459.16C316.872 460.15 316.971 460.992 316.81 461.054C316.637 461.103 316.266 460.348 315.969 459.346C315.672 458.343 315.56 457.501 315.733 457.452Z" fill="#2A2359"/>
<path d="M313.58 450.272C313.753 450.222 314.125 450.977 314.422 451.98C314.719 452.97 314.818 453.812 314.657 453.874C314.484 453.923 314.112 453.168 313.815 452.166C313.518 451.163 313.407 450.321 313.58 450.272Z" fill="#2A2359"/>
<path d="M311.427 443.092C311.6 443.042 311.971 443.797 312.268 444.8C312.565 445.79 312.664 446.632 312.504 446.694C312.33 446.743 311.959 445.988 311.662 444.986C311.365 443.983 311.254 443.141 311.427 443.092Z" fill="#2A2359"/>
<path d="M309.273 435.912C309.447 435.862 309.818 436.617 310.115 437.62C310.412 438.61 310.511 439.452 310.35 439.514C310.177 439.563 309.806 438.808 309.509 437.806C309.212 436.803 309.113 435.961 309.273 435.912Z" fill="#2A2359"/>
<path d="M307.12 428.719C307.293 428.67 307.665 429.425 307.962 430.428C308.259 431.418 308.358 432.26 308.197 432.322C308.024 432.371 307.652 431.616 307.355 430.613C307.058 429.623 306.959 428.781 307.12 428.719Z" fill="#2A2359"/>
<path d="M304.967 421.539C305.14 421.49 305.511 422.245 305.808 423.248C306.105 424.238 306.204 425.08 306.043 425.142C305.87 425.191 305.499 424.436 305.202 423.433C304.905 422.443 304.806 421.589 304.967 421.539Z" fill="#2A2359"/>
<path d="M302.813 414.359C302.987 414.31 303.358 415.065 303.655 416.068C303.952 417.058 304.051 417.9 303.89 417.962C303.717 418.011 303.346 417.256 303.049 416.253C302.752 415.263 302.653 414.409 302.813 414.359Z" fill="#2A2359"/>
<path d="M300.66 407.179C300.833 407.13 301.205 407.885 301.502 408.888C301.799 409.878 301.898 410.72 301.737 410.782C301.564 410.831 301.192 410.076 300.895 409.073C300.598 408.083 300.499 407.229 300.66 407.179Z" fill="#2A2359"/>
<path d="M298.507 399.999C298.68 399.95 299.051 400.705 299.348 401.708C299.645 402.698 299.744 403.54 299.583 403.602C299.41 403.651 299.039 402.896 298.742 401.893C298.445 400.903 298.346 400.049 298.507 399.999Z" fill="#2A2359"/>
<path d="M296.366 392.819C296.539 392.77 296.911 393.525 297.208 394.528C297.505 395.518 297.604 396.36 297.443 396.422C297.282 396.484 296.898 395.716 296.601 394.713C296.292 393.711 296.193 392.869 296.366 392.819Z" fill="#2A2359"/>
<path d="M294.213 385.639C294.386 385.59 294.757 386.345 295.054 387.348C295.351 388.338 295.45 389.18 295.289 389.242C295.116 389.291 294.745 388.536 294.448 387.533C294.138 386.531 294.039 385.689 294.213 385.639Z" fill="#2A2359"/>
<path d="M292.059 378.459C292.233 378.41 292.604 379.165 292.901 380.168C293.198 381.158 293.297 382 293.136 382.062C292.963 382.111 292.592 381.356 292.295 380.353C291.985 379.351 291.886 378.509 292.059 378.459Z" fill="#2A2359"/>
<path d="M289.906 371.279C290.079 371.23 290.451 371.985 290.748 372.988C291.045 373.978 291.144 374.82 290.983 374.882C290.81 374.931 290.438 374.176 290.141 373.173C289.832 372.171 289.733 371.329 289.906 371.279Z" fill="#2A2359"/>
<path d="M287.753 364.099C287.926 364.05 288.297 364.805 288.594 365.808C288.891 366.798 288.99 367.64 288.829 367.702C288.656 367.751 288.285 366.996 287.988 365.993C287.679 364.991 287.58 364.149 287.753 364.099Z" fill="#2A2359"/>
<path d="M285.599 356.919C285.773 356.87 286.144 357.625 286.441 358.628C286.738 359.618 286.837 360.46 286.676 360.522C286.503 360.571 286.132 359.816 285.835 358.813C285.525 357.811 285.426 356.969 285.599 356.919Z" fill="#2A2359"/>
<path d="M283.446 349.727C283.619 349.678 283.991 350.433 284.288 351.435C284.585 352.426 284.684 353.267 284.523 353.329C284.35 353.379 283.978 352.624 283.681 351.621C283.372 350.631 283.273 349.789 283.446 349.727Z" fill="#2A2359"/>
<path d="M281.293 342.547C281.466 342.498 281.837 343.253 282.134 344.255C282.431 345.246 282.53 346.088 282.369 346.149C282.196 346.199 281.825 345.444 281.528 344.441C281.219 343.451 281.12 342.609 281.293 342.547Z" fill="#2A2359"/>
<path d="M279.139 335.367C279.313 335.318 279.684 336.073 279.981 337.075C280.278 338.066 280.377 338.908 280.216 338.969C280.043 339.019 279.672 338.264 279.375 337.261C279.065 336.271 278.966 335.417 279.139 335.367Z" fill="#2A2359"/>
<path d="M276.986 328.187C277.159 328.137 277.531 328.893 277.828 329.895C278.125 330.886 278.224 331.727 278.063 331.789C277.89 331.839 277.518 331.084 277.221 330.081C276.912 329.091 276.813 328.237 276.986 328.187Z" fill="#2A2359"/>
<path d="M274.833 321.007C275.006 320.958 275.377 321.713 275.674 322.715C275.971 323.706 276.07 324.548 275.909 324.609C275.736 324.659 275.365 323.904 275.068 322.901C274.759 321.911 274.66 321.057 274.833 321.007Z" fill="#2A2359"/>
<path d="M272.679 313.827C272.853 313.778 273.224 314.533 273.521 315.535C273.818 316.526 273.917 317.368 273.756 317.429C273.583 317.479 273.211 316.724 272.914 315.721C272.617 314.718 272.506 313.877 272.679 313.827Z" fill="#2A2359"/>
<path d="M270.526 306.647C270.699 306.598 271.071 307.353 271.368 308.355C271.665 309.346 271.764 310.188 271.603 310.249C271.429 310.299 271.058 309.544 270.761 308.541C270.464 307.538 270.353 306.697 270.526 306.647Z" fill="#2A2359"/>
<path d="M268.373 299.467C268.546 299.418 268.917 300.173 269.214 301.175C269.511 302.166 269.61 303.008 269.449 303.07C269.276 303.119 268.905 302.364 268.608 301.361C268.311 300.358 268.199 299.517 268.373 299.467Z" fill="#2A2359"/>
<path d="M266.219 292.287C266.393 292.238 266.764 292.993 267.061 293.995C267.358 294.986 267.457 295.828 267.296 295.889C267.123 295.939 266.751 295.184 266.454 294.181C266.157 293.178 266.046 292.337 266.219 292.287Z" fill="#2A2359"/>
<path d="M264.611 286.915C264.784 286.865 265.044 287.224 265.18 287.707C265.328 288.202 265.304 288.635 265.143 288.685C264.97 288.734 264.71 288.375 264.574 287.892C264.425 287.41 264.437 286.964 264.611 286.915Z" fill="#2A2359"/>
<path d="M242.335 501.93C242.508 501.918 242.681 502.326 242.706 502.846C242.731 503.354 242.607 503.775 242.434 503.787C242.26 503.799 242.087 503.391 242.062 502.871C242.025 502.363 242.149 501.943 242.335 501.93Z" fill="#2A2359"/>
<path d="M242.025 494.565C242.198 494.552 242.384 495.382 242.421 496.397C242.458 497.412 242.347 498.241 242.174 498.254C242 498.266 241.815 497.437 241.778 496.421C241.728 495.406 241.852 494.577 242.025 494.565Z" fill="#2A2359"/>
<path d="M241.802 487.199C241.976 487.199 242.149 488.016 242.174 489.031C242.198 490.046 242.087 490.875 241.901 490.888C241.728 490.888 241.555 490.071 241.53 489.056C241.493 488.028 241.617 487.199 241.802 487.199Z" fill="#2A2359"/>
<path d="M241.605 479.821C241.778 479.821 241.951 480.638 241.976 481.653C242.001 482.668 241.877 483.497 241.704 483.51C241.53 483.51 241.357 482.693 241.332 481.678C241.308 480.663 241.431 479.833 241.605 479.821Z" fill="#2A2359"/>
<path d="M241.431 472.455C241.604 472.455 241.778 473.272 241.802 474.287C241.827 475.302 241.703 476.132 241.53 476.144C241.357 476.144 241.184 475.327 241.159 474.312C241.134 473.285 241.258 472.455 241.431 472.455Z" fill="#2A2359"/>
<path d="M241.245 465.077C241.419 465.077 241.592 465.894 241.617 466.909C241.641 467.924 241.518 468.754 241.344 468.766C241.171 468.766 240.998 467.949 240.973 466.934C240.948 465.907 241.06 465.077 241.245 465.077Z" fill="#2A2359"/>
<path d="M240.998 457.699C241.171 457.687 241.344 458.516 241.382 459.531C241.419 460.546 241.307 461.376 241.122 461.388C240.948 461.388 240.775 460.571 240.738 459.556C240.701 458.541 240.825 457.711 240.998 457.699Z" fill="#2A2359"/>
<path d="M240.689 450.333C240.862 450.321 241.048 451.15 241.085 452.165C241.122 453.181 241.023 454.01 240.837 454.022C240.664 454.035 240.478 453.205 240.441 452.19C240.404 451.175 240.515 450.333 240.689 450.333Z" fill="#2A2359"/>
<path d="M240.404 442.968C240.577 442.955 240.763 443.785 240.8 444.8C240.837 445.815 240.726 446.644 240.552 446.657C240.379 446.669 240.193 445.84 240.156 444.825C240.107 443.797 240.218 442.968 240.404 442.968Z" fill="#2A2359"/>
<path d="M240.144 435.59C240.317 435.59 240.49 436.407 240.528 437.422C240.565 438.437 240.441 439.266 240.268 439.279C240.094 439.279 239.921 438.462 239.884 437.447C239.847 436.431 239.971 435.602 240.144 435.59Z" fill="#2A2359"/>
<path d="M239.921 428.212C240.094 428.212 240.268 429.029 240.292 430.044C240.317 431.059 240.206 431.888 240.02 431.901C239.847 431.901 239.674 431.084 239.649 430.069C239.624 429.053 239.736 428.224 239.921 428.212Z" fill="#2A2359"/>
<path d="M239.723 420.846C239.896 420.846 240.07 421.663 240.094 422.678C240.119 423.693 239.995 424.523 239.822 424.535C239.649 424.535 239.476 423.718 239.451 422.703C239.426 421.675 239.55 420.846 239.723 420.846Z" fill="#2A2359"/>
<path d="M239.562 413.468C239.736 413.468 239.896 414.285 239.921 415.3C239.946 416.315 239.81 417.145 239.637 417.145C239.463 417.145 239.302 416.328 239.278 415.312C239.265 414.31 239.389 413.48 239.562 413.468Z" fill="#2A2359"/>
<path d="M239.439 406.102C239.612 406.102 239.773 406.919 239.785 407.934C239.798 408.949 239.674 409.779 239.488 409.779C239.315 409.779 239.154 408.962 239.142 407.947C239.13 406.932 239.266 406.102 239.439 406.102Z" fill="#2A2359"/>
<path d="M239.352 398.724C239.525 398.724 239.686 399.541 239.699 400.569C239.711 401.584 239.575 402.413 239.401 402.413C239.228 402.413 239.067 401.596 239.055 400.569C239.043 399.554 239.179 398.724 239.352 398.724Z" fill="#2A2359"/>
<path d="M239.303 391.359C239.476 391.359 239.625 392.188 239.637 393.203C239.637 394.218 239.501 395.047 239.328 395.047C239.154 395.047 239.006 394.218 238.993 393.203C238.981 392.176 239.13 391.359 239.303 391.359Z" fill="#2A2359"/>
<path d="M239.29 383.98C239.463 383.98 239.612 384.81 239.612 385.825C239.612 386.84 239.463 387.669 239.29 387.669C239.117 387.669 238.968 386.84 238.968 385.825C238.968 384.81 239.104 383.98 239.29 383.98Z" fill="#2A2359"/>
<path d="M239.303 376.602C239.476 376.602 239.624 377.432 239.612 378.447C239.612 379.462 239.464 380.291 239.278 380.291C239.105 380.291 238.956 379.462 238.968 378.447C238.981 377.432 239.129 376.602 239.303 376.602Z" fill="#2A2359"/>
<path d="M239.364 369.237C239.538 369.237 239.674 370.066 239.674 371.081C239.661 372.096 239.513 372.926 239.34 372.926C239.166 372.926 239.03 372.096 239.03 371.081C239.03 370.054 239.191 369.224 239.364 369.237Z" fill="#2A2359"/>
<path d="M239.463 361.859C239.637 361.859 239.773 362.688 239.761 363.703C239.748 364.718 239.587 365.548 239.414 365.548C239.241 365.548 239.105 364.718 239.117 363.703C239.129 362.676 239.278 361.859 239.463 361.859Z" fill="#2A2359"/>
<path d="M239.587 354.493C239.761 354.493 239.897 355.322 239.872 356.337C239.847 357.353 239.699 358.182 239.513 358.17C239.34 358.17 239.204 357.34 239.229 356.325C239.253 355.31 239.414 354.481 239.587 354.493Z" fill="#2A2359"/>
<path d="M239.761 347.115C239.934 347.115 240.058 347.944 240.033 348.972C240.008 349.987 239.847 350.816 239.662 350.804C239.488 350.804 239.365 349.975 239.389 348.947C239.414 347.932 239.575 347.103 239.761 347.115Z" fill="#2A2359"/>
<path d="M240.02 339.737C240.194 339.749 240.305 340.579 240.268 341.594C240.231 342.609 240.045 343.426 239.872 343.426C239.699 343.426 239.587 342.584 239.624 341.569C239.661 340.542 239.835 339.725 240.02 339.737Z" fill="#2A2359"/>
<path d="M240.441 332.371C240.614 332.384 240.713 333.213 240.639 334.228C240.577 335.243 240.379 336.06 240.194 336.048C240.02 336.035 239.921 335.206 239.996 334.191C240.07 333.176 240.268 332.359 240.441 332.371Z" fill="#2A2359"/>
<path d="M241.122 325.03C241.295 325.055 241.357 325.885 241.258 326.9C241.159 327.915 240.924 328.719 240.751 328.707C240.578 328.695 240.516 327.853 240.615 326.838C240.714 325.81 240.949 325.006 241.122 325.03Z" fill="#2A2359"/>
<path d="M241.839 319.546C242.013 319.571 242.099 320.004 242.025 320.512C241.951 321.019 241.753 321.403 241.58 321.391C241.406 321.366 241.32 320.933 241.394 320.425C241.456 319.905 241.654 319.522 241.839 319.546Z" fill="#2A2359"/>
<path d="M213.995 504.121L249.092 504.691L248.819 498.835L213.995 499.021V504.121Z" fill="#2A2359"/>
<path d="M237.013 284.686C237.063 284.686 237.125 285.169 237.224 286.036C237.31 286.915 237.434 288.177 237.558 289.737C237.805 292.869 238.115 297.189 238.412 301.968C238.548 304.345 238.684 306.622 238.808 308.702C238.932 310.769 238.932 312.651 239.451 314.087C239.934 315.535 240.936 316.39 241.691 316.749C242.459 317.108 242.978 317.046 242.966 317.12C242.966 317.145 242.842 317.17 242.607 317.182C242.372 317.194 242.013 317.145 241.592 316.984C240.751 316.674 239.612 315.795 239.018 314.248C238.399 312.725 238.375 310.794 238.214 308.739C238.078 306.647 237.929 304.382 237.768 302.005C237.471 297.227 237.236 292.906 237.1 289.762C237.038 288.19 236.989 286.927 236.976 286.048C236.951 285.181 236.964 284.699 237.013 284.686Z" fill="#2A2359"/>
<path d="M240.417 287.633C240.466 287.719 240.132 287.93 240.107 288.462C240.095 288.71 240.157 289.019 240.367 289.217C240.553 289.415 240.899 289.465 241.233 289.329C241.567 289.192 241.778 288.908 241.778 288.635C241.79 288.351 241.617 288.078 241.431 287.917C241.048 287.558 240.652 287.633 240.639 287.546C240.577 287.484 241.048 287.175 241.704 287.558C242.001 287.744 242.335 288.091 242.372 288.635C242.421 289.18 242.013 289.737 241.481 289.935C240.961 290.158 240.28 290.047 239.934 289.626C239.587 289.217 239.587 288.722 239.662 288.388C239.86 287.645 240.417 287.546 240.417 287.633Z" fill="#2A2359"/>
<path d="M271.652 292.869C271.689 292.918 270.712 293.55 268.893 293.921C267.11 294.305 264.425 294.293 261.826 293.141C259.215 291.978 257.433 289.985 256.529 288.4C255.601 286.803 255.416 285.652 255.478 285.639C255.589 285.602 255.923 286.679 256.913 288.152C257.891 289.613 259.636 291.445 262.098 292.559C264.561 293.661 267.086 293.736 268.831 293.488C270.576 293.228 271.615 292.77 271.652 292.869Z" fill="#2A2359"/>
<path d="M216.458 284.699C216.532 284.699 216.668 285.627 216.334 287.1C216.012 288.549 215.109 290.542 213.364 292.077C211.606 293.612 209.527 294.243 208.042 294.367C206.545 294.503 205.642 294.231 205.654 294.169C205.666 294.057 206.57 294.156 207.981 293.921C209.379 293.686 211.297 293.018 212.931 291.594C214.564 290.17 215.468 288.351 215.888 286.989C216.321 285.602 216.346 284.686 216.458 284.699Z" fill="#2A2359"/>
<path d="M310.449 261.042C317.268 253.206 317.218 241.532 310.35 233.733L277.246 196.187L268.385 220.958C268.991 221.366 294.15 248.353 294.15 248.353L272.518 275.315C269.189 279.462 268.212 285.045 269.944 290.071L275.723 304.221L291.539 297.115L290.339 295.271H278.458L277.753 292.423L310.449 261.042Z" fill="#FFBE9D"/>
<path d="M173.812 132.087C173.812 132.087 178.997 138.202 184.368 130.936C188.588 125.229 189.492 118.16 186.101 115.164L187.202 114.434C187.202 114.434 192.845 118.098 190.296 126.071C187.747 134.055 182.264 138.177 178.354 137.559C174.456 136.94 173.416 132.854 173.416 132.854L173.8 131.703" fill="#2A2359"/>
<path d="M207.783 191.408C207.783 191.408 174.579 205.112 175.334 204.209L174.493 163.456H161.499C161.499 163.456 152.254 217.207 162.167 223.533C175.718 232.186 208.525 214.174 208.525 214.174L207.783 191.408Z" fill="#FFBE9D"/>
<path d="M171.844 146.892L171.782 147.326L169.295 165.09L161.486 163.456L162.488 153.231" fill="#FFBE9D"/>
<path d="M174.282 145.135L168.887 164.372L173.701 165.325C173.701 165.325 174.381 163.914 175.953 159.742C177.772 154.927 175.829 150.891 175.668 150.458C175.668 150.458 180.037 140.604 178.342 140.158C176.646 139.7 174.282 145.135 174.282 145.135Z" fill="#FFBE9D"/>
<path d="M178.49 137.2C178.217 138.029 166.634 166.662 166.634 166.662L163.738 165.041L175.371 134.612L178.49 137.2Z" fill="#201A4B"/>
<path d="M161.845 161.946C161.845 161.946 160.434 153.528 161.981 150.916C162.538 149.975 170.508 138.994 171.077 139.341C171.646 139.688 175.099 149.418 173.267 149.752C171.436 150.074 170.706 148.143 170.706 148.143C170.706 148.143 173.107 154.134 171.423 154.221C169.74 154.32 168.317 150.619 168.317 150.619C168.317 150.619 171.857 157.675 169.641 158.046C167.426 158.418 164.382 152.612 164.382 152.612L161.845 161.946Z" fill="#FFBE9D"/>
<path d="M169.171 143.253C169.344 143.191 170.136 144.949 170.941 147.165C171.151 147.722 171.312 148.254 171.535 148.663C171.757 149.071 172.054 149.344 172.364 149.517C172.983 149.863 173.478 149.826 173.49 149.925C173.515 149.987 172.995 150.235 172.166 149.938C171.77 149.789 171.324 149.455 171.027 148.972C170.718 148.489 170.545 147.945 170.334 147.388C169.53 145.172 168.998 143.315 169.171 143.253Z" fill="#EB996E"/>
<path d="M166.708 145.976C166.882 145.915 168.045 149.195 169.963 153.008C170.198 153.491 170.433 153.912 170.768 154.035C171.114 154.172 171.362 154.023 171.473 153.639C171.584 153.28 171.547 152.835 171.535 152.426C171.51 152.018 171.473 151.646 171.436 151.3C171.25 149.925 170.966 149.096 171.065 149.071C171.139 149.047 171.572 149.814 171.894 151.225C171.968 151.572 172.03 151.968 172.079 152.389C172.116 152.81 172.191 153.255 172.055 153.8C171.993 154.06 171.844 154.37 171.535 154.555C171.238 154.741 170.842 154.741 170.545 154.617C169.901 154.357 169.629 153.738 169.406 153.293C167.439 149.443 166.548 146.026 166.708 145.976Z" fill="#EB996E"/>
<path d="M164.58 150.062C164.654 150.024 165.162 150.829 165.916 152.166C166.325 152.921 166.758 153.701 167.204 154.531C167.451 154.989 167.699 155.459 167.946 155.942C168.206 156.425 168.441 156.982 168.763 157.341C169.085 157.712 169.567 157.836 169.864 157.588C170.186 157.341 170.334 156.883 170.273 156.449C170.124 155.558 169.691 154.667 169.481 153.949C168.986 152.488 168.713 151.584 168.8 151.547C168.887 151.51 169.295 152.377 169.901 153.788C170.062 154.159 170.223 154.555 170.384 154.951C170.545 155.36 170.768 155.818 170.854 156.387C170.941 156.944 170.805 157.662 170.235 158.108C169.951 158.331 169.53 158.43 169.171 158.331C168.812 158.244 168.515 158.034 168.28 157.786C167.822 157.266 167.637 156.722 167.377 156.239C167.129 155.756 166.894 155.273 166.671 154.815C166.263 153.961 165.879 153.156 165.508 152.377C164.865 150.99 164.506 150.111 164.58 150.062Z" fill="#EB996E"/>
<path d="M179.121 138.462C178.156 138.462 177.215 138.277 176.324 137.88C173.923 136.816 172.29 134.488 171.733 131.307C171.213 128.311 171.708 124.882 173.131 121.651C174.554 118.42 176.757 115.746 179.331 114.125C182.054 112.404 184.876 112.032 187.276 113.097C189.677 114.162 191.311 116.489 191.868 119.67C192.387 122.666 191.892 126.095 190.469 129.326C188.007 134.885 183.353 138.462 179.121 138.462ZM184.43 114.979C183.242 114.979 181.955 115.4 180.656 116.217C178.502 117.578 176.634 119.869 175.396 122.654C174.158 125.439 173.725 128.361 174.171 130.886C174.579 133.226 175.693 134.909 177.314 135.627C180.792 137.162 185.767 133.82 188.192 128.324C189.43 125.538 189.863 122.617 189.417 120.104C189.009 117.764 187.895 116.08 186.274 115.362C185.705 115.103 185.086 114.979 184.43 114.979Z" fill="#201A4B"/>
<path d="M294.769 212.069L273.867 190.987C269.82 186.791 265.093 183.684 259.437 181.641C256.69 180.651 253.769 180.057 250.391 179.908C243.102 182.161 235.825 182.161 228.536 179.92C225.541 180.292 218.908 181.134 211.31 184.86L180.086 197.524L190.086 225.13L206.817 219.497L207.807 245.456L204.503 284.29L269.276 284.959L268.434 249.74L268.385 224.263L277.728 233.362L294.769 212.069Z" fill="#0BCE91"/>
<g opacity="0.1">
<path d="M277.184 196.509C277.184 196.509 276.924 197.029 276.268 197.92C275.612 198.811 274.56 200.074 272.939 201.423C271.318 202.76 269.103 204.184 266.244 205.125C263.41 206.078 259.883 206.499 256.158 205.781C252.445 205.087 248.498 203.28 245.33 200.086C244.562 199.257 243.882 198.316 243.399 197.251C242.916 196.187 242.607 194.961 242.842 193.711C243.077 192.485 243.906 191.309 245.132 190.814C246.344 190.307 247.73 190.393 248.931 190.851C250.144 191.297 251.245 192.163 251.913 193.352C252.544 194.528 252.804 195.902 252.718 197.239C252.569 199.938 251.356 202.488 249.686 204.654C246.344 209.036 240.875 211.871 235.083 212.267C232.187 212.428 229.266 211.995 226.643 210.881C224.056 209.779 221.668 208.021 220.269 205.583C218.896 203.169 218.624 200.099 219.923 197.672C221.222 195.234 224.143 193.934 226.705 194.565C227.992 194.875 229.093 195.766 229.724 196.868C230.38 197.969 230.615 199.244 230.566 200.458C230.467 202.958 228.809 205.05 226.89 206.202C224.96 207.402 222.745 207.86 220.665 207.86C218.586 207.873 216.619 207.514 214.787 207.093C211.124 206.276 207.832 205.162 205.32 203.478C202.783 201.832 201.199 199.603 200.444 197.635C199.652 195.654 199.664 193.934 199.85 192.844C200.036 191.743 200.32 191.223 200.32 191.223C200.357 191.235 200.122 191.78 199.974 192.857C199.838 193.934 199.875 195.605 200.679 197.536C201.459 199.455 203.018 201.584 205.518 203.169C207.993 204.79 211.248 205.855 214.886 206.635C216.705 207.031 218.636 207.365 220.665 207.34C222.67 207.328 224.787 206.87 226.606 205.719C228.412 204.605 229.91 202.673 229.997 200.396C230.046 199.282 229.823 198.106 229.229 197.128C228.648 196.15 227.695 195.37 226.556 195.11C224.292 194.54 221.594 195.741 220.455 197.92C219.279 200.123 219.515 202.983 220.802 205.224C222.113 207.501 224.378 209.173 226.89 210.25C229.415 211.314 232.224 211.735 235.033 211.574C240.652 211.19 245.948 208.442 249.178 204.221C250.8 202.141 251.963 199.69 252.099 197.165C252.173 195.914 251.938 194.664 251.369 193.599C250.8 192.56 249.81 191.78 248.708 191.359C247.619 190.938 246.369 190.864 245.342 191.297C244.302 191.718 243.585 192.696 243.374 193.773C243.176 194.85 243.424 195.976 243.882 196.979C244.327 197.982 244.983 198.885 245.701 199.678C248.758 202.773 252.606 204.58 256.232 205.286C259.883 206.028 263.323 205.645 266.12 204.741C268.942 203.837 271.145 202.475 272.766 201.188C274.399 199.888 275.476 198.65 276.157 197.796C276.85 196.991 277.159 196.496 277.184 196.509Z" fill="#201A4B"/>
</g>
<g opacity="0.1">
<path d="M266.591 251.497C266.591 251.497 266.195 251.794 265.316 252.129C264.437 252.451 263.051 252.785 261.269 252.661C259.487 252.55 257.309 251.955 255.131 250.631C252.941 249.331 250.775 247.412 248.547 245.147C247.458 243.996 246.345 242.621 245.936 240.851C245.75 239.96 245.775 239.007 246.072 238.115C246.369 237.224 246.963 236.357 247.867 235.875C248.758 235.392 249.884 235.38 250.837 235.726C251.802 236.073 252.644 236.692 253.324 237.472C254.673 239.056 255.317 241.21 255.242 243.364C255.168 245.518 254.426 247.697 253.04 249.492C251.641 251.275 249.661 252.599 247.458 253.354C245.255 254.109 242.83 254.332 240.466 253.998C238.09 253.651 235.776 252.822 233.635 251.621C231.506 250.42 229.551 248.984 227.868 247.276C226.21 245.58 224.91 243.339 224.886 240.925C224.861 239.737 225.121 238.536 225.752 237.521C226.371 236.494 227.361 235.751 228.437 235.33C230.603 234.538 233.09 234.921 234.811 236.32C236.531 237.732 237.335 239.886 237.409 241.916C237.496 243.971 236.803 245.951 235.652 247.486C233.35 250.594 229.799 252.042 226.668 252.463C220.307 253.156 215.035 251.733 212.114 249.665C210.629 248.65 209.788 247.486 209.342 246.669C209.107 246.261 208.983 245.927 208.909 245.691C208.835 245.469 208.798 245.345 208.81 245.345C208.859 245.32 208.983 245.815 209.453 246.608C209.924 247.387 210.778 248.502 212.25 249.467C215.134 251.423 220.381 252.76 226.593 252.017C229.65 251.584 233.041 250.148 235.207 247.177C236.283 245.716 236.914 243.872 236.828 241.941C236.754 240.034 235.986 238.041 234.415 236.778C232.88 235.528 230.578 235.181 228.635 235.899C227.67 236.271 226.816 236.927 226.272 237.831C225.727 238.734 225.48 239.811 225.504 240.901C225.529 243.104 226.717 245.184 228.314 246.818C229.922 248.464 231.865 249.876 233.932 251.052C236.011 252.215 238.251 253.02 240.54 253.354C242.818 253.676 245.132 253.466 247.248 252.748C249.352 252.03 251.233 250.767 252.545 249.096C253.856 247.425 254.574 245.357 254.648 243.327C254.735 241.309 254.129 239.279 252.903 237.831C252.285 237.113 251.505 236.543 250.664 236.234C249.822 235.912 248.881 235.937 248.127 236.333C246.58 237.15 246.097 239.168 246.431 240.727C246.79 242.349 247.842 243.686 248.894 244.825C251.072 247.09 253.2 249.021 255.329 250.321C257.445 251.634 259.549 252.252 261.294 252.401C263.039 252.562 264.4 252.277 265.279 252.005C266.145 251.708 266.578 251.46 266.591 251.497Z" fill="#201A4B"/>
</g>
</svg>
