<svg width="358" height="519" viewBox="0 0 358 519" fill="none" xmlns="http://www.w3.org/2000/svg">
<rect width="358" height="400" fill="#1C1544"/>
<rect y="431" width="358" height="88" fill="#1C1544"/>
<rect x="179.314" y="424" width="16" height="16" transform="rotate(45 179.314 424)" fill="#1C1544"/>
<rect x="25" y="486" width="308" height="3" fill="#2A2359"/>
<rect x="25" y="486" width="124" height="3" fill="#0BCE91"/>
<path d="M25.994 464V454.2H27.478V464H25.994ZM26.736 453.29C26.5213 453.29 26.3347 453.215 26.176 453.066C26.0267 452.907 25.952 452.721 25.952 452.506C25.952 452.291 26.0267 452.109 26.176 451.96C26.3347 451.801 26.5213 451.722 26.736 451.722C26.9507 451.722 27.1327 451.801 27.282 451.96C27.4407 452.109 27.52 452.291 27.52 452.506C27.52 452.721 27.4407 452.907 27.282 453.066C27.1327 453.215 26.9507 453.29 26.736 453.29ZM29.4107 464V453.92H30.8947V464H29.4107ZM36.0219 464.168C35.3406 464.168 34.7339 464.019 34.2019 463.72C33.6793 463.412 33.2686 462.987 32.9699 462.446C32.6713 461.905 32.5219 461.275 32.5219 460.556C32.5219 459.828 32.6666 459.189 32.9559 458.638C33.2546 458.087 33.6653 457.658 34.1879 457.35C34.7199 457.042 35.3359 456.888 36.0359 456.888C36.7173 456.888 37.3099 457.042 37.8139 457.35C38.3179 457.649 38.7099 458.05 38.9899 458.554C39.2699 459.058 39.4099 459.613 39.4099 460.22C39.4099 460.313 39.4053 460.416 39.3959 460.528C39.3959 460.631 39.3913 460.747 39.3819 460.878H33.9779C34.0246 461.55 34.2439 462.063 34.6359 462.418C35.0373 462.763 35.4993 462.936 36.0219 462.936C36.4419 462.936 36.7919 462.843 37.0719 462.656C37.3613 462.46 37.5759 462.199 37.7159 461.872H39.1999C39.0133 462.525 38.6399 463.071 38.0799 463.51C37.5293 463.949 36.8433 464.168 36.0219 464.168ZM36.0219 458.106C35.5273 458.106 35.0886 458.255 34.7059 458.554C34.3233 458.843 34.0899 459.282 34.0059 459.87H37.9259C37.8979 459.329 37.7066 458.899 37.3519 458.582C36.9973 458.265 36.5539 458.106 36.0219 458.106ZM40.9497 464V457.056H42.2797L42.4057 458.372C42.6484 457.915 42.9844 457.555 43.4137 457.294C43.8524 457.023 44.3797 456.888 44.9957 456.888V458.442H44.5897C44.1791 458.442 43.8104 458.512 43.4837 458.652C43.1664 458.783 42.9097 459.011 42.7137 459.338C42.5271 459.655 42.4337 460.099 42.4337 460.668V464H40.9497ZM46.2681 464V453.92H47.7521V464H46.2681ZM52.8794 464.168C52.198 464.168 51.5914 464.019 51.0594 463.72C50.5367 463.412 50.126 462.987 49.8274 462.446C49.5287 461.905 49.3794 461.275 49.3794 460.556C49.3794 459.828 49.524 459.189 49.8134 458.638C50.112 458.087 50.5227 457.658 51.0454 457.35C51.5774 457.042 52.1934 456.888 52.8934 456.888C53.5747 456.888 54.1674 457.042 54.6714 457.35C55.1754 457.649 55.5674 458.05 55.8474 458.554C56.1274 459.058 56.2674 459.613 56.2674 460.22C56.2674 460.313 56.2627 460.416 56.2534 460.528C56.2534 460.631 56.2487 460.747 56.2394 460.878H50.8354C50.882 461.55 51.1014 462.063 51.4934 462.418C51.8947 462.763 52.3567 462.936 52.8794 462.936C53.2994 462.936 53.6494 462.843 53.9294 462.656C54.2187 462.46 54.4334 462.199 54.5734 461.872H56.0574C55.8707 462.525 55.4974 463.071 54.9374 463.51C54.3867 463.949 53.7007 464.168 52.8794 464.168ZM52.8794 458.106C52.3847 458.106 51.946 458.255 51.5634 458.554C51.1807 458.843 50.9474 459.282 50.8634 459.87H54.7834C54.7554 459.329 54.564 458.899 54.2094 458.582C53.8547 458.265 53.4114 458.106 52.8794 458.106ZM57.8071 464V457.056H59.1231L59.2491 458.036C59.4731 457.681 59.7671 457.401 60.1311 457.196C60.5045 456.991 60.9338 456.888 61.4191 456.888C62.5205 456.888 63.2858 457.322 63.7151 458.19C63.9671 457.789 64.3031 457.471 64.7231 457.238C65.1525 457.005 65.6145 456.888 66.1091 456.888C66.9771 456.888 67.6585 457.149 68.1531 457.672C68.6478 458.195 68.8951 458.974 68.8951 460.01V464H67.4111V460.164C67.4111 458.82 66.8978 458.148 65.8711 458.148C65.3485 458.148 64.9191 458.344 64.5831 458.736C64.2565 459.128 64.0931 459.688 64.0931 460.416V464H62.6091V460.164C62.6091 458.82 62.0911 458.148 61.0551 458.148C60.5418 458.148 60.1171 458.344 59.7811 458.736C59.4545 459.128 59.2911 459.688 59.2911 460.416V464H57.8071ZM73.8794 464.168C73.198 464.168 72.5914 464.019 72.0594 463.72C71.5367 463.412 71.126 462.987 70.8274 462.446C70.5287 461.905 70.3794 461.275 70.3794 460.556C70.3794 459.828 70.524 459.189 70.8134 458.638C71.112 458.087 71.5227 457.658 72.0454 457.35C72.5774 457.042 73.1934 456.888 73.8934 456.888C74.5747 456.888 75.1674 457.042 75.6714 457.35C76.1754 457.649 76.5674 458.05 76.8474 458.554C77.1274 459.058 77.2674 459.613 77.2674 460.22C77.2674 460.313 77.2627 460.416 77.2534 460.528C77.2534 460.631 77.2487 460.747 77.2394 460.878H71.8354C71.882 461.55 72.1014 462.063 72.4934 462.418C72.8947 462.763 73.3567 462.936 73.8794 462.936C74.2994 462.936 74.6494 462.843 74.9294 462.656C75.2187 462.46 75.4334 462.199 75.5734 461.872H77.0574C76.8707 462.525 76.4974 463.071 75.9374 463.51C75.3867 463.949 74.7007 464.168 73.8794 464.168ZM73.8794 458.106C73.3847 458.106 72.946 458.255 72.5634 458.554C72.1807 458.843 71.9474 459.282 71.8634 459.87H75.7834C75.7554 459.329 75.564 458.899 75.2094 458.582C74.8547 458.265 74.4114 458.106 73.8794 458.106ZM78.8071 464V457.056H80.1231L80.2351 458.274C80.4498 457.845 80.7625 457.509 81.1731 457.266C81.5931 457.014 82.0738 456.888 82.6151 456.888C83.4551 456.888 84.1131 457.149 84.5891 457.672C85.0745 458.195 85.3171 458.974 85.3171 460.01V464H83.8471V460.164C83.8471 458.82 83.2965 458.148 82.1951 458.148C81.6445 458.148 81.1871 458.344 80.8231 458.736C80.4685 459.128 80.2911 459.688 80.2911 460.416V464H78.8071ZM87.905 455.74C87.625 455.74 87.3916 455.656 87.205 455.488C87.0276 455.311 86.939 455.091 86.939 454.83C86.939 454.569 87.0276 454.354 87.205 454.186C87.3916 454.009 87.625 453.92 87.905 453.92C88.185 453.92 88.4136 454.009 88.591 454.186C88.7776 454.354 88.871 454.569 88.871 454.83C88.871 455.091 88.7776 455.311 88.591 455.488C88.4136 455.656 88.185 455.74 87.905 455.74ZM87.163 464V457.056H88.647V464H87.163ZM90.144 464V462.796L93.854 458.288H90.2V457.056H95.534V458.26L91.796 462.768H95.604V464H90.144Z" fill="white"/>
<path d="M314.786 464V462.936C315.421 462.432 316.028 461.923 316.606 461.41C317.185 460.897 317.698 460.393 318.146 459.898C318.604 459.394 318.963 458.904 319.224 458.428C319.486 457.943 319.616 457.476 319.616 457.028C319.616 456.729 319.565 456.449 319.462 456.188C319.36 455.917 319.192 455.703 318.958 455.544C318.725 455.376 318.412 455.292 318.02 455.292C317.432 455.292 316.989 455.479 316.69 455.852C316.401 456.225 316.261 456.673 316.27 457.196H314.828C314.838 456.505 314.982 455.927 315.262 455.46C315.552 454.993 315.934 454.639 316.41 454.396C316.896 454.153 317.442 454.032 318.048 454.032C318.972 454.032 319.71 454.293 320.26 454.816C320.82 455.329 321.1 456.048 321.1 456.972C321.1 457.523 320.965 458.069 320.694 458.61C320.433 459.151 320.088 459.674 319.658 460.178C319.238 460.673 318.786 461.139 318.3 461.578C317.815 462.017 317.353 462.413 316.914 462.768H321.394V464H314.786ZM322.364 465.442L325.864 453.206H327.32L323.806 465.442H322.364ZM331.658 464.168C331.005 464.168 330.412 464.051 329.88 463.818C329.358 463.575 328.938 463.239 328.62 462.81C328.312 462.381 328.158 461.877 328.158 461.298C328.158 460.71 328.322 460.183 328.648 459.716C328.984 459.249 329.428 458.932 329.978 458.764C329.484 458.568 329.101 458.283 328.83 457.91C328.56 457.527 328.424 457.107 328.424 456.65C328.424 456.174 328.55 455.74 328.802 455.348C329.054 454.947 329.418 454.629 329.894 454.396C330.38 454.153 330.968 454.032 331.658 454.032C332.349 454.032 332.932 454.153 333.408 454.396C333.894 454.629 334.262 454.947 334.514 455.348C334.766 455.74 334.892 456.174 334.892 456.65C334.892 457.098 334.752 457.518 334.472 457.91C334.202 458.293 333.819 458.577 333.324 458.764C333.875 458.941 334.314 459.263 334.64 459.73C334.976 460.187 335.144 460.71 335.144 461.298C335.144 461.877 334.99 462.381 334.682 462.81C334.374 463.239 333.954 463.575 333.422 463.818C332.9 464.051 332.312 464.168 331.658 464.168ZM331.658 458.288C332.2 458.288 332.624 458.148 332.932 457.868C333.25 457.588 333.408 457.229 333.408 456.79C333.408 456.295 333.254 455.917 332.946 455.656C332.638 455.395 332.209 455.264 331.658 455.264C331.108 455.264 330.678 455.395 330.37 455.656C330.062 455.917 329.908 456.295 329.908 456.79C329.908 457.229 330.062 457.588 330.37 457.868C330.678 458.148 331.108 458.288 331.658 458.288ZM331.658 462.908C332.33 462.908 332.834 462.749 333.17 462.432C333.506 462.105 333.674 461.69 333.674 461.186C333.674 460.626 333.492 460.197 333.128 459.898C332.774 459.59 332.284 459.436 331.658 459.436C331.033 459.436 330.538 459.59 330.174 459.898C329.81 460.197 329.628 460.626 329.628 461.186C329.628 461.69 329.796 462.105 330.132 462.432C330.478 462.749 330.986 462.908 331.658 462.908Z" fill="#686195"/>
<circle cx="150" cy="488" r="12" fill="#0BCE91"/>
<g clip-path="url(#clip0)">
<path d="M358 214.957H3.96875V218.195H358V214.957Z" fill="#332B68"/>
<path d="M252.876 175.4C253.495 175.668 254.998 175.639 254.998 175.639C255.017 175.639 254.675 174.646 254.646 174.589C254.313 173.892 253.266 172.746 252.419 172.86C251.81 172.946 251.468 173.557 251.601 174.14C251.753 174.732 252.353 175.171 252.876 175.4Z" fill="#332B68"/>
<path d="M272.625 170.253C271.768 170.157 270.759 171.332 270.445 172.039C270.417 172.096 270.103 173.099 270.122 173.099H270.141C269.979 173.28 269.808 173.481 269.627 173.701C269.294 174.111 268.923 174.579 268.551 175.114C268.18 175.649 267.79 176.241 267.428 176.9C267.067 177.559 266.734 178.275 266.467 179.058C266.467 179.068 266.458 179.077 266.458 179.087C266.458 178.839 266.448 178.132 266.448 178.075C266.353 177.311 265.715 175.897 264.868 175.735C264.259 175.62 263.745 176.098 263.698 176.69C263.65 177.291 264.088 177.903 264.516 178.285C265.002 178.714 266.334 179.135 266.439 179.163C266.201 179.908 266.02 180.701 265.877 181.503C265.791 181.961 265.725 182.429 265.668 182.897C265.668 182.678 265.658 182.487 265.658 182.458C265.563 181.694 264.925 180.281 264.078 180.118C263.469 180.004 262.955 180.481 262.908 181.073C262.86 181.675 263.298 182.286 263.726 182.668C264.164 183.06 265.297 183.432 265.592 183.528C265.573 183.709 265.544 183.891 265.525 184.072C265.42 184.941 265.325 185.801 265.201 186.641C265.154 186.937 265.106 187.233 265.049 187.52C265.049 187.329 265.04 187.166 265.04 187.138C264.944 186.374 264.307 184.96 263.46 184.798C262.851 184.683 262.337 185.161 262.289 185.753C262.242 186.354 262.679 186.966 263.108 187.348C263.517 187.72 264.564 188.074 264.925 188.198C264.859 188.494 264.802 188.79 264.726 189.076C264.668 189.267 264.63 189.458 264.564 189.649C264.507 189.84 264.44 190.031 264.383 190.213C264.25 190.566 264.126 190.939 263.993 191.282C263.898 191.521 263.812 191.75 263.717 191.98C263.764 191.683 263.841 191.101 263.841 191.053C263.85 190.537 263.669 189.707 263.308 189.124C263.308 189.048 263.308 188.971 263.298 188.895C263.203 188.303 262.651 187.873 262.051 188.026C261.223 188.245 260.7 189.707 260.652 190.48C260.652 190.528 260.681 191.025 260.7 191.33C260.662 191.149 260.624 190.977 260.576 190.786C260.491 190.413 260.395 190.05 260.291 189.659C260.234 189.468 260.176 189.277 260.119 189.086C260.062 188.895 259.986 188.704 259.92 188.503C259.758 188.054 259.567 187.606 259.368 187.157C259.691 187.08 260.824 186.784 261.28 186.44C261.737 186.087 262.213 185.514 262.213 184.912C262.213 184.32 261.728 183.805 261.119 183.871C260.262 183.967 259.52 185.333 259.368 186.087C259.358 186.135 259.31 186.689 259.282 186.994C259.158 186.727 259.044 186.46 258.911 186.192C258.53 185.419 258.121 184.655 257.712 183.881C257.588 183.642 257.464 183.413 257.34 183.174C257.455 183.146 258.816 182.83 259.32 182.439C259.777 182.086 260.253 181.513 260.253 180.911C260.253 180.319 259.767 179.803 259.158 179.87C258.302 179.965 257.559 181.331 257.407 182.086C257.398 182.143 257.321 182.936 257.312 183.146C257.045 182.63 256.779 182.105 256.541 181.579C256.208 180.854 255.922 180.128 255.703 179.412C255.761 179.402 257.179 179.077 257.702 178.676C258.159 178.323 258.635 177.75 258.635 177.148C258.635 176.556 258.149 176.04 257.54 176.107C256.684 176.203 255.941 177.568 255.789 178.323C255.78 178.38 255.704 179.24 255.694 179.392C255.684 179.345 255.665 179.307 255.646 179.259C255.418 178.485 255.294 177.702 255.209 176.967C255.161 176.537 255.142 176.126 255.123 175.725C255.389 175.697 256.627 175.525 257.141 175.219C257.626 174.923 258.168 174.407 258.235 173.796C258.292 173.204 257.873 172.641 257.255 172.641C256.398 172.641 255.513 173.911 255.275 174.646C255.266 174.684 255.18 175.104 255.113 175.41C255.113 175.229 255.104 175.038 255.104 174.866C255.104 174.216 255.142 173.615 255.19 173.089C255.218 172.793 255.247 172.516 255.275 172.268C255.523 172.096 256.512 171.389 256.826 170.893C257.122 170.406 257.369 169.69 257.15 169.126C256.931 168.572 256.303 168.267 255.751 168.553C254.99 168.945 254.79 170.492 254.914 171.246C254.923 171.313 255.209 172.316 255.228 172.306C255.228 172.306 255.237 172.297 255.247 172.297C255.209 172.535 255.18 172.803 255.152 173.089C255.104 173.615 255.047 174.216 255.028 174.866C255.009 175.515 255.009 176.231 255.075 176.976C255.142 177.731 255.247 178.514 255.466 179.306C255.466 179.316 255.475 179.326 255.475 179.335C255.342 179.125 254.942 178.542 254.904 178.495C254.4 177.912 253.096 177.081 252.306 177.425C251.735 177.664 251.573 178.351 251.859 178.877C252.154 179.412 252.848 179.669 253.419 179.755C254.057 179.851 255.399 179.459 255.513 179.431C255.723 180.185 256.008 180.94 256.332 181.694C256.512 182.124 256.712 182.554 256.922 182.974C256.798 182.792 256.684 182.63 256.674 182.611C256.17 182.028 254.866 181.197 254.076 181.541C253.505 181.78 253.343 182.468 253.629 182.993C253.924 183.528 254.619 183.785 255.19 183.871C255.761 183.957 256.922 183.642 257.226 183.556C257.302 183.719 257.388 183.881 257.464 184.043C257.854 184.817 258.245 185.6 258.606 186.364C258.73 186.631 258.854 186.908 258.968 187.185C258.863 187.023 258.768 186.889 258.749 186.87C258.245 186.288 256.941 185.457 256.151 185.801C255.58 186.039 255.418 186.727 255.703 187.252C255.999 187.787 256.693 188.045 257.264 188.131C257.816 188.207 258.882 187.93 259.244 187.835C259.358 188.121 259.463 188.398 259.558 188.675C259.615 188.866 259.691 189.048 259.739 189.239C259.796 189.43 259.843 189.621 259.9 189.812C259.986 190.184 260.081 190.557 260.157 190.919C260.215 191.168 260.262 191.407 260.31 191.655C260.186 191.378 259.929 190.853 259.91 190.814C259.501 190.165 258.33 189.143 257.502 189.353C256.903 189.506 256.636 190.155 256.836 190.719C257.045 191.292 257.693 191.655 258.245 191.827C258.844 192.008 260.186 191.846 260.348 191.817C260.424 192.218 260.5 192.61 260.567 192.973C260.795 194.252 260.928 195.322 261.014 196.077C261.033 196.21 261.043 196.325 261.052 196.439H258.463L259.406 214.919H263.812L264.754 196.439H262.346C262.365 196.401 262.384 196.363 262.403 196.325C262.737 195.637 263.193 194.644 263.688 193.431C263.85 193.049 264.002 192.638 264.164 192.209C264.326 192.247 265.649 192.514 266.267 192.371C266.829 192.247 267.505 191.932 267.752 191.378C267.999 190.833 267.781 190.165 267.19 189.964C266.372 189.687 265.135 190.614 264.678 191.235C264.649 191.273 264.402 191.703 264.25 191.97C264.316 191.798 264.383 191.626 264.44 191.445C264.573 191.091 264.688 190.728 264.821 190.346C264.878 190.155 264.935 189.964 264.992 189.773C265.049 189.582 265.097 189.372 265.144 189.181C265.259 188.713 265.344 188.236 265.42 187.749C265.734 187.863 266.838 188.245 267.409 188.207C267.98 188.169 268.694 187.959 269.027 187.443C269.351 186.947 269.237 186.249 268.685 185.963C267.923 185.571 266.553 186.297 266.01 186.842C265.972 186.88 265.63 187.31 265.449 187.548C265.496 187.262 265.544 186.966 265.582 186.67C265.687 185.82 265.772 184.951 265.849 184.082C265.877 183.814 265.906 183.556 265.934 183.289C266.048 183.327 267.352 183.814 267.99 183.776C268.561 183.738 269.275 183.528 269.608 183.012C269.931 182.515 269.817 181.818 269.265 181.532C268.504 181.14 267.133 181.866 266.591 182.41C266.553 182.448 266.048 183.079 265.934 183.241C265.991 182.659 266.058 182.076 266.153 181.513C266.277 180.729 266.439 179.965 266.648 179.24C266.696 179.259 268.057 179.774 268.723 179.727C269.294 179.688 270.008 179.478 270.341 178.963C270.664 178.466 270.55 177.769 269.998 177.482C269.237 177.091 267.866 177.817 267.324 178.361C267.286 178.399 266.743 179.077 266.658 179.201C266.667 179.154 266.677 179.115 266.696 179.068C266.934 178.294 267.257 177.578 267.59 176.919C267.79 176.537 267.99 176.184 268.199 175.84C268.447 175.964 269.56 176.508 270.16 176.527C270.731 176.547 271.464 176.422 271.854 175.954C272.234 175.496 272.187 174.789 271.673 174.445C270.959 173.968 269.522 174.541 268.923 175.018C268.894 175.047 268.589 175.343 268.371 175.572C268.466 175.42 268.561 175.257 268.666 175.114C269.027 174.57 269.389 174.092 269.712 173.681C269.903 173.443 270.074 173.233 270.236 173.042C270.54 173.032 271.749 173.003 272.282 172.746C272.796 172.497 273.396 172.048 273.519 171.447C273.595 170.931 273.243 170.32 272.625 170.253ZM263.174 193.269C262.66 194.463 262.185 195.437 261.842 196.105C261.775 196.239 261.709 196.363 261.652 196.468H261.595C261.575 196.334 261.556 196.191 261.537 196.029C261.433 195.274 261.271 194.186 261.014 192.906C260.938 192.495 260.843 192.065 260.738 191.626C260.843 191.588 261.404 191.359 261.909 191.072C262.346 191.55 263.469 192.113 263.622 192.18C263.469 192.562 263.317 192.925 263.174 193.269Z" fill="#332B68"/>
<path d="M268.122 175.735C268.131 175.744 268.398 174.732 268.407 174.665C268.512 173.901 268.274 172.373 267.494 171.991C266.932 171.724 266.313 172.048 266.114 172.602C265.904 173.175 266.171 173.873 266.485 174.36C266.846 174.933 268.122 175.735 268.122 175.735Z" fill="#332B68"/>
<path d="M48.6232 177.349C49.2133 177.607 50.6408 177.578 50.6408 177.578C50.6598 177.578 50.3363 176.632 50.3077 176.575C49.9937 175.916 48.9944 174.827 48.1854 174.932C47.6049 175.009 47.2813 175.601 47.4146 176.145C47.5478 176.709 48.1188 177.129 48.6232 177.349Z" fill="#332B68"/>
<path d="M67.3903 172.449C66.5813 172.364 65.6106 173.481 65.3156 174.149C65.287 174.207 64.992 175.152 65.011 175.152C65.011 175.152 65.0206 175.152 65.0301 175.152C64.8778 175.324 64.716 175.515 64.5447 175.725C64.2307 176.117 63.869 176.566 63.5169 177.072C63.1648 177.578 62.7936 178.141 62.451 178.772C62.1084 179.402 61.7848 180.08 61.5374 180.825C61.5374 180.835 61.5374 180.844 61.5278 180.854C61.5278 180.615 61.5183 179.946 61.5183 179.889C61.4231 179.163 60.8141 177.817 60.0146 177.664C59.4341 177.559 58.9487 178.008 58.9011 178.571C58.8536 179.144 59.2723 179.727 59.672 180.09C60.1288 180.5 61.4041 180.901 61.4993 180.93C61.2709 181.637 61.0996 182.391 60.9663 183.155C60.8902 183.594 60.8236 184.034 60.7665 184.483C60.7665 184.273 60.757 184.091 60.757 184.062C60.6618 183.337 60.0527 181.99 59.2533 181.837C58.6727 181.732 58.1874 182.181 58.1398 182.745C58.0922 183.318 58.511 183.9 58.9107 184.263C59.3199 184.635 60.3953 184.989 60.6903 185.084C60.6713 185.256 60.6428 185.428 60.6237 185.6C60.5286 186.421 60.4334 187.243 60.3192 188.045C60.2811 188.331 60.224 188.608 60.1764 188.885C60.1764 188.704 60.1669 188.541 60.1669 188.522C60.0717 187.797 59.4627 186.45 58.6632 186.297C58.0827 186.192 57.5973 186.641 57.5497 187.204C57.5022 187.777 57.9209 188.36 58.3206 188.723C58.7108 189.076 59.7006 189.42 60.0432 189.525C59.9861 189.812 59.929 190.089 59.8528 190.366C59.7957 190.547 59.7672 190.728 59.7006 190.91C59.6435 191.091 59.5864 191.273 59.5293 191.445C59.4055 191.779 59.2818 192.132 59.1581 192.457C59.0725 192.686 58.9868 192.896 58.8916 193.116C58.9392 192.839 59.0154 192.285 59.0154 192.237C59.0249 191.75 58.8536 190.958 58.511 190.404C58.511 190.327 58.511 190.26 58.5014 190.194C58.4158 189.63 57.8924 189.22 57.3213 189.372C56.5314 189.582 56.0365 190.977 55.9985 191.703C55.9985 191.75 56.027 192.218 56.0461 192.514C56.008 192.342 55.9699 192.171 55.9223 191.999C55.8367 191.645 55.751 191.301 55.6463 190.929C55.5892 190.748 55.5417 190.566 55.4846 190.385C55.437 190.203 55.3608 190.012 55.2942 189.831C55.1419 189.401 54.9611 188.981 54.7708 188.551C55.0753 188.475 56.1603 188.198 56.5885 187.863C57.0168 187.529 57.4831 186.985 57.4736 186.412C57.4736 185.848 57.0168 185.352 56.4267 185.419C55.6178 185.505 54.9135 186.803 54.7613 187.52C54.7517 187.567 54.7042 188.093 54.6851 188.379C54.5709 188.121 54.4567 187.873 54.333 187.615C53.9714 186.88 53.5812 186.154 53.191 185.419C53.0768 185.199 52.953 184.97 52.8388 184.75C52.9435 184.721 54.2378 184.425 54.7232 184.053C55.1515 183.719 55.6178 183.174 55.6083 182.601C55.6083 182.038 55.1515 181.541 54.5614 181.608C53.7525 181.694 53.0482 182.993 52.8959 183.709C52.8864 183.766 52.8198 184.521 52.8103 184.712C52.5533 184.215 52.3059 183.728 52.0775 183.222C51.7634 182.534 51.4969 181.847 51.2781 181.159C51.3256 181.15 52.677 180.844 53.1719 180.453C53.6002 180.118 54.0665 179.574 54.057 179.001C54.057 178.437 53.6002 177.941 53.0101 178.008C52.2012 178.094 51.4969 179.392 51.3447 180.109C51.3352 180.166 51.259 180.978 51.259 181.131C51.2495 181.092 51.2305 181.045 51.221 181.006C51.0021 180.271 50.8879 179.526 50.8117 178.829C50.7641 178.418 50.7451 178.027 50.7356 177.645C50.9925 177.616 52.1631 177.454 52.6485 177.158C53.1148 176.871 53.6287 176.384 53.6858 175.811C53.7429 175.248 53.3432 174.713 52.7532 174.713C51.9347 174.713 51.0972 175.926 50.8688 176.623C50.8593 176.661 50.7737 177.062 50.7166 177.349C50.7166 177.177 50.707 176.995 50.707 176.833C50.707 176.212 50.7451 175.649 50.7832 175.143C50.8117 174.856 50.8308 174.598 50.8593 174.36C51.0972 174.197 52.0394 173.529 52.3344 173.051C52.6199 172.583 52.8484 171.915 52.639 171.37C52.4296 170.845 51.83 170.549 51.3066 170.826C50.5833 171.198 50.393 172.669 50.5072 173.385C50.5167 173.452 50.7927 174.407 50.8022 174.398L50.8117 174.388C50.7832 174.617 50.7451 174.866 50.7166 175.143C50.669 175.649 50.6119 176.212 50.6023 176.833C50.5833 177.454 50.5833 178.132 50.6499 178.839C50.7166 179.555 50.8117 180.3 51.0211 181.054C51.0211 181.064 51.0306 181.073 51.0306 181.083C50.9069 180.882 50.5262 180.328 50.4881 180.29C50.0123 179.736 48.7656 178.953 48.0137 179.268C47.4713 179.497 47.3095 180.147 47.5855 180.644C47.8615 181.15 48.5276 181.398 49.0701 181.484C49.6792 181.57 50.9545 181.197 51.0592 181.169C51.259 181.885 51.5255 182.611 51.83 183.327C52.0013 183.738 52.1917 184.139 52.3915 184.55C52.2773 184.378 52.1726 184.225 52.1536 184.206C51.6778 183.652 50.431 182.869 49.6792 183.184C49.1367 183.413 48.9749 184.062 49.2509 184.559C49.5269 185.065 50.1931 185.314 50.7356 185.399C51.2781 185.476 52.382 185.18 52.6675 185.103C52.7437 185.256 52.8198 185.409 52.8959 185.571C53.2671 186.307 53.6383 187.052 53.9809 187.777C54.1046 188.035 54.2093 188.293 54.3235 188.551C54.2188 188.398 54.1331 188.274 54.1141 188.255C53.6383 187.701 52.3915 186.918 51.6397 187.233C51.0972 187.462 50.9354 188.112 51.2114 188.608C51.4874 189.114 52.1536 189.363 52.6961 189.449C53.2195 189.525 54.2283 189.258 54.5804 189.162C54.6851 189.43 54.7898 189.697 54.885 189.964C54.9421 190.146 55.0087 190.318 55.0563 190.509C55.1039 190.69 55.161 190.872 55.2086 191.053C55.2942 191.406 55.3799 191.76 55.456 192.104C55.5131 192.342 55.5512 192.572 55.5988 192.801C55.4846 192.543 55.2371 192.037 55.2181 191.999C54.8279 191.378 53.7144 190.413 52.9245 190.614C52.3535 190.757 52.0965 191.378 52.2964 191.913C52.4962 192.457 53.1148 192.801 53.6383 192.963C54.2093 193.135 55.4846 192.982 55.6368 192.954C55.713 193.336 55.7796 193.708 55.8462 194.052C56.0556 195.265 56.1888 196.287 56.2745 197.003C56.2935 197.127 56.303 197.242 56.3125 197.347H53.8572L54.7517 214.909H58.9392L59.8338 197.347H57.5783C57.5973 197.308 57.6068 197.28 57.6259 197.242C57.9399 196.583 58.3777 195.637 58.8441 194.491C58.9963 194.128 59.1486 193.737 59.3009 193.326C59.4531 193.355 60.7094 193.613 61.2994 193.479C61.8324 193.355 62.47 193.059 62.7079 192.533C62.9363 192.018 62.7365 191.378 62.175 191.196C61.4041 190.939 60.224 191.817 59.7862 192.409C59.7577 192.447 59.5293 192.849 59.377 193.116C59.4341 192.954 59.5007 192.791 59.5578 192.619C59.6815 192.285 59.7957 191.941 59.9195 191.578C59.9766 191.397 60.0242 191.215 60.0813 191.034C60.1384 190.853 60.1764 190.662 60.224 190.471C60.3287 190.031 60.4144 189.573 60.4905 189.114C60.7855 189.22 61.8419 189.592 62.3844 189.554C62.9268 189.516 63.6121 189.315 63.9261 188.828C64.2307 188.35 64.126 187.691 63.6025 187.424C62.8792 187.052 61.5754 187.739 61.0615 188.255C61.033 188.284 60.6999 188.704 60.519 188.933C60.5666 188.656 60.6047 188.379 60.6428 188.102C60.7474 187.29 60.8236 186.469 60.8997 185.638C60.9283 185.39 60.9473 185.132 60.9759 184.884C61.0805 184.922 62.3273 185.39 62.9363 185.342C63.4788 185.304 64.164 185.103 64.4781 184.616C64.7826 184.139 64.678 183.48 64.1545 183.212C63.4312 182.84 62.1274 183.528 61.6135 184.043C61.5754 184.082 61.0996 184.674 60.9854 184.836C61.0425 184.282 61.1091 183.728 61.1947 183.193C61.3089 182.448 61.4612 181.723 61.6611 181.026C61.7087 181.045 63.003 181.532 63.6311 181.493C64.1736 181.455 64.8588 181.255 65.1728 180.768C65.4774 180.29 65.3727 179.631 64.8493 179.364C64.126 178.991 62.8221 179.679 62.3082 180.195C62.2702 180.233 61.7562 180.873 61.6706 180.997C61.6801 180.959 61.6896 180.911 61.6991 180.873C61.9275 180.137 62.2321 179.45 62.5557 178.829C62.746 178.466 62.9363 178.122 63.1362 177.798C63.3646 177.912 64.4305 178.428 65.0015 178.457C65.544 178.476 66.2483 178.351 66.6099 177.912C66.9715 177.473 66.9335 176.804 66.4386 176.48C65.7629 176.031 64.3924 176.575 63.8214 177.024C63.7929 177.053 63.5074 177.339 63.298 177.549C63.3932 177.406 63.4788 177.253 63.574 177.119C63.9166 176.604 64.2592 176.155 64.5637 175.754C64.7446 175.525 64.9064 175.334 65.0586 175.143C65.3441 175.133 66.5052 175.104 67.0096 174.866C67.5045 174.636 68.066 174.197 68.1897 173.634C68.3134 173.089 67.9708 172.516 67.3903 172.449ZM58.4063 194.338C57.9114 195.475 57.4641 196.392 57.1405 197.041C57.0739 197.175 57.0168 197.289 56.9597 197.394H56.9026C56.8836 197.27 56.8645 197.137 56.8455 196.974C56.7503 196.248 56.5885 195.227 56.3506 194.004C56.2745 193.622 56.1888 193.202 56.0936 192.782C56.1888 192.744 56.7313 192.524 57.2071 192.256C57.6259 192.715 58.6918 193.24 58.8345 193.307C58.6918 193.66 58.549 194.014 58.4063 194.338Z" fill="#332B68"/>
<path d="M63.1185 177.664C63.128 177.673 63.3754 176.709 63.385 176.642C63.4896 175.916 63.2517 174.455 62.5189 174.102C61.986 173.844 61.3959 174.149 61.2056 174.684C61.0057 175.229 61.2627 175.897 61.5577 176.355C61.9003 176.9 63.109 177.664 63.1185 177.664Z" fill="#332B68"/>
<path d="M162.302 95.8479L158.172 98.4073" stroke="#332B68" stroke-width="0.5" stroke-miterlimit="10" stroke-linecap="round" stroke-linejoin="round"/>
<path d="M232.023 52.729L167.859 92.4098" stroke="#332B68" stroke-width="0.5" stroke-miterlimit="10" stroke-linecap="round" stroke-linejoin="round"/>
<path d="M240.493 55.4126L189.082 87.205" stroke="#332B68" stroke-width="0.5" stroke-miterlimit="10" stroke-linecap="round" stroke-linejoin="round"/>
<path d="M262.944 41.5267L247.412 51.1342" stroke="#332B68" stroke-width="0.5" stroke-miterlimit="10" stroke-linecap="round" stroke-linejoin="round"/>
<path d="M114.68 103.822C128.872 103.822 140.376 92.2778 140.376 78.037C140.376 63.7961 128.872 52.2516 114.68 52.2516C100.489 52.2516 88.9844 63.7961 88.9844 78.037C88.9844 92.2778 100.489 103.822 114.68 103.822Z" fill="#332B68"/>
<path d="M114.679 100.403C126.989 100.403 136.968 90.3896 136.968 78.037C136.968 65.6843 126.989 55.6705 114.679 55.6705C102.37 55.6705 92.3906 65.6843 92.3906 78.037C92.3906 90.3896 102.37 100.403 114.679 100.403Z" fill="white"/>
<path d="M100.225 82.1435L114.681 78.037V57.7429" stroke="#332B68" stroke-width="2" stroke-miterlimit="10"/>
<path d="M346.275 287.901H352.604" stroke="#332B68" stroke-miterlimit="10" stroke-linecap="round" stroke-linejoin="round"/>
<path d="M0.476562 287.901H337.691" stroke="#332B68" stroke-miterlimit="10" stroke-linecap="round" stroke-linejoin="round"/>
<path d="M73.5476 278.991H57.3307H55.6652H42.1797C42.1797 278.991 42.2273 287.452 46.6146 298.521C46.6146 300.641 51.6871 302.36 57.9493 302.36C64.2115 302.36 69.284 300.641 69.284 298.521C69.284 298.416 69.265 298.311 69.2364 298.206C73.5 287.29 73.5476 278.991 73.5476 278.991Z" fill="white" stroke="#332B68" stroke-miterlimit="10" stroke-linecap="round" stroke-linejoin="round"/>
<path d="M57.9493 283.584C66.6586 283.584 73.7189 281.528 73.7189 278.991C73.7189 276.454 66.6586 274.397 57.9493 274.397C49.24 274.397 42.1797 276.454 42.1797 278.991C42.1797 281.528 49.24 283.584 57.9493 283.584Z" fill="white" stroke="#332B68" stroke-miterlimit="10" stroke-linecap="round" stroke-linejoin="round"/>
<path d="M57.9486 282.83C65.7644 282.83 72.1004 281.111 72.1004 278.991C72.1004 276.871 65.7644 275.152 57.9486 275.152C50.1328 275.152 43.7969 276.871 43.7969 278.991C43.7969 281.111 50.1328 282.83 57.9486 282.83Z" fill="white" stroke="#332B68" stroke-miterlimit="10" stroke-linecap="round" stroke-linejoin="round"/>
<path d="M45.1309 280.624C47.3864 281.932 52.2781 282.83 57.9502 282.83C63.6223 282.83 68.5045 281.923 70.7696 280.624C68.5141 279.316 63.6223 278.418 57.9502 278.418C52.2781 278.418 47.3959 279.316 45.1309 280.624Z" fill="#332B68" stroke="#332B68" stroke-miterlimit="10" stroke-linecap="round" stroke-linejoin="round"/>
<path d="M51.3547 280.987C51.3547 280.987 47.2529 270.711 48.4521 267.97C49.6512 265.229 53.5722 265.573 54.9426 268.314C56.3131 271.055 56.9888 281.331 56.9888 281.331C56.9888 281.331 52.887 282.696 51.3547 280.987Z" fill="#0BCE91" stroke="#332B68" stroke-miterlimit="10" stroke-linecap="round" stroke-linejoin="round"/>
<path d="M54.9429 282.009C54.9429 282.009 51.6976 263.844 52.5541 260.425C53.4106 256.997 57.6742 255.803 60.7482 258.372C63.8222 260.941 62.6231 273.958 62.6231 275.849C62.6231 277.73 62.4518 281.674 62.4518 281.674C62.4518 281.674 58.5213 283.04 54.9429 282.009Z" fill="#0BCE91" stroke="#332B68" stroke-miterlimit="10" stroke-linecap="round" stroke-linejoin="round"/>
<path d="M61.5947 281.674C61.5947 281.674 59.0346 274.646 60.5669 271.905C62.0991 269.164 65.1731 270.195 65.1731 272.42C65.1731 274.646 65.3444 279.955 65.0018 281.159C64.6687 282.353 62.7938 282.696 61.5947 281.674Z" fill="#0BCE91" stroke="#332B68" stroke-miterlimit="10" stroke-linecap="round" stroke-linejoin="round"/>
<path d="M57.8444 281.502C53.5808 265.228 57.1592 257.178 57.1592 257.178C57.1592 257.178 62.2793 266.088 59.5479 281.502" stroke="#332B68" stroke-miterlimit="10" stroke-linecap="round" stroke-linejoin="round"/>
<path d="M50.8394 267.626C50.8394 267.626 46.9089 267.798 53.3995 281.331" stroke="#332B68" stroke-miterlimit="10" stroke-linecap="round" stroke-linejoin="round"/>
</g>
<path d="M187.943 241.015C187.943 241.015 116.5 238.567 109.193 254.868C101.886 271.158 109.193 320.039 109.193 320.039H220.409C220.409 320.039 236.332 259.486 227.406 251.341C218.48 243.185 187.943 241.015 187.943 241.015Z" fill="#152F4A" stroke="#152F4A" stroke-miterlimit="10"/>
<path d="M196.646 123.625C196.646 123.625 192.765 121.833 190.492 124.114C188.23 126.396 186.356 127.608 184.604 127.709C182.852 127.809 178.616 126.54 177.419 129.767C176.221 133.005 173.915 132.76 172.429 133.172C170.932 133.584 166.142 135.041 165.942 136.977C165.743 138.913 166.064 141.462 164.29 141.84C162.505 142.218 158.169 142.051 157.571 145.067C156.972 148.082 154.71 150.363 152.902 151.02C151.095 151.676 147.38 151.02 147.048 154.335C146.715 157.651 146.66 161.012 146.66 161.012L144.597 164.161C144.597 164.161 141.204 166.052 142.025 169.49C142.834 172.929 146.094 175.221 142.302 178.192C138.51 181.163 136.048 182.587 137.8 185.28C139.563 187.972 142.468 187.995 141.87 191.01C141.271 194.026 137.113 197.798 141.603 199.367C146.094 200.947 147.325 200.234 146.759 202.972C146.194 205.709 149.387 208.557 150.829 208.702C152.27 208.847 151.638 209.347 152.736 212.808C153.834 216.28 156.939 217.147 158.092 217.27C159.245 217.392 160.731 216.981 162.549 219.128C164.368 221.276 182.021 236.219 201.314 237.91C220.608 239.602 232.24 233.805 236.176 232.247C240.113 230.689 244.182 227.752 244.149 225.237C244.115 222.722 249.349 222.689 251.301 220.652C253.252 218.616 253.618 217.815 253.618 215.022C253.607 212.229 253.895 209.459 254.949 207.612C256.013 205.765 257.266 204.774 256.978 201.948C256.679 199.122 258.808 195.428 260.116 193.881C261.435 192.334 262.81 190.242 260.327 186.07C257.843 181.897 256.778 180.951 257.688 177.691C258.597 174.431 260.083 171.226 258.042 168.5C255.991 165.774 255.703 162.948 255.925 160.733C256.146 158.519 257.754 157.006 254.472 154.992C251.19 152.978 251.212 149.907 250.78 148.46C250.347 147.014 251.112 145.145 247.265 143.064C243.406 140.994 242.253 138.079 241.554 136.332C240.855 134.585 238.871 131.303 235.478 130.401C232.085 129.5 230.333 129.6 228.026 126.562C225.72 123.536 223.646 121.077 220.486 120.754C217.326 120.431 217.581 120.732 212.902 121.099C208.211 121.455 206.293 120.42 205.162 120.031C204.02 119.63 200.56 116.481 196.646 123.625Z" fill="#5D5877" stroke="#5D5877" stroke-miterlimit="10" stroke-linecap="round" stroke-linejoin="round"/>
<path d="M203.599 130.301C203.599 130.301 194.529 135.019 193.531 138.057C192.522 141.094 187.488 138.057 183.795 142.096C180.103 146.135 181.445 150.519 177.42 152.199C173.394 153.879 165.001 153.879 164.657 159.276C164.324 164.672 163.98 168.033 161.297 170.737C158.614 173.429 155.254 174.108 157.605 177.813C159.955 181.519 161.297 183.544 157.937 187.917C154.578 192.301 148.867 193.647 153.912 198.365C158.946 203.083 162.306 203.417 160.288 206.788C158.27 210.16 163.315 211.84 164.657 212.519M146.184 179.16C148.534 177.48 145.175 171.071 147.193 167.031C149.211 162.992 149.543 163.326 151.218 159.287C152.892 155.248 152.227 154.235 155.587 153.557C158.946 152.878 161.297 149.851 164.989 145.467C168.682 141.083 171.365 144.121 174.392 139.403C177.42 134.685 175.734 133.673 179.77 133.005C183.795 132.326 188.841 131.325 191.524 129.3C194.207 127.275 197.234 126.607 199.585 126.607C201.936 126.607 203.61 125.928 203.61 125.928C203.61 125.928 206.294 124.248 209.653 124.248C213.013 124.248 213.013 125.594 218.724 124.248L146.184 179.16Z" stroke="white" stroke-miterlimit="10"/>
<path d="M169.689 179.494C169.689 179.494 177.074 179.494 179.425 177.468C181.776 175.443 184.127 172.417 187.154 174.097C190.181 175.777 193.197 175.11 194.871 171.059C196.545 167.02 192.188 165.329 198.231 165.329C204.274 165.329 204.607 163.983 207.301 159.265C209.985 154.547 206.625 154.547 214.686 154.213C222.747 153.879 223.413 148.483 226.44 148.816C229.467 149.15 230.809 149.829 227.781 156.227C224.754 162.625 222.071 163.304 226.107 166.675C230.132 170.047 234.168 169.034 231.818 176.779C229.467 184.534 231.485 185.202 232.494 188.239C233.503 191.277 234.845 192.278 230.476 196.329C226.107 200.368 224.765 200.034 225.774 204.752C226.783 209.47 227.793 211.495 224.1 213.175C220.408 214.855 217.381 217.214 219.066 218.905C220.74 220.586 221.417 220.931 220.408 222.277" stroke="white" stroke-miterlimit="10"/>
<path d="M182.486 211.551C182.486 211.551 162.527 214.332 147.557 216.558C132.588 218.783 122.054 221.287 121.777 226.294C121.5 231.301 99.8774 284.154 97.3826 285.823C94.8877 287.492 92.1156 290.552 91.5612 295.559C91.0067 300.567 88.7891 305.574 88.7891 305.574C88.7891 305.574 98.4914 304.461 102.65 307.799C106.808 311.137 109.303 313.085 109.303 313.085C109.303 313.085 120.945 305.574 122.609 301.679C124.272 297.785 119.005 289.44 120.668 286.658C122.331 283.876 128.984 274.696 128.984 274.696C128.984 274.696 137.855 302.514 138.964 308.356C140.073 314.197 138.132 320.039 138.132 320.039H216.028C216.028 320.039 216.028 301.123 216.028 296.95C216.028 292.778 219.077 279.703 219.077 279.703C219.077 279.703 226.562 301.401 228.503 307.243C230.443 313.085 231.829 320.039 231.829 320.039H258.441C258.441 320.039 249.293 292.5 245.967 283.876C242.64 275.253 238.759 240.759 237.096 236.586C235.433 232.414 211.87 219.339 200.227 216.558C188.584 213.776 182.486 211.551 182.486 211.551Z" fill="#0BCE91"/>
<path opacity="0.1" d="M102.65 307.799C106.808 311.137 109.303 313.085 109.303 313.085C109.303 313.085 120.945 305.574 122.609 301.679C124.272 297.785 119.005 289.44 120.668 286.658C122.331 283.876 128.984 274.696 128.984 274.696C128.984 274.696 129.051 274.908 129.173 275.286L134.806 268.577C134.806 268.577 137.023 269.133 140.35 280.816C143.677 292.5 158.091 299.732 154.765 305.852C152.614 309.813 150.695 316.089 149.609 320.039H216.028C216.028 320.039 216.028 301.123 216.028 296.95C216.028 292.778 219.077 279.704 219.077 279.704C219.077 279.704 226.562 301.401 228.503 307.243C230.443 313.085 231.829 320.039 231.829 320.039H258.441C258.441 320.039 249.293 292.5 245.967 283.876C243.139 276.555 239.913 250.562 237.994 240.347C236.763 238.856 235.61 237.655 234.601 236.865C226.839 230.745 207.989 224.068 203.554 223.512C199.118 222.956 188.03 215.723 175.833 220.73C175.833 220.73 167.517 227.963 161.418 229.632C155.319 231.301 143.122 219.061 142.013 225.181C140.904 231.301 142.013 237.421 142.013 237.421C142.013 237.421 135.36 221.843 135.915 227.963C136.469 234.083 136.469 239.646 136.469 239.646C136.469 239.646 130.37 226.294 130.37 231.857C130.37 237.421 133.143 244.653 132.588 249.104C132.034 253.555 116.51 281.373 114.847 284.154C113.183 286.936 113.738 292.055 111.797 295.893C109.857 299.732 105.976 300.845 105.976 300.845C105.976 300.845 107.639 293.612 101.541 294.169C95.4421 294.725 88.7891 305.574 88.7891 305.574C88.7891 305.574 98.4914 304.461 102.65 307.799Z" fill="#17113D"/>
<path d="M182.486 211.551C182.486 211.551 162.527 214.332 147.557 216.558C132.588 218.783 122.054 221.287 121.777 226.294C121.5 231.301 99.8774 284.154 97.3826 285.823C94.8877 287.492 92.1156 290.552 91.5612 295.559C91.0067 300.567 88.7891 305.574 88.7891 305.574C88.7891 305.574 98.4914 304.461 102.65 307.799C106.808 311.137 109.303 313.085 109.303 313.085C109.303 313.085 120.945 305.574 122.609 301.679C124.272 297.785 119.005 289.44 120.668 286.658C122.331 283.876 128.984 274.696 128.984 274.696C128.984 274.696 137.855 302.514 138.964 308.356C140.073 314.197 138.132 320.039 138.132 320.039H216.028C216.028 320.039 216.028 301.123 216.028 296.95C216.028 292.778 219.077 279.703 219.077 279.703C219.077 279.703 226.562 301.401 228.503 307.243C230.443 313.085 231.829 320.039 231.829 320.039H258.441C258.441 320.039 249.293 292.5 245.967 283.876C242.64 275.253 238.759 240.759 237.096 236.586C235.433 232.414 211.87 219.339 200.227 216.558C188.584 213.776 182.486 211.551 182.486 211.551Z" stroke="#152F4A" stroke-miterlimit="10" stroke-linecap="round" stroke-linejoin="round"/>
<path d="M188.03 258.84C188.03 258.84 190.469 283.687 189.438 294.002C188.407 304.316 184.814 312.061 186.355 319.282" stroke="#152F4A" stroke-miterlimit="10" stroke-linecap="round" stroke-linejoin="round"/>
<path d="M221.297 262.457L225.732 252.999" stroke="#152F4A" stroke-miterlimit="10" stroke-linecap="round" stroke-linejoin="round"/>
<path d="M179.992 209.325C179.992 209.325 176.942 211.272 176.388 213.22C175.833 215.167 171.398 220.452 169.458 228.241C167.517 236.03 168.626 250.217 170.012 246.879C171.398 243.541 175.002 236.308 176.388 234.639C177.774 232.97 178.051 235.196 179.16 239.925C180.269 244.653 188.031 258.84 188.031 258.84C188.031 258.84 193.852 245.766 197.178 243.819C200.505 241.872 201.891 235.474 201.891 235.474C201.891 235.474 205.218 252.164 207.158 252.164C209.098 252.164 209.93 239.368 209.098 231.579C208.267 223.79 204.663 214.332 202.445 211.272C200.228 208.213 190.803 197.92 179.992 209.325Z" fill="white" stroke="#152F4A" stroke-miterlimit="10" stroke-linecap="round" stroke-linejoin="round"/>
<path d="M180.27 207.656C180.27 207.656 179.161 229.354 180.825 238.812C182.488 248.27 186.646 262.178 188.032 258.84C189.418 255.502 198.289 239.09 199.675 231.579C201.061 224.068 204.665 216.001 204.665 216.001C204.665 216.001 188.032 217.949 180.27 207.656Z" fill="white" stroke="#152F4A" stroke-miterlimit="10" stroke-linecap="round" stroke-linejoin="round"/>
<path d="M220.607 158.53C220.607 158.53 215.772 159.921 214.552 162.625C213.344 165.329 212.379 165.54 209.274 168.367C206.17 171.193 205.271 170.781 202.854 173.051C200.437 175.321 198.574 175.121 195.724 175.466C192.875 175.8 190.391 175.544 189.06 176.356C187.73 177.157 185.124 178.147 185.124 178.147C185.124 178.147 183.361 177.023 181.986 181.285C180.611 185.547 178.981 195.428 180.001 200.869C181.01 206.31 185.013 219.284 191.267 222.433C197.521 225.582 212.623 215.512 216.504 211.195C220.385 206.877 228.391 186.659 228.734 183.232C229.078 179.816 223.8 173.307 222.813 170.692C221.826 168.077 223.224 166.653 221.272 164.25C219.32 161.846 220.607 158.53 220.607 158.53Z" fill="white" stroke="#152F4A" stroke-miterlimit="10" stroke-linecap="round" stroke-linejoin="round"/>
<path d="M205.05 201.536C205.05 201.536 204.163 203.094 201.092 202.782C198.02 202.471 196.801 200.145 197.166 198.354" stroke="#152F4A" stroke-miterlimit="10" stroke-linecap="round" stroke-linejoin="round"/>
<path d="M193.15 203.795C193.15 203.795 197.131 207.678 203.496 207.779" stroke="#152F4A" stroke-miterlimit="10" stroke-linecap="round" stroke-linejoin="round"/>
<path d="M199.017 185.558L197.842 188.184C197.842 188.184 193.828 189.964 190.18 184.657" stroke="#152F4A" stroke-miterlimit="10" stroke-linecap="round" stroke-linejoin="round"/>
<path d="M217.424 192.746L216.448 195.205C216.448 195.205 211.414 196.34 209.828 192.156" stroke="#152F4A" stroke-miterlimit="10" stroke-linecap="round" stroke-linejoin="round"/>
<path d="M211.926 184.134C211.926 184.134 220.264 180.962 222.582 188.696" stroke="#152F4A" stroke-miterlimit="10" stroke-linecap="round" stroke-linejoin="round"/>
<path d="M202.776 180.818C202.776 180.818 199.826 173.93 191.688 176.946" stroke="#152F4A" stroke-miterlimit="10" stroke-linecap="round" stroke-linejoin="round"/>
<path d="M197.843 188.184C197.843 188.184 196.324 188.762 193.152 187.705C189.981 186.648 188.994 183.8 188.994 183.8C188.994 183.8 188.972 191.11 197.843 188.184Z" fill="#152F4A"/>
<path d="M217.491 195.672C217.491 195.672 215.972 196.251 212.801 195.194C209.629 194.137 208.643 191.288 208.643 191.288C208.643 191.288 208.632 198.61 217.491 195.672Z" fill="#152F4A"/>
<path d="M128.986 274.696C128.986 274.696 138.411 259.397 143.401 248.826L128.986 274.696Z" fill="white"/>
<path d="M128.986 274.696C128.986 274.696 138.411 259.397 143.401 248.826" stroke="#152F4A" stroke-miterlimit="10" stroke-linecap="round" stroke-linejoin="round"/>
<path d="M136.193 263.569C136.193 263.569 142.292 259.953 146.727 252.721" stroke="#152F4A" stroke-miterlimit="10" stroke-linecap="round" stroke-linejoin="round"/>
<path d="M77.1465 329.219H134.44L165.665 350.538H99.8777L77.1465 329.219Z" fill="white" stroke="#152F4A" stroke-miterlimit="10" stroke-linecap="round" stroke-linejoin="round"/>
<path d="M150.886 345.909H104.869" stroke="#152F4A" stroke-miterlimit="10" stroke-linecap="round" stroke-linejoin="round"/>
<path d="M146.45 341.459H100.434" stroke="#152F4A" stroke-miterlimit="10" stroke-linecap="round" stroke-linejoin="round"/>
<path d="M142.015 337.008H95.998" stroke="#152F4A" stroke-miterlimit="10" stroke-linecap="round" stroke-linejoin="round"/>
<path d="M37.2285 342.571H94.5222L125.747 363.891H59.9597L37.2285 342.571Z" fill="white" stroke="#152F4A" stroke-miterlimit="10" stroke-linecap="round" stroke-linejoin="round"/>
<path d="M110.966 359.262H64.9492" stroke="#152F4A" stroke-miterlimit="10" stroke-linecap="round" stroke-linejoin="round"/>
<path d="M106.53 354.811H60.5137" stroke="#152F4A" stroke-miterlimit="10" stroke-linecap="round" stroke-linejoin="round"/>
<path d="M102.097 350.36H56.0801" stroke="#152F4A" stroke-miterlimit="10" stroke-linecap="round" stroke-linejoin="round"/>
<path d="M117.807 318.459C117.807 318.459 112.629 310.67 109.491 305.852C106.353 301.034 99.5113 297.696 93.4127 299.176C87.3141 300.656 84.3535 306.219 84.3535 312.161C84.3535 318.092 84.9079 322.921 91.3725 326.437C97.837 329.964 112.252 331.811 112.252 331.811C112.252 331.811 123.163 335.895 117.807 318.459Z" fill="white" stroke="#152F4A" stroke-miterlimit="10" stroke-linecap="round" stroke-linejoin="round"/>
<path d="M112.429 316.701C112.429 316.701 105.344 318.904 104.856 321.608C104.368 324.301 103.636 330.187 104.124 332.891C104.612 335.583 110.965 335.339 115.367 335.339C119.769 335.339 121.965 330.921 120.989 329.452C120.013 327.984 116.099 327.249 114.636 323.811C113.161 320.384 112.429 316.701 112.429 316.701Z" fill="white" stroke="#152F4A" stroke-miterlimit="10" stroke-linecap="round" stroke-linejoin="round"/>
<path d="M118.328 319.026C117.285 316.679 115.966 314.475 115.378 313.207C113.793 309.78 110.344 309.624 110.145 313.975C110.034 316.434 114.58 330.799 118.527 327.494C120.667 325.714 119.747 322.231 118.328 319.026Z" fill="white" stroke="#152F4A" stroke-miterlimit="10" stroke-linecap="round" stroke-linejoin="round"/>
<path d="M105.09 322.587C105.09 322.587 105.334 325.525 111.2 328.963C117.065 332.401 118.773 331.166 120.724 331.166" fill="white"/>
<path d="M105.09 322.587C105.09 322.587 105.334 325.525 111.2 328.963C117.065 332.401 118.773 331.166 120.724 331.166" stroke="#152F4A" stroke-miterlimit="10" stroke-linecap="round" stroke-linejoin="round"/>
<path d="M104.113 328.473C104.113 328.473 104.834 333.302 118.273 334.282L104.113 328.473Z" fill="white"/>
<path d="M104.113 328.473C104.113 328.473 104.834 333.302 118.273 334.282" stroke="#152F4A" stroke-miterlimit="10" stroke-linecap="round" stroke-linejoin="round"/>
<path d="M122.343 331.478L110.778 298.019C110.478 297.151 110.933 296.194 111.798 295.894C112.663 295.593 113.616 296.05 113.916 296.929L125.481 330.388L122.343 331.478Z" fill="#152F4A"/>
<path d="M122.344 331.478L125.471 335.494L125.482 330.376L122.344 331.478Z" fill="white"/>
<path d="M124.328 334.026L125.47 335.483V333.636C125.016 333.747 124.639 333.881 124.328 334.026Z" fill="#152F4A"/>
<path d="M113.914 296.917C113.615 296.049 112.661 295.582 111.796 295.882C110.931 296.183 110.466 297.14 110.776 298.008L111.929 301.323L115.034 300.122L113.914 296.917Z" fill="white"/>
<path d="M118.174 310.114C118.174 310.114 121.5 308.812 123.164 310.114C124.827 311.416 125.747 314.754 125.747 318.648C125.747 322.543 127.599 327.55 124.272 327.361C120.946 327.171 118.174 310.114 118.174 310.114Z" fill="white" stroke="#152F4A" stroke-miterlimit="10" stroke-linecap="round" stroke-linejoin="round"/>
<path d="M191.467 339.968L166.219 324.023H262.688L298.647 339.968H191.467Z" fill="white" stroke="#152F4A" stroke-miterlimit="10" stroke-linecap="round" stroke-linejoin="round"/>
<path d="M298.647 339.968H191.467L203.819 263.191H310.999L298.647 339.968Z" fill="white" stroke="#152F4A" stroke-miterlimit="10" stroke-linecap="round" stroke-linejoin="round"/>
<path d="M304.701 302.358C286.549 306.498 270.892 302.392 239.823 307.41C209.374 312.339 197.066 326.259 192.143 335.717L191.455 339.968H298.646L304.701 302.358Z" fill="#152F4A" stroke="#152F4A" stroke-miterlimit="10"/>
<path d="M304.812 311.816C304.812 311.816 298.736 312.595 296.551 315.099C294.367 317.602 296.086 318.537 297.96 318.537C299.834 318.537 306.065 318.537 308.871 315.255C311.144 312.584 309.647 311.494 304.812 311.816Z" fill="white" stroke="#152F4A" stroke-miterlimit="10" stroke-linecap="round" stroke-linejoin="round"/>
<path d="M302.783 329.642C302.783 329.642 296.707 330.421 294.522 332.924C292.338 335.428 294.056 336.362 295.93 336.362C297.804 336.362 304.036 336.362 306.841 333.08C309.126 330.421 307.618 329.33 302.783 329.642Z" fill="white" stroke="#152F4A" stroke-miterlimit="10" stroke-linecap="round" stroke-linejoin="round"/>
<path d="M303.414 324.957C303.414 324.957 297.337 325.736 295.153 328.24C292.969 330.743 294.687 331.678 296.561 331.678C298.435 331.678 304.667 331.678 307.472 328.395C309.745 325.725 308.248 324.646 303.414 324.957Z" fill="white" stroke="#152F4A" stroke-miterlimit="10" stroke-linecap="round" stroke-linejoin="round"/>
<path d="M303.572 319.639C303.572 319.639 297.496 320.417 295.311 322.921C293.127 325.425 294.846 326.359 296.719 326.359C298.593 326.359 304.825 326.359 307.63 323.077C309.904 320.406 308.407 319.316 303.572 319.639Z" fill="white" stroke="#152F4A" stroke-miterlimit="10" stroke-linecap="round" stroke-linejoin="round"/>
<defs>
<clipPath id="clip0">
<rect y="37" width="358" height="289.016" fill="white"/>
</clipPath>
</defs>
</svg>
