<svg width="358" height="401" viewBox="0 0 358 401" fill="none" xmlns="http://www.w3.org/2000/svg">
<rect width="358" height="400" fill="#201A4B"/>
<path d="M208.932 130.486C208.932 130.486 175.878 127.355 171.319 143.304C166.76 159.253 182.72 172.648 187.565 175.209C187.565 175.209 191.553 187.178 185.567 201.137C179.581 215.096 172.461 235.61 141.112 264.098C109.763 292.587 88.396 304.27 83.2663 336.175C78.1367 368.088 93.5256 380.62 135.697 380.905C177.868 381.19 246.544 331.332 263.646 272.072C280.747 212.813 275.903 188.312 275.047 166.942C274.191 145.572 261.941 125.628 240.281 123.353C218.62 121.085 208.932 130.486 208.932 130.486Z" fill="#17113D"/>
<path opacity="0.1" d="M216.59 155.266C216.59 155.266 181.997 144.626 179.864 153.666C177.739 162.714 201.69 166.439 201.69 161.648C201.69 156.857 188.914 156.857 188.914 156.857" stroke="white" stroke-miterlimit="10"/>
<path opacity="0.1" d="M249.586 129.187C249.586 129.187 221.376 128.121 219.777 138.235C218.177 148.342 258.628 179.744 274.596 184.002" stroke="white" stroke-miterlimit="10"/>
<path opacity="0.1" d="M240.009 129.187C240.009 129.187 230.426 135.044 234.151 141.96C237.876 148.875 258.102 157.923 268.219 157.923" stroke="white" stroke-miterlimit="10"/>
<path d="M196.747 221.08C196.747 221.08 212.842 219.954 231.19 221.08C249.538 222.206 255.9 229.317 255.9 229.317C255.9 229.317 228.194 341.979 225.572 362.944C222.951 383.901 222.576 400 222.576 400H153.689C153.689 400 170.535 328.133 177.272 293.33C184.017 258.504 196.747 221.08 196.747 221.08Z" fill="#0BCE91"/>
<path d="M205.514 224.219C205.514 224.219 200.385 245.874 200.385 258.692C200.385 271.509 209.217 288.036 223.75 282.623C238.283 277.209 240.566 261.823 240.566 251.851C240.566 241.88 239.995 228.206 239.995 228.206C239.995 228.206 232.868 233.905 221.76 230.204C210.644 226.494 205.514 224.219 205.514 224.219Z" fill="white"/>
<path d="M240.513 245.874C240.37 237.172 239.995 228.206 239.995 228.206C239.995 228.206 232.867 233.905 221.759 230.204C210.644 226.502 205.514 224.219 205.514 224.219C205.514 224.219 203.156 234.183 201.639 244.598C204.853 249.839 210.704 254.292 221.354 253.691C229.901 253.211 236.052 250.177 240.513 245.874Z" fill="#0BCE91"/>
<path opacity="0.5" d="M240.513 245.874C240.37 237.172 239.995 228.206 239.995 228.206C239.995 228.206 232.867 233.905 221.759 230.204C210.644 226.502 205.514 224.219 205.514 224.219C205.514 224.219 203.156 234.183 201.639 244.598C204.853 249.839 210.704 254.292 221.354 253.691C229.901 253.211 236.052 250.177 240.513 245.874Z" fill="white"/>
<path d="M205.514 224.219C205.514 224.219 200.385 245.874 200.385 258.692C200.385 271.509 209.217 288.036 223.75 282.623C238.283 277.209 240.566 261.823 240.566 251.851C240.566 241.88 239.995 228.206 239.995 228.206C239.995 228.206 232.868 233.905 221.76 230.204C210.644 226.494 205.514 224.219 205.514 224.219Z" stroke="#332B68" stroke-miterlimit="10" stroke-linecap="round" stroke-linejoin="round"/>
<path d="M238.567 232.764C238.567 232.764 231.725 241.88 229.734 250.995C227.744 260.111 230.876 265.525 230.876 265.525" stroke="#332B68" stroke-miterlimit="10" stroke-linecap="round" stroke-linejoin="round"/>
<path d="M211.212 398.003C210.926 393.73 210.641 380.057 219.473 357.545C228.306 335.042 235.148 301.417 236.853 273.785C238.565 246.152 239.985 228.199 239.985 228.199C239.985 223.07 241.982 219.939 257.086 222.214C272.19 224.497 306.385 229.34 306.099 233.898C305.814 238.456 286.152 302.273 283.876 319.085C281.593 335.898 282.164 342.731 290.718 338.458C299.265 334.186 311.237 327.06 311.237 327.06V339.877C311.237 339.877 281.029 378.623 272.197 384.607C263.365 390.592 263.65 389.45 261.367 382.61C259.084 375.769 259.084 352.124 259.084 352.124C249.478 378.488 249.989 393.558 251.04 399.97H211.355C211.31 399.4 211.257 398.761 211.212 398.003ZM271.897 302.461L283.147 260.584L271.897 302.461ZM111.518 399.985H163.393C165.082 392.777 172.916 359.828 178.729 341.882C185.286 321.653 193.833 296.581 195.545 281.481C197.257 266.381 204.377 226.209 204.377 226.209C205.519 218.52 204.377 219.368 204.377 219.368C204.377 219.368 149.663 220.224 145.675 220.51C141.687 220.795 143.392 248.142 143.392 287.173C143.392 323.042 115.971 389.435 111.518 399.985ZM153.366 291.168L162.484 279.199L153.366 291.168Z" fill="#0BCE91"/>
<path d="M283.876 319.093C284.319 315.849 285.4 310.856 286.872 304.879L276.433 302.919C276.433 302.919 240.705 366.541 222.838 379.937C218.835 382.94 214.944 385.658 211.474 388.211C210.986 392.979 211.091 396.268 211.204 397.995C211.257 398.754 211.302 399.392 211.354 399.978H251.04C249.981 393.558 249.477 378.487 259.083 352.131C259.083 352.131 259.083 375.777 261.367 382.617C263.65 389.458 263.364 390.592 272.197 384.615C281.029 378.63 311.236 339.885 311.236 339.885V327.067C311.236 327.067 299.265 334.193 290.718 338.465C282.163 342.738 281.592 335.897 283.876 319.093Z" fill="#0BCE91"/>
<path d="M146.366 305.712L138.165 322.111C129.978 355.496 114.74 392.349 111.518 399.985H123.865L146.366 305.712Z" fill="#0BCE91"/>
<path opacity="0.5" d="M283.876 319.093C284.319 315.849 285.4 310.856 286.872 304.879L276.433 302.919C276.433 302.919 240.705 366.541 222.838 379.937C218.835 382.94 214.944 385.658 211.474 388.211C210.986 392.979 211.091 396.268 211.204 397.995C211.257 398.754 211.302 399.392 211.354 399.978H251.04C249.981 393.558 249.477 378.487 259.083 352.131C259.083 352.131 259.083 375.777 261.367 382.617C263.65 389.458 263.364 390.592 272.197 384.615C281.029 378.63 311.236 339.885 311.236 339.885V327.067C311.236 327.067 299.265 334.193 290.718 338.465C282.163 342.738 281.592 335.897 283.876 319.093Z" fill="#0E9979"/>
<path opacity="0.5" d="M146.366 305.712L138.165 322.111C129.978 355.496 114.74 392.349 111.518 399.985H123.865L146.366 305.712Z" fill="white"/>
<path d="M153.366 291.168L162.484 279.199M211.212 398.003C210.926 393.73 210.641 380.057 219.473 357.545C228.306 335.042 235.148 301.417 236.853 273.785C238.565 246.152 239.985 228.199 239.985 228.199C239.985 223.07 241.982 219.939 257.086 222.214C272.19 224.497 306.385 229.34 306.099 233.898C305.814 238.456 286.152 302.273 283.876 319.085C281.593 335.898 282.164 342.731 290.718 338.458C299.265 334.186 311.237 327.06 311.237 327.06V339.877C311.237 339.877 281.029 378.623 272.197 384.607C263.365 390.592 263.65 389.45 261.367 382.61C259.084 375.769 259.084 352.124 259.084 352.124C249.478 378.488 249.989 393.558 251.04 399.97H211.355C211.31 399.4 211.257 398.761 211.212 398.003ZM271.897 302.461L283.147 260.584L271.897 302.461ZM111.518 399.985H163.393C165.082 392.777 172.916 359.828 178.729 341.882C185.286 321.653 193.833 296.581 195.545 281.481C197.257 266.381 204.377 226.209 204.377 226.209C205.519 218.52 204.377 219.368 204.377 219.368C204.377 219.368 149.663 220.224 145.675 220.51C141.687 220.795 143.392 248.142 143.392 287.173C143.392 323.042 115.971 389.435 111.518 399.985Z" stroke="#332B68" stroke-miterlimit="10" stroke-linecap="round" stroke-linejoin="round"/>
<path d="M201.522 219.09L179.005 259.548L188.123 272.08L177.586 279.491L171.314 360.969" stroke="#332B68" stroke-miterlimit="10" stroke-linecap="round" stroke-linejoin="round"/>
<path d="M248.314 224.526L255.224 266.088L245.731 273.341L256.899 283.388L228.982 349.803" stroke="#332B68" stroke-miterlimit="10" stroke-linecap="round" stroke-linejoin="round"/>
<path d="M175.875 337.609C175.875 337.609 190.408 331.625 198.955 324.507C207.501 317.381 222.605 296.303 225.174 296.589C227.735 296.874 243.124 307.987 250.822 310.548C258.513 313.108 264.213 313.108 263.928 314.82C263.642 316.532 260.511 318.237 254.525 318.237C248.539 318.237 232.301 309.692 232.301 309.692C232.301 309.692 241.133 321.09 239.706 322.509C238.279 323.936 228.306 330.769 221.471 333.337C214.629 335.897 210.07 338.18 208.651 337.895C207.224 337.609 207.509 334.764 208.365 333.908C209.221 333.052 210.926 331.347 210.926 331.347C210.926 331.347 204.94 335.62 201.809 335.62C198.677 335.62 198.677 335.62 198.677 335.62L174.17 356.419L175.875 337.609Z" fill="white"/>
<path d="M261.42 317.14C261.337 317.133 261.255 317.118 261.164 317.11C247.736 316.187 229.215 305.074 229.215 305.074L232.294 309.684C232.294 309.684 248.539 318.229 254.518 318.229C257.559 318.237 259.85 317.794 261.42 317.14Z" fill="#0BCE91"/>
<path d="M232 320.354C229.687 322.209 225.984 318.042 225.984 318.042C225.984 318.042 226.908 327.3 224.129 327.766C221.35 328.231 217.648 325.453 217.648 325.453C217.648 325.453 217.648 331.467 214.869 331.467C212.09 331.467 207.921 322.675 207.921 322.675C207.921 322.675 208.928 327.075 206.066 330.078C203.205 333.082 197.73 332.391 197.73 332.391L175.964 348.129L174.778 349.586L174.154 356.412L198.661 335.612C198.661 335.612 198.661 335.612 201.793 335.612C204.925 335.612 210.911 331.34 210.911 331.34C210.911 331.34 209.198 333.052 208.35 333.9C207.493 334.756 207.208 337.602 208.635 337.887C210.062 338.173 214.621 335.89 221.455 333.33C228.297 330.769 238.271 323.929 239.691 322.502C241.118 321.075 232.286 309.684 232.286 309.684C232.286 309.684 234.313 318.5 232 320.354Z" fill="#0BCE91"/>
<g opacity="0.5">
<path opacity="0.5" d="M261.42 317.14C261.337 317.133 261.255 317.118 261.164 317.11C247.736 316.187 229.215 305.074 229.215 305.074L232.294 309.684C232.294 309.684 248.539 318.229 254.518 318.229C257.559 318.237 259.85 317.794 261.42 317.14Z" fill="white"/>
<path opacity="0.5" d="M232 320.354C229.687 322.209 225.984 318.042 225.984 318.042C225.984 318.042 226.908 327.3 224.129 327.766C221.35 328.231 217.648 325.453 217.648 325.453C217.648 325.453 217.648 331.467 214.869 331.467C212.09 331.467 207.921 322.675 207.921 322.675C207.921 322.675 208.928 327.075 206.066 330.078C203.205 333.082 197.73 332.391 197.73 332.391L175.964 348.129L174.778 349.586L174.154 356.412L198.661 335.612C198.661 335.612 198.661 335.612 201.793 335.612C204.925 335.612 210.911 331.34 210.911 331.34C210.911 331.34 209.198 333.052 208.35 333.9C207.493 334.756 207.208 337.602 208.635 337.887C210.062 338.173 214.621 335.89 221.455 333.33C228.297 330.769 238.271 323.929 239.691 322.502C241.118 321.075 232.286 309.684 232.286 309.684C232.286 309.684 234.313 318.5 232 320.354Z" fill="white"/>
</g>
<path d="M210.927 331.34L208.93 327.067" stroke="#332B68" stroke-miterlimit="10" stroke-linecap="round" stroke-linejoin="round"/>
<path d="M216.344 321.653C216.344 321.653 222.044 332.195 221.473 333.337" stroke="#332B68" stroke-miterlimit="10" stroke-linecap="round" stroke-linejoin="round"/>
<path d="M224.035 313.964C224.035 313.964 232.868 326.496 231.441 328.494" stroke="#332B68" stroke-miterlimit="10" stroke-linecap="round" stroke-linejoin="round"/>
<path d="M175.875 337.609C175.875 337.609 190.408 331.625 198.955 324.507C207.501 317.381 222.605 296.303 225.174 296.589C227.735 296.874 243.124 307.987 250.822 310.548C258.513 313.108 264.213 313.108 263.928 314.82C263.642 316.532 260.511 318.237 254.525 318.237C248.539 318.237 232.301 309.692 232.301 309.692C232.301 309.692 241.133 321.09 239.706 322.509C238.279 323.936 228.306 330.769 221.471 333.337C214.629 335.897 210.07 338.18 208.651 337.895C207.224 337.609 207.509 334.764 208.365 333.908C209.221 333.052 210.926 331.347 210.926 331.347C210.926 331.347 204.94 335.62 201.809 335.62C198.677 335.62 198.677 335.62 198.677 335.62L174.17 356.419L175.875 337.609Z" stroke="#332B68" stroke-miterlimit="10" stroke-linecap="round" stroke-linejoin="round"/>
<path d="M150.797 219.947C150.797 219.947 141.394 219.091 139.111 219.091C136.827 219.091 133.41 220.803 132.839 228.492C132.269 236.181 94.9414 380.057 94.9414 383.759C94.9414 387.461 100.612 388.7 118.111 384.33C132.869 380.643 176.723 365.813 176.723 365.813L180.599 334.704L134.837 343.88L157.061 278.636" fill="#0BCE91"/>
<path d="M178.023 355.428C174.801 356.291 123.714 370.002 113.988 373.246C103.939 376.595 125.156 359.851 117.894 360.406C110.639 360.962 102.264 371.009 102.264 371.009L121.687 275.677C110.503 320.549 94.9492 381.363 94.9492 383.759C94.9492 387.46 100.62 388.699 118.119 384.329C132.877 380.642 176.731 365.813 176.731 365.813L178.023 355.428Z" fill="#0BCE91"/>
<path opacity="0.5" d="M178.023 355.428C174.801 356.291 123.714 370.002 113.988 373.246C103.939 376.595 125.156 359.851 117.894 360.406C110.639 360.962 102.264 371.009 102.264 371.009L121.687 275.677C110.503 320.549 94.9492 381.363 94.9492 383.759C94.9492 387.46 100.62 388.699 118.119 384.329C132.877 380.642 176.731 365.813 176.731 365.813L178.023 355.428Z" fill="white"/>
<path d="M150.797 219.947C150.797 219.947 141.394 219.091 139.111 219.091C136.827 219.091 133.41 220.803 132.839 228.492C132.269 236.181 94.9414 380.057 94.9414 383.759C94.9414 387.461 100.612 388.7 118.111 384.33C132.869 380.643 176.723 365.813 176.723 365.813L180.599 334.704L134.837 343.88L157.061 278.636" stroke="#332B68" stroke-miterlimit="10" stroke-linecap="round" stroke-linejoin="round"/>
<path d="M152.684 298.774L150.115 330.679L170.701 331.505L172.632 300.478L152.684 298.774Z" fill="#332B68" stroke="#332B68" stroke-miterlimit="10" stroke-linecap="round" stroke-linejoin="round"/>
<path d="M160.391 290.747L160.105 303.287L165.521 303.564L165.806 290.747H160.391Z" fill="white" stroke="#332B68" stroke-miterlimit="10" stroke-linecap="round" stroke-linejoin="round"/>
<path d="M271.867 282.863L235.223 362.982C234.247 365.114 235.794 367.539 238.137 367.562L297.493 368.073C298.739 368.08 299.888 367.374 300.429 366.248L338.673 287.405C339.694 285.295 338.199 282.825 335.856 282.757L274.894 280.97C273.609 280.94 272.408 281.684 271.867 282.863Z" fill="#332B68" stroke="#332B68" stroke-miterlimit="10" stroke-linecap="round" stroke-linejoin="round"/>
<path d="M247.73 339.569L244.793 345.974" stroke="white" stroke-miterlimit="10" stroke-linecap="round" stroke-linejoin="round"/>
<path d="M285.2 282.465L276.135 282.202C274.836 282.164 273.642 282.908 273.101 284.094L249.961 334.688" stroke="white" stroke-miterlimit="10" stroke-linecap="round" stroke-linejoin="round"/>
<path d="M292.84 282.69L288.033 282.548" stroke="white" stroke-miterlimit="10" stroke-linecap="round" stroke-linejoin="round"/>
<path d="M327.01 329.583C327.01 329.583 319.928 332.646 314.565 334.749C309.203 336.851 312.267 338.766 314.377 338.766C316.48 338.766 324.719 336.28 327.784 334.366C330.84 332.451 330.457 329.004 327.01 329.583Z" fill="#0BCE91"/>
<path opacity="0.5" d="M327.01 329.583C327.01 329.583 319.928 332.646 314.565 334.749C309.203 336.851 312.267 338.766 314.377 338.766C316.48 338.766 324.719 336.28 327.784 334.366C330.84 332.451 330.457 329.004 327.01 329.583Z" fill="white"/>
<path d="M327.01 329.583C327.01 329.583 319.928 332.646 314.565 334.749C309.203 336.851 312.267 338.766 314.377 338.766C316.48 338.766 324.719 336.28 327.784 334.366C330.84 332.451 330.457 329.004 327.01 329.583Z" stroke="#332B68" stroke-miterlimit="10" stroke-linecap="round" stroke-linejoin="round"/>
<path d="M330.924 322.141C330.924 322.141 321.296 326.301 314.011 329.162C306.725 332.023 310.886 334.621 313.748 334.621C316.609 334.621 327.8 331.242 331.961 328.636C336.129 326.038 335.611 321.36 330.924 322.141Z" fill="#0BCE91"/>
<path opacity="0.5" d="M330.924 322.141C330.924 322.141 321.296 326.301 314.011 329.162C306.725 332.023 310.886 334.621 313.748 334.621C316.609 334.621 327.8 331.242 331.961 328.636C336.129 326.038 335.611 321.36 330.924 322.141Z" fill="white"/>
<path d="M330.924 322.141C330.924 322.141 321.296 326.301 314.011 329.162C306.725 332.023 310.886 334.621 313.748 334.621C316.609 334.621 327.8 331.242 331.961 328.636C336.129 326.038 335.611 321.36 330.924 322.141Z" stroke="#332B68" stroke-miterlimit="10" stroke-linecap="round" stroke-linejoin="round"/>
<path d="M330.639 315.188C330.639 315.188 320.094 319.746 312.118 322.877C304.142 326.008 308.7 328.862 311.832 328.862C314.964 328.862 327.221 325.16 331.78 322.307C336.339 319.468 335.768 314.34 330.639 315.188Z" fill="#0BCE91"/>
<path opacity="0.5" d="M330.639 315.188C330.639 315.188 320.094 319.746 312.118 322.877C304.142 326.008 308.7 328.862 311.832 328.862C314.964 328.862 327.221 325.16 331.78 322.307C336.339 319.468 335.768 314.34 330.639 315.188Z" fill="white"/>
<path d="M330.639 315.188C330.639 315.188 320.094 319.746 312.118 322.877C304.142 326.008 308.7 328.862 311.832 328.862C314.964 328.862 327.221 325.16 331.78 322.307C336.339 319.468 335.768 314.34 330.639 315.188Z" stroke="#332B68" stroke-miterlimit="10" stroke-linecap="round" stroke-linejoin="round"/>
<path d="M331.465 308.836C331.465 308.836 320.92 313.394 312.944 316.525C304.968 319.656 309.527 322.509 312.659 322.509C315.79 322.509 328.048 318.808 332.606 315.954C337.165 313.108 336.595 307.98 331.465 308.836Z" fill="#0BCE91"/>
<path opacity="0.5" d="M331.465 308.836C331.465 308.836 320.92 313.394 312.944 316.525C304.968 319.656 309.527 322.509 312.659 322.509C315.79 322.509 328.048 318.808 332.606 315.954C337.165 313.108 336.595 307.98 331.465 308.836Z" fill="white"/>
<path d="M331.465 308.836C331.465 308.836 320.92 313.394 312.944 316.525C304.968 319.656 309.527 322.509 312.659 322.509C315.79 322.509 328.048 318.808 332.606 315.954C337.165 313.108 336.595 307.98 331.465 308.836Z" stroke="#332B68" stroke-miterlimit="10" stroke-linecap="round" stroke-linejoin="round"/>
<path d="M224.03 151.571C224.03 151.571 203.511 164.674 199.238 169.802C194.964 174.931 196.955 185.759 197.24 189.175C197.525 192.592 197.811 215.388 199.801 219.09C201.799 222.792 207.912 237.487 227.823 236.563C242.168 235.895 249.385 224.219 252.239 216.808C255.086 209.404 255.657 200.851 255.657 200.851C255.657 200.851 263.941 199.417 263.941 192.584C263.941 185.744 262.086 177.769 258.225 178.633C256.257 179.068 253.666 183.476 253.666 183.476C253.666 183.476 242.836 176.35 233.718 165.815C224.601 155.28 224.03 151.571 224.03 151.571Z" fill="white"/>
<path d="M222.737 163.428C222.737 163.428 241.536 188.259 253.666 183.484C253.666 183.484 242.836 176.358 233.718 165.823C224.6 155.28 224.029 151.579 224.029 151.579C224.029 151.579 203.511 164.681 199.237 169.81C198.268 170.974 197.637 172.431 197.217 174.03L222.737 163.428Z" fill="#0BCE91"/>
<path d="M263.716 188.394C263.46 190.572 262.987 192.937 262.093 194.897C259.78 199.988 253.757 199.064 253.757 199.064C253.757 199.064 250.054 218.504 244.962 224.527C239.87 230.541 225.976 235.64 212.089 228.694C198.202 221.748 200.049 204.621 200.049 204.621C200.049 204.621 208.386 204.621 211.623 196.751C214.867 188.882 210.699 185.18 202.363 185.638C200.102 185.766 198.397 186.615 197.098 187.778C197.158 188.319 197.21 188.792 197.248 189.168C197.533 192.584 197.819 215.381 199.809 219.083C201.807 222.784 207.92 237.479 227.831 236.556C242.176 235.887 249.393 224.211 252.247 216.8C255.094 209.396 255.664 200.844 255.664 200.844C255.664 200.844 263.949 199.41 263.949 192.577C263.941 191.21 263.866 189.783 263.716 188.394Z" fill="#0BCE91"/>
<path opacity="0.5" d="M263.716 188.394C263.46 190.572 262.987 192.937 262.093 194.897C259.78 199.988 253.757 199.064 253.757 199.064C253.757 199.064 250.054 218.504 244.962 224.527C239.87 230.541 225.976 235.64 212.089 228.694C198.202 221.748 200.049 204.621 200.049 204.621C200.049 204.621 208.386 204.621 211.623 196.751C214.867 188.882 210.699 185.18 202.363 185.638C200.102 185.766 198.397 186.615 197.098 187.778C197.158 188.319 197.21 188.792 197.248 189.168C197.533 192.584 197.819 215.381 199.809 219.083C201.807 222.784 207.92 237.479 227.831 236.556C242.176 235.887 249.393 224.211 252.247 216.8C255.094 209.396 255.664 200.844 255.664 200.844C255.664 200.844 263.949 199.41 263.949 192.577C263.941 191.21 263.866 189.783 263.716 188.394Z" fill="white"/>
<path d="M240.247 201.637C246.071 199.21 248.823 192.522 246.396 186.7C243.968 180.879 237.279 178.127 231.456 180.554C225.633 182.981 222.88 189.668 225.308 195.49C227.736 201.312 234.424 204.064 240.247 201.637Z" fill="#0BCE91"/>
<path opacity="0.5" d="M240.247 201.637C246.071 199.21 248.823 192.522 246.396 186.7C243.968 180.879 237.279 178.127 231.456 180.554C225.633 182.981 222.88 189.668 225.308 195.49C227.736 201.312 234.424 204.064 240.247 201.637Z" fill="white"/>
<path opacity="0.8" d="M222.737 163.428C222.737 163.428 241.536 188.259 253.666 183.484C253.666 183.484 242.836 176.358 233.718 165.823C224.6 155.28 224.029 151.579 224.029 151.579C224.029 151.579 203.511 164.681 199.237 169.81C198.268 170.974 197.637 172.431 197.217 174.03L222.737 163.428Z" fill="white"/>
<path d="M224.03 151.571C224.03 151.571 203.511 164.674 199.238 169.802C194.964 174.931 196.955 185.759 197.24 189.175C197.525 192.592 197.811 215.388 199.801 219.09C201.799 222.792 207.912 237.487 227.823 236.563C242.168 235.895 249.385 224.219 252.239 216.808C255.086 209.404 255.657 200.851 255.657 200.851C255.657 200.851 263.941 199.417 263.941 192.584C263.941 185.744 262.086 177.769 258.225 178.633C256.257 179.068 253.666 183.476 253.666 183.476C253.666 183.476 242.836 176.35 233.718 165.815C224.601 155.28 224.03 151.571 224.03 151.571Z" stroke="#332B68" stroke-miterlimit="10" stroke-linecap="round" stroke-linejoin="round"/>
<path d="M204.083 199.147C210.537 199.147 215.769 193.916 215.769 187.463C215.769 181.01 210.537 175.779 204.083 175.779C197.629 175.779 192.396 181.01 192.396 187.463C192.396 193.916 197.629 199.147 204.083 199.147Z" fill="white"/>
<path d="M194.424 194.033C196.527 197.119 200.072 199.146 204.082 199.146C210.534 199.146 215.769 193.92 215.769 187.463C215.769 186.239 215.581 185.06 215.228 183.948C214.244 186.073 213.095 187.688 211.818 187.793C207.868 188.131 207.139 187.275 204.082 187.455C202.115 187.583 197.473 191.36 194.424 194.033Z" fill="#0BCE91"/>
<path d="M204.083 199.147C210.537 199.147 215.769 193.916 215.769 187.463C215.769 181.01 210.537 175.779 204.083 175.779C197.629 175.779 192.396 181.01 192.396 187.463C192.396 193.916 197.629 199.147 204.083 199.147Z" stroke="#332B68" stroke-miterlimit="10" stroke-linecap="round" stroke-linejoin="round"/>
<path d="M236.003 199.147C242.457 199.147 247.689 193.916 247.689 187.463C247.689 181.01 242.457 175.779 236.003 175.779C229.549 175.779 224.316 181.01 224.316 187.463C224.316 193.916 229.549 199.147 236.003 199.147Z" fill="white"/>
<path d="M236.002 199.147C242.454 199.147 247.689 193.92 247.689 187.463C247.689 186.179 247.478 184.955 247.095 183.799C243.047 191.037 238.098 187.26 233.148 186.765C230.174 186.464 227.373 189.738 225.518 192.591C227.418 196.473 231.391 199.147 236.002 199.147Z" fill="#0BCE91"/>
<path d="M236.003 199.147C242.457 199.147 247.689 193.916 247.689 187.463C247.689 181.01 242.457 175.779 236.003 175.779C229.549 175.779 224.316 181.01 224.316 187.463C224.316 193.916 229.549 199.147 236.003 199.147Z" stroke="#332B68" stroke-miterlimit="10" stroke-linecap="round" stroke-linejoin="round"/>
<path d="M215.768 182.905C215.768 182.905 220.612 178.632 224.885 182.905" stroke="#332B68" stroke-miterlimit="10" stroke-linecap="round" stroke-linejoin="round"/>
<path d="M199.809 172.648C199.809 172.648 204.082 166.664 210.924 168.09" stroke="#332B68" stroke-miterlimit="10" stroke-linecap="round" stroke-linejoin="round"/>
<path d="M226.029 167.519C226.029 167.519 232.871 164.673 239.42 172.362" stroke="#332B68" stroke-miterlimit="10" stroke-linecap="round" stroke-linejoin="round"/>
<path d="M217.475 187.178C217.475 187.178 218.331 194.018 216.619 197.15C214.907 200.281 211.204 201.993 212.631 204.276C214.058 206.558 218.902 207.692 218.902 207.692" stroke="#332B68" stroke-miterlimit="10" stroke-linecap="round" stroke-linejoin="round"/>
<path d="M217.758 214.247C217.758 214.247 224.885 215.959 229.73 210.831" stroke="#332B68" stroke-miterlimit="10" stroke-linecap="round" stroke-linejoin="round"/>
<path d="M150.426 256.701H36.3008V327.76H150.426V256.701Z" fill="#2A2359"/>
<path d="M34.4414 252.456V332.012H152.28V252.456H34.4414ZM150.426 327.76H36.3009V256.702H150.426V327.76Z" fill="#0BCE91" stroke="#332B68" stroke-miterlimit="10" stroke-linecap="round" stroke-linejoin="round"/>
<path d="M117.131 265.25H40.867C39.6986 265.25 38.75 264.301 38.75 263.127V261.067C38.75 259.898 39.6986 258.944 40.867 258.944H117.131C118.299 258.944 119.254 259.892 119.254 261.067V263.127C119.248 264.301 118.299 265.25 117.131 265.25Z" fill="#0BCE91" stroke="#332B68" stroke-miterlimit="10" stroke-linecap="round" stroke-linejoin="round"/>
<path d="M40.0527 272.372H56.6184" stroke="#332B68" stroke-miterlimit="10" stroke-linecap="round" stroke-linejoin="round"/>
<path d="M40.0527 276.109H56.6184" stroke="#332B68" stroke-miterlimit="10" stroke-linecap="round" stroke-linejoin="round"/>
<path d="M40.0527 279.839H56.6184" stroke="#332B68" stroke-miterlimit="10" stroke-linecap="round" stroke-linejoin="round"/>
<path d="M40.0527 283.802H56.6184" stroke="#332B68" stroke-miterlimit="10" stroke-linecap="round" stroke-linejoin="round"/>
<path d="M59.8379 272.372H76.4036" stroke="#332B68" stroke-miterlimit="10" stroke-linecap="round" stroke-linejoin="round"/>
<path d="M59.8379 276.109H76.4036" stroke="#332B68" stroke-miterlimit="10" stroke-linecap="round" stroke-linejoin="round"/>
<path d="M59.8379 279.839H76.4036" stroke="#332B68" stroke-miterlimit="10" stroke-linecap="round" stroke-linejoin="round"/>
<path d="M59.8379 283.802H76.4036" stroke="#332B68" stroke-miterlimit="10" stroke-linecap="round" stroke-linejoin="round"/>
<path d="M79.627 272.372H96.1926" stroke="#332B68" stroke-miterlimit="10" stroke-linecap="round" stroke-linejoin="round"/>
<path d="M79.627 276.109H96.1926" stroke="#332B68" stroke-miterlimit="10" stroke-linecap="round" stroke-linejoin="round"/>
<path d="M79.627 279.839H96.1926" stroke="#332B68" stroke-miterlimit="10" stroke-linecap="round" stroke-linejoin="round"/>
<path d="M79.627 283.802H96.1926" stroke="#332B68" stroke-miterlimit="10" stroke-linecap="round" stroke-linejoin="round"/>
<path d="M99.416 272.372H115.982" stroke="#332B68" stroke-miterlimit="10" stroke-linecap="round" stroke-linejoin="round"/>
<path d="M99.416 276.109H115.982" stroke="#332B68" stroke-miterlimit="10" stroke-linecap="round" stroke-linejoin="round"/>
<path d="M99.416 279.839H115.982" stroke="#332B68" stroke-miterlimit="10" stroke-linecap="round" stroke-linejoin="round"/>
<path d="M99.416 283.802H115.982" stroke="#332B68" stroke-miterlimit="10" stroke-linecap="round" stroke-linejoin="round"/>
<path d="M50.0273 310.332L64.0991 296.27L74.4456 305.552L83.209 297.595L96.2128 307.411L110.278 292.552" stroke="#332B68" stroke-miterlimit="10" stroke-linecap="round" stroke-linejoin="round"/>
<path d="M64.1017 298.128C65.1286 298.128 65.9611 297.296 65.9611 296.269C65.9611 295.243 65.1286 294.41 64.1017 294.41C63.0747 294.41 62.2422 295.243 62.2422 296.269C62.2422 297.296 63.0747 298.128 64.1017 298.128Z" fill="#0BCE91" stroke="#332B68" stroke-miterlimit="10" stroke-linecap="round" stroke-linejoin="round"/>
<path d="M83.211 299.454C84.238 299.454 85.0705 298.621 85.0705 297.595C85.0705 296.568 84.238 295.736 83.211 295.736C82.1841 295.736 81.3516 296.568 81.3516 297.595C81.3516 298.621 82.1841 299.454 83.211 299.454Z" fill="#0BCE91" stroke="#332B68" stroke-miterlimit="10" stroke-linecap="round" stroke-linejoin="round"/>
<path d="M96.215 309.271C97.2419 309.271 98.0744 308.438 98.0744 307.412C98.0744 306.385 97.2419 305.552 96.215 305.552C95.188 305.552 94.3555 306.385 94.3555 307.412C94.3555 308.438 95.188 309.271 96.215 309.271Z" fill="#0BCE91" stroke="#332B68" stroke-miterlimit="10" stroke-linecap="round" stroke-linejoin="round"/>
<path d="M110.016 294.41C111.043 294.41 111.875 293.578 111.875 292.551C111.875 291.525 111.043 290.692 110.016 290.692C108.989 290.692 108.156 291.525 108.156 292.551C108.156 293.578 108.989 294.41 110.016 294.41Z" fill="#0BCE91" stroke="#332B68" stroke-miterlimit="10" stroke-linecap="round" stroke-linejoin="round"/>
<path d="M50.0274 312.191C51.0544 312.191 51.8869 311.359 51.8869 310.332C51.8869 309.305 51.0544 308.473 50.0274 308.473C49.0005 308.473 48.168 309.305 48.168 310.332C48.168 311.359 49.0005 312.191 50.0274 312.191Z" fill="#0BCE91" stroke="#332B68" stroke-miterlimit="10" stroke-linecap="round" stroke-linejoin="round"/>
<path d="M74.4474 306.884C75.4743 306.884 76.3068 306.051 76.3068 305.025C76.3068 303.998 75.4743 303.166 74.4474 303.166C73.4204 303.166 72.5879 303.998 72.5879 305.025C72.5879 306.051 73.4204 306.884 74.4474 306.884Z" fill="#0BCE91" stroke="#332B68" stroke-miterlimit="10" stroke-linecap="round" stroke-linejoin="round"/>
<path d="M124.371 326.178C123.78 326.178 123.303 325.7 123.303 325.11V259.911C123.303 259.321 123.78 258.843 124.371 258.843C124.961 258.843 125.439 259.321 125.439 259.911V325.11C125.439 325.694 124.961 326.178 124.371 326.178Z" fill="#0BCE91" stroke="#332B68" stroke-miterlimit="10" stroke-linecap="round" stroke-linejoin="round"/>
<path d="M136.154 271.945H148.103" stroke="#332B68" stroke-miterlimit="10" stroke-linecap="round" stroke-linejoin="round"/>
<path d="M127.623 271.945H131.794" stroke="#332B68" stroke-miterlimit="10" stroke-linecap="round" stroke-linejoin="round"/>
<path d="M146.018 275.097H148.103" stroke="#332B68" stroke-miterlimit="10" stroke-linecap="round" stroke-linejoin="round"/>
<path d="M140.137 275.097H144.308" stroke="#332B68" stroke-miterlimit="10" stroke-linecap="round" stroke-linejoin="round"/>
<path d="M127.623 275.097H137.291" stroke="#332B68" stroke-miterlimit="10" stroke-linecap="round" stroke-linejoin="round"/>
<path d="M137.486 278.244H148.103" stroke="#332B68" stroke-miterlimit="10" stroke-linecap="round" stroke-linejoin="round"/>
<path d="M127.623 278.244H135.205" stroke="#332B68" stroke-miterlimit="10" stroke-linecap="round" stroke-linejoin="round"/>
<path d="M143.555 281.397H148.103" stroke="#332B68" stroke-miterlimit="10" stroke-linecap="round" stroke-linejoin="round"/>
<path d="M132.17 281.397H141.656" stroke="#332B68" stroke-miterlimit="10" stroke-linecap="round" stroke-linejoin="round"/>
<path d="M127.623 281.397H130.086" stroke="#332B68" stroke-miterlimit="10" stroke-linecap="round" stroke-linejoin="round"/>
<path d="M136.154 284.154H148.103" stroke="#332B68" stroke-miterlimit="10" stroke-linecap="round" stroke-linejoin="round"/>
<path d="M127.623 284.154H131.794" stroke="#332B68" stroke-miterlimit="10" stroke-linecap="round" stroke-linejoin="round"/>
<path d="M146.018 287.301H148.103" stroke="#332B68" stroke-miterlimit="10" stroke-linecap="round" stroke-linejoin="round"/>
<path d="M140.137 287.301H144.308" stroke="#332B68" stroke-miterlimit="10" stroke-linecap="round" stroke-linejoin="round"/>
<path d="M127.623 287.301H137.291" stroke="#332B68" stroke-miterlimit="10" stroke-linecap="round" stroke-linejoin="round"/>
<path d="M137.486 290.454H148.103" stroke="#332B68" stroke-miterlimit="10" stroke-linecap="round" stroke-linejoin="round"/>
<path d="M127.623 290.454H135.205" stroke="#332B68" stroke-miterlimit="10" stroke-linecap="round" stroke-linejoin="round"/>
<path d="M143.555 293.606H148.103" stroke="#332B68" stroke-miterlimit="10" stroke-linecap="round" stroke-linejoin="round"/>
<path d="M132.17 293.606H141.656" stroke="#332B68" stroke-miterlimit="10" stroke-linecap="round" stroke-linejoin="round"/>
<path d="M127.623 293.606H130.086" stroke="#332B68" stroke-miterlimit="10" stroke-linecap="round" stroke-linejoin="round"/>
<path d="M136.154 296.357H148.103" stroke="#332B68" stroke-miterlimit="10" stroke-linecap="round" stroke-linejoin="round"/>
<path d="M127.623 296.357H131.794" stroke="#332B68" stroke-miterlimit="10" stroke-linecap="round" stroke-linejoin="round"/>
<path d="M146.018 299.51H148.103" stroke="#332B68" stroke-miterlimit="10" stroke-linecap="round" stroke-linejoin="round"/>
<path d="M140.137 299.51H144.308" stroke="#332B68" stroke-miterlimit="10" stroke-linecap="round" stroke-linejoin="round"/>
<path d="M127.623 299.51H137.291" stroke="#332B68" stroke-miterlimit="10" stroke-linecap="round" stroke-linejoin="round"/>
<path d="M137.486 302.663H148.103" stroke="#332B68" stroke-miterlimit="10" stroke-linecap="round" stroke-linejoin="round"/>
<path d="M127.623 302.663H135.205" stroke="#332B68" stroke-miterlimit="10" stroke-linecap="round" stroke-linejoin="round"/>
<path d="M143.555 305.81H148.103" stroke="#332B68" stroke-miterlimit="10" stroke-linecap="round" stroke-linejoin="round"/>
<path d="M132.17 305.81H141.656" stroke="#332B68" stroke-miterlimit="10" stroke-linecap="round" stroke-linejoin="round"/>
<path d="M127.623 305.81H130.086" stroke="#332B68" stroke-miterlimit="10" stroke-linecap="round" stroke-linejoin="round"/>
<path d="M136.154 308.567H148.103" stroke="#332B68" stroke-miterlimit="10" stroke-linecap="round" stroke-linejoin="round"/>
<path d="M127.623 308.567H131.794" stroke="#332B68" stroke-miterlimit="10" stroke-linecap="round" stroke-linejoin="round"/>
<path d="M146.018 311.72H148.103" stroke="#332B68" stroke-miterlimit="10" stroke-linecap="round" stroke-linejoin="round"/>
<path d="M140.137 311.72H144.308" stroke="#332B68" stroke-miterlimit="10" stroke-linecap="round" stroke-linejoin="round"/>
<path d="M127.623 311.72H137.291" stroke="#332B68" stroke-miterlimit="10" stroke-linecap="round" stroke-linejoin="round"/>
<path d="M137.486 314.866H148.103" stroke="#332B68" stroke-miterlimit="10" stroke-linecap="round" stroke-linejoin="round"/>
<path d="M127.623 314.866H135.205" stroke="#332B68" stroke-miterlimit="10" stroke-linecap="round" stroke-linejoin="round"/>
<path d="M143.555 318.019H148.103" stroke="#332B68" stroke-miterlimit="10" stroke-linecap="round" stroke-linejoin="round"/>
<path d="M132.17 318.019H141.656" stroke="#332B68" stroke-miterlimit="10" stroke-linecap="round" stroke-linejoin="round"/>
<path d="M127.623 318.019H130.086" stroke="#332B68" stroke-miterlimit="10" stroke-linecap="round" stroke-linejoin="round"/>
<path d="M44.2605 319.577H41.4336V325.858H44.2605V319.577Z" fill="#0BCE91"/>
<path d="M49.9148 322.378H47.0879V325.858H49.9148V322.378Z" fill="#332B68"/>
<path d="M55.5691 323.999H52.7422V325.858H55.5691V323.999Z" fill="#0BCE91"/>
<path d="M61.2234 321.411H58.3965V325.858H61.2234V321.411Z" fill="#332B68"/>
<path d="M66.8777 323.025H64.0508V325.857H66.8777V323.025Z" fill="#0BCE91"/>
<path d="M72.53 321.191H69.7031V325.858H72.53V321.191Z" fill="#332B68"/>
<path d="M78.1843 325.073H75.3574V325.858H78.1843V325.073Z" fill="#0BCE91"/>
<path d="M83.8386 319.577H81.0117V325.858H83.8386V319.577Z" fill="#332B68"/>
<path d="M89.491 323.565H86.6641V325.857H89.491V323.565Z" fill="#0BCE91"/>
<path d="M95.1453 324.966H92.3184V325.858H95.1453V324.966Z" fill="#332B68"/>
<path d="M100.8 323.779H97.9727V325.857H100.8V323.779Z" fill="#0BCE91"/>
<path d="M106.454 319.577H103.627V325.858H106.454V319.577Z" fill="#332B68"/>
<path d="M112.106 320.871H109.279V325.857H112.106V320.871Z" fill="#0BCE91"/>
<path d="M117.761 321.731H114.934V325.857H117.761V321.731Z" fill="#332B68"/>
<path d="M129.646 267.618V234.726H135.947" stroke="#332B68" stroke-miterlimit="10" stroke-linecap="round" stroke-linejoin="round"/>
<path d="M140.846 234.487H152.518" stroke="#332B68" stroke-miterlimit="10" stroke-linecap="round" stroke-linejoin="round"/>
<path d="M140.846 238.224H152.518" stroke="#332B68" stroke-miterlimit="10" stroke-linecap="round" stroke-linejoin="round"/>
<path d="M140.846 241.955H152.518" stroke="#332B68" stroke-miterlimit="10" stroke-linecap="round" stroke-linejoin="round"/>
<path d="M42.1133 369.301H54.4826" stroke="#332B68" stroke-miterlimit="10" stroke-linecap="round" stroke-linejoin="round"/>
<path d="M42.1133 372.799H54.4826" stroke="#332B68" stroke-miterlimit="10" stroke-linecap="round" stroke-linejoin="round"/>
<path d="M42.1133 376.297H54.4826" stroke="#332B68" stroke-miterlimit="10" stroke-linecap="round" stroke-linejoin="round"/>
<path d="M42.1133 379.795H54.4826" stroke="#332B68" stroke-miterlimit="10" stroke-linecap="round" stroke-linejoin="round"/>
<path d="M84.1746 374.864C94.5768 372.374 100.991 361.925 98.5008 351.525C96.0106 341.126 85.5593 334.713 75.1571 337.202C64.7549 339.692 58.3409 350.141 60.831 360.541C63.3211 370.941 73.7724 377.353 84.1746 374.864Z" fill="#0BCE91" stroke="#332B68" stroke-miterlimit="10" stroke-linecap="round" stroke-linejoin="round"/>
<path d="M83.0218 370.106C90.7938 368.253 95.5916 360.451 93.7379 352.681C91.8841 344.91 84.0809 340.114 76.3089 341.967C68.5368 343.82 63.7391 351.622 65.5928 359.392C67.4465 367.162 75.2497 371.959 83.0218 370.106Z" fill="white" stroke="#332B68" stroke-miterlimit="10" stroke-linecap="round" stroke-linejoin="round"/>
<path d="M88.1321 359.497C90.0468 354.827 87.8124 349.49 83.1414 347.575C78.4705 345.661 73.1317 347.895 71.2169 352.565C69.3022 357.235 71.5366 362.572 76.2076 364.487C80.8786 366.401 86.2173 364.167 88.1321 359.497Z" fill="#0BCE91" stroke="#332B68" stroke-miterlimit="10" stroke-linecap="round" stroke-linejoin="round"/>
<path d="M55.1628 362.8C58.8991 359.064 58.8991 353.008 55.1628 349.272C51.4265 345.537 45.3687 345.537 41.6324 349.272C37.8961 353.008 37.8961 359.064 41.6324 362.8C45.3687 366.535 51.4265 366.535 55.1628 362.8Z" fill="white" stroke="#332B68" stroke-miterlimit="10" stroke-linecap="round" stroke-linejoin="round"/>
<path d="M52.1839 359.82C54.2741 357.73 54.2741 354.342 52.1839 352.252C50.0937 350.163 46.7049 350.163 44.6147 352.252C42.5245 354.342 42.5245 357.73 44.6147 359.82C46.7049 361.91 50.0937 361.91 52.1839 359.82Z" fill="#0BCE91" stroke="#332B68" stroke-miterlimit="10" stroke-linecap="round" stroke-linejoin="round"/>
<path d="M31.7948 361.566C34.8456 361.067 36.914 358.19 36.4148 355.14C35.9155 352.089 33.0376 350.021 29.9868 350.521C26.9361 351.02 24.8676 353.897 25.3669 356.947C25.8661 359.997 28.744 362.065 31.7948 361.566Z" fill="white" stroke="#332B68" stroke-miterlimit="10" stroke-linecap="round" stroke-linejoin="round"/>
<path d="M34.0398 356.036C34.0398 354.302 32.6327 352.896 30.8988 352.896C29.165 352.896 27.7578 354.302 27.7578 356.036C27.7578 357.769 29.165 359.176 30.8988 359.176C32.6327 359.176 34.0398 357.769 34.0398 356.036Z" fill="#0BCE91" stroke="#332B68" stroke-miterlimit="10" stroke-linecap="round" stroke-linejoin="round"/>
<path d="M79.6718 356.036H19" stroke="#332B68" stroke-miterlimit="10" stroke-linecap="round" stroke-linejoin="round"/>
<path d="M127.504 162.218C123.303 159.928 121.401 161.833 119.872 159.928C118.344 158.013 124.073 153.048 112.626 148.084C112.626 148.084 111.867 137.384 96.2188 137.01C80.5707 136.624 84.7715 147.71 80.5707 150.385C76.3699 153.06 75.2263 148.854 71.0256 151.529C66.8248 154.204 68.7384 159.554 65.2962 160.314C61.8654 161.073 57.2797 156.879 53.0789 159.554C48.8782 162.229 48.8782 164.519 46.9759 164.519C45.0624 164.519 41.2466 162.989 38.9594 164.519C36.6722 166.049 34 167.953 34 167.953H130.55C130.561 167.942 131.705 164.508 127.504 162.218Z" fill="#2A2359"/>
<path d="M270.874 68.5852C265.443 65.6249 262.982 68.0965 261.009 65.6249C259.036 63.1533 266.439 56.7441 251.633 50.3254C251.633 50.3254 250.647 36.5108 230.42 36.0127C210.193 35.5146 215.623 49.8273 210.193 53.2857C204.762 56.7441 203.287 51.3122 197.857 54.7705C192.427 58.2289 194.898 65.1362 190.454 66.123C186.01 67.1098 180.092 61.6779 174.671 65.1362C169.241 68.5946 169.241 71.5549 166.779 71.5549C164.308 71.5549 159.376 69.5814 156.417 71.5549C153.457 73.5284 150 76 150 76H274.81C274.819 75.9906 276.294 71.5455 270.874 68.5852Z" fill="#2A2359"/>
</svg>
