<svg width="148" height="148" viewBox="0 0 148 148" fill="none" xmlns="http://www.w3.org/2000/svg">
<circle opacity="0.2" cx="74.7402" cy="74.74" r="55" stroke="#0BCE91"/>
<circle opacity="0.1" cx="74.0009" cy="74" r="64.62" stroke="#0BCE91"/>
<circle opacity="0.05" cx="74" cy="74" r="73.5" stroke="#0BCE91"/>
<path d="M74.266 117.452C98.117 117.452 117.452 98.1169 117.452 74.266C117.452 50.415 98.117 31.08 74.266 31.08C50.4151 31.08 31.0801 50.415 31.0801 74.266C31.0801 98.1169 50.4151 117.452 74.266 117.452Z" fill="#0BCE91"/>
<path d="M74.7289 110.977C94.7484 110.977 110.977 94.7479 110.977 74.7284C110.977 54.709 94.7484 38.48 74.7289 38.48C54.7094 38.48 38.4805 54.709 38.4805 74.7284C38.4805 94.7479 54.7094 110.977 74.7289 110.977Z" fill="#0E9979"/>
<g clip-path="url(#clip0)">
<path d="M75.0332 71.1057C69.0605 69.5533 67.1398 67.9616 67.1398 65.462C67.1398 62.5941 69.7841 60.5813 74.2438 60.5813C78.9272 60.5813 80.6637 62.8177 80.8216 66.1067H86.6364C86.4653 61.568 83.6896 57.4372 78.1905 56.0821V50.32H70.2972V56.0032C65.1928 57.1215 61.0882 60.4103 61.0882 65.5015C61.0882 71.5793 66.1268 74.6051 73.4545 76.368C80.0454 77.9467 81.3478 80.2489 81.3478 82.7221C81.3478 84.5244 80.0717 87.4187 74.2438 87.4187C68.8237 87.4187 66.6794 84.9849 66.4032 81.8933H60.6016C60.9305 87.6555 65.2324 90.8785 70.2972 91.9705V97.68H78.1905V92.0231C83.308 91.0364 87.3995 88.0764 87.3995 82.6695C87.3995 75.2235 81.0058 72.6713 75.0332 71.1057Z" fill="#17113D"/>
</g>
<defs>
<clipPath id="clip0">
<rect x="50.3203" y="50.32" width="47.36" height="47.36" fill="white"/>
</clipPath>
</defs>
</svg>
