<svg width="416" height="416" viewBox="0 0 416 416" fill="none" xmlns="http://www.w3.org/2000/svg">
<circle opacity="0.2" cx="208" cy="208" r="155.5" stroke="#0BCE91"/>
<circle opacity="0.1" cx="208" cy="208" r="181.5" stroke="#0BCE91"/>
<circle opacity="0.05" cx="208" cy="208" r="207.5" stroke="#0BCE91"/>
<circle cx="209" cy="208" r="130" fill="#0BCE91" fill-opacity="0.1"/>
<path d="M46.298 294V276.808H40.502V274.4H55.034V276.808H49.266V294H46.298ZM60.2798 294.336C58.9171 294.336 57.7038 294.037 56.6398 293.44C55.5945 292.824 54.7731 291.975 54.1758 290.892C53.5785 289.809 53.2798 288.549 53.2798 287.112C53.2798 285.656 53.5691 284.377 54.1478 283.276C54.7451 282.175 55.5665 281.316 56.6118 280.7C57.6758 280.084 58.9078 279.776 60.3078 279.776C61.6705 279.776 62.8558 280.084 63.8638 280.7C64.8718 281.297 65.6558 282.1 66.2158 283.108C66.7758 284.116 67.0558 285.227 67.0558 286.44C67.0558 286.627 67.0465 286.832 67.0278 287.056C67.0278 287.261 67.0185 287.495 66.9998 287.756H56.1918C56.2851 289.1 56.7238 290.127 57.5078 290.836C58.3105 291.527 59.2345 291.872 60.2798 291.872C61.1198 291.872 61.8198 291.685 62.3798 291.312C62.9585 290.92 63.3878 290.397 63.6678 289.744H66.6358C66.2625 291.051 65.5158 292.143 64.3958 293.02C63.2945 293.897 61.9225 294.336 60.2798 294.336ZM60.2798 282.212C59.2905 282.212 58.4131 282.511 57.6478 283.108C56.8825 283.687 56.4158 284.564 56.2478 285.74H64.0878C64.0318 284.657 63.6491 283.799 62.9398 283.164C62.2305 282.529 61.3438 282.212 60.2798 282.212ZM76.5474 294.336C75.4647 294.336 74.5034 294.121 73.6634 293.692C72.842 293.263 72.1887 292.656 71.7034 291.872L71.3954 294H68.7354V273.84H71.7034V282.268C72.1514 281.615 72.7674 281.036 73.5514 280.532C74.3354 280.028 75.3434 279.776 76.5754 279.776C77.9194 279.776 79.1047 280.093 80.1314 280.728C81.158 281.363 81.9607 282.231 82.5394 283.332C83.1367 284.433 83.4354 285.684 83.4354 287.084C83.4354 288.484 83.1367 289.735 82.5394 290.836C81.9607 291.919 81.158 292.777 80.1314 293.412C79.1047 294.028 77.91 294.336 76.5474 294.336ZM76.0434 291.76C77.3127 291.76 78.358 291.331 79.1794 290.472C80.0007 289.595 80.4114 288.456 80.4114 287.056C80.4114 286.141 80.2247 285.329 79.8514 284.62C79.478 283.911 78.9647 283.36 78.3114 282.968C77.658 282.557 76.902 282.352 76.0434 282.352C74.774 282.352 73.7287 282.791 72.9074 283.668C72.1047 284.545 71.7034 285.675 71.7034 287.056C71.7034 288.456 72.1047 289.595 72.9074 290.472C73.7287 291.331 74.774 291.76 76.0434 291.76ZM85.2455 294V280.112H87.9055L88.1575 282.744C88.6429 281.829 89.3149 281.111 90.1735 280.588C91.0509 280.047 92.1055 279.776 93.3375 279.776V282.884H92.5255C91.7042 282.884 90.9669 283.024 90.3135 283.304C89.6789 283.565 89.1655 284.023 88.7735 284.676C88.4002 285.311 88.2135 286.197 88.2135 287.336V294H85.2455ZM96.1623 277.48C95.6023 277.48 95.1356 277.312 94.7623 276.976C94.4076 276.621 94.2303 276.183 94.2303 275.66C94.2303 275.137 94.4076 274.708 94.7623 274.372C95.1356 274.017 95.6023 273.84 96.1623 273.84C96.7223 273.84 97.1796 274.017 97.5343 274.372C97.9076 274.708 98.0943 275.137 98.0943 275.66C98.0943 276.183 97.9076 276.621 97.5343 276.976C97.1796 277.312 96.7223 277.48 96.1623 277.48ZM94.6783 294V280.112H97.6463V294H94.6783ZM100.164 294V273.84H103.132V285.852L108.452 280.112H112.008L106.1 286.412L112.876 294H109.124L103.132 286.888V294H100.164ZM113.776 294V273.84H116.744V294H113.776ZM125.599 294.336C124.236 294.336 123.023 294.037 121.959 293.44C120.913 292.824 120.092 291.975 119.495 290.892C118.897 289.809 118.599 288.549 118.599 287.112C118.599 285.656 118.888 284.377 119.467 283.276C120.064 282.175 120.885 281.316 121.931 280.7C122.995 280.084 124.227 279.776 125.627 279.776C126.989 279.776 128.175 280.084 129.183 280.7C130.191 281.297 130.975 282.1 131.535 283.108C132.095 284.116 132.375 285.227 132.375 286.44C132.375 286.627 132.365 286.832 132.347 287.056C132.347 287.261 132.337 287.495 132.319 287.756H121.511C121.604 289.1 122.043 290.127 122.827 290.836C123.629 291.527 124.553 291.872 125.599 291.872C126.439 291.872 127.139 291.685 127.699 291.312C128.277 290.92 128.707 290.397 128.987 289.744H131.955C131.581 291.051 130.835 292.143 129.715 293.02C128.613 293.897 127.241 294.336 125.599 294.336ZM125.599 282.212C124.609 282.212 123.732 282.511 122.967 283.108C122.201 283.687 121.735 284.564 121.567 285.74H129.407C129.351 284.657 128.968 283.799 128.259 283.164C127.549 282.529 126.663 282.212 125.599 282.212ZM134.054 294V280.112H136.714L136.966 282.744C137.451 281.829 138.123 281.111 138.982 280.588C139.859 280.047 140.914 279.776 142.146 279.776V282.884H141.334C140.513 282.884 139.775 283.024 139.122 283.304C138.487 283.565 137.974 284.023 137.582 284.676C137.209 285.311 137.022 286.197 137.022 287.336V294H134.054ZM140.682 297.304L142.306 290.696H145.246L142.67 297.304H140.682ZM157.007 294.336C155.831 294.336 154.861 294.14 154.095 293.748C153.33 293.356 152.761 292.843 152.387 292.208C152.014 291.555 151.827 290.845 151.827 290.08C151.827 288.736 152.35 287.672 153.395 286.888C154.441 286.104 155.934 285.712 157.875 285.712H161.515V285.46C161.515 284.377 161.217 283.565 160.619 283.024C160.041 282.483 159.285 282.212 158.351 282.212C157.53 282.212 156.811 282.417 156.195 282.828C155.598 283.22 155.234 283.808 155.103 284.592H152.135C152.229 283.584 152.565 282.725 153.143 282.016C153.741 281.288 154.487 280.737 155.383 280.364C156.298 279.972 157.297 279.776 158.379 279.776C160.321 279.776 161.823 280.289 162.887 281.316C163.951 282.324 164.483 283.705 164.483 285.46V294H161.907L161.655 291.62C161.263 292.385 160.694 293.029 159.947 293.552C159.201 294.075 158.221 294.336 157.007 294.336ZM157.595 291.928C158.398 291.928 159.07 291.741 159.611 291.368C160.171 290.976 160.601 290.463 160.899 289.828C161.217 289.193 161.413 288.493 161.487 287.728H158.183C157.007 287.728 156.167 287.933 155.663 288.344C155.178 288.755 154.935 289.268 154.935 289.884C154.935 290.519 155.169 291.023 155.635 291.396C156.121 291.751 156.774 291.928 157.595 291.928ZM166.544 294V280.112H169.204L169.456 282.744C169.941 281.829 170.613 281.111 171.472 280.588C172.349 280.047 173.404 279.776 174.636 279.776V282.884H173.824C173.003 282.884 172.265 283.024 171.612 283.304C170.977 283.565 170.464 284.023 170.072 284.676C169.699 285.311 169.512 286.197 169.512 287.336V294H166.544ZM180.485 294.336C179.309 294.336 178.338 294.14 177.573 293.748C176.807 293.356 176.238 292.843 175.865 292.208C175.491 291.555 175.305 290.845 175.305 290.08C175.305 288.736 175.827 287.672 176.873 286.888C177.918 286.104 179.411 285.712 181.353 285.712H184.993V285.46C184.993 284.377 184.694 283.565 184.097 283.024C183.518 282.483 182.762 282.212 181.829 282.212C181.007 282.212 180.289 282.417 179.673 282.828C179.075 283.22 178.711 283.808 178.581 284.592H175.613C175.706 283.584 176.042 282.725 176.621 282.016C177.218 281.288 177.965 280.737 178.861 280.364C179.775 279.972 180.774 279.776 181.857 279.776C183.798 279.776 185.301 280.289 186.365 281.316C187.429 282.324 187.961 283.705 187.961 285.46V294H185.385L185.133 291.62C184.741 292.385 184.171 293.029 183.425 293.552C182.678 294.075 181.698 294.336 180.485 294.336ZM181.073 291.928C181.875 291.928 182.547 291.741 183.089 291.368C183.649 290.976 184.078 290.463 184.377 289.828C184.694 289.193 184.89 288.493 184.965 287.728H181.661C180.485 287.728 179.645 287.933 179.141 288.344C178.655 288.755 178.413 289.268 178.413 289.884C178.413 290.519 178.646 291.023 179.113 291.396C179.598 291.751 180.251 291.928 181.073 291.928ZM190.021 294V280.112H192.653L192.905 282.072C193.353 281.363 193.941 280.803 194.669 280.392C195.416 279.981 196.275 279.776 197.245 279.776C199.448 279.776 200.979 280.644 201.837 282.38C202.341 281.577 203.013 280.943 203.853 280.476C204.712 280.009 205.636 279.776 206.625 279.776C208.361 279.776 209.724 280.299 210.713 281.344C211.703 282.389 212.197 283.948 212.197 286.02V294H209.229V286.328C209.229 283.64 208.203 282.296 206.149 282.296C205.104 282.296 204.245 282.688 203.573 283.472C202.92 284.256 202.593 285.376 202.593 286.832V294H199.625V286.328C199.625 283.64 198.589 282.296 196.517 282.296C195.491 282.296 194.641 282.688 193.969 283.472C193.316 284.256 192.989 285.376 192.989 286.832V294H190.021ZM214.27 294V280.112H217.238V294H214.27ZM218.672 294V291.592L226.092 282.576H218.784V280.112H229.452V282.52L221.976 291.536H229.592V294H218.672ZM235.943 294.336C234.767 294.336 233.797 294.14 233.031 293.748C232.266 293.356 231.697 292.843 231.323 292.208C230.95 291.555 230.763 290.845 230.763 290.08C230.763 288.736 231.286 287.672 232.331 286.888C233.377 286.104 234.87 285.712 236.811 285.712H240.451V285.46C240.451 284.377 240.153 283.565 239.555 283.024C238.977 282.483 238.221 282.212 237.287 282.212C236.466 282.212 235.747 282.417 235.131 282.828C234.534 283.22 234.17 283.808 234.039 284.592H231.071C231.165 283.584 231.501 282.725 232.079 282.016C232.677 281.288 233.423 280.737 234.319 280.364C235.234 279.972 236.233 279.776 237.315 279.776C239.257 279.776 240.759 280.289 241.823 281.316C242.887 282.324 243.419 283.705 243.419 285.46V294H240.843L240.591 291.62C240.199 292.385 239.63 293.029 238.883 293.552C238.137 294.075 237.157 294.336 235.943 294.336ZM236.531 291.928C237.334 291.928 238.006 291.741 238.547 291.368C239.107 290.976 239.537 290.463 239.835 289.828C240.153 289.193 240.349 288.493 240.423 287.728H237.119C235.943 287.728 235.103 287.933 234.599 288.344C234.114 288.755 233.871 289.268 233.871 289.884C233.871 290.519 234.105 291.023 234.571 291.396C235.057 291.751 235.71 291.928 236.531 291.928ZM251.135 294V273.84H254.103V282.352C254.569 281.549 255.213 280.924 256.035 280.476C256.875 280.009 257.799 279.776 258.807 279.776C260.468 279.776 261.775 280.299 262.727 281.344C263.679 282.389 264.155 283.948 264.155 286.02V294H261.215V286.328C261.215 283.64 260.141 282.296 257.995 282.296C256.875 282.296 255.941 282.688 255.195 283.472C254.467 284.256 254.103 285.376 254.103 286.832V294H251.135ZM272.746 294.336C271.421 294.336 270.226 294.037 269.162 293.44C268.117 292.824 267.286 291.975 266.67 290.892C266.054 289.791 265.746 288.512 265.746 287.056C265.746 285.6 266.054 284.331 266.67 283.248C267.305 282.147 268.154 281.297 269.218 280.7C270.282 280.084 271.468 279.776 272.774 279.776C274.1 279.776 275.285 280.084 276.33 280.7C277.394 281.297 278.234 282.147 278.85 283.248C279.485 284.331 279.802 285.6 279.802 287.056C279.802 288.512 279.485 289.791 278.85 290.892C278.234 291.975 277.394 292.824 276.33 293.44C275.266 294.037 274.072 294.336 272.746 294.336ZM272.746 291.788C273.456 291.788 274.109 291.611 274.706 291.256C275.322 290.901 275.817 290.379 276.19 289.688C276.564 288.979 276.75 288.101 276.75 287.056C276.75 286.011 276.564 285.143 276.19 284.452C275.836 283.743 275.35 283.211 274.734 282.856C274.137 282.501 273.484 282.324 272.774 282.324C272.065 282.324 271.402 282.501 270.786 282.856C270.189 283.211 269.704 283.743 269.33 284.452C268.957 285.143 268.77 286.011 268.77 287.056C268.77 288.101 268.957 288.979 269.33 289.688C269.704 290.379 270.189 290.901 270.786 291.256C271.384 291.611 272.037 291.788 272.746 291.788ZM287.156 294.336C285.401 294.336 283.955 293.907 282.816 293.048C281.677 292.189 281.024 291.051 280.856 289.632H283.852C284.001 290.267 284.356 290.817 284.916 291.284C285.476 291.732 286.213 291.956 287.128 291.956C288.024 291.956 288.677 291.769 289.088 291.396C289.499 291.023 289.704 290.593 289.704 290.108C289.704 289.399 289.415 288.923 288.836 288.68C288.276 288.419 287.492 288.185 286.484 287.98C285.7 287.812 284.916 287.588 284.132 287.308C283.367 287.028 282.723 286.636 282.2 286.132C281.696 285.609 281.444 284.909 281.444 284.032C281.444 282.819 281.911 281.811 282.844 281.008C283.777 280.187 285.084 279.776 286.764 279.776C288.313 279.776 289.564 280.149 290.516 280.896C291.487 281.643 292.056 282.697 292.224 284.06H289.368C289.275 283.463 288.995 282.996 288.528 282.66C288.08 282.324 287.473 282.156 286.708 282.156C285.961 282.156 285.383 282.315 284.972 282.632C284.561 282.931 284.356 283.323 284.356 283.808C284.356 284.293 284.636 284.676 285.196 284.956C285.775 285.236 286.531 285.488 287.464 285.712C288.397 285.917 289.256 286.16 290.04 286.44C290.843 286.701 291.487 287.093 291.972 287.616C292.457 288.139 292.7 288.904 292.7 289.912C292.719 291.181 292.224 292.236 291.216 293.076C290.227 293.916 288.873 294.336 287.156 294.336ZM284.72 301.336V299.544H287.576C288.715 299.544 289.284 299.152 289.284 298.368C289.284 297.64 288.715 297.276 287.576 297.276H286.036V293.832H287.94V295.596C288.948 295.577 289.797 295.801 290.488 296.268C291.197 296.735 291.552 297.453 291.552 298.424C291.552 299.376 291.207 300.095 290.516 300.58C289.844 301.084 289.023 301.336 288.052 301.336H284.72ZM305.879 289.744C305.151 289.744 304.479 289.66 303.863 289.492L302.659 290.668C302.864 290.799 303.116 290.911 303.415 291.004C303.713 291.097 304.133 291.181 304.675 291.256C305.216 291.331 305.953 291.405 306.887 291.48C308.735 291.648 310.069 292.096 310.891 292.824C311.712 293.533 312.123 294.485 312.123 295.68C312.123 296.501 311.899 297.276 311.451 298.004C311.021 298.751 310.34 299.348 309.407 299.796C308.492 300.263 307.316 300.496 305.879 300.496C303.937 300.496 302.36 300.123 301.147 299.376C299.952 298.648 299.355 297.537 299.355 296.044C299.355 295.465 299.504 294.887 299.803 294.308C300.12 293.748 300.615 293.216 301.287 292.712C300.895 292.544 300.549 292.367 300.251 292.18C299.971 291.975 299.719 291.769 299.495 291.564V290.892L301.903 288.428C300.82 287.495 300.279 286.272 300.279 284.76C300.279 283.845 300.493 283.015 300.923 282.268C301.371 281.503 302.015 280.896 302.855 280.448C303.695 280 304.703 279.776 305.879 279.776C306.663 279.776 307.391 279.888 308.063 280.112H313.243V282.072L310.779 282.212C311.227 282.977 311.451 283.827 311.451 284.76C311.451 285.693 311.227 286.533 310.779 287.28C310.349 288.027 309.715 288.624 308.875 289.072C308.053 289.52 307.055 289.744 305.879 289.744ZM305.879 287.42C306.737 287.42 307.428 287.196 307.951 286.748C308.492 286.281 308.763 285.628 308.763 284.788C308.763 283.929 308.492 283.276 307.951 282.828C307.428 282.38 306.737 282.156 305.879 282.156C305.001 282.156 304.292 282.38 303.751 282.828C303.228 283.276 302.967 283.929 302.967 284.788C302.967 285.628 303.228 286.281 303.751 286.748C304.292 287.196 305.001 287.42 305.879 287.42ZM302.155 295.764C302.155 296.567 302.509 297.164 303.219 297.556C303.928 297.967 304.815 298.172 305.879 298.172C306.905 298.172 307.736 297.948 308.371 297.5C309.005 297.071 309.323 296.492 309.323 295.764C309.323 295.223 309.108 294.756 308.679 294.364C308.249 293.991 307.437 293.757 306.243 293.664C305.347 293.608 304.553 293.524 303.863 293.412C303.209 293.767 302.761 294.149 302.519 294.56C302.276 294.971 302.155 295.372 302.155 295.764ZM320.439 294.336C319.077 294.336 317.863 294.037 316.799 293.44C315.754 292.824 314.933 291.975 314.335 290.892C313.738 289.809 313.439 288.549 313.439 287.112C313.439 285.656 313.729 284.377 314.307 283.276C314.905 282.175 315.726 281.316 316.771 280.7C317.835 280.084 319.067 279.776 320.467 279.776C321.83 279.776 323.015 280.084 324.023 280.7C325.031 281.297 325.815 282.1 326.375 283.108C326.935 284.116 327.215 285.227 327.215 286.44C327.215 286.627 327.206 286.832 327.187 287.056C327.187 287.261 327.178 287.495 327.159 287.756H316.351C316.445 289.1 316.883 290.127 317.667 290.836C318.47 291.527 319.394 291.872 320.439 291.872C321.279 291.872 321.979 291.685 322.539 291.312C323.118 290.92 323.547 290.397 323.827 289.744H326.795C326.422 291.051 325.675 292.143 324.555 293.02C323.454 293.897 322.082 294.336 320.439 294.336ZM320.439 282.212C319.45 282.212 318.573 282.511 317.807 283.108C317.042 283.687 316.575 284.564 316.407 285.74H324.247C324.191 284.657 323.809 283.799 323.099 283.164C322.39 282.529 321.503 282.212 320.439 282.212ZM328.895 294V273.84H331.863V294H328.895ZM340.549 294.336C339.205 294.336 338.02 294.019 336.993 293.384C335.967 292.749 335.164 291.881 334.585 290.78C334.007 289.679 333.717 288.428 333.717 287.028C333.717 285.628 334.007 284.387 334.585 283.304C335.164 282.203 335.967 281.344 336.993 280.728C338.039 280.093 339.233 279.776 340.577 279.776C341.679 279.776 342.64 279.991 343.461 280.42C344.301 280.849 344.955 281.456 345.421 282.24V273.84H348.389V294H345.729L345.421 291.844C344.973 292.497 344.357 293.076 343.573 293.58C342.789 294.084 341.781 294.336 340.549 294.336ZM341.081 291.76C342.351 291.76 343.387 291.321 344.189 290.444C345.011 289.567 345.421 288.437 345.421 287.056C345.421 285.656 345.011 284.527 344.189 283.668C343.387 282.791 342.351 282.352 341.081 282.352C339.812 282.352 338.767 282.791 337.945 283.668C337.124 284.527 336.713 285.656 336.713 287.056C336.713 287.971 336.9 288.783 337.273 289.492C337.647 290.201 338.16 290.761 338.813 291.172C339.485 291.564 340.241 291.76 341.081 291.76ZM352.411 277.48C351.851 277.48 351.385 277.312 351.011 276.976C350.657 276.621 350.479 276.183 350.479 275.66C350.479 275.137 350.657 274.708 351.011 274.372C351.385 274.017 351.851 273.84 352.411 273.84C352.971 273.84 353.429 274.017 353.783 274.372C354.157 274.708 354.343 275.137 354.343 275.66C354.343 276.183 354.157 276.621 353.783 276.976C353.429 277.312 352.971 277.48 352.411 277.48ZM350.927 294V280.112H353.895V294H350.927ZM356.413 294V280.112H359.045L359.269 282.548C359.699 281.689 360.324 281.017 361.145 280.532C361.985 280.028 362.947 279.776 364.029 279.776C365.709 279.776 367.025 280.299 367.977 281.344C368.948 282.389 369.433 283.948 369.433 286.02V294H366.493V286.328C366.493 283.64 365.392 282.296 363.189 282.296C362.088 282.296 361.173 282.688 360.445 283.472C359.736 284.256 359.381 285.376 359.381 286.832V294H356.413ZM372.145 288.204L371.809 274.4H375.001L374.665 288.204H372.145ZM373.489 294.168C372.91 294.168 372.434 293.991 372.061 293.636C371.706 293.263 371.529 292.824 371.529 292.32C371.529 291.797 371.706 291.359 372.061 291.004C372.434 290.631 372.91 290.444 373.489 290.444C374.03 290.444 374.478 290.631 374.833 291.004C375.206 291.359 375.393 291.797 375.393 292.32C375.393 292.824 375.206 293.263 374.833 293.636C374.478 293.991 374.03 294.168 373.489 294.168Z" fill="#0BCE91"/>
<path d="M235.516 181.484C250.161 196.128 250.161 219.872 235.516 234.516C220.872 249.161 197.128 249.161 182.484 234.516C167.839 219.872 167.839 196.128 182.484 181.484C197.128 166.839 220.872 166.839 235.516 181.484" stroke="#0BCE91" stroke-width="4" stroke-linecap="round" stroke-linejoin="round"/>
<path d="M209 228.833C215.946 228.833 221.5 223.279 221.5 216.333H196.5C196.5 223.279 202.054 228.833 209 228.833Z" stroke="#0BCE91" stroke-width="3" stroke-linecap="round" stroke-linejoin="round"/>
<path d="M194.416 195.5V199.667" stroke="#0BCE91" stroke-width="3" stroke-linecap="round" stroke-linejoin="round"/>
<path d="M223.584 195.5V199.667" stroke="#0BCE91" stroke-width="3" stroke-linecap="round" stroke-linejoin="round"/>
</svg>
