<svg width="20" height="20" viewBox="0 0 20 20" fill="none" xmlns="http://www.w3.org/2000/svg">
<path d="M17.3271 7.9364C17.9855 8.59476 17.9855 9.66216 17.3271 10.3205C16.6688 10.9789 15.6013 10.9789 14.943 10.3205C14.2846 9.66216 14.2846 8.59475 14.943 7.9364C15.6013 7.27804 16.6688 7.27804 17.3271 7.9364Z" stroke="#686195" stroke-linecap="round" stroke-linejoin="round"/>
<path d="M11.8357 4.92711C12.8494 5.94084 12.8494 7.58444 11.8357 8.59818C10.8219 9.61191 9.17834 9.61191 8.1646 8.59818C7.15086 7.58444 7.15086 5.94085 8.1646 4.92711C9.17833 3.91338 10.8219 3.91338 11.8357 4.92711" stroke="#686195" stroke-linecap="round" stroke-linejoin="round"/>
<path d="M5.05758 7.9364C5.71594 8.59476 5.71594 9.66216 5.05758 10.3205C4.39922 10.9789 3.33181 10.9789 2.67346 10.3205C2.0151 9.66216 2.0151 8.59475 2.67346 7.9364C3.33182 7.27804 4.39922 7.27804 5.05758 7.9364Z" stroke="#686195" stroke-linecap="round" stroke-linejoin="round"/>
<path d="M19.1668 15.8335V14.9201C19.1668 13.7693 18.2343 12.8368 17.0835 12.8368H16.416" stroke="#686195" stroke-linecap="round" stroke-linejoin="round"/>
<path d="M0.833984 15.8335V14.9201C0.833984 13.7693 1.76648 12.8368 2.91732 12.8368H3.58482" stroke="#686195" stroke-linecap="round" stroke-linejoin="round"/>
<path d="M14.4499 15.8335V14.4993C14.4499 12.8885 13.1441 11.5826 11.5333 11.5826H8.46745C6.85661 11.5826 5.55078 12.8885 5.55078 14.4993V15.8335" stroke="#686195" stroke-linecap="round" stroke-linejoin="round"/>
</svg>
