<?xml version="1.0" encoding="utf-8"?>
<!-- Generator: Adobe Illustrator 22.1.0, SVG Export Plug-In . SVG Version: 6.00 Build 0)  -->
<svg version="1.1" id="Layer_1" xmlns="http://www.w3.org/2000/svg" xmlns:xlink="http://www.w3.org/1999/xlink" x="0px" y="0px"
	 viewBox="0 0 700.5 565.5" style="enable-background:new 0 0 700.5 565.5;" xml:space="preserve">
<style type="text/css">
	.st0{fill:#201A4B;}
	.st1{fill:none;stroke:#FFFFFF;stroke-opacity:5.000000e-02;}
	.st2{fill:#524896;}
	.st3{fill:#FFFFFF;}
	.st4{fill:none;stroke:#41397D;}
	.st5{fill:none;stroke:#0BCE91;stroke-width:5;stroke-miterlimit:10;}
	.st6{fill:#231C50;}
	.st7{fill:#FFFFFF;filter:url(#Adobe_OpacityMaskFilter);}
	.st8{mask:url(#path-23-inside-1_1_);fill:none;stroke:#0BCE91;stroke-width:10;}
	.st9{fill:#FFFFFF;filter:url(#Adobe_OpacityMaskFilter_1_);}
	.st10{mask:url(#path-24-inside-2_1_);fill:none;stroke:#41397D;stroke-width:10;}
	.st11{fill:#332B68;}
	.st12{opacity:0.5;}
	.st13{fill:none;}
	.st14{fill:#0BCE91;}
	.st15{fill:#41397D;}
	.st16{fill:#241C50;}
	.st17{opacity:0.2;fill:none;stroke:#0BCE91;enable-background:new    ;}
	.st18{fill:none;stroke:#0BCE91;}
	.st19{fill:none;stroke:#524896;}
	.st20{fill:none;stroke:#5D5877;}
	.st21{opacity:0.7;fill:#FFFFFF;enable-background:new    ;}
	.st22{fill:#EBFBF6;}
	.st23{fill:#9DEBD3;}
	.st24{opacity:0.5;fill:#0BCE91;enable-background:new    ;}
</style>
<path class="st0" d="M-0.5,565.5v-238h238v238H-0.5z"/>
<path class="st1" d="M0,565V328h237v237H0z"/>
<rect x="12.5" y="531.5" class="st2" width="16" height="21"/>
<rect x="37.5" y="539.5" class="st2" width="15" height="13"/>
<rect x="61.5" y="531.5" class="st2" width="16" height="21"/>
<rect x="86.5" y="539.5" class="st2" width="15" height="13"/>
<rect x="110.5" y="531.5" class="st2" width="16" height="21"/>
<rect x="135.5" y="539.5" class="st2" width="15" height="13"/>
<rect x="159.5" y="531.5" class="st2" width="16" height="21"/>
<rect x="208.5" y="531.5" class="st2" width="16" height="21"/>
<rect x="184.5" y="539.5" class="st2" width="15" height="13"/>
<path class="st3" d="M82.5,380.5c0-8.3,6.7-15,15-15h57v32h-72V380.5z"/>
<path class="st2" d="M101.1,387.7v-1.1c-0.9-0.1-1.6-0.4-2.2-1c-0.6-0.5-0.8-1.3-0.8-2.1h1.6c0,0.4,0.1,0.8,0.4,1.2
	c0.3,0.3,0.6,0.5,1.1,0.7V382c-0.1,0-0.2,0-0.2-0.1c-0.1,0-0.2-0.1-0.2-0.1c-0.8-0.3-1.3-0.6-1.7-1c-0.4-0.4-0.6-0.9-0.6-1.6
	c0-0.8,0.2-1.4,0.7-1.9c0.5-0.5,1.2-0.8,2-0.9v-1.1h1v1.1c0.8,0.1,1.5,0.4,2,0.9c0.5,0.5,0.7,1.1,0.8,1.9h-1.6
	c0-0.3-0.1-0.6-0.3-0.9c-0.2-0.3-0.5-0.5-0.8-0.6v3c0.1,0,0.1,0.1,0.2,0.1c0.1,0,0.1,0,0.2,0.1c0.5,0.2,0.9,0.4,1.3,0.6
	c0.4,0.2,0.7,0.5,0.9,0.9c0.2,0.4,0.4,0.8,0.4,1.4c0,0.5-0.1,0.9-0.3,1.3c-0.2,0.4-0.6,0.7-1,1s-1,0.4-1.7,0.5v1.1H101.1z
	 M99.9,379.1c0,0.4,0.1,0.7,0.3,0.9c0.2,0.2,0.5,0.4,0.9,0.5v-2.7c-0.4,0.1-0.6,0.2-0.9,0.4C100,378.5,99.9,378.8,99.9,379.1z
	 M103.5,384c0-0.5-0.1-0.8-0.4-1c-0.3-0.2-0.6-0.4-1-0.6v3.1c0.5-0.1,0.8-0.2,1.1-0.5S103.5,384.3,103.5,384z M110.1,386.7
	c-0.7,0-1.3-0.1-1.8-0.4c-0.5-0.3-0.9-0.6-1.2-1c-0.3-0.4-0.5-0.9-0.5-1.5h1.5c0.1,0.5,0.3,0.9,0.7,1.2c0.4,0.3,0.8,0.4,1.4,0.4
	c0.4,0,0.8-0.1,1.1-0.3c0.3-0.2,0.5-0.5,0.7-0.8s0.3-0.7,0.3-1.1c0-0.7-0.2-1.2-0.6-1.6c-0.4-0.4-0.8-0.6-1.4-0.6
	c-0.5,0-0.9,0.1-1.2,0.4c-0.3,0.2-0.6,0.5-0.8,0.9h-1.4l0.8-5.5h5.3v1.3h-4.2l-0.5,2.6c0.2-0.2,0.5-0.4,0.9-0.6
	c0.4-0.2,0.8-0.3,1.3-0.3c0.7,0,1.2,0.2,1.7,0.5c0.5,0.3,0.8,0.7,1.1,1.2c0.3,0.5,0.4,1.1,0.4,1.7c0,0.7-0.1,1.2-0.4,1.8
	c-0.3,0.5-0.7,1-1.2,1.3C111.5,386.5,110.9,386.7,110.1,386.7z M115.9,386.6c-0.3,0-0.5-0.1-0.7-0.3c-0.2-0.2-0.3-0.4-0.3-0.7
	c0-0.3,0.1-0.5,0.3-0.7c0.2-0.2,0.4-0.3,0.7-0.3s0.5,0.1,0.7,0.3c0.2,0.2,0.3,0.4,0.3,0.7c0,0.3-0.1,0.5-0.3,0.7
	C116.4,386.5,116.2,386.6,115.9,386.6z M121.6,386.7c-0.7,0-1.3-0.1-1.8-0.4c-0.5-0.3-0.9-0.6-1.2-1.1c-0.3-0.4-0.5-1-0.6-1.5
	c-0.1-0.6-0.2-1.1-0.2-1.7c0-1.1,0.1-2,0.4-2.8c0.3-0.8,0.7-1.4,1.3-1.9c0.6-0.5,1.3-0.7,2.1-0.7c0.6,0,1.2,0.1,1.7,0.4
	c0.5,0.3,0.8,0.6,1.1,1c0.3,0.4,0.4,0.9,0.5,1.4h-1.4c-0.1-0.5-0.3-0.9-0.6-1.1c-0.3-0.3-0.7-0.4-1.2-0.4c-0.7,0-1.2,0.3-1.7,1
	c-0.4,0.6-0.7,1.6-0.7,2.9c0.2-0.4,0.6-0.8,1-1c0.5-0.3,1-0.4,1.6-0.4c0.6,0,1.1,0.1,1.5,0.4c0.5,0.3,0.9,0.6,1.2,1.1
	c0.3,0.5,0.5,1,0.5,1.7c0,0.6-0.1,1.1-0.4,1.6c-0.3,0.5-0.7,0.9-1.2,1.2C122.9,386.5,122.3,386.7,121.6,386.7z M121.5,385.4
	c0.4,0,0.7-0.1,1-0.3c0.3-0.2,0.6-0.4,0.7-0.7c0.2-0.3,0.3-0.6,0.3-1c0-0.6-0.2-1.1-0.6-1.4c-0.4-0.4-0.9-0.5-1.5-0.5
	c-0.4,0-0.7,0.1-1.1,0.3c-0.3,0.2-0.6,0.4-0.7,0.7c-0.2,0.3-0.3,0.6-0.3,1c0,0.4,0.1,0.7,0.3,1c0.2,0.3,0.4,0.5,0.7,0.7
	C120.7,385.3,121.1,385.4,121.5,385.4z M130.7,386.7c-0.9,0-1.7-0.2-2.3-0.6c-0.6-0.4-1.1-1-1.5-1.8c-0.3-0.8-0.5-1.7-0.5-2.7
	s0.2-1.9,0.5-2.6c0.3-0.8,0.8-1.4,1.5-1.8c0.6-0.4,1.4-0.6,2.3-0.6c0.9,0,1.6,0.2,2.3,0.6c0.6,0.4,1.1,1,1.5,1.8
	c0.3,0.8,0.5,1.6,0.5,2.6s-0.2,1.9-0.5,2.7c-0.3,0.8-0.8,1.3-1.5,1.8C132.4,386.5,131.6,386.7,130.7,386.7z M130.7,385.3
	c0.5,0,1-0.1,1.4-0.4c0.4-0.3,0.7-0.7,1-1.3c0.2-0.6,0.4-1.2,0.4-2s-0.1-1.4-0.4-2c-0.2-0.6-0.6-1-1-1.3c-0.4-0.3-0.9-0.4-1.4-0.4
	c-0.5,0-1,0.1-1.4,0.4c-0.4,0.3-0.7,0.7-1,1.3c-0.2,0.6-0.4,1.2-0.4,2s0.1,1.4,0.4,2c0.2,0.6,0.6,1,1,1.3
	C129.7,385.2,130.2,385.3,130.7,385.3z M139.8,386.7c-0.6,0-1.2-0.1-1.7-0.3c-0.5-0.2-0.9-0.6-1.2-1c-0.3-0.5-0.5-1.1-0.5-1.8h1.5
	c0,0.5,0.2,1,0.5,1.3c0.3,0.4,0.8,0.5,1.5,0.5c0.6,0,1.1-0.2,1.4-0.5c0.3-0.3,0.5-0.8,0.5-1.2c0-0.6-0.2-1-0.6-1.3
	c-0.4-0.3-0.9-0.4-1.6-0.4h-0.7v-1.2h0.7c0.6,0,1-0.1,1.3-0.4c0.3-0.3,0.5-0.6,0.5-1.1c0-0.4-0.1-0.7-0.4-1
	c-0.3-0.3-0.6-0.4-1.1-0.4c-0.5,0-0.9,0.1-1.2,0.4c-0.3,0.3-0.4,0.7-0.5,1.1h-1.5c0-0.6,0.2-1.1,0.4-1.5c0.3-0.4,0.6-0.7,1.1-1
	c0.5-0.2,1-0.3,1.6-0.3c0.7,0,1.2,0.1,1.6,0.3c0.4,0.2,0.8,0.5,1,0.9c0.2,0.4,0.4,0.8,0.4,1.3c0,0.5-0.1,1-0.4,1.4
	c-0.3,0.4-0.7,0.7-1.2,0.8c0.6,0.1,1,0.4,1.4,0.8c0.4,0.4,0.5,1,0.5,1.6c0,0.5-0.1,1-0.4,1.5c-0.3,0.4-0.6,0.8-1.1,1.1
	C141.1,386.5,140.5,386.7,139.8,386.7z"/>
<line class="st4" x1="41.5" y1="420" x2="199.5" y2="420"/>
<line class="st4" x1="41.5" y1="445" x2="199.5" y2="445"/>
<line class="st4" x1="41.5" y1="466" x2="199.5" y2="466"/>
<line class="st4" x1="41.5" y1="492" x2="199.5" y2="492"/>
<path class="st5" d="M22.5,507.4c10.8-6.6,3.1-25.9,15.3-35c11-8.2,23,2.9,40.7-1.8c17.9-4.8,14.9-23.9,32.4-29.9
	c14.9-5.2,21.2,5.5,32.8-0.5c15.7-8,11-30.7,24.9-39.6c6.9-4.4,19.8-6.3,45.9,9.2"/>
<circle class="st6" cx="164.5" cy="408.5" r="12"/>
<circle class="st3" cx="164.5" cy="408.5" r="7"/>
<path class="st0" d="M594.5,468.5v-211h106v211H594.5z"/>
<path class="st1" d="M595,468V258h105v210H595z"/>
<defs>
	<filter id="Adobe_OpacityMaskFilter" filterUnits="userSpaceOnUse" x="610.5" y="272.5" width="74" height="66.7">
		<feColorMatrix  type="matrix" values="1 0 0 0 0  0 1 0 0 0  0 0 1 0 0  0 0 0 1 0"/>
	</filter>
</defs>
<mask maskUnits="userSpaceOnUse" x="610.5" y="272.5" width="74" height="66.7" id="path-23-inside-1_1_">
	<path class="st7" d="M670.1,332.1c3.7-3.7,6.5-8.3,8-13.3s1.8-10.4,0.8-15.5c-1-5.2-3.3-10-6.6-14.1c-3.3-4.1-7.6-7.2-12.5-9.3
		s-10.1-2.8-15.4-2.3c-5.2,0.5-10.3,2.3-14.6,5.2c-4.4,2.9-8,6.9-10.4,11.5c-2.5,4.6-3.8,9.8-3.8,15.1h16c0-2.6,0.6-5.2,1.9-7.5
		c1.2-2.3,3-4.3,5.2-5.8c2.2-1.5,4.7-2.4,7.3-2.6c2.6-0.3,5.3,0.1,7.7,1.1c2.4,1,4.6,2.6,6.2,4.6s2.8,4.4,3.3,7
		c0.5,2.6,0.4,5.2-0.4,7.8c-0.8,2.5-2.1,4.8-4,6.7L670.1,332.1z"/>
</mask>
<path class="st8" d="M670.1,332.1c3.7-3.7,6.5-8.3,8-13.3s1.8-10.4,0.8-15.5c-1-5.2-3.3-10-6.6-14.1c-3.3-4.1-7.6-7.2-12.5-9.3
	s-10.1-2.8-15.4-2.3c-5.2,0.5-10.3,2.3-14.6,5.2c-4.4,2.9-8,6.9-10.4,11.5c-2.5,4.6-3.8,9.8-3.8,15.1h16c0-2.6,0.6-5.2,1.9-7.5
	c1.2-2.3,3-4.3,5.2-5.8c2.2-1.5,4.7-2.4,7.3-2.6c2.6-0.3,5.3,0.1,7.7,1.1c2.4,1,4.6,2.6,6.2,4.6s2.8,4.4,3.3,7
	c0.5,2.6,0.4,5.2-0.4,7.8c-0.8,2.5-2.1,4.8-4,6.7L670.1,332.1z"/>
<defs>
	<filter id="Adobe_OpacityMaskFilter_1_" filterUnits="userSpaceOnUse" x="610.5" y="304.5" width="66.7" height="42">
		<feColorMatrix  type="matrix" values="1 0 0 0 0  0 1 0 0 0  0 0 1 0 0  0 0 0 1 0"/>
	</filter>
</defs>
<mask maskUnits="userSpaceOnUse" x="610.5" y="304.5" width="66.7" height="42" id="path-24-inside-2_1_">
	<path class="st9" d="M615.5,309.5c0,6.3,1.9,12.5,5.4,17.8c3.5,5.3,8.5,9.4,14.4,11.8c5.8,2.4,12.3,3.1,18.5,1.8
		c6.2-1.2,11.9-4.3,16.4-8.8l-11.3-11.3c-2.2,2.2-5.1,3.8-8.2,4.4c-3.1,0.6-6.3,0.3-9.2-0.9s-5.4-3.3-7.2-5.9
		c-1.8-2.6-2.7-5.7-2.7-8.9H615.5z"/>
</mask>
<path class="st10" d="M615.5,309.5c0,6.3,1.9,12.5,5.4,17.8c3.5,5.3,8.5,9.4,14.4,11.8c5.8,2.4,12.3,3.1,18.5,1.8
	c6.2-1.2,11.9-4.3,16.4-8.8l-11.3-11.3c-2.2,2.2-5.1,3.8-8.2,4.4c-3.1,0.6-6.3,0.3-9.2-0.9s-5.4-3.3-7.2-5.9
	c-1.8-2.6-2.7-5.7-2.7-8.9H615.5z"/>
<rect x="608.5" y="391.5" class="st11" width="78" height="4"/>
<rect x="608.5" y="399.5" class="st11" width="51" height="4"/>
<rect x="608.5" y="407.5" class="st11" width="33" height="4"/>
<path class="st3" d="M632.3,366.1c-0.6,0-1.1-0.1-1.6-0.4c-0.5-0.3-0.8-0.6-1.1-1.1c-0.3-0.5-0.4-1-0.4-1.7s0.1-1.2,0.4-1.7
	c0.3-0.5,0.6-0.8,1.1-1.1c0.5-0.3,1-0.4,1.6-0.4c0.6,0,1.1,0.1,1.5,0.4c0.5,0.3,0.8,0.6,1.1,1.1c0.3,0.5,0.4,1,0.4,1.7
	s-0.1,1.2-0.4,1.7c-0.3,0.5-0.6,0.9-1.1,1.1C633.4,366,632.9,366.1,632.3,366.1z M631.6,372.5l7.1-12.6h2.3l-7.1,12.6H631.6z
	 M632.3,364.5c0.3,0,0.6-0.1,0.9-0.4c0.3-0.3,0.4-0.7,0.4-1.2c0-0.5-0.1-0.9-0.4-1.2c-0.2-0.3-0.5-0.4-0.9-0.4
	c-0.4,0-0.7,0.1-0.9,0.4c-0.2,0.3-0.4,0.7-0.4,1.2c0,0.5,0.1,0.9,0.4,1.2C631.7,364.4,632,364.5,632.3,364.5z M640.4,372.7
	c-0.6,0-1.1-0.1-1.6-0.4c-0.5-0.3-0.8-0.6-1.1-1.1c-0.3-0.5-0.4-1-0.4-1.7s0.1-1.2,0.4-1.7c0.3-0.5,0.6-0.8,1.1-1.1
	c0.5-0.3,1-0.4,1.6-0.4c0.6,0,1.1,0.1,1.5,0.4c0.5,0.3,0.8,0.6,1.1,1.1c0.3,0.5,0.4,1,0.4,1.7s-0.1,1.2-0.4,1.7
	c-0.3,0.5-0.6,0.9-1.1,1.1C641.5,372.6,641,372.7,640.4,372.7z M640.4,371.1c0.4,0,0.7-0.1,0.9-0.4c0.3-0.3,0.4-0.7,0.4-1.2
	c0-0.5-0.1-0.9-0.4-1.2c-0.2-0.3-0.5-0.4-0.9-0.4s-0.7,0.1-0.9,0.4c-0.2,0.3-0.4,0.7-0.4,1.2c0,0.5,0.1,0.9,0.4,1.2
	C639.7,371,640,371.1,640.4,371.1z M645.1,372.5v-1.7c0.8-0.6,1.5-1.3,2.2-1.9c0.7-0.6,1.4-1.2,1.9-1.9c0.6-0.6,1-1.2,1.4-1.8
	c0.3-0.6,0.5-1.2,0.5-1.7c0-0.5-0.1-1-0.4-1.4c-0.3-0.4-0.7-0.6-1.4-0.6c-0.7,0-1.2,0.2-1.5,0.6s-0.5,1-0.5,1.6h-2.2
	c0-0.9,0.2-1.7,0.6-2.3c0.4-0.6,0.9-1.1,1.5-1.4c0.6-0.3,1.3-0.5,2.1-0.5c1.3,0,2.3,0.4,3,1.1c0.7,0.7,1.1,1.6,1.1,2.7
	c0,0.7-0.2,1.4-0.5,2c-0.3,0.7-0.7,1.3-1.2,1.9s-1.1,1.2-1.7,1.7c-0.6,0.5-1.2,1-1.7,1.5h5.5v1.9H645.1z M661.3,372.5v-2.3h-6.2
	v-1.8l5.9-8.4h2.6v8.3h1.7v2h-1.7v2.3H661.3z M657.6,368.2h3.9v-5.7L657.6,368.2z"/>
<g class="st12">
	<rect x="608.5" y="432.5" class="st13" width="46" height="9"/>
</g>
<path class="st0" d="M53.5,180.5v-181h181v181H53.5z"/>
<path class="st1" d="M54,180V0h180v180H54z"/>
<path class="st14" d="M81.8,161.5l3.2-7.1h-4.1v-1.3h5.7v1.1l-3.2,7.3H81.8z M90.6,161.6c-0.6,0-1.1-0.1-1.6-0.3
	c-0.5-0.2-0.8-0.5-1.1-0.9c-0.3-0.4-0.4-0.8-0.4-1.3c0-0.5,0.1-1,0.4-1.3c0.3-0.4,0.6-0.7,1.1-0.8c-0.4-0.2-0.7-0.4-0.9-0.7
	c-0.2-0.3-0.3-0.7-0.3-1.1c0-0.4,0.1-0.8,0.3-1.1c0.2-0.3,0.5-0.6,1-0.8c0.4-0.2,1-0.3,1.6-0.3c0.6,0,1.1,0.1,1.6,0.3
	c0.4,0.2,0.7,0.5,1,0.8c0.2,0.3,0.3,0.7,0.3,1.1c0,0.4-0.1,0.7-0.3,1.1c-0.2,0.3-0.5,0.6-0.9,0.7c0.4,0.2,0.8,0.4,1.1,0.8
	c0.3,0.4,0.4,0.8,0.4,1.3c0,0.5-0.1,0.9-0.4,1.3c-0.3,0.4-0.6,0.7-1.1,0.9C91.7,161.5,91.2,161.6,90.6,161.6z M90.6,156.5
	c0.4,0,0.7-0.1,1-0.3c0.2-0.2,0.4-0.5,0.4-0.8c0-0.4-0.1-0.7-0.4-0.9c-0.2-0.2-0.6-0.3-1-0.3c-0.4,0-0.8,0.1-1,0.3
	c-0.2,0.2-0.3,0.5-0.3,0.9c0,0.3,0.1,0.6,0.3,0.8C89.8,156.4,90.2,156.5,90.6,156.5z M90.6,160.4c0.5,0,0.9-0.1,1.2-0.4
	c0.3-0.3,0.4-0.6,0.4-1c0-0.4-0.1-0.8-0.4-1c-0.3-0.2-0.7-0.4-1.1-0.4c-0.5,0-0.9,0.1-1.2,0.4c-0.3,0.2-0.4,0.6-0.4,1
	c0,0.4,0.1,0.7,0.4,1C89.7,160.2,90.1,160.4,90.6,160.4z M96.9,157.2c-0.4,0-0.7-0.1-1-0.3c-0.3-0.2-0.6-0.4-0.7-0.7
	c-0.2-0.3-0.3-0.7-0.3-1.1s0.1-0.8,0.3-1.1c0.2-0.3,0.4-0.6,0.7-0.7c0.3-0.2,0.7-0.3,1.1-0.3c0.4,0,0.7,0.1,1,0.3
	c0.3,0.2,0.6,0.4,0.7,0.7c0.2,0.3,0.3,0.7,0.3,1.1s-0.1,0.8-0.3,1.1c-0.2,0.3-0.4,0.6-0.7,0.7C97.6,157.1,97.3,157.2,96.9,157.2z
	 M96.4,161.5l4.7-8.4h1.5l-4.7,8.4H96.4z M96.9,156.2c0.2,0,0.4-0.1,0.6-0.3c0.2-0.2,0.3-0.5,0.3-0.8c0-0.4-0.1-0.6-0.3-0.8
	c-0.2-0.2-0.4-0.3-0.6-0.3c-0.2,0-0.4,0.1-0.6,0.3c-0.2,0.2-0.2,0.5-0.2,0.8c0,0.4,0.1,0.6,0.2,0.8
	C96.5,156.1,96.7,156.2,96.9,156.2z M102.3,161.6c-0.4,0-0.7-0.1-1-0.3c-0.3-0.2-0.6-0.4-0.7-0.7c-0.2-0.3-0.3-0.7-0.3-1.1
	s0.1-0.8,0.3-1.1c0.2-0.3,0.4-0.6,0.7-0.7c0.3-0.2,0.7-0.3,1.1-0.3c0.4,0,0.7,0.1,1,0.3c0.3,0.2,0.6,0.4,0.7,0.7
	c0.2,0.3,0.3,0.7,0.3,1.1s-0.1,0.8-0.3,1.1c-0.2,0.3-0.4,0.6-0.7,0.7C103,161.6,102.7,161.6,102.3,161.6z M102.3,160.6
	c0.2,0,0.4-0.1,0.6-0.3c0.2-0.2,0.3-0.5,0.3-0.8c0-0.4-0.1-0.6-0.3-0.8c-0.2-0.2-0.4-0.3-0.6-0.3c-0.2,0-0.4,0.1-0.6,0.3
	c-0.2,0.2-0.2,0.5-0.2,0.8c0,0.4,0.1,0.6,0.2,0.8C101.8,160.5,102,160.6,102.3,160.6z"/>
<path class="st2" d="M108.5,161.5v-8.4h3.4c0.9,0,1.5,0.2,2,0.6c0.5,0.4,0.7,0.9,0.7,1.5c0,0.5-0.1,1-0.4,1.3
	c-0.3,0.3-0.6,0.5-1,0.6c0.5,0.1,0.9,0.3,1.2,0.7c0.3,0.4,0.5,0.8,0.5,1.3c0,0.7-0.2,1.2-0.7,1.6c-0.5,0.4-1.2,0.6-2,0.6H108.5z
	 M110,156.6h1.6c0.4,0,0.8-0.1,1-0.3c0.2-0.2,0.3-0.5,0.3-0.9c0-0.4-0.1-0.6-0.3-0.8c-0.2-0.2-0.6-0.3-1-0.3H110V156.6z M110,160.3
	h1.7c0.5,0,0.8-0.1,1.1-0.3c0.3-0.2,0.4-0.5,0.4-0.9c0-0.4-0.1-0.7-0.4-0.9c-0.3-0.2-0.6-0.3-1.1-0.3H110V160.3z M117.9,161.5v-7.2
	h-2.4v-1.2h6.4v1.2h-2.5v7.2H117.9z M126.5,161.6c-0.8,0-1.6-0.2-2.2-0.5c-0.6-0.4-1.1-0.9-1.4-1.5c-0.3-0.7-0.5-1.4-0.5-2.3
	s0.2-1.6,0.5-2.3c0.3-0.7,0.8-1.2,1.4-1.5c0.6-0.4,1.3-0.6,2.2-0.6c1,0,1.8,0.3,2.5,0.8c0.6,0.5,1.1,1.2,1.2,2.1h-1.7
	c-0.1-0.5-0.3-0.8-0.7-1.1c-0.3-0.3-0.8-0.4-1.3-0.4c-0.8,0-1.4,0.3-1.8,0.8s-0.7,1.3-0.7,2.2s0.2,1.6,0.7,2.2
	c0.4,0.5,1,0.8,1.8,0.8c0.6,0,1-0.1,1.3-0.4c0.3-0.2,0.6-0.6,0.7-1h1.7c-0.2,0.9-0.6,1.5-1.2,2C128.4,161.4,127.6,161.6,126.5,161.6
	z"/>
<path class="st2" d="M160.1,161.6c-0.6,0-1.1-0.1-1.5-0.3c-0.4-0.2-0.8-0.5-1.1-0.9c-0.3-0.4-0.4-0.9-0.4-1.5h1.5
	c0,0.4,0.1,0.8,0.4,1c0.3,0.3,0.6,0.4,1.1,0.4c0.4,0,0.8-0.1,1-0.4c0.2-0.2,0.4-0.6,0.4-0.9c0-0.4-0.2-0.8-0.5-1
	c-0.3-0.2-0.7-0.3-1.2-0.3h-0.6v-1.3h0.6c0.4,0,0.7-0.1,1-0.3c0.3-0.2,0.4-0.5,0.4-0.9c0-0.3-0.1-0.6-0.3-0.7
	c-0.2-0.2-0.5-0.3-0.8-0.3c-0.4,0-0.7,0.1-0.9,0.3c-0.2,0.2-0.3,0.5-0.4,0.9h-1.5c0-0.8,0.3-1.4,0.8-1.8c0.5-0.4,1.2-0.7,2-0.7
	c0.6,0,1.1,0.1,1.5,0.3c0.4,0.2,0.7,0.5,0.9,0.8c0.2,0.3,0.3,0.7,0.3,1.1c0,0.5-0.1,0.9-0.4,1.2c-0.3,0.3-0.6,0.5-1,0.6
	c0.5,0.1,0.9,0.3,1.2,0.7c0.3,0.4,0.4,0.8,0.4,1.4c0,0.5-0.1,0.9-0.3,1.3c-0.2,0.4-0.6,0.7-1,0.9
	C161.2,161.5,160.7,161.6,160.1,161.6z M164.3,161.5v-1.1c0.5-0.4,1-0.8,1.5-1.3c0.5-0.4,0.9-0.8,1.3-1.2c0.4-0.4,0.7-0.8,0.9-1.2
	c0.2-0.4,0.3-0.8,0.3-1.1c0-0.3-0.1-0.6-0.3-0.9c-0.2-0.3-0.5-0.4-0.9-0.4c-0.4,0-0.8,0.1-1,0.4c-0.2,0.3-0.3,0.6-0.3,1h-1.5
	c0-0.6,0.2-1.1,0.4-1.5c0.3-0.4,0.6-0.7,1-0.9c0.4-0.2,0.9-0.3,1.4-0.3c0.9,0,1.5,0.2,2,0.7c0.5,0.5,0.7,1.1,0.7,1.8
	c0,0.5-0.1,0.9-0.3,1.4c-0.2,0.4-0.5,0.9-0.8,1.3c-0.3,0.4-0.7,0.8-1.1,1.2c-0.4,0.4-0.8,0.7-1.2,1h3.6v1.3H164.3z M173,157.2
	c-0.4,0-0.7-0.1-1-0.3c-0.3-0.2-0.6-0.4-0.7-0.7c-0.2-0.3-0.3-0.7-0.3-1.1s0.1-0.8,0.3-1.1c0.2-0.3,0.4-0.6,0.7-0.7
	c0.3-0.2,0.7-0.3,1.1-0.3c0.4,0,0.7,0.1,1,0.3c0.3,0.2,0.6,0.4,0.7,0.7c0.2,0.3,0.3,0.7,0.3,1.1s-0.1,0.8-0.3,1.1
	c-0.2,0.3-0.4,0.6-0.7,0.7C173.8,157.1,173.4,157.2,173,157.2z M172.6,161.5l4.7-8.4h1.5l-4.7,8.4H172.6z M173,156.2
	c0.2,0,0.4-0.1,0.6-0.3c0.2-0.2,0.3-0.5,0.3-0.8c0-0.4-0.1-0.6-0.3-0.8c-0.2-0.2-0.4-0.3-0.6-0.3c-0.2,0-0.4,0.1-0.6,0.3
	c-0.2,0.2-0.2,0.5-0.2,0.8c0,0.4,0.1,0.6,0.2,0.8C172.6,156.1,172.8,156.2,173,156.2z M178.4,161.6c-0.4,0-0.7-0.1-1-0.3
	c-0.3-0.2-0.6-0.4-0.7-0.7c-0.2-0.3-0.3-0.7-0.3-1.1s0.1-0.8,0.3-1.1c0.2-0.3,0.4-0.6,0.7-0.7c0.3-0.2,0.7-0.3,1.1-0.3
	c0.4,0,0.7,0.1,1,0.3c0.3,0.2,0.6,0.4,0.7,0.7c0.2,0.3,0.3,0.7,0.3,1.1s-0.1,0.8-0.3,1.1c-0.2,0.3-0.4,0.6-0.7,0.7
	C179.2,161.6,178.8,161.6,178.4,161.6z M178.4,160.6c0.2,0,0.4-0.1,0.6-0.3c0.2-0.2,0.3-0.5,0.3-0.8c0-0.4-0.1-0.6-0.3-0.8
	c-0.2-0.2-0.4-0.3-0.6-0.3c-0.2,0-0.4,0.1-0.6,0.3c-0.2,0.2-0.2,0.5-0.2,0.8c0,0.4,0.1,0.6,0.2,0.8
	C178,160.5,178.2,160.6,178.4,160.6z M184.6,161.5v-8.4h5.5v1.2h-3.9v2.3h3.6v1.2h-3.6v2.4h3.9v1.2H184.6z M193.5,161.5v-7.2h-2.4
	v-1.2h6.4v1.2h-2.5v7.2H193.5z M198.7,161.5v-8.4h1.5v3.5h3.8v-3.5h1.5v8.4H204v-3.7h-3.8v3.7H198.7z"/>
<path class="st15" d="M141.5,67.2c-8.3,0-15,6.6-15,14.8c0,8.2,6.7,14.8,15,14.8s15-6.6,15-14.8C156.5,73.8,149.8,67.2,141.5,67.2z
	 M101.5,82c0-21.8,17.9-39.5,40-39.5s40,17.7,40,39.5c0,21.8-17.9,39.5-40,39.5S101.5,103.8,101.5,82z"/>
<path class="st14" d="M159.4,81.9c0-9.9-8-17.9-17.9-17.9V29.5c29,0,52.4,23.5,52.4,52.4c0,6.3-1.1,12.3-3.1,17.9l-32.5-11.8
	C159,86.2,159.4,84.1,159.4,81.9z"/>
<path class="st2" d="M141.6,59.7c-12.3,0-22.3,10-22.3,22.3c0,12.3,10,22.3,22.3,22.3V130c-26.5,0-48.1-21.5-48.1-48.1
	c0-26.5,21.5-48.1,48.1-48.1V59.7z"/>
<g>
	<path class="st16" d="M165,81.9c0,12.9-10.5,23.4-23.4,23.4c-12.9,0-23.4-10.5-23.4-23.4c0-12.9,10.5-23.4,23.4-23.4
		C154.5,58.5,165,69,165,81.9z"/>
</g>
<path class="st3" d="M129.7,87.5v-0.9c-0.8-0.1-1.4-0.4-1.9-0.8c-0.5-0.5-0.7-1.1-0.8-1.8h1.6c0,0.3,0.1,0.6,0.3,0.8
	c0.2,0.2,0.4,0.4,0.7,0.5v-2.5c-0.1,0-0.1,0-0.2-0.1c-0.1,0-0.1,0-0.2-0.1c-0.6-0.2-1.1-0.5-1.5-0.9c-0.3-0.4-0.5-0.8-0.5-1.4
	c0-0.7,0.2-1.2,0.7-1.7c0.5-0.4,1-0.7,1.8-0.7v-1h0.8v1c0.7,0.1,1.3,0.3,1.7,0.8c0.4,0.4,0.7,1,0.7,1.6h-1.6c0-0.2-0.1-0.4-0.2-0.6
	c-0.1-0.2-0.3-0.3-0.6-0.4v2.2c0.1,0,0.1,0,0.2,0.1c0.1,0,0.1,0,0.2,0.1c0.4,0.1,0.8,0.3,1.1,0.5c0.3,0.2,0.6,0.4,0.8,0.8
	c0.2,0.3,0.3,0.7,0.3,1.2c0,0.4-0.1,0.8-0.3,1.2c-0.2,0.4-0.5,0.7-0.9,0.9c-0.4,0.2-0.9,0.4-1.5,0.4v0.9H129.7z M128.8,80.2
	c0,0.3,0.1,0.5,0.2,0.6c0.2,0.2,0.4,0.3,0.6,0.4v-2c-0.2,0-0.5,0.2-0.6,0.3C128.9,79.8,128.8,80,128.8,80.2z M131.5,84.3
	c0-0.3-0.1-0.6-0.3-0.8c-0.2-0.2-0.4-0.3-0.7-0.5v2.3c0.3,0,0.6-0.2,0.8-0.3C131.4,84.8,131.5,84.6,131.5,84.3z M138.3,86.5v-1.6
	h-4.1v-1.2l3.9-5.6h1.7v5.5h1.1v1.3h-1.1v1.6H138.3z M135.8,83.6h2.6v-3.8L135.8,83.6z M142,86.5v-1.1c0.5-0.4,1-0.8,1.5-1.3
	c0.5-0.4,0.9-0.8,1.3-1.2c0.4-0.4,0.7-0.8,0.9-1.2c0.2-0.4,0.3-0.8,0.3-1.1c0-0.3-0.1-0.6-0.3-0.9c-0.2-0.3-0.5-0.4-0.9-0.4
	c-0.4,0-0.8,0.1-1,0.4c-0.2,0.3-0.3,0.6-0.3,1H142c0-0.6,0.2-1.1,0.4-1.5c0.3-0.4,0.6-0.7,1-0.9c0.4-0.2,0.9-0.3,1.4-0.3
	c0.9,0,1.5,0.2,2,0.7c0.5,0.5,0.7,1.1,0.7,1.8c0,0.5-0.1,0.9-0.3,1.4c-0.2,0.4-0.5,0.9-0.8,1.3c-0.3,0.4-0.7,0.8-1.1,1.2
	c-0.4,0.4-0.8,0.7-1.2,1h3.6v1.3H142z M152.4,86.6c-0.8,0-1.4-0.2-2-0.5c-0.6-0.4-1-0.9-1.3-1.5c-0.3-0.7-0.4-1.4-0.4-2.3
	c0-0.9,0.1-1.6,0.4-2.3c0.3-0.7,0.7-1.2,1.3-1.5c0.6-0.4,1.2-0.6,2-0.6s1.4,0.2,2,0.6c0.6,0.4,1,0.9,1.3,1.5
	c0.3,0.7,0.5,1.4,0.5,2.3c0,0.9-0.2,1.6-0.5,2.3c-0.3,0.6-0.7,1.2-1.3,1.5C153.8,86.5,153.2,86.6,152.4,86.6z M152.4,85.3
	c0.6,0,1.1-0.3,1.5-0.8c0.4-0.5,0.6-1.3,0.6-2.2c0-0.9-0.2-1.6-0.6-2.2c-0.4-0.5-0.9-0.8-1.5-0.8c-0.6,0-1.2,0.3-1.6,0.8
	c-0.4,0.5-0.6,1.3-0.6,2.2c0,0.9,0.2,1.6,0.6,2.2C151.2,85,151.8,85.3,152.4,85.3z"/>
<path class="st0" d="M100.5,307.5v-107h134v107H100.5z"/>
<path class="st1" d="M101,307V201h133v106H101z"/>
<path class="st14" d="M170.3,267.5V265c-2.3-0.2-4.1-1-5.6-2.2c-1.4-1.3-2.2-2.9-2.2-5h4.8c0,0.9,0.3,1.6,0.8,2.3
	c0.5,0.7,1.3,1.1,2.2,1.4v-7c-0.2-0.1-0.4-0.1-0.7-0.2c-0.2-0.1-0.4-0.1-0.7-0.2c-1.9-0.6-3.4-1.4-4.4-2.4c-1-1-1.5-2.3-1.5-3.9
	c0-1.9,0.6-3.4,2-4.6c1.3-1.2,3.1-1.8,5.2-2v-2.7h2.4v2.7c2.1,0.2,3.8,0.9,5.1,2.1c1.3,1.2,2,2.7,2.1,4.5H175c0-0.6-0.2-1.2-0.7-1.7
	c-0.4-0.5-1-0.9-1.7-1.2v6.1c0.2,0.1,0.4,0.1,0.6,0.2c0.2,0,0.4,0.1,0.6,0.2c1.2,0.4,2.3,0.9,3.4,1.4c1,0.5,1.8,1.2,2.4,2.1
	c0.6,0.9,0.9,2,0.9,3.3c0,1.1-0.3,2.2-0.9,3.2c-0.6,1-1.5,1.8-2.6,2.5c-1.2,0.6-2.6,1-4.3,1.1v2.5H170.3z M167.8,247.4
	c0,0.7,0.2,1.3,0.7,1.7c0.4,0.4,1,0.8,1.8,1.1v-5.5c-0.7,0.1-1.3,0.4-1.8,0.9C168.1,246.1,167.8,246.7,167.8,247.4z M175.7,258.5
	c0-0.9-0.3-1.6-0.8-2.1s-1.3-0.9-2.2-1.3v6.3c0.9-0.1,1.7-0.4,2.2-1C175.4,260,175.7,259.3,175.7,258.5z"/>
<circle class="st17" cx="171.5" cy="253.5" r="35.5"/>
<circle class="st18" cx="171.5" cy="253.5" r="26.5"/>
<path class="st0" d="M254.5,237.5v-238h446v238H254.5z"/>
<path class="st1" d="M255,237V0h445v237H255z"/>
<line class="st19" x1="611" y1="215.5" x2="611" y2="139"/>
<rect x="607.7" y="153.6" class="st2" width="7.5" height="43.6"/>
<line class="st20" x1="593.3" y1="170" x2="593.3" y2="99.3"/>
<rect x="590.1" y="118.7" class="st14" width="7.5" height="43.6"/>
<line class="st19" x1="593.3" y1="170" x2="593.3" y2="99.3"/>
<rect x="590.1" y="118.7" class="st14" width="7.5" height="43.6"/>
<line class="st20" x1="575.7" y1="143.9" x2="575.7" y2="93.5"/>
<rect x="572.5" y="100.3" class="st2" width="7.5" height="35.8"/>
<line class="st19" x1="540.4" y1="100.3" x2="540.4" y2="50"/>
<rect x="537.2" y="56.8" class="st14" width="7.5" height="35.8"/>
<line class="st20" x1="522.8" y1="154.5" x2="522.8" y2="83.9"/>
<rect x="519.5" y="103.2" class="st14" width="7.5" height="43.6"/>
<line class="st19" x1="522.8" y1="154.5" x2="522.8" y2="83.9"/>
<rect x="519.5" y="103.2" class="st2" width="7.5" height="43.6"/>
<line class="st19" x1="487.5" y1="149.7" x2="487.5" y2="99.3"/>
<rect x="484.2" y="106.1" class="st14" width="7.5" height="35.8"/>
<line class="st19" x1="558.1" y1="178.7" x2="558.1" y2="34.5"/>
<rect x="554.8" y="62.6" class="st14" width="7.5" height="108.4"/>
<line class="st19" x1="505.1" y1="203.9" x2="505.1" y2="89.7"/>
<rect x="501.9" y="117.7" class="st2" width="7.5" height="73.6"/>
<line class="st20" x1="646.3" y1="154.5" x2="646.3" y2="83.9"/>
<rect x="643" y="103.2" class="st14" width="7.5" height="43.6"/>
<line class="st19" x1="646.3" y1="154.5" x2="646.3" y2="83.9"/>
<rect x="643" y="103.2" class="st14" width="7.5" height="43.6"/>
<line class="st19" x1="628.6" y1="203.9" x2="628.6" y2="89.7"/>
<rect x="625.4" y="117.7" class="st2" width="7.5" height="73.6"/>
<line class="st20" x1="431.7" y1="180.7" x2="431.7" y2="104.2"/>
<rect x="428.4" y="118.7" class="st2" width="7.5" height="43.6"/>
<line class="st20" x1="414" y1="135.2" x2="414" y2="64.5"/>
<rect x="410.8" y="83.9" class="st14" width="7.5" height="43.6"/>
<line class="st19" x1="414" y1="135.2" x2="414" y2="64.5"/>
<rect x="410.8" y="83.9" class="st2" width="7.5" height="43.6"/>
<line class="st19" x1="396.4" y1="109" x2="396.4" y2="58.7"/>
<rect x="393.1" y="65.5" class="st14" width="7.5" height="35.8"/>
<line class="st19" x1="378.7" y1="200" x2="378.7" y2="55.8"/>
<rect x="375.5" y="83.9" class="st14" width="7.5" height="108.4"/>
<line class="st20" x1="467" y1="119.7" x2="467" y2="49"/>
<rect x="463.7" y="68.4" class="st14" width="7.5" height="43.6"/>
<line class="st19" x1="467" y1="119.7" x2="467" y2="49"/>
<rect x="463.7" y="68.4" class="st14" width="7.5" height="43.6"/>
<line class="st19" x1="449.3" y1="169" x2="449.3" y2="54.8"/>
<rect x="446.1" y="82.9" class="st14" width="7.5" height="73.6"/>
<path class="st2" d="M287.1,87.6v-1.1c-0.9-0.1-1.6-0.4-2.2-1c-0.6-0.5-0.8-1.3-0.8-2.1h1.6c0,0.4,0.1,0.8,0.4,1.2
	c0.3,0.3,0.6,0.5,1.1,0.7v-3.4c-0.1,0-0.2,0-0.2-0.1c-0.1,0-0.2-0.1-0.2-0.1c-0.8-0.3-1.3-0.6-1.7-1c-0.4-0.4-0.6-0.9-0.6-1.6
	c0-0.8,0.2-1.4,0.7-1.9c0.5-0.5,1.2-0.8,2-0.9v-1.1h1v1.1c0.8,0.1,1.5,0.4,2,0.9c0.5,0.5,0.7,1.1,0.8,1.9h-1.6
	c0-0.3-0.1-0.6-0.3-0.9c-0.2-0.3-0.5-0.5-0.8-0.6v3c0.1,0,0.1,0.1,0.2,0.1c0.1,0,0.1,0,0.2,0.1c0.5,0.2,0.9,0.3,1.3,0.6
	c0.4,0.2,0.7,0.5,0.9,0.9c0.2,0.4,0.3,0.8,0.3,1.4c0,0.5-0.1,0.9-0.3,1.3c-0.2,0.4-0.6,0.7-1,1c-0.4,0.3-1,0.4-1.7,0.5v1.1H287.1z
	 M285.9,79c0,0.4,0.1,0.7,0.3,0.9c0.2,0.2,0.5,0.4,0.9,0.5v-2.7c-0.4,0.1-0.6,0.2-0.9,0.4C286,78.3,285.9,78.6,285.9,79z
	 M289.5,83.8c0-0.5-0.1-0.8-0.4-1c-0.3-0.2-0.6-0.4-1-0.6v3.1c0.5-0.1,0.8-0.2,1.1-0.5C289.4,84.5,289.5,84.2,289.5,83.8z
	 M296.1,86.5c-0.7,0-1.3-0.1-1.8-0.4c-0.5-0.3-0.9-0.6-1.2-1c-0.3-0.4-0.5-0.9-0.5-1.5h1.5c0.1,0.5,0.3,0.9,0.7,1.2
	c0.4,0.3,0.8,0.4,1.4,0.4c0.4,0,0.8-0.1,1.1-0.3c0.3-0.2,0.5-0.5,0.7-0.8s0.3-0.7,0.3-1.1c0-0.7-0.2-1.2-0.6-1.6
	c-0.4-0.4-0.8-0.6-1.4-0.6c-0.5,0-0.9,0.1-1.2,0.3c-0.3,0.2-0.6,0.5-0.8,0.9h-1.4l0.8-5.5h5.3v1.3h-4.2l-0.5,2.6
	c0.2-0.2,0.5-0.4,0.9-0.6c0.4-0.2,0.8-0.3,1.3-0.3c0.7,0,1.2,0.2,1.7,0.5c0.5,0.3,0.8,0.7,1.1,1.2c0.3,0.5,0.4,1.1,0.4,1.7
	c0,0.7-0.1,1.2-0.4,1.8c-0.3,0.5-0.7,1-1.2,1.3C297.5,86.3,296.9,86.5,296.1,86.5z M301.9,86.4c-0.3,0-0.5-0.1-0.7-0.3
	c-0.2-0.2-0.3-0.4-0.3-0.7c0-0.3,0.1-0.5,0.3-0.7c0.2-0.2,0.4-0.3,0.7-0.3s0.5,0.1,0.7,0.3c0.2,0.2,0.3,0.4,0.3,0.7
	c0,0.3-0.1,0.5-0.3,0.7C302.4,86.3,302.2,86.4,301.9,86.4z M308.9,86.3v-2h-4.9v-1.2l4.7-6.7h1.7v6.6h1.4v1.3h-1.4v2H308.9z
	 M305.5,83.1h3.4v-4.9L305.5,83.1z M317,86.5c-0.9,0-1.7-0.2-2.3-0.6c-0.6-0.4-1.1-1-1.5-1.8c-0.3-0.8-0.5-1.7-0.5-2.7
	c0-1,0.2-1.9,0.5-2.6c0.3-0.8,0.8-1.4,1.5-1.8c0.6-0.4,1.4-0.6,2.3-0.6c0.9,0,1.6,0.2,2.3,0.6c0.6,0.4,1.1,1,1.5,1.8
	c0.3,0.8,0.5,1.6,0.5,2.6c0,1-0.2,1.9-0.5,2.7c-0.3,0.8-0.8,1.3-1.5,1.8C318.7,86.3,317.9,86.5,317,86.5z M317,85.2
	c0.5,0,1-0.1,1.4-0.4c0.4-0.3,0.7-0.7,1-1.3c0.2-0.6,0.4-1.2,0.4-2c0-0.8-0.1-1.4-0.4-2c-0.2-0.6-0.6-1-1-1.3
	c-0.4-0.3-0.9-0.4-1.4-0.4c-0.5,0-1,0.1-1.4,0.4c-0.4,0.3-0.7,0.7-1,1.3c-0.2,0.6-0.4,1.2-0.4,2c0,0.8,0.1,1.4,0.4,2
	c0.2,0.6,0.6,1,1,1.3C316,85,316.5,85.2,317,85.2z M326.9,86.5c-0.9,0-1.7-0.2-2.3-0.6c-0.6-0.4-1.1-1-1.5-1.8
	c-0.3-0.8-0.5-1.7-0.5-2.7c0-1,0.2-1.9,0.5-2.6c0.3-0.8,0.8-1.4,1.5-1.8c0.6-0.4,1.4-0.6,2.3-0.6c0.9,0,1.6,0.2,2.3,0.6
	c0.6,0.4,1.1,1,1.5,1.8c0.3,0.8,0.5,1.6,0.5,2.6c0,1-0.2,1.9-0.5,2.7c-0.3,0.8-0.8,1.3-1.5,1.8C328.5,86.3,327.7,86.5,326.9,86.5z
	 M326.9,85.2c0.5,0,1-0.1,1.4-0.4c0.4-0.3,0.7-0.7,1-1.3c0.2-0.6,0.4-1.2,0.4-2c0-0.8-0.1-1.4-0.4-2c-0.2-0.6-0.6-1-1-1.3
	c-0.4-0.3-0.9-0.4-1.4-0.4c-0.5,0-1,0.1-1.4,0.4c-0.4,0.3-0.7,0.7-1,1.3c-0.2,0.6-0.4,1.2-0.4,2c0,0.8,0.1,1.4,0.4,2
	c0.2,0.6,0.6,1,1,1.3C325.8,85,326.3,85.2,326.9,85.2z"/>
<path class="st2" d="M287.1,48.7v-1.1c-0.9-0.1-1.6-0.4-2.2-1c-0.6-0.5-0.8-1.3-0.8-2.1h1.6c0,0.4,0.1,0.8,0.4,1.2
	c0.3,0.3,0.6,0.5,1.1,0.7V43c-0.1,0-0.2,0-0.2-0.1c-0.1,0-0.2-0.1-0.2-0.1c-0.8-0.3-1.3-0.6-1.7-1c-0.4-0.4-0.6-0.9-0.6-1.6
	c0-0.8,0.2-1.4,0.7-1.9c0.5-0.5,1.2-0.8,2-0.9v-1.1h1v1.1c0.8,0.1,1.5,0.4,2,0.9c0.5,0.5,0.7,1.1,0.8,1.9h-1.6
	c0-0.3-0.1-0.6-0.3-0.9c-0.2-0.3-0.5-0.5-0.8-0.6v3c0.1,0,0.1,0.1,0.2,0.1c0.1,0,0.1,0,0.2,0.1c0.5,0.2,0.9,0.3,1.3,0.6
	c0.4,0.2,0.7,0.5,0.9,0.9c0.2,0.4,0.3,0.8,0.3,1.4c0,0.5-0.1,0.9-0.3,1.3c-0.2,0.4-0.6,0.7-1,1c-0.4,0.3-1,0.4-1.7,0.5v1.1H287.1z
	 M285.9,40.2c0,0.4,0.1,0.7,0.3,0.9c0.2,0.2,0.5,0.4,0.9,0.5v-2.7c-0.4,0.1-0.6,0.2-0.9,0.4C286,39.5,285.9,39.8,285.9,40.2z
	 M289.5,45c0-0.5-0.1-0.8-0.4-1c-0.3-0.2-0.6-0.4-1-0.6v3.1c0.5-0.1,0.8-0.2,1.1-0.5C289.4,45.7,289.5,45.3,289.5,45z M296.1,47.7
	c-0.7,0-1.3-0.1-1.8-0.4c-0.5-0.3-0.9-0.6-1.2-1c-0.3-0.4-0.5-0.9-0.5-1.5h1.5c0.1,0.5,0.3,0.9,0.7,1.2c0.4,0.3,0.8,0.4,1.4,0.4
	c0.4,0,0.8-0.1,1.1-0.3c0.3-0.2,0.5-0.5,0.7-0.8c0.2-0.3,0.3-0.7,0.3-1.1c0-0.7-0.2-1.2-0.6-1.6c-0.4-0.4-0.8-0.6-1.4-0.6
	c-0.5,0-0.9,0.1-1.2,0.3c-0.3,0.2-0.6,0.5-0.8,0.9h-1.4l0.8-5.5h5.3V39h-4.2l-0.5,2.6c0.2-0.2,0.5-0.4,0.9-0.6
	c0.4-0.2,0.8-0.3,1.3-0.3c0.7,0,1.2,0.2,1.7,0.5c0.5,0.3,0.8,0.7,1.1,1.2c0.3,0.5,0.4,1.1,0.4,1.7c0,0.7-0.1,1.2-0.4,1.8
	c-0.3,0.5-0.7,1-1.2,1.3C297.5,47.5,296.9,47.7,296.1,47.7z M301.9,47.6c-0.3,0-0.5-0.1-0.7-0.3c-0.2-0.2-0.3-0.4-0.3-0.7
	c0-0.3,0.1-0.5,0.3-0.7c0.2-0.2,0.4-0.3,0.7-0.3s0.5,0.1,0.7,0.3c0.2,0.2,0.3,0.4,0.3,0.7c0,0.3-0.1,0.5-0.3,0.7
	C302.4,47.5,302.2,47.6,301.9,47.6z M307.8,47.7c-0.7,0-1.3-0.1-1.8-0.4c-0.5-0.3-0.9-0.6-1.2-1c-0.3-0.4-0.5-0.9-0.5-1.5h1.5
	c0.1,0.5,0.3,0.9,0.7,1.2c0.4,0.3,0.8,0.4,1.4,0.4c0.4,0,0.8-0.1,1.1-0.3c0.3-0.2,0.5-0.5,0.7-0.8c0.2-0.3,0.3-0.7,0.3-1.1
	c0-0.7-0.2-1.2-0.6-1.6c-0.4-0.4-0.8-0.6-1.4-0.6c-0.5,0-0.9,0.1-1.2,0.3c-0.3,0.2-0.6,0.5-0.8,0.9h-1.4l0.8-5.5h5.3V39h-4.2
	l-0.5,2.6c0.2-0.2,0.5-0.4,0.9-0.6c0.4-0.2,0.8-0.3,1.3-0.3c0.7,0,1.2,0.2,1.7,0.5c0.5,0.3,0.8,0.7,1.1,1.2c0.3,0.5,0.4,1.1,0.4,1.7
	c0,0.7-0.1,1.2-0.4,1.8c-0.3,0.5-0.7,1-1.2,1.3C309.1,47.5,308.5,47.7,307.8,47.7z M316.9,47.7c-0.9,0-1.7-0.2-2.3-0.6
	c-0.6-0.4-1.1-1-1.5-1.8c-0.3-0.8-0.5-1.7-0.5-2.7c0-1,0.2-1.9,0.5-2.6c0.3-0.8,0.8-1.4,1.5-1.8c0.6-0.4,1.4-0.6,2.3-0.6
	c0.9,0,1.6,0.2,2.3,0.6c0.6,0.4,1.1,1,1.5,1.8c0.3,0.8,0.5,1.6,0.5,2.6c0,1-0.2,1.9-0.5,2.7c-0.3,0.8-0.8,1.3-1.5,1.8
	C318.6,47.5,317.8,47.7,316.9,47.7z M316.9,46.3c0.5,0,1-0.1,1.4-0.4c0.4-0.3,0.7-0.7,1-1.3c0.2-0.6,0.4-1.2,0.4-2s-0.1-1.4-0.4-2
	c-0.2-0.6-0.6-1-1-1.3c-0.4-0.3-0.9-0.4-1.4-0.4c-0.5,0-1,0.1-1.4,0.4c-0.4,0.3-0.7,0.7-1,1.3c-0.2,0.6-0.4,1.2-0.4,2s0.1,1.4,0.4,2
	c0.2,0.6,0.6,1,1,1.3C315.9,46.2,316.4,46.3,316.9,46.3z M326.8,47.7c-0.9,0-1.7-0.2-2.3-0.6c-0.6-0.4-1.1-1-1.5-1.8
	c-0.3-0.8-0.5-1.7-0.5-2.7c0-1,0.2-1.9,0.5-2.6c0.3-0.8,0.8-1.4,1.5-1.8c0.6-0.4,1.4-0.6,2.3-0.6c0.9,0,1.6,0.2,2.3,0.6
	c0.6,0.4,1.1,1,1.5,1.8c0.3,0.8,0.5,1.6,0.5,2.6c0,1-0.2,1.9-0.5,2.7c-0.3,0.8-0.8,1.3-1.5,1.8C328.4,47.5,327.6,47.7,326.8,47.7z
	 M326.8,46.3c0.5,0,1-0.1,1.4-0.4c0.4-0.3,0.7-0.7,1-1.3c0.2-0.6,0.4-1.2,0.4-2s-0.1-1.4-0.4-2c-0.2-0.6-0.6-1-1-1.3
	c-0.4-0.3-0.9-0.4-1.4-0.4c-0.5,0-1,0.1-1.4,0.4c-0.4,0.3-0.7,0.7-1,1.3c-0.2,0.6-0.4,1.2-0.4,2s0.1,1.4,0.4,2c0.2,0.6,0.6,1,1,1.3
	C325.7,46.2,326.2,46.3,326.8,46.3z"/>
<path class="st2" d="M287.1,126.4v-1.1c-0.9-0.1-1.6-0.4-2.2-1c-0.6-0.5-0.8-1.3-0.8-2.1h1.6c0,0.4,0.1,0.8,0.4,1.2
	c0.3,0.3,0.6,0.5,1.1,0.7v-3.4c-0.1,0-0.2,0-0.2-0.1c-0.1,0-0.2-0.1-0.2-0.1c-0.8-0.3-1.3-0.6-1.7-1c-0.4-0.4-0.6-0.9-0.6-1.6
	c0-0.8,0.2-1.4,0.7-1.9c0.5-0.5,1.2-0.8,2-0.9v-1.1h1v1.1c0.8,0.1,1.5,0.4,2,0.9c0.5,0.5,0.7,1.1,0.8,1.9h-1.6
	c0-0.3-0.1-0.6-0.3-0.9c-0.2-0.3-0.5-0.5-0.8-0.6v3c0.1,0,0.1,0.1,0.2,0.1c0.1,0,0.1,0,0.2,0.1c0.5,0.2,0.9,0.4,1.3,0.6
	s0.7,0.5,0.9,0.9c0.2,0.4,0.3,0.8,0.3,1.4c0,0.5-0.1,0.9-0.3,1.3c-0.2,0.4-0.6,0.7-1,1c-0.4,0.3-1,0.4-1.7,0.5v1.1H287.1z
	 M285.9,117.8c0,0.4,0.1,0.7,0.3,0.9c0.2,0.2,0.5,0.4,0.9,0.5v-2.7c-0.4,0.1-0.6,0.2-0.9,0.4C286,117.2,285.9,117.5,285.9,117.8z
	 M289.5,122.6c0-0.5-0.1-0.8-0.4-1c-0.3-0.2-0.6-0.4-1-0.6v3.1c0.5-0.1,0.8-0.2,1.1-0.5C289.4,123.3,289.5,123,289.5,122.6z
	 M296.1,125.3c-0.7,0-1.3-0.1-1.8-0.4c-0.5-0.3-0.9-0.6-1.2-1c-0.3-0.4-0.5-0.9-0.5-1.5h1.5c0.1,0.5,0.3,0.9,0.7,1.2
	c0.4,0.3,0.8,0.4,1.4,0.4c0.4,0,0.8-0.1,1.1-0.3c0.3-0.2,0.5-0.5,0.7-0.8s0.3-0.7,0.3-1.1c0-0.7-0.2-1.2-0.6-1.6
	c-0.4-0.4-0.8-0.6-1.4-0.6c-0.5,0-0.9,0.1-1.2,0.4c-0.3,0.2-0.6,0.5-0.8,0.9h-1.4l0.8-5.5h5.3v1.3h-4.2l-0.5,2.6
	c0.2-0.2,0.5-0.4,0.9-0.6c0.4-0.2,0.8-0.3,1.3-0.3c0.7,0,1.2,0.2,1.7,0.5c0.5,0.3,0.8,0.7,1.1,1.2c0.3,0.5,0.4,1.1,0.4,1.7
	c0,0.7-0.1,1.2-0.4,1.8s-0.7,1-1.2,1.3C297.5,125.2,296.9,125.3,296.1,125.3z M301.9,125.3c-0.3,0-0.5-0.1-0.7-0.3
	c-0.2-0.2-0.3-0.4-0.3-0.7c0-0.3,0.1-0.5,0.3-0.7c0.2-0.2,0.4-0.3,0.7-0.3s0.5,0.1,0.7,0.3c0.2,0.2,0.3,0.4,0.3,0.7
	c0,0.3-0.1,0.5-0.3,0.7C302.4,125.2,302.2,125.3,301.9,125.3z M307.5,125.3c-0.6,0-1.2-0.1-1.7-0.3c-0.5-0.2-0.9-0.6-1.2-1
	c-0.3-0.5-0.5-1.1-0.5-1.8h1.5c0,0.5,0.2,1,0.5,1.3c0.3,0.4,0.8,0.5,1.5,0.5c0.6,0,1.1-0.2,1.4-0.5c0.3-0.3,0.5-0.8,0.5-1.2
	c0-0.6-0.2-1-0.6-1.3c-0.4-0.3-0.9-0.4-1.6-0.4h-0.7v-1.2h0.7c0.5,0,1-0.1,1.3-0.4c0.3-0.3,0.5-0.6,0.5-1.1c0-0.4-0.1-0.7-0.4-1
	c-0.3-0.3-0.6-0.4-1.1-0.4c-0.5,0-0.9,0.1-1.2,0.4c-0.3,0.3-0.4,0.7-0.5,1.1h-1.5c0-0.6,0.2-1.1,0.4-1.5c0.3-0.4,0.6-0.7,1.1-1
	c0.5-0.2,1-0.4,1.6-0.4c0.7,0,1.2,0.1,1.6,0.4c0.4,0.2,0.8,0.5,1,0.9c0.2,0.4,0.4,0.8,0.4,1.3c0,0.5-0.1,1-0.4,1.4
	c-0.3,0.4-0.7,0.7-1.2,0.8c0.6,0.1,1,0.4,1.4,0.8c0.4,0.4,0.5,1,0.5,1.6c0,0.5-0.1,1-0.4,1.5c-0.3,0.4-0.6,0.8-1.1,1.1
	C308.8,125.2,308.2,125.3,307.5,125.3z M316.6,125.3c-0.9,0-1.7-0.2-2.3-0.6c-0.6-0.4-1.1-1-1.5-1.8c-0.3-0.8-0.5-1.7-0.5-2.7
	s0.2-1.9,0.5-2.6c0.3-0.8,0.8-1.4,1.5-1.8c0.6-0.4,1.4-0.6,2.3-0.6c0.9,0,1.6,0.2,2.3,0.6c0.6,0.4,1.1,1,1.5,1.8
	c0.3,0.8,0.5,1.6,0.5,2.6s-0.2,1.9-0.5,2.7c-0.3,0.8-0.8,1.3-1.5,1.8C318.2,125.1,317.5,125.3,316.6,125.3z M316.6,124
	c0.5,0,1-0.2,1.4-0.4c0.4-0.3,0.7-0.7,1-1.3c0.2-0.6,0.4-1.2,0.4-2c0-0.8-0.1-1.4-0.4-2c-0.2-0.6-0.6-1-1-1.3
	c-0.4-0.3-0.9-0.4-1.4-0.4c-0.5,0-1,0.1-1.4,0.4c-0.4,0.3-0.7,0.7-1,1.3c-0.2,0.6-0.4,1.2-0.4,2c0,0.8,0.1,1.4,0.4,2
	c0.2,0.6,0.6,1,1,1.3C315.6,123.9,316,124,316.6,124z M326.4,125.3c-0.9,0-1.7-0.2-2.3-0.6c-0.6-0.4-1.1-1-1.5-1.8
	c-0.3-0.8-0.5-1.7-0.5-2.7s0.2-1.9,0.5-2.6c0.3-0.8,0.8-1.4,1.5-1.8c0.6-0.4,1.4-0.6,2.3-0.6c0.9,0,1.6,0.2,2.3,0.6
	c0.6,0.4,1.1,1,1.5,1.8c0.3,0.8,0.5,1.6,0.5,2.6s-0.2,1.9-0.5,2.7c-0.3,0.8-0.8,1.3-1.5,1.8C328.1,125.1,327.3,125.3,326.4,125.3z
	 M326.4,124c0.5,0,1-0.2,1.4-0.4c0.4-0.3,0.7-0.7,1-1.3c0.2-0.6,0.3-1.2,0.3-2c0-0.8-0.1-1.4-0.3-2c-0.2-0.6-0.6-1-1-1.3
	c-0.4-0.3-0.9-0.4-1.4-0.4c-0.5,0-1,0.1-1.4,0.4c-0.4,0.3-0.7,0.7-1,1.3c-0.2,0.6-0.4,1.2-0.4,2c0,0.8,0.1,1.4,0.4,2
	c0.2,0.6,0.6,1,1,1.3C325.4,123.9,325.9,124,326.4,124z"/>
<path class="st2" d="M287.1,165.2v-1.1c-0.9-0.1-1.6-0.4-2.2-1c-0.6-0.5-0.8-1.3-0.8-2.1h1.6c0,0.4,0.1,0.8,0.4,1.2
	c0.3,0.3,0.6,0.5,1.1,0.7v-3.4c-0.1,0-0.2,0-0.2-0.1c-0.1,0-0.2-0.1-0.2-0.1c-0.8-0.3-1.3-0.6-1.7-1c-0.4-0.4-0.6-0.9-0.6-1.6
	c0-0.8,0.2-1.4,0.7-1.9s1.2-0.8,2-0.9v-1.1h1v1.1c0.8,0.1,1.5,0.4,2,0.9s0.7,1.1,0.8,1.9h-1.6c0-0.3-0.1-0.6-0.3-0.9
	c-0.2-0.3-0.5-0.5-0.8-0.6v3c0.1,0,0.1,0.1,0.2,0.1c0.1,0,0.1,0,0.2,0.1c0.5,0.2,0.9,0.4,1.3,0.6s0.7,0.5,0.9,0.9
	c0.2,0.4,0.3,0.8,0.3,1.4c0,0.5-0.1,0.9-0.3,1.3c-0.2,0.4-0.6,0.7-1,1c-0.4,0.3-1,0.4-1.7,0.5v1.1H287.1z M285.9,156.6
	c0,0.4,0.1,0.7,0.3,0.9c0.2,0.2,0.5,0.4,0.9,0.5v-2.7c-0.4,0.1-0.6,0.2-0.9,0.4C286,156,285.9,156.3,285.9,156.6z M289.5,161.5
	c0-0.5-0.1-0.8-0.4-1c-0.3-0.2-0.6-0.4-1-0.6v3.1c0.5-0.1,0.8-0.2,1.1-0.5C289.4,162.2,289.5,161.8,289.5,161.5z M296.1,164.2
	c-0.7,0-1.3-0.1-1.8-0.4c-0.5-0.3-0.9-0.6-1.2-1c-0.3-0.4-0.5-0.9-0.5-1.5h1.5c0.1,0.5,0.3,0.9,0.7,1.2c0.4,0.3,0.8,0.4,1.4,0.4
	c0.4,0,0.8-0.1,1.1-0.3c0.3-0.2,0.5-0.5,0.7-0.8s0.3-0.7,0.3-1.1c0-0.7-0.2-1.2-0.6-1.6c-0.4-0.4-0.8-0.6-1.4-0.6
	c-0.5,0-0.9,0.1-1.2,0.4c-0.3,0.2-0.6,0.5-0.8,0.9h-1.4l0.8-5.5h5.3v1.3h-4.2l-0.5,2.6c0.2-0.2,0.5-0.4,0.9-0.6
	c0.4-0.2,0.8-0.3,1.3-0.3c0.7,0,1.2,0.2,1.7,0.5c0.5,0.3,0.8,0.7,1.1,1.2c0.3,0.5,0.4,1.1,0.4,1.7c0,0.7-0.1,1.2-0.4,1.8
	c-0.3,0.5-0.7,1-1.2,1.3C297.5,164,296.9,164.2,296.1,164.2z M301.9,164.1c-0.3,0-0.5-0.1-0.7-0.3c-0.2-0.2-0.3-0.4-0.3-0.7
	c0-0.3,0.1-0.5,0.3-0.7c0.2-0.2,0.4-0.3,0.7-0.3s0.5,0.1,0.7,0.3c0.2,0.2,0.3,0.4,0.3,0.7c0,0.3-0.1,0.5-0.3,0.7
	C302.4,164,302.2,164.1,301.9,164.1z M304.2,164v-1.1c0.6-0.5,1.2-1,1.8-1.5c0.6-0.5,1.1-1,1.5-1.5c0.5-0.5,0.8-1,1.1-1.5
	c0.3-0.5,0.4-1,0.4-1.4c0-0.3-0.1-0.6-0.2-0.8c-0.1-0.3-0.3-0.5-0.5-0.6c-0.2-0.2-0.5-0.3-0.9-0.3c-0.6,0-1,0.2-1.3,0.6
	c-0.3,0.4-0.4,0.8-0.4,1.3h-1.4c0-0.7,0.2-1.3,0.4-1.7c0.3-0.5,0.7-0.8,1.1-1.1c0.5-0.2,1-0.4,1.6-0.4c0.9,0,1.7,0.3,2.2,0.8
	c0.6,0.5,0.8,1.2,0.8,2.2c0,0.6-0.1,1.1-0.4,1.6c-0.3,0.5-0.6,1.1-1,1.6c-0.4,0.5-0.9,1-1.4,1.4c-0.5,0.4-0.9,0.8-1.4,1.2h4.5v1.2
	H304.2z M316.2,164.2c-0.9,0-1.7-0.2-2.3-0.6c-0.6-0.4-1.1-1-1.5-1.8c-0.3-0.8-0.5-1.7-0.5-2.7c0-1,0.2-1.9,0.5-2.6
	c0.3-0.8,0.8-1.4,1.5-1.8c0.6-0.4,1.4-0.6,2.3-0.6c0.9,0,1.6,0.2,2.3,0.6c0.6,0.4,1.1,1,1.5,1.8c0.3,0.8,0.5,1.6,0.5,2.6
	c0,1-0.2,1.9-0.5,2.7c-0.3,0.8-0.8,1.3-1.5,1.8C317.9,164,317.1,164.2,316.2,164.2z M316.2,162.8c0.5,0,1-0.1,1.4-0.4
	c0.4-0.3,0.7-0.7,1-1.3s0.4-1.2,0.4-2c0-0.8-0.1-1.4-0.4-2c-0.2-0.6-0.6-1-1-1.3c-0.4-0.3-0.9-0.4-1.4-0.4c-0.5,0-1,0.1-1.4,0.4
	c-0.4,0.3-0.7,0.7-1,1.3c-0.2,0.6-0.4,1.2-0.4,2c0,0.8,0.1,1.4,0.4,2s0.6,1,1,1.3C315.2,162.7,315.7,162.8,316.2,162.8z M326,164.2
	c-0.9,0-1.7-0.2-2.3-0.6c-0.6-0.4-1.1-1-1.5-1.8c-0.3-0.8-0.5-1.7-0.5-2.7c0-1,0.2-1.9,0.5-2.6c0.3-0.8,0.8-1.4,1.5-1.8
	c0.6-0.4,1.4-0.6,2.3-0.6s1.6,0.2,2.3,0.6c0.6,0.4,1.1,1,1.5,1.8c0.3,0.8,0.5,1.6,0.5,2.6c0,1-0.2,1.9-0.5,2.7
	c-0.3,0.8-0.8,1.3-1.5,1.8C327.7,164,326.9,164.2,326,164.2z M326,162.8c0.5,0,1-0.1,1.4-0.4c0.4-0.3,0.7-0.7,1-1.3
	c0.2-0.6,0.3-1.2,0.3-2c0-0.8-0.1-1.4-0.3-2c-0.2-0.6-0.6-1-1-1.3c-0.4-0.3-0.9-0.4-1.4-0.4c-0.5,0-1,0.1-1.4,0.4
	c-0.4,0.3-0.7,0.7-1,1.3c-0.2,0.6-0.3,1.2-0.3,2c0,0.8,0.1,1.4,0.3,2s0.6,1,1,1.3C325,162.7,325.5,162.8,326,162.8z"/>
<path class="st2" d="M287.1,204.1V203c-0.9-0.1-1.6-0.4-2.2-1c-0.6-0.5-0.8-1.3-0.8-2.1h1.6c0,0.4,0.1,0.8,0.4,1.2
	c0.3,0.3,0.6,0.5,1.1,0.7v-3.4c-0.1,0-0.2,0-0.2-0.1c-0.1,0-0.2-0.1-0.2-0.1c-0.8-0.3-1.3-0.6-1.7-1c-0.4-0.4-0.6-0.9-0.6-1.6
	c0-0.8,0.2-1.4,0.7-1.9c0.5-0.5,1.2-0.8,2-0.9v-1.1h1v1.1c0.8,0.1,1.5,0.4,2,0.9c0.5,0.5,0.7,1.1,0.8,1.9h-1.6
	c0-0.3-0.1-0.6-0.3-0.9c-0.2-0.3-0.5-0.5-0.8-0.6v3c0.1,0,0.1,0.1,0.2,0.1c0.1,0,0.1,0,0.2,0.1c0.5,0.2,0.9,0.4,1.3,0.6
	s0.7,0.5,0.9,0.9c0.2,0.4,0.3,0.8,0.3,1.4c0,0.5-0.1,0.9-0.3,1.3c-0.2,0.4-0.6,0.7-1,1c-0.4,0.3-1,0.4-1.7,0.5v1.1H287.1z
	 M285.9,195.5c0,0.4,0.1,0.7,0.3,0.9c0.2,0.2,0.5,0.4,0.9,0.5v-2.7c-0.4,0.1-0.6,0.2-0.9,0.4C286,194.8,285.9,195.1,285.9,195.5z
	 M289.5,200.3c0-0.5-0.1-0.8-0.4-1c-0.3-0.2-0.6-0.4-1-0.6v3.1c0.5-0.1,0.8-0.2,1.1-0.5C289.4,201,289.5,200.7,289.5,200.3z
	 M296.1,203c-0.7,0-1.3-0.1-1.8-0.4c-0.5-0.3-0.9-0.6-1.2-1c-0.3-0.4-0.5-0.9-0.5-1.5h1.5c0.1,0.5,0.3,0.9,0.7,1.2
	c0.4,0.3,0.8,0.4,1.4,0.4c0.4,0,0.8-0.1,1.1-0.3c0.3-0.2,0.5-0.5,0.7-0.8s0.3-0.7,0.3-1.1c0-0.7-0.2-1.2-0.6-1.6
	c-0.4-0.4-0.8-0.6-1.4-0.6c-0.5,0-0.9,0.1-1.2,0.4c-0.3,0.2-0.6,0.5-0.8,0.9h-1.4l0.8-5.5h5.3v1.3h-4.2l-0.5,2.6
	c0.2-0.2,0.5-0.4,0.9-0.6c0.4-0.2,0.8-0.3,1.3-0.3c0.7,0,1.2,0.2,1.7,0.5c0.5,0.3,0.8,0.7,1.1,1.2c0.3,0.5,0.4,1.1,0.4,1.7
	c0,0.7-0.1,1.2-0.4,1.8s-0.7,1-1.2,1.3C297.5,202.8,296.9,203,296.1,203z M301.9,202.9c-0.3,0-0.5-0.1-0.7-0.3
	c-0.2-0.2-0.3-0.4-0.3-0.7c0-0.3,0.1-0.5,0.3-0.7c0.2-0.2,0.4-0.3,0.7-0.3s0.5,0.1,0.7,0.3c0.2,0.2,0.3,0.4,0.3,0.7
	c0,0.3-0.1,0.5-0.3,0.7C302.4,202.8,302.2,202.9,301.9,202.9z M305,202.8v-8.1l-1.6,0.4V194l2.2-1h1v9.8H305z M312.5,203
	c-0.9,0-1.7-0.2-2.3-0.6c-0.6-0.4-1.1-1-1.5-1.8c-0.3-0.8-0.5-1.7-0.5-2.7s0.2-1.9,0.5-2.6c0.3-0.8,0.8-1.4,1.5-1.8
	c0.6-0.4,1.4-0.6,2.3-0.6c0.9,0,1.6,0.2,2.3,0.6c0.6,0.4,1.1,1,1.5,1.8c0.3,0.8,0.5,1.6,0.5,2.6s-0.2,1.9-0.5,2.7
	c-0.3,0.8-0.8,1.3-1.5,1.8C314.1,202.8,313.3,203,312.5,203z M312.5,201.7c0.5,0,1-0.1,1.4-0.4c0.4-0.3,0.7-0.7,1-1.3
	c0.2-0.6,0.4-1.2,0.4-2c0-0.8-0.1-1.4-0.4-2c-0.2-0.6-0.6-1-1-1.3c-0.4-0.3-0.9-0.4-1.4-0.4c-0.5,0-1,0.1-1.4,0.4
	c-0.4,0.3-0.7,0.7-1,1.3c-0.2,0.6-0.4,1.2-0.4,2c0,0.8,0.1,1.4,0.4,2c0.2,0.6,0.6,1,1,1.3C311.4,201.5,311.9,201.7,312.5,201.7z
	 M322.3,203c-0.9,0-1.7-0.2-2.3-0.6c-0.6-0.4-1.1-1-1.5-1.8c-0.3-0.8-0.5-1.7-0.5-2.7s0.2-1.9,0.5-2.6c0.3-0.8,0.8-1.4,1.5-1.8
	c0.6-0.4,1.4-0.6,2.3-0.6s1.6,0.2,2.3,0.6c0.6,0.4,1.1,1,1.5,1.8c0.3,0.8,0.5,1.6,0.5,2.6s-0.2,1.9-0.5,2.7
	c-0.3,0.8-0.8,1.3-1.5,1.8C323.9,202.8,323.2,203,322.3,203z M322.3,201.7c0.5,0,1-0.1,1.4-0.4c0.4-0.3,0.7-0.7,1-1.3s0.3-1.2,0.3-2
	c0-0.8-0.1-1.4-0.3-2s-0.6-1-1-1.3c-0.4-0.3-0.9-0.4-1.4-0.4c-0.5,0-1,0.1-1.4,0.4c-0.4,0.3-0.7,0.7-1,1.3s-0.3,1.2-0.3,2
	c0,0.8,0.1,1.4,0.3,2s0.6,1,1,1.3C321.3,201.5,321.8,201.7,322.3,201.7z"/>
<path class="st21" d="M337.2,533.5v-7h4.3v0.7h-3.4v2.5h2.9v0.7h-2.9v3.2H337.2z M344.5,533.6c-0.5,0-0.9-0.1-1.3-0.3
	c-0.4-0.2-0.7-0.5-0.9-0.9c-0.2-0.4-0.3-0.8-0.3-1.4c0-0.5,0.1-1,0.3-1.4c0.2-0.4,0.5-0.7,0.9-0.9c0.4-0.2,0.8-0.3,1.3-0.3
	c0.5,0,0.9,0.1,1.2,0.3c0.4,0.2,0.6,0.5,0.8,0.8c0.2,0.4,0.3,0.7,0.3,1.1c0,0.1,0,0.1,0,0.2c0,0.1,0,0.2,0,0.3h-3.9
	c0,0.4,0.1,0.7,0.3,0.9c0.2,0.2,0.4,0.4,0.6,0.6c0.2,0.1,0.5,0.2,0.8,0.2c0.3,0,0.6-0.1,0.9-0.2c0.2-0.2,0.4-0.4,0.5-0.6h0.8
	c-0.1,0.5-0.4,0.8-0.8,1.1C345.6,533.5,345.1,533.6,344.5,533.6z M344.5,529.1c-0.4,0-0.8,0.1-1.1,0.4c-0.3,0.2-0.5,0.6-0.5,1.1h3.1
	c0-0.4-0.2-0.8-0.5-1C345.3,529.3,345,529.1,344.5,529.1z M350.7,533.6c-0.4,0-0.8-0.1-1.1-0.3c-0.3-0.2-0.6-0.4-0.7-0.7l-0.1,0.8
	H348v-7.2h0.8v3.1c0.2-0.2,0.4-0.5,0.7-0.6c0.3-0.2,0.7-0.3,1.1-0.3c0.5,0,0.9,0.1,1.3,0.3c0.4,0.2,0.6,0.5,0.9,0.9
	c0.2,0.4,0.3,0.8,0.3,1.3s-0.1,0.9-0.3,1.3c-0.2,0.4-0.5,0.7-0.9,0.9C351.6,533.5,351.2,533.6,350.7,533.6z M350.6,532.9
	c0.3,0,0.6-0.1,0.9-0.2c0.3-0.2,0.5-0.4,0.6-0.7c0.1-0.3,0.2-0.6,0.2-1c0-0.4-0.1-0.7-0.2-1c-0.1-0.3-0.3-0.5-0.6-0.6
	c-0.3-0.2-0.5-0.2-0.9-0.2c-0.3,0-0.6,0.1-0.9,0.2c-0.3,0.2-0.5,0.4-0.6,0.6c-0.1,0.3-0.2,0.6-0.2,1c0,0.4,0.1,0.7,0.2,1
	c0.1,0.3,0.3,0.5,0.6,0.7C349.9,532.8,350.2,532.9,350.6,532.9z M357.7,533.5v-6.1l-1.1,0.3v-0.6l1.4-0.6h0.6v7H357.7z M359.9,533.5
	v-0.6c0.5-0.4,0.9-0.8,1.3-1.1c0.4-0.4,0.8-0.8,1.1-1.1c0.3-0.4,0.6-0.7,0.8-1.1c0.2-0.4,0.3-0.7,0.3-1c0-0.2,0-0.5-0.1-0.7
	c-0.1-0.2-0.2-0.4-0.4-0.5c-0.2-0.1-0.4-0.2-0.8-0.2c-0.3,0-0.6,0.1-0.8,0.2c-0.2,0.1-0.4,0.3-0.5,0.5c-0.1,0.2-0.1,0.5-0.1,0.7
	h-0.8c0-0.5,0.1-0.9,0.3-1.2c0.2-0.3,0.5-0.6,0.8-0.8c0.3-0.2,0.7-0.3,1.1-0.3c0.6,0,1.1,0.2,1.5,0.5c0.4,0.3,0.6,0.9,0.6,1.6
	c0,0.4-0.1,0.8-0.3,1.2c-0.2,0.4-0.5,0.8-0.8,1.2c-0.3,0.4-0.7,0.7-1,1c-0.4,0.3-0.7,0.6-1,0.9h3.4v0.7H359.9z M365,534.7l0.6-2.2
	h0.9l-0.9,2.2H365z M370,533.5v-0.6c0.5-0.4,0.9-0.8,1.3-1.1c0.4-0.4,0.8-0.8,1.1-1.1c0.3-0.4,0.6-0.7,0.8-1.1
	c0.2-0.4,0.3-0.7,0.3-1c0-0.2,0-0.5-0.1-0.7c-0.1-0.2-0.2-0.4-0.4-0.5c-0.2-0.1-0.4-0.2-0.8-0.2c-0.3,0-0.6,0.1-0.8,0.2
	c-0.2,0.1-0.4,0.3-0.5,0.5c-0.1,0.2-0.1,0.5-0.1,0.7h-0.8c0-0.5,0.1-0.9,0.3-1.2c0.2-0.3,0.5-0.6,0.8-0.8c0.3-0.2,0.7-0.3,1.1-0.3
	c0.6,0,1.1,0.2,1.5,0.5c0.4,0.3,0.6,0.9,0.6,1.6c0,0.4-0.1,0.8-0.3,1.2c-0.2,0.4-0.5,0.8-0.8,1.2c-0.3,0.4-0.7,0.7-1,1
	c-0.4,0.3-0.7,0.6-1,0.9h3.4v0.7H370z M378.5,533.6c-0.6,0-1.2-0.2-1.6-0.5c-0.4-0.3-0.8-0.7-1-1.3c-0.2-0.5-0.4-1.2-0.4-1.9
	s0.1-1.3,0.4-1.9c0.2-0.5,0.6-1,1-1.3c0.5-0.3,1-0.5,1.6-0.5s1.2,0.2,1.6,0.5c0.4,0.3,0.8,0.7,1,1.3c0.2,0.5,0.4,1.2,0.4,1.9
	s-0.1,1.4-0.4,1.9c-0.2,0.5-0.6,1-1,1.3C379.7,533.5,379.1,533.6,378.5,533.6z M378.5,532.9c0.4,0,0.8-0.1,1.1-0.3
	c0.3-0.2,0.6-0.6,0.8-1c0.2-0.4,0.3-1,0.3-1.5s-0.1-1.1-0.3-1.5c-0.2-0.4-0.4-0.8-0.8-1c-0.3-0.2-0.7-0.3-1.1-0.3
	c-0.4,0-0.8,0.1-1.1,0.3c-0.3,0.2-0.6,0.6-0.8,1c-0.2,0.4-0.3,0.9-0.3,1.5s0.1,1.1,0.3,1.5c0.2,0.4,0.4,0.8,0.8,1
	C377.7,532.8,378.1,532.9,378.5,532.9z M383.4,533.5v-6.1l-1.1,0.3v-0.6l1.4-0.6h0.6v7H383.4z M388,533.6c-0.5,0-0.9-0.1-1.2-0.3
	c-0.4-0.2-0.7-0.4-0.9-0.7c-0.2-0.3-0.3-0.7-0.3-1.1c0-0.4,0.1-0.8,0.4-1.1c0.3-0.3,0.6-0.6,1-0.7c-0.4-0.1-0.7-0.3-0.9-0.6
	c-0.2-0.3-0.3-0.6-0.3-0.9c0-0.3,0.1-0.6,0.3-0.9c0.2-0.3,0.4-0.5,0.8-0.7c0.3-0.2,0.7-0.3,1.2-0.3c0.5,0,0.9,0.1,1.2,0.3
	c0.3,0.2,0.6,0.4,0.8,0.7c0.2,0.3,0.3,0.6,0.3,0.9c0,0.3-0.1,0.6-0.3,0.9c-0.2,0.3-0.5,0.5-0.9,0.6c0.4,0.1,0.7,0.3,1,0.7
	c0.3,0.3,0.4,0.7,0.4,1.1c0,0.4-0.1,0.8-0.3,1.1c-0.2,0.3-0.5,0.5-0.9,0.7C388.9,533.5,388.5,533.6,388,533.6z M388,529.5
	c0.4,0,0.8-0.1,1-0.3c0.3-0.2,0.4-0.5,0.4-0.9c0-0.4-0.1-0.7-0.4-0.9c-0.2-0.2-0.6-0.3-1-0.3c-0.4,0-0.8,0.1-1,0.3
	c-0.2,0.2-0.4,0.5-0.4,0.9c0,0.4,0.1,0.6,0.4,0.9C387.3,529.4,387.6,529.5,388,529.5z M388,532.9c0.5,0,0.9-0.1,1.2-0.4
	c0.3-0.2,0.4-0.6,0.4-1c0-0.5-0.1-0.8-0.4-1c-0.3-0.2-0.7-0.4-1.1-0.4c-0.5,0-0.9,0.1-1.2,0.4c-0.3,0.2-0.4,0.6-0.4,1
	c0,0.4,0.1,0.7,0.4,1C387.1,532.8,387.5,532.9,388,532.9z"/>
<path class="st21" d="M438.2,533.5v-7h4.3v0.7h-3.4v2.5h2.9v0.7h-2.9v3.2H438.2z M445.5,533.6c-0.5,0-0.9-0.1-1.3-0.3
	c-0.4-0.2-0.7-0.5-0.9-0.9c-0.2-0.4-0.3-0.8-0.3-1.4c0-0.5,0.1-1,0.3-1.4c0.2-0.4,0.5-0.7,0.9-0.9c0.4-0.2,0.8-0.3,1.3-0.3
	c0.5,0,0.9,0.1,1.2,0.3c0.4,0.2,0.6,0.5,0.8,0.8c0.2,0.4,0.3,0.7,0.3,1.1c0,0.1,0,0.1,0,0.2c0,0.1,0,0.2,0,0.3h-3.9
	c0,0.4,0.1,0.7,0.3,0.9c0.2,0.2,0.4,0.4,0.6,0.6c0.2,0.1,0.5,0.2,0.8,0.2c0.3,0,0.6-0.1,0.9-0.2c0.2-0.2,0.4-0.4,0.5-0.6h0.8
	c-0.1,0.5-0.4,0.8-0.8,1.1C446.6,533.5,446.1,533.6,445.5,533.6z M445.5,529.1c-0.4,0-0.8,0.1-1.1,0.4c-0.3,0.2-0.5,0.6-0.5,1.1h3.1
	c0-0.4-0.2-0.8-0.5-1C446.3,529.3,446,529.1,445.5,529.1z M451.7,533.6c-0.4,0-0.8-0.1-1.1-0.3c-0.3-0.2-0.6-0.4-0.7-0.7l-0.1,0.8
	H449v-7.2h0.8v3.1c0.2-0.2,0.4-0.5,0.7-0.6c0.3-0.2,0.7-0.3,1.1-0.3c0.5,0,0.9,0.1,1.3,0.3c0.4,0.2,0.6,0.5,0.8,0.9
	c0.2,0.4,0.3,0.8,0.3,1.3s-0.1,0.9-0.3,1.3c-0.2,0.4-0.5,0.7-0.9,0.9C452.6,533.5,452.2,533.6,451.7,533.6z M451.6,532.9
	c0.3,0,0.6-0.1,0.9-0.2c0.3-0.2,0.5-0.4,0.6-0.7c0.1-0.3,0.2-0.6,0.2-1c0-0.4-0.1-0.7-0.2-1c-0.1-0.3-0.3-0.5-0.6-0.6
	c-0.3-0.2-0.5-0.2-0.9-0.2c-0.3,0-0.6,0.1-0.9,0.2c-0.3,0.2-0.5,0.4-0.6,0.6c-0.1,0.3-0.2,0.6-0.2,1c0,0.4,0.1,0.7,0.2,1
	c0.1,0.3,0.3,0.5,0.6,0.7C450.9,532.8,451.2,532.9,451.6,532.9z M458.7,533.5v-6.1l-1.1,0.3v-0.6l1.4-0.6h0.6v7H458.7z M463.2,533.6
	c-0.4,0-0.9-0.1-1.2-0.2c-0.4-0.2-0.7-0.4-0.9-0.7c-0.2-0.3-0.3-0.7-0.3-1.2h0.9c0,0.4,0.1,0.7,0.4,1c0.3,0.3,0.7,0.4,1.2,0.4
	c0.5,0,0.9-0.1,1.1-0.4c0.3-0.3,0.4-0.6,0.4-1c0-0.3-0.1-0.6-0.2-0.8c-0.2-0.2-0.4-0.4-0.6-0.5c-0.3-0.1-0.5-0.1-0.9-0.1h-0.5v-0.7
	h0.5c0.5,0,0.8-0.1,1.1-0.3c0.3-0.2,0.4-0.5,0.4-0.9c0-0.3-0.1-0.6-0.3-0.8c-0.2-0.2-0.5-0.3-0.9-0.3c-0.4,0-0.7,0.1-0.9,0.4
	c-0.2,0.2-0.4,0.5-0.4,0.9H461c0-0.4,0.1-0.7,0.3-1c0.2-0.3,0.4-0.5,0.8-0.7c0.3-0.2,0.7-0.3,1.1-0.3c0.5,0,0.8,0.1,1.1,0.2
	c0.3,0.2,0.5,0.4,0.7,0.6c0.2,0.3,0.2,0.6,0.2,0.9c0,0.4-0.1,0.7-0.3,1c-0.2,0.3-0.5,0.5-0.9,0.6c0.4,0.1,0.8,0.3,1,0.6
	c0.3,0.3,0.4,0.7,0.4,1.2c0,0.4-0.1,0.7-0.3,1.1c-0.2,0.3-0.4,0.6-0.8,0.8C464.1,533.5,463.7,533.6,463.2,533.6z M466.2,534.7
	l0.6-2.2h0.9l-0.9,2.2H466.2z M471.2,533.5v-0.6c0.5-0.4,0.9-0.8,1.3-1.1c0.4-0.4,0.8-0.8,1.1-1.1c0.3-0.4,0.6-0.7,0.8-1.1
	c0.2-0.4,0.3-0.7,0.3-1c0-0.2,0-0.5-0.1-0.7c-0.1-0.2-0.2-0.4-0.4-0.5c-0.2-0.1-0.4-0.2-0.8-0.2c-0.3,0-0.6,0.1-0.8,0.2
	c-0.2,0.1-0.4,0.3-0.5,0.5c-0.1,0.2-0.1,0.5-0.1,0.7h-0.8c0-0.5,0.1-0.9,0.3-1.2c0.2-0.3,0.5-0.6,0.8-0.8c0.3-0.2,0.7-0.3,1.1-0.3
	c0.6,0,1.1,0.2,1.5,0.5c0.4,0.3,0.6,0.9,0.6,1.6c0,0.4-0.1,0.8-0.3,1.2c-0.2,0.4-0.5,0.8-0.8,1.2c-0.3,0.4-0.7,0.7-1,1
	c-0.4,0.3-0.7,0.6-1,0.9h3.4v0.7H471.2z M479.7,533.6c-0.6,0-1.2-0.2-1.6-0.5c-0.4-0.3-0.8-0.7-1-1.3c-0.2-0.5-0.4-1.2-0.4-1.9
	s0.1-1.3,0.4-1.9c0.2-0.5,0.6-1,1-1.3c0.5-0.3,1-0.5,1.6-0.5s1.2,0.2,1.6,0.5c0.4,0.3,0.8,0.7,1,1.3c0.2,0.5,0.4,1.2,0.4,1.9
	s-0.1,1.4-0.4,1.9c-0.2,0.5-0.6,1-1,1.3C480.8,533.5,480.3,533.6,479.7,533.6z M479.7,532.9c0.4,0,0.8-0.1,1.1-0.3
	c0.3-0.2,0.6-0.6,0.8-1c0.2-0.4,0.3-1,0.3-1.5s-0.1-1.1-0.3-1.5c-0.2-0.4-0.4-0.8-0.8-1c-0.3-0.2-0.7-0.3-1.1-0.3
	c-0.4,0-0.8,0.1-1.1,0.3c-0.3,0.2-0.6,0.6-0.8,1c-0.2,0.4-0.3,0.9-0.3,1.5s0.1,1.1,0.3,1.5c0.2,0.4,0.4,0.8,0.8,1
	C478.9,532.8,479.2,532.9,479.7,532.9z M484.6,533.5v-6.1l-1.1,0.3v-0.6l1.4-0.6h0.6v7H484.6z M489.2,533.6c-0.5,0-0.9-0.1-1.2-0.3
	c-0.4-0.2-0.7-0.4-0.9-0.7c-0.2-0.3-0.3-0.7-0.3-1.1c0-0.4,0.1-0.8,0.4-1.1c0.3-0.3,0.6-0.6,1-0.7c-0.4-0.1-0.7-0.3-0.9-0.6
	c-0.2-0.3-0.3-0.6-0.3-0.9c0-0.3,0.1-0.6,0.3-0.9c0.2-0.3,0.4-0.5,0.8-0.7c0.3-0.2,0.7-0.3,1.2-0.3c0.5,0,0.9,0.1,1.2,0.3
	c0.3,0.2,0.6,0.4,0.8,0.7c0.2,0.3,0.3,0.6,0.3,0.9c0,0.3-0.1,0.6-0.3,0.9c-0.2,0.3-0.5,0.5-0.9,0.6c0.4,0.1,0.7,0.3,1,0.7
	c0.3,0.3,0.4,0.7,0.4,1.1c0,0.4-0.1,0.8-0.3,1.1c-0.2,0.3-0.5,0.5-0.9,0.7C490.1,533.5,489.7,533.6,489.2,533.6z M489.2,529.5
	c0.4,0,0.8-0.1,1-0.3c0.3-0.2,0.4-0.5,0.4-0.9c0-0.4-0.1-0.7-0.4-0.9c-0.2-0.2-0.6-0.3-1-0.3c-0.4,0-0.8,0.1-1,0.3
	c-0.2,0.2-0.4,0.5-0.4,0.9c0,0.4,0.1,0.6,0.4,0.9C488.4,529.4,488.8,529.5,489.2,529.5z M489.2,532.9c0.5,0,0.9-0.1,1.2-0.4
	c0.3-0.2,0.4-0.6,0.4-1c0-0.5-0.1-0.8-0.4-1c-0.3-0.2-0.7-0.4-1.2-0.4s-0.9,0.1-1.1,0.4c-0.3,0.2-0.4,0.6-0.4,1c0,0.4,0.1,0.7,0.4,1
	C488.3,532.8,488.7,532.9,489.2,532.9z"/>
<path class="st14" d="M254.5,565.5v-308h320v308H254.5z"/>
<path class="st1" d="M255,565V258h319v307H255z"/>
<path class="st21" d="M333.2,538.5v-7h4.3v0.7h-3.4v2.5h2.9v0.7h-2.9v3.2H333.2z M340.5,538.6c-0.5,0-0.9-0.1-1.3-0.3
	c-0.4-0.2-0.7-0.5-0.9-0.9c-0.2-0.4-0.3-0.8-0.3-1.4c0-0.5,0.1-1,0.3-1.4c0.2-0.4,0.5-0.7,0.9-0.9c0.4-0.2,0.8-0.3,1.3-0.3
	c0.5,0,0.9,0.1,1.2,0.3c0.4,0.2,0.6,0.5,0.8,0.8c0.2,0.4,0.3,0.7,0.3,1.1c0,0.1,0,0.1,0,0.2c0,0.1,0,0.2,0,0.3h-3.9
	c0,0.4,0.1,0.7,0.3,0.9c0.2,0.2,0.4,0.4,0.6,0.6c0.2,0.1,0.5,0.2,0.8,0.2c0.3,0,0.6-0.1,0.9-0.2c0.2-0.2,0.4-0.4,0.5-0.6h0.8
	c-0.1,0.5-0.4,0.8-0.8,1.1C341.6,538.5,341.1,538.6,340.5,538.6z M340.5,534.1c-0.4,0-0.8,0.1-1.1,0.4c-0.3,0.2-0.5,0.6-0.5,1.1h3.1
	c0-0.4-0.2-0.8-0.5-1C341.3,534.3,341,534.1,340.5,534.1z M346.7,538.6c-0.4,0-0.8-0.1-1.1-0.3c-0.3-0.2-0.6-0.4-0.7-0.7l-0.1,0.8
	H344v-7.2h0.8v3.1c0.2-0.2,0.4-0.5,0.7-0.6c0.3-0.2,0.7-0.3,1.1-0.3c0.5,0,0.9,0.1,1.3,0.3c0.4,0.2,0.6,0.5,0.9,0.9
	c0.2,0.4,0.3,0.8,0.3,1.3s-0.1,0.9-0.3,1.3c-0.2,0.4-0.5,0.7-0.9,0.9C347.6,538.5,347.2,538.6,346.7,538.6z M346.6,537.9
	c0.3,0,0.6-0.1,0.9-0.2c0.3-0.2,0.5-0.4,0.6-0.7c0.1-0.3,0.2-0.6,0.2-1c0-0.4-0.1-0.7-0.2-1c-0.1-0.3-0.3-0.5-0.6-0.6
	c-0.3-0.2-0.5-0.2-0.9-0.2c-0.3,0-0.6,0.1-0.9,0.2c-0.3,0.2-0.5,0.4-0.6,0.6c-0.1,0.3-0.2,0.6-0.2,1c0,0.4,0.1,0.7,0.2,1
	c0.1,0.3,0.3,0.5,0.6,0.7C345.9,537.8,346.2,537.9,346.6,537.9z M353.7,538.5v-6.1l-1.1,0.3v-0.6l1.4-0.6h0.6v7H353.7z M355.9,538.5
	v-0.6c0.5-0.4,0.9-0.8,1.3-1.1c0.4-0.4,0.8-0.8,1.1-1.1c0.3-0.4,0.6-0.7,0.8-1.1c0.2-0.4,0.3-0.7,0.3-1c0-0.2,0-0.5-0.1-0.7
	c-0.1-0.2-0.2-0.4-0.4-0.5c-0.2-0.1-0.4-0.2-0.8-0.2c-0.3,0-0.6,0.1-0.8,0.2c-0.2,0.1-0.4,0.3-0.5,0.5c-0.1,0.2-0.1,0.5-0.1,0.7
	h-0.8c0-0.5,0.1-0.9,0.3-1.2c0.2-0.3,0.5-0.6,0.8-0.8c0.3-0.2,0.7-0.3,1.1-0.3c0.6,0,1.1,0.2,1.5,0.5c0.4,0.3,0.6,0.9,0.6,1.6
	c0,0.4-0.1,0.8-0.3,1.2c-0.2,0.4-0.5,0.8-0.8,1.2c-0.3,0.4-0.7,0.7-1,1c-0.4,0.3-0.7,0.6-1,0.9h3.4v0.7H355.9z M361,539.7l0.6-2.2
	h0.9l-0.9,2.2H361z M366,538.5v-0.6c0.5-0.4,0.9-0.8,1.3-1.1c0.4-0.4,0.8-0.8,1.1-1.1c0.3-0.4,0.6-0.7,0.8-1.1
	c0.2-0.4,0.3-0.7,0.3-1c0-0.2,0-0.5-0.1-0.7c-0.1-0.2-0.2-0.4-0.4-0.5c-0.2-0.1-0.4-0.2-0.8-0.2c-0.3,0-0.6,0.1-0.8,0.2
	c-0.2,0.1-0.4,0.3-0.5,0.5c-0.1,0.2-0.1,0.5-0.1,0.7h-0.8c0-0.5,0.1-0.9,0.3-1.2c0.2-0.3,0.5-0.6,0.8-0.8c0.3-0.2,0.7-0.3,1.1-0.3
	c0.6,0,1.1,0.2,1.5,0.5c0.4,0.3,0.6,0.9,0.6,1.6c0,0.4-0.1,0.8-0.3,1.2c-0.2,0.4-0.5,0.8-0.8,1.2c-0.3,0.4-0.7,0.7-1,1
	c-0.4,0.3-0.7,0.6-1,0.9h3.4v0.7H366z M374.5,538.6c-0.6,0-1.2-0.2-1.6-0.5c-0.4-0.3-0.8-0.7-1-1.3c-0.2-0.5-0.4-1.2-0.4-1.9
	s0.1-1.3,0.4-1.9c0.2-0.5,0.6-1,1-1.3c0.5-0.3,1-0.5,1.6-0.5s1.2,0.2,1.6,0.5c0.4,0.3,0.8,0.7,1,1.3c0.2,0.5,0.4,1.2,0.4,1.9
	s-0.1,1.4-0.4,1.9c-0.2,0.5-0.6,1-1,1.3C375.7,538.5,375.1,538.6,374.5,538.6z M374.5,537.9c0.4,0,0.8-0.1,1.1-0.3
	c0.3-0.2,0.6-0.6,0.8-1c0.2-0.4,0.3-1,0.3-1.5s-0.1-1.1-0.3-1.5c-0.2-0.4-0.4-0.8-0.8-1c-0.3-0.2-0.7-0.3-1.1-0.3
	c-0.4,0-0.8,0.1-1.1,0.3c-0.3,0.2-0.6,0.6-0.8,1c-0.2,0.4-0.3,0.9-0.3,1.5s0.1,1.1,0.3,1.5c0.2,0.4,0.4,0.8,0.8,1
	C373.7,537.8,374.1,537.9,374.5,537.9z M379.4,538.5v-6.1l-1.1,0.3v-0.6l1.4-0.6h0.6v7H379.4z M384,538.6c-0.5,0-0.9-0.1-1.2-0.3
	c-0.4-0.2-0.7-0.4-0.9-0.7c-0.2-0.3-0.3-0.7-0.3-1.1c0-0.4,0.1-0.8,0.4-1.1c0.3-0.3,0.6-0.6,1-0.7c-0.4-0.1-0.7-0.3-0.9-0.6
	c-0.2-0.3-0.3-0.6-0.3-0.9c0-0.3,0.1-0.6,0.3-0.9c0.2-0.3,0.4-0.5,0.8-0.7c0.3-0.2,0.7-0.3,1.2-0.3c0.5,0,0.9,0.1,1.2,0.3
	c0.3,0.2,0.6,0.4,0.8,0.7c0.2,0.3,0.3,0.6,0.3,0.9c0,0.3-0.1,0.6-0.3,0.9c-0.2,0.3-0.5,0.5-0.9,0.6c0.4,0.1,0.7,0.3,1,0.7
	c0.3,0.3,0.4,0.7,0.4,1.1c0,0.4-0.1,0.8-0.3,1.1c-0.2,0.3-0.5,0.5-0.9,0.7C384.9,538.5,384.5,538.6,384,538.6z M384,534.5
	c0.4,0,0.8-0.1,1-0.3c0.3-0.2,0.4-0.5,0.4-0.9c0-0.4-0.1-0.7-0.4-0.9c-0.2-0.2-0.6-0.3-1-0.3c-0.4,0-0.8,0.1-1,0.3
	c-0.2,0.2-0.4,0.5-0.4,0.9c0,0.4,0.1,0.6,0.4,0.9C383.3,534.4,383.6,534.5,384,534.5z M384,537.9c0.5,0,0.9-0.1,1.2-0.4
	c0.3-0.2,0.4-0.6,0.4-1c0-0.5-0.1-0.8-0.4-1c-0.3-0.2-0.7-0.4-1.1-0.4c-0.5,0-0.9,0.1-1.2,0.4c-0.3,0.2-0.4,0.6-0.4,1
	c0,0.4,0.1,0.7,0.4,1C383.1,537.8,383.5,537.9,384,537.9z"/>
<path class="st21" d="M434.2,538.5v-7h4.3v0.7h-3.4v2.5h2.9v0.7h-2.9v3.2H434.2z M441.5,538.6c-0.5,0-0.9-0.1-1.3-0.3
	c-0.4-0.2-0.7-0.5-0.9-0.9c-0.2-0.4-0.3-0.8-0.3-1.4c0-0.5,0.1-1,0.3-1.4c0.2-0.4,0.5-0.7,0.9-0.9c0.4-0.2,0.8-0.3,1.3-0.3
	c0.5,0,0.9,0.1,1.2,0.3c0.4,0.2,0.6,0.5,0.8,0.8c0.2,0.4,0.3,0.7,0.3,1.1c0,0.1,0,0.1,0,0.2c0,0.1,0,0.2,0,0.3h-3.9
	c0,0.4,0.1,0.7,0.3,0.9c0.2,0.2,0.4,0.4,0.6,0.6c0.2,0.1,0.5,0.2,0.8,0.2c0.3,0,0.6-0.1,0.9-0.2c0.2-0.2,0.4-0.4,0.5-0.6h0.8
	c-0.1,0.5-0.4,0.8-0.8,1.1C442.6,538.5,442.1,538.6,441.5,538.6z M441.5,534.1c-0.4,0-0.8,0.1-1.1,0.4c-0.3,0.2-0.5,0.6-0.5,1.1h3.1
	c0-0.4-0.2-0.8-0.5-1C442.3,534.3,442,534.1,441.5,534.1z M447.7,538.6c-0.4,0-0.8-0.1-1.1-0.3c-0.3-0.2-0.6-0.4-0.7-0.7l-0.1,0.8
	H445v-7.2h0.8v3.1c0.2-0.2,0.4-0.5,0.7-0.6c0.3-0.2,0.7-0.3,1.1-0.3c0.5,0,0.9,0.1,1.3,0.3c0.4,0.2,0.6,0.5,0.9,0.9
	c0.2,0.4,0.3,0.8,0.3,1.3s-0.1,0.9-0.3,1.3c-0.2,0.4-0.5,0.7-0.9,0.9C448.6,538.5,448.2,538.6,447.7,538.6z M447.6,537.9
	c0.3,0,0.6-0.1,0.9-0.2c0.3-0.2,0.5-0.4,0.6-0.7c0.1-0.3,0.2-0.6,0.2-1c0-0.4-0.1-0.7-0.2-1c-0.1-0.3-0.3-0.5-0.6-0.6
	c-0.3-0.2-0.5-0.2-0.9-0.2c-0.3,0-0.6,0.1-0.9,0.2c-0.3,0.2-0.5,0.4-0.6,0.6c-0.1,0.3-0.2,0.6-0.2,1c0,0.4,0.1,0.7,0.2,1
	c0.1,0.3,0.3,0.5,0.6,0.7C446.9,537.8,447.2,537.9,447.6,537.9z M454.7,538.5v-6.1l-1.1,0.3v-0.6l1.4-0.6h0.6v7H454.7z M459.2,538.6
	c-0.4,0-0.9-0.1-1.2-0.2c-0.4-0.2-0.7-0.4-0.9-0.7c-0.2-0.3-0.3-0.7-0.3-1.2h0.9c0,0.4,0.1,0.7,0.4,1c0.3,0.3,0.7,0.4,1.2,0.4
	c0.5,0,0.9-0.1,1.1-0.4c0.3-0.3,0.4-0.6,0.4-1c0-0.3-0.1-0.6-0.2-0.8c-0.2-0.2-0.4-0.4-0.6-0.5c-0.3-0.1-0.5-0.1-0.9-0.1h-0.5v-0.7
	h0.5c0.5,0,0.8-0.1,1.1-0.3c0.3-0.2,0.4-0.5,0.4-0.9c0-0.3-0.1-0.6-0.3-0.8c-0.2-0.2-0.5-0.3-0.9-0.3c-0.4,0-0.7,0.1-0.9,0.4
	c-0.2,0.2-0.4,0.5-0.4,0.9H457c0-0.4,0.1-0.7,0.3-1c0.2-0.3,0.4-0.5,0.8-0.7c0.3-0.2,0.7-0.3,1.1-0.3c0.5,0,0.8,0.1,1.1,0.2
	c0.3,0.2,0.5,0.4,0.7,0.6c0.2,0.3,0.2,0.6,0.2,0.9c0,0.4-0.1,0.7-0.3,1c-0.2,0.3-0.5,0.5-0.9,0.6c0.4,0.1,0.8,0.3,1,0.6
	c0.3,0.3,0.4,0.7,0.4,1.2c0,0.4-0.1,0.7-0.3,1.1c-0.2,0.3-0.4,0.6-0.8,0.8C460.1,538.5,459.7,538.6,459.2,538.6z M462.2,539.7
	l0.6-2.2h0.9l-0.9,2.2H462.2z M467.2,538.5v-0.6c0.5-0.4,0.9-0.8,1.3-1.1c0.4-0.4,0.8-0.8,1.1-1.1c0.3-0.4,0.6-0.7,0.8-1.1
	c0.2-0.4,0.3-0.7,0.3-1c0-0.2,0-0.5-0.1-0.7c-0.1-0.2-0.2-0.4-0.4-0.5c-0.2-0.1-0.4-0.2-0.8-0.2c-0.3,0-0.6,0.1-0.8,0.2
	c-0.2,0.1-0.4,0.3-0.5,0.5c-0.1,0.2-0.1,0.5-0.1,0.7h-0.8c0-0.5,0.1-0.9,0.3-1.2c0.2-0.3,0.5-0.6,0.8-0.8c0.3-0.2,0.7-0.3,1.1-0.3
	c0.6,0,1.1,0.2,1.5,0.5c0.4,0.3,0.6,0.9,0.6,1.6c0,0.4-0.1,0.8-0.3,1.2c-0.2,0.4-0.5,0.8-0.8,1.2c-0.3,0.4-0.7,0.7-1,1
	c-0.4,0.3-0.7,0.6-1,0.9h3.4v0.7H467.2z M475.7,538.6c-0.6,0-1.2-0.2-1.6-0.5c-0.4-0.3-0.8-0.7-1-1.3c-0.2-0.5-0.4-1.2-0.4-1.9
	s0.1-1.3,0.4-1.9c0.2-0.5,0.6-1,1-1.3c0.5-0.3,1-0.5,1.6-0.5s1.2,0.2,1.6,0.5c0.4,0.3,0.8,0.7,1,1.3c0.2,0.5,0.4,1.2,0.4,1.9
	s-0.1,1.4-0.4,1.9c-0.2,0.5-0.6,1-1,1.3C476.8,538.5,476.3,538.6,475.7,538.6z M475.7,537.9c0.4,0,0.8-0.1,1.1-0.3
	c0.3-0.2,0.6-0.6,0.8-1c0.2-0.4,0.3-1,0.3-1.5s-0.1-1.1-0.3-1.5c-0.2-0.4-0.4-0.8-0.8-1c-0.3-0.2-0.7-0.3-1.1-0.3
	c-0.4,0-0.8,0.1-1.1,0.3c-0.3,0.2-0.6,0.6-0.8,1c-0.2,0.4-0.3,0.9-0.3,1.5s0.1,1.1,0.3,1.5c0.2,0.4,0.4,0.8,0.8,1
	C474.9,537.8,475.2,537.9,475.7,537.9z M480.6,538.5v-6.1l-1.1,0.3v-0.6l1.4-0.6h0.6v7H480.6z M485.2,538.6c-0.5,0-0.9-0.1-1.2-0.3
	c-0.4-0.2-0.7-0.4-0.9-0.7c-0.2-0.3-0.3-0.7-0.3-1.1c0-0.4,0.1-0.8,0.4-1.1c0.3-0.3,0.6-0.6,1-0.7c-0.4-0.1-0.7-0.3-0.9-0.6
	c-0.2-0.3-0.3-0.6-0.3-0.9c0-0.3,0.1-0.6,0.3-0.9c0.2-0.3,0.4-0.5,0.8-0.7c0.3-0.2,0.7-0.3,1.2-0.3c0.5,0,0.9,0.1,1.2,0.3
	c0.3,0.2,0.6,0.4,0.8,0.7c0.2,0.3,0.3,0.6,0.3,0.9c0,0.3-0.1,0.6-0.3,0.9c-0.2,0.3-0.5,0.5-0.9,0.6c0.4,0.1,0.7,0.3,1,0.7
	c0.3,0.3,0.4,0.7,0.4,1.1c0,0.4-0.1,0.8-0.3,1.1c-0.2,0.3-0.5,0.5-0.9,0.7C486.1,538.5,485.7,538.6,485.2,538.6z M485.2,534.5
	c0.4,0,0.8-0.1,1-0.3c0.3-0.2,0.4-0.5,0.4-0.9c0-0.4-0.1-0.7-0.4-0.9c-0.2-0.2-0.6-0.3-1-0.3c-0.4,0-0.8,0.1-1,0.3
	c-0.2,0.2-0.4,0.5-0.4,0.9c0,0.4,0.1,0.6,0.4,0.9C484.4,534.4,484.8,534.5,485.2,534.5z M485.2,537.9c0.5,0,0.9-0.1,1.2-0.4
	c0.3-0.2,0.4-0.6,0.4-1c0-0.5-0.1-0.8-0.4-1c-0.3-0.2-0.7-0.4-1.2-0.4s-0.9,0.1-1.1,0.4c-0.3,0.2-0.4,0.6-0.4,1c0,0.4,0.1,0.7,0.4,1
	C484.3,537.8,484.7,537.9,485.2,537.9z"/>
<path class="st21" d="M288.3,300.5v-9.8h-3.3v-1.4h8.3v1.4H290v9.8H288.3z M297,300.7c-0.8,0-1.4-0.2-2-0.5
	c-0.6-0.4-1.1-0.8-1.4-1.5c-0.4-0.6-0.5-1.4-0.5-2.2s0.2-1.6,0.5-2.2c0.4-0.6,0.8-1.1,1.5-1.5c0.6-0.4,1.3-0.5,2-0.5
	c0.8,0,1.4,0.2,2,0.5c0.6,0.3,1.1,0.8,1.4,1.5c0.4,0.6,0.5,1.3,0.5,2.2s-0.2,1.6-0.5,2.2c-0.4,0.6-0.8,1.1-1.4,1.5
	C298.5,300.5,297.8,300.7,297,300.7z M297,299.2c0.4,0,0.8-0.1,1.1-0.3c0.4-0.2,0.6-0.5,0.8-0.9c0.2-0.4,0.3-0.9,0.3-1.5
	c0-0.6-0.1-1.1-0.3-1.5c-0.2-0.4-0.5-0.7-0.8-0.9c-0.3-0.2-0.7-0.3-1.1-0.3c-0.4,0-0.8,0.1-1.1,0.3c-0.3,0.2-0.6,0.5-0.8,0.9
	c-0.2,0.4-0.3,0.9-0.3,1.5c0,0.6,0.1,1.1,0.3,1.5c0.2,0.4,0.5,0.7,0.8,0.9C296.3,299.1,296.6,299.2,297,299.2z M302.9,304v-11.5h1.5
	l0.2,1.2c0.3-0.4,0.6-0.7,1.1-1c0.4-0.3,1-0.4,1.7-0.4c0.8,0,1.4,0.2,2,0.5c0.6,0.4,1,0.9,1.4,1.5c0.3,0.6,0.5,1.3,0.5,2.1
	c0,0.8-0.2,1.5-0.5,2.1c-0.3,0.6-0.8,1.1-1.4,1.5c-0.6,0.4-1.3,0.5-2,0.5c-0.6,0-1.2-0.1-1.6-0.4c-0.5-0.2-0.8-0.6-1.1-1v4.7H302.9z
	 M307.1,299.2c0.7,0,1.3-0.2,1.8-0.7c0.5-0.5,0.7-1.2,0.7-2c0-0.5-0.1-1-0.3-1.4c-0.2-0.4-0.5-0.7-0.9-0.9c-0.4-0.2-0.8-0.4-1.3-0.4
	c-0.7,0-1.3,0.3-1.8,0.8c-0.5,0.5-0.7,1.1-0.7,1.9c0,0.8,0.2,1.5,0.7,2C305.8,299,306.4,299.2,307.1,299.2z M313.1,300.5V289h1.7
	v11.5H313.1z M319.7,300.7c-0.7,0-1.2-0.1-1.7-0.3c-0.4-0.2-0.8-0.5-1-0.9c-0.2-0.4-0.3-0.8-0.3-1.2c0-0.8,0.3-1.4,0.9-1.8
	c0.6-0.4,1.5-0.7,2.6-0.7h2.1v-0.1c0-0.6-0.2-1.1-0.5-1.4c-0.3-0.3-0.8-0.5-1.3-0.5c-0.5,0-0.9,0.1-1.2,0.4c-0.3,0.2-0.5,0.6-0.6,1
	h-1.7c0.1-0.6,0.2-1.1,0.6-1.5c0.3-0.4,0.8-0.7,1.3-0.9c0.5-0.2,1.1-0.3,1.7-0.3c1.1,0,2,0.3,2.6,0.9c0.6,0.6,0.9,1.4,0.9,2.4v4.9
	h-1.5l-0.1-1.4c-0.2,0.4-0.5,0.8-1,1.1C320.9,300.5,320.4,300.7,319.7,300.7z M320,299.3c0.5,0,0.8-0.1,1.2-0.3
	c0.3-0.2,0.6-0.5,0.7-0.9c0.2-0.4,0.3-0.8,0.3-1.2h-1.9c-0.7,0-1.2,0.1-1.4,0.4c-0.3,0.2-0.4,0.5-0.4,0.9c0,0.4,0.1,0.7,0.4,0.9
	C319.2,299.2,319.5,299.3,320,299.3z M325.9,300.5v-7.9h1.5l0.1,1.1c0.3-0.4,0.6-0.7,1-1c0.4-0.2,0.9-0.4,1.5-0.4
	c1.3,0,2.1,0.5,2.6,1.5c0.3-0.5,0.7-0.8,1.2-1.1c0.5-0.3,1-0.4,1.6-0.4c1,0,1.8,0.3,2.3,0.9c0.6,0.6,0.8,1.5,0.8,2.7v4.6h-1.7v-4.4
	c0-1.5-0.6-2.3-1.8-2.3c-0.6,0-1.1,0.2-1.5,0.7c-0.4,0.4-0.6,1.1-0.6,1.9v4.1h-1.7v-4.4c0-1.5-0.6-2.3-1.8-2.3
	c-0.6,0-1.1,0.2-1.5,0.7c-0.4,0.4-0.6,1.1-0.6,1.9v4.1H325.9z M347.9,298.1c-0.4,0-0.8,0-1.2-0.1l-0.7,0.7c0.1,0.1,0.3,0.1,0.4,0.2
	c0.2,0.1,0.4,0.1,0.7,0.1c0.3,0,0.7,0.1,1.3,0.1c1.1,0.1,1.8,0.4,2.3,0.8c0.5,0.4,0.7,0.9,0.7,1.6c0,0.5-0.1,0.9-0.4,1.3
	c-0.2,0.4-0.6,0.8-1.2,1c-0.5,0.3-1.2,0.4-2,0.4c-1.1,0-2-0.2-2.7-0.6c-0.7-0.4-1-1.1-1-1.9c0-0.3,0.1-0.7,0.3-1
	c0.2-0.3,0.5-0.6,0.8-0.9c-0.2-0.1-0.4-0.2-0.6-0.3c-0.2-0.1-0.3-0.2-0.4-0.4v-0.4l1.4-1.4c-0.6-0.5-0.9-1.2-0.9-2.1
	c0-0.5,0.1-1,0.4-1.4c0.3-0.4,0.6-0.8,1.1-1c0.5-0.3,1.1-0.4,1.7-0.4c0.4,0,0.9,0.1,1.2,0.2h3v1.1l-1.4,0.1c0.3,0.4,0.4,0.9,0.4,1.5
	s-0.1,1-0.4,1.4c-0.2,0.4-0.6,0.8-1.1,1C349.1,297.9,348.5,298.1,347.9,298.1z M347.9,296.7c0.5,0,0.9-0.1,1.2-0.4
	c0.3-0.3,0.5-0.6,0.5-1.1c0-0.5-0.2-0.9-0.5-1.1c-0.3-0.3-0.7-0.4-1.2-0.4c-0.5,0-0.9,0.1-1.2,0.4c-0.3,0.3-0.4,0.6-0.4,1.1
	c0,0.5,0.1,0.9,0.4,1.1C347,296.6,347.4,296.7,347.9,296.7z M345.7,301.5c0,0.5,0.2,0.8,0.6,1c0.4,0.2,0.9,0.4,1.5,0.4
	c0.6,0,1.1-0.1,1.4-0.4c0.4-0.2,0.5-0.6,0.5-1c0-0.3-0.1-0.6-0.4-0.8c-0.2-0.2-0.7-0.3-1.4-0.4c-0.5,0-1-0.1-1.4-0.1
	c-0.4,0.2-0.6,0.4-0.8,0.7C345.8,301.1,345.7,301.3,345.7,301.5z M357,300.7c-0.8,0-1.5-0.2-2.1-0.5c-0.6-0.4-1.1-0.8-1.4-1.5
	s-0.5-1.3-0.5-2.2c0-0.8,0.2-1.6,0.5-2.2c0.3-0.6,0.8-1.1,1.4-1.5c0.6-0.4,1.3-0.5,2.1-0.5c0.8,0,1.5,0.2,2,0.5
	c0.6,0.3,1,0.8,1.3,1.4s0.5,1.2,0.5,1.9c0,0.1,0,0.2,0,0.4c0,0.1,0,0.3,0,0.4h-6.2c0.1,0.8,0.3,1.4,0.8,1.8c0.5,0.4,1,0.6,1.6,0.6
	c0.5,0,0.9-0.1,1.2-0.3c0.3-0.2,0.6-0.5,0.7-0.9h1.7c-0.2,0.7-0.6,1.4-1.3,1.9C358.7,300.4,357.9,300.7,357,300.7z M357,293.8
	c-0.6,0-1.1,0.2-1.5,0.5c-0.4,0.3-0.7,0.8-0.8,1.5h4.5c0-0.6-0.3-1.1-0.7-1.5C358.1,293.9,357.6,293.8,357,293.8z M362.6,300.5V289
	h1.7v11.5H362.6z M367.4,291.1c-0.3,0-0.6-0.1-0.8-0.3c-0.2-0.2-0.3-0.5-0.3-0.8c0-0.3,0.1-0.5,0.3-0.7c0.2-0.2,0.5-0.3,0.8-0.3
	s0.6,0.1,0.8,0.3c0.2,0.2,0.3,0.4,0.3,0.7c0,0.3-0.1,0.5-0.3,0.8C368,291,367.7,291.1,367.4,291.1z M366.6,300.5v-7.9h1.7v7.9H366.6
	z M370.5,300.5v-7.9h1.5l0.1,1.5c0.3-0.5,0.7-0.9,1.2-1.2c0.5-0.3,1.1-0.5,1.8-0.5v1.8h-0.5c-0.5,0-0.9,0.1-1.3,0.2
	c-0.4,0.1-0.7,0.4-0.9,0.8c-0.2,0.4-0.3,0.9-0.3,1.5v3.8H370.5z M377.5,291.1c-0.3,0-0.6-0.1-0.8-0.3c-0.2-0.2-0.3-0.5-0.3-0.8
	c0-0.3,0.1-0.5,0.3-0.7c0.2-0.2,0.5-0.3,0.8-0.3s0.6,0.1,0.8,0.3c0.2,0.2,0.3,0.4,0.3,0.7c0,0.3-0.1,0.5-0.3,0.8
	C378.1,291,377.9,291.1,377.5,291.1z M376.7,300.5v-7.9h1.7v7.9H376.7z M380.6,300.5v-7.9h1.5l0.1,1.4c0.2-0.5,0.6-0.9,1.1-1.2
	c0.5-0.3,1-0.4,1.6-0.4c1,0,1.7,0.3,2.3,0.9c0.6,0.6,0.8,1.5,0.8,2.7v4.6h-1.7v-4.4c0-1.5-0.6-2.3-1.9-2.3c-0.6,0-1.2,0.2-1.6,0.7
	c-0.4,0.4-0.6,1.1-0.6,1.9v4.1H380.6z M397.8,300.7c-0.8,0-1.4-0.2-2-0.5c-0.6-0.4-1.1-0.8-1.4-1.5c-0.4-0.6-0.5-1.4-0.5-2.2
	s0.2-1.6,0.5-2.2c0.4-0.6,0.8-1.1,1.5-1.5c0.6-0.4,1.3-0.5,2-0.5c0.8,0,1.4,0.2,2,0.5c0.6,0.3,1.1,0.8,1.4,1.5
	c0.4,0.6,0.5,1.3,0.5,2.2s-0.2,1.6-0.5,2.2c-0.4,0.6-0.8,1.1-1.4,1.5C399.3,300.5,398.6,300.7,397.8,300.7z M397.8,299.2
	c0.4,0,0.8-0.1,1.1-0.3c0.4-0.2,0.6-0.5,0.8-0.9c0.2-0.4,0.3-0.9,0.3-1.5c0-0.6-0.1-1.1-0.3-1.5c-0.2-0.4-0.5-0.7-0.8-0.9
	c-0.3-0.2-0.7-0.3-1.1-0.3c-0.4,0-0.8,0.1-1.1,0.3c-0.3,0.2-0.6,0.5-0.8,0.9c-0.2,0.4-0.3,0.9-0.3,1.5c0,0.6,0.1,1.1,0.3,1.5
	c0.2,0.4,0.5,0.7,0.8,0.9C397,299.1,397.4,299.2,397.8,299.2z M403.7,300.5v-7.9h1.5l0.1,1.5c0.3-0.5,0.7-0.9,1.2-1.2
	c0.5-0.3,1.1-0.5,1.8-0.5v1.8h-0.5c-0.5,0-0.9,0.1-1.3,0.2c-0.4,0.1-0.7,0.4-0.9,0.8c-0.2,0.4-0.3,0.9-0.3,1.5v3.8H403.7z
	 M413.1,300.5c-0.8,0-1.4-0.2-1.9-0.6c-0.5-0.4-0.7-1.1-0.7-2V294h-1.4v-1.4h1.4l0.2-2h1.5v2h2.2v1.4h-2.2v3.9
	c0,0.4,0.1,0.7,0.3,0.9c0.2,0.2,0.5,0.2,1,0.2h0.9v1.4H413.1z M418.9,300.7c-0.7,0-1.2-0.1-1.7-0.3c-0.4-0.2-0.8-0.5-1-0.9
	c-0.2-0.4-0.3-0.8-0.3-1.2c0-0.8,0.3-1.4,0.9-1.8c0.6-0.4,1.5-0.7,2.6-0.7h2.1v-0.1c0-0.6-0.2-1.1-0.5-1.4c-0.3-0.3-0.8-0.5-1.3-0.5
	c-0.5,0-0.9,0.1-1.2,0.4c-0.3,0.2-0.5,0.6-0.6,1h-1.7c0.1-0.6,0.2-1.1,0.6-1.5c0.3-0.4,0.8-0.7,1.3-0.9c0.5-0.2,1.1-0.3,1.7-0.3
	c1.1,0,2,0.3,2.6,0.9c0.6,0.6,0.9,1.4,0.9,2.4v4.9h-1.5l-0.1-1.4c-0.2,0.4-0.5,0.8-1,1.1C420.2,300.5,419.6,300.7,418.9,300.7z
	 M419.3,299.3c0.5,0,0.8-0.1,1.2-0.3c0.3-0.2,0.6-0.5,0.7-0.9c0.2-0.4,0.3-0.8,0.3-1.2h-1.9c-0.7,0-1.2,0.1-1.4,0.4
	c-0.3,0.2-0.4,0.5-0.4,0.9c0,0.4,0.1,0.7,0.4,0.9C418.4,299.2,418.8,299.3,419.3,299.3z M425.2,300.5V289h1.7v11.5H425.2z
	 M431.7,300.7c-0.7,0-1.2-0.1-1.7-0.3c-0.4-0.2-0.8-0.5-1-0.9c-0.2-0.4-0.3-0.8-0.3-1.2c0-0.8,0.3-1.4,0.9-1.8
	c0.6-0.4,1.5-0.7,2.6-0.7h2.1v-0.1c0-0.6-0.2-1.1-0.5-1.4c-0.3-0.3-0.8-0.5-1.3-0.5c-0.5,0-0.9,0.1-1.2,0.4c-0.3,0.2-0.6,0.6-0.6,1
	h-1.7c0.1-0.6,0.2-1.1,0.6-1.5c0.3-0.4,0.8-0.7,1.3-0.9c0.5-0.2,1.1-0.3,1.7-0.3c1.1,0,2,0.3,2.6,0.9c0.6,0.6,0.9,1.4,0.9,2.4v4.9
	h-1.5l-0.1-1.4c-0.2,0.4-0.6,0.8-1,1.1C433,300.5,432.4,300.7,431.7,300.7z M432,299.3c0.5,0,0.8-0.1,1.2-0.3
	c0.3-0.2,0.6-0.5,0.7-0.9c0.2-0.4,0.3-0.8,0.3-1.2h-1.9c-0.7,0-1.2,0.1-1.4,0.4c-0.3,0.2-0.4,0.5-0.4,0.9c0,0.4,0.1,0.7,0.4,0.9
	C431.2,299.2,431.6,299.3,432,299.3z M437.9,300.5v-7.9h1.5l0.1,1.1c0.3-0.4,0.6-0.7,1-1c0.4-0.2,0.9-0.4,1.5-0.4
	c1.3,0,2.1,0.5,2.6,1.5c0.3-0.5,0.7-0.8,1.2-1.1c0.5-0.3,1-0.4,1.6-0.4c1,0,1.8,0.3,2.3,0.9c0.6,0.6,0.8,1.5,0.8,2.7v4.6h-1.7v-4.4
	c0-1.5-0.6-2.3-1.8-2.3c-0.6,0-1.1,0.2-1.5,0.7c-0.4,0.4-0.6,1.1-0.6,1.9v4.1h-1.7v-4.4c0-1.5-0.6-2.3-1.8-2.3
	c-0.6,0-1.1,0.2-1.5,0.7c-0.4,0.4-0.6,1.1-0.6,1.9v4.1H437.9z M455.3,300.7c-0.7,0-1.2-0.1-1.7-0.3c-0.4-0.2-0.8-0.5-1-0.9
	c-0.2-0.4-0.3-0.8-0.3-1.2c0-0.8,0.3-1.4,0.9-1.8c0.6-0.4,1.5-0.7,2.6-0.7h2.1v-0.1c0-0.6-0.2-1.1-0.5-1.4c-0.3-0.3-0.8-0.5-1.3-0.5
	c-0.5,0-0.9,0.1-1.2,0.4c-0.3,0.2-0.5,0.6-0.6,1h-1.7c0.1-0.6,0.2-1.1,0.6-1.5c0.3-0.4,0.8-0.7,1.3-0.9c0.5-0.2,1.1-0.3,1.7-0.3
	c1.1,0,2,0.3,2.6,0.9c0.6,0.6,0.9,1.4,0.9,2.4v4.9h-1.5l-0.1-1.4c-0.2,0.4-0.5,0.8-1,1.1C456.5,300.5,456,300.7,455.3,300.7z
	 M455.6,299.3c0.5,0,0.8-0.1,1.2-0.3c0.3-0.2,0.6-0.5,0.7-0.9c0.2-0.4,0.3-0.8,0.3-1.2H456c-0.7,0-1.2,0.1-1.4,0.4
	c-0.3,0.2-0.4,0.5-0.4,0.9c0,0.4,0.1,0.7,0.4,0.9C454.8,299.2,455.2,299.3,455.6,299.3z M466.5,304l1.9-4.2h-0.5l-3.1-7.3h1.8
	l2.4,5.9l2.5-5.9h1.8l-5.1,11.5H466.5z M477.7,300.7c-1,0-1.7-0.3-2.3-0.9c-0.5-0.6-0.8-1.5-0.8-2.7v-4.6h1.7v4.4
	c0,1.5,0.6,2.3,1.9,2.3c0.6,0,1.1-0.2,1.6-0.7c0.4-0.4,0.6-1.1,0.6-1.9v-4.1h1.7v7.9h-1.5l-0.1-1.4c-0.2,0.5-0.6,0.9-1.1,1.2
	C478.9,300.6,478.4,300.7,477.7,300.7z M479.7,291.4c-0.2,0-0.5-0.1-0.6-0.3c-0.2-0.2-0.3-0.4-0.3-0.6c0-0.3,0.1-0.5,0.3-0.6
	c0.2-0.2,0.4-0.3,0.6-0.3c0.2,0,0.5,0.1,0.6,0.3c0.2,0.2,0.3,0.4,0.3,0.6c0,0.2-0.1,0.5-0.3,0.6
	C480.2,291.3,479.9,291.4,479.7,291.4z M477,291.4c-0.3,0-0.5-0.1-0.6-0.3c-0.2-0.2-0.3-0.4-0.3-0.6c0-0.3,0.1-0.5,0.3-0.6
	c0.2-0.2,0.4-0.3,0.6-0.3c0.2,0,0.5,0.1,0.6,0.3c0.2,0.2,0.3,0.4,0.3,0.6c0,0.2-0.1,0.5-0.3,0.6C477.4,291.3,477.2,291.4,477,291.4z
	 M483.7,300.5v-1.4l4.2-5.2h-4.2v-1.4h6.1v1.4l-4.3,5.2h4.4v1.4H483.7z M495.3,300.7c-0.8,0-1.4-0.2-2-0.5c-0.6-0.4-1-0.9-1.4-1.5
	c-0.3-0.6-0.5-1.3-0.5-2.1c0-0.8,0.2-1.5,0.5-2.1c0.3-0.6,0.8-1.1,1.4-1.5c0.6-0.4,1.3-0.5,2-0.5c0.6,0,1.2,0.1,1.6,0.4
	c0.5,0.2,0.9,0.6,1.1,1V289h1.7v11.5h-1.5l-0.2-1.2c-0.3,0.4-0.6,0.7-1.1,1C496.6,300.5,496,300.7,495.3,300.7z M495.6,299.2
	c0.7,0,1.3-0.3,1.8-0.8c0.5-0.5,0.7-1.1,0.7-1.9c0-0.8-0.2-1.4-0.7-1.9c-0.5-0.5-1.1-0.8-1.8-0.8s-1.3,0.3-1.8,0.8
	c-0.5,0.5-0.7,1.1-0.7,1.9c0,0.5,0.1,1,0.3,1.4c0.2,0.4,0.5,0.7,0.9,1C494.7,299.1,495.1,299.2,495.6,299.2z M505.6,300.7
	c-0.8,0-1.5-0.2-2.1-0.5c-0.6-0.4-1.1-0.8-1.4-1.5c-0.3-0.6-0.5-1.3-0.5-2.2c0-0.8,0.2-1.6,0.5-2.2c0.3-0.6,0.8-1.1,1.4-1.5
	c0.6-0.4,1.3-0.5,2.1-0.5c0.8,0,1.5,0.2,2,0.5c0.6,0.3,1,0.8,1.3,1.4c0.3,0.6,0.5,1.2,0.5,1.9c0,0.1,0,0.2,0,0.4c0,0.1,0,0.3,0,0.4
	h-6.2c0.1,0.8,0.3,1.4,0.8,1.8c0.5,0.4,1,0.6,1.6,0.6c0.5,0,0.9-0.1,1.2-0.3c0.3-0.2,0.6-0.5,0.7-0.9h1.7c-0.2,0.7-0.6,1.4-1.3,1.9
	C507.4,300.4,506.6,300.7,505.6,300.7z M505.6,293.8c-0.6,0-1.1,0.2-1.5,0.5c-0.4,0.3-0.7,0.8-0.8,1.5h4.5c0-0.6-0.3-1.1-0.7-1.5
	C506.8,293.9,506.3,293.8,505.6,293.8z M514.4,300.7c-1,0-1.8-0.2-2.5-0.7s-1-1.1-1.1-2h1.7c0.1,0.4,0.3,0.7,0.6,0.9
	c0.3,0.3,0.7,0.4,1.3,0.4c0.5,0,0.9-0.1,1.1-0.3c0.2-0.2,0.4-0.5,0.4-0.7c0-0.4-0.2-0.7-0.5-0.8c-0.3-0.1-0.8-0.3-1.3-0.4
	c-0.4-0.1-0.9-0.2-1.3-0.4c-0.4-0.2-0.8-0.4-1.1-0.7c-0.3-0.3-0.4-0.7-0.4-1.2c0-0.7,0.3-1.3,0.8-1.7c0.5-0.5,1.3-0.7,2.2-0.7
	c0.9,0,1.6,0.2,2.1,0.6c0.6,0.4,0.9,1,1,1.8h-1.6c-0.1-0.3-0.2-0.6-0.5-0.8c-0.3-0.2-0.6-0.3-1-0.3c-0.4,0-0.8,0.1-1,0.3
	c-0.2,0.2-0.4,0.4-0.4,0.7s0.2,0.5,0.5,0.7c0.3,0.2,0.8,0.3,1.3,0.4c0.5,0.1,1,0.3,1.5,0.4c0.5,0.1,0.8,0.4,1.1,0.7
	c0.3,0.3,0.4,0.7,0.4,1.3c0,0.7-0.3,1.3-0.8,1.8C516.2,300.5,515.4,300.7,514.4,300.7z M520.4,291.1c-0.3,0-0.6-0.1-0.8-0.3
	c-0.2-0.2-0.3-0.5-0.3-0.8c0-0.3,0.1-0.5,0.3-0.7c0.2-0.2,0.5-0.3,0.8-0.3c0.3,0,0.6,0.1,0.8,0.3c0.2,0.2,0.3,0.4,0.3,0.7
	c0,0.3-0.1,0.5-0.3,0.8C521,291,520.7,291.1,520.4,291.1z M519.6,300.5v-7.9h1.7v7.9H519.6z"/>
<path class="st21" d="M286.5,440.5V432l-1.6,0.4v-0.8l2-0.9h0.8v9.8H286.5z M293.6,440.7c-0.9,0-1.6-0.2-2.3-0.6
	c-0.6-0.4-1.1-1-1.4-1.8c-0.3-0.8-0.5-1.7-0.5-2.7s0.2-1.9,0.5-2.6c0.3-0.8,0.8-1.4,1.4-1.8c0.6-0.4,1.4-0.6,2.3-0.6
	c0.9,0,1.6,0.2,2.2,0.6c0.6,0.4,1.1,1,1.4,1.8c0.3,0.8,0.5,1.6,0.5,2.6s-0.2,1.9-0.5,2.7c-0.3,0.8-0.8,1.3-1.4,1.8
	C295.2,440.5,294.5,440.7,293.6,440.7z M293.6,439.6c0.6,0,1.1-0.2,1.5-0.5c0.5-0.3,0.8-0.8,1.1-1.4c0.3-0.6,0.4-1.3,0.4-2.2
	s-0.1-1.6-0.4-2.2c-0.3-0.6-0.6-1.1-1.1-1.4c-0.4-0.3-1-0.5-1.5-0.5c-0.6,0-1.1,0.2-1.5,0.5c-0.4,0.3-0.8,0.8-1.1,1.4
	c-0.3,0.6-0.4,1.3-0.4,2.2s0.1,1.6,0.4,2.2c0.3,0.6,0.6,1.1,1.1,1.4C292.5,439.5,293,439.6,293.6,439.6z M299.4,440.5v-10.1h1.2v6.1
	l2.8-2.9h1.4l-3.1,3.1l3.5,3.8h-1.5l-3.2-3.6v3.6H299.4z"/>
<path class="st21" d="M288.9,507.7c-0.7,0-1.3-0.1-1.8-0.4c-0.5-0.2-0.9-0.6-1.2-1c-0.3-0.4-0.5-0.9-0.5-1.5h1.1
	c0.1,0.5,0.4,1,0.8,1.3c0.4,0.3,0.9,0.5,1.6,0.5c0.5,0,0.9-0.1,1.2-0.3c0.3-0.2,0.6-0.5,0.8-0.9c0.2-0.4,0.3-0.8,0.3-1.2
	c0-0.7-0.2-1.3-0.6-1.8c-0.4-0.4-0.9-0.7-1.6-0.7c-0.5,0-1,0.1-1.4,0.4c-0.4,0.2-0.7,0.6-0.8,1h-1.1l0.8-5.4h5.1v1h-4.2l-0.6,3
	c0.2-0.3,0.5-0.5,0.9-0.7c0.4-0.2,0.9-0.3,1.4-0.3c0.6,0,1.2,0.1,1.7,0.4c0.5,0.3,0.9,0.7,1.1,1.2c0.3,0.5,0.4,1.1,0.4,1.8
	c0,0.6-0.1,1.2-0.4,1.7c-0.3,0.5-0.6,1-1.2,1.3C290.2,507.5,289.6,507.7,288.9,507.7z M294,507.5v-10.1h1.2v6.1l2.8-2.9h1.4
	l-3.1,3.1l3.5,3.8h-1.5l-3.2-3.6v3.6H294z"/>
<path class="st3" d="M293.4,328.6c0.8-1.1,2.4-1.1,3.2,0l5.1,6.7c1,1.3,0.1,3.2-1.6,3.2h-10.1c-1.7,0-2.6-1.9-1.6-3.2L293.4,328.6z"
	/>
<path class="st3" d="M316.9,340.5v-13.9l-2.7,0.6v-1.9l3.7-1.6h1.6v16.8H316.9z M324.7,340.5v-13.9l-2.7,0.6v-1.9l3.7-1.6h1.6v16.8
	H324.7z M331.7,340.6c-0.5,0-0.9-0.2-1.2-0.5c-0.3-0.3-0.5-0.7-0.5-1.1c0-0.4,0.2-0.8,0.5-1.1c0.3-0.3,0.7-0.5,1.2-0.5
	c0.5,0,0.9,0.2,1.2,0.5c0.3,0.3,0.5,0.7,0.5,1.1c0,0.4-0.2,0.8-0.5,1.1C332.6,340.5,332.2,340.6,331.7,340.6z M335.6,340.5v-1.8
	c1.1-0.9,2.1-1.7,3.1-2.6s1.9-1.7,2.6-2.6c0.8-0.9,1.4-1.7,1.8-2.5c0.4-0.8,0.7-1.6,0.7-2.4c0-0.5-0.1-1-0.3-1.4
	c-0.2-0.5-0.5-0.8-0.9-1.1c-0.4-0.3-0.9-0.4-1.6-0.4c-1,0-1.8,0.3-2.3,1c-0.5,0.6-0.7,1.4-0.7,2.3h-2.5c0-1.2,0.3-2.2,0.7-3
	c0.5-0.8,1.2-1.4,2-1.8c0.8-0.4,1.8-0.6,2.8-0.6c1.6,0,2.8,0.4,3.8,1.3c1,0.9,1.4,2.1,1.4,3.7c0,0.9-0.2,1.9-0.7,2.8
	c-0.4,0.9-1,1.8-1.8,2.7c-0.7,0.8-1.5,1.6-2.3,2.4c-0.8,0.8-1.6,1.4-2.4,2h7.7v2.1H335.6z M352.9,331.7c-0.8,0-1.4-0.2-2-0.5
	c-0.6-0.3-1.1-0.8-1.4-1.4c-0.4-0.6-0.5-1.4-0.5-2.2c0-0.8,0.2-1.6,0.5-2.2c0.4-0.6,0.8-1.1,1.4-1.4s1.3-0.5,2-0.5
	c0.7,0,1.4,0.2,2,0.5c0.6,0.3,1.1,0.8,1.4,1.4c0.4,0.6,0.5,1.3,0.5,2.2c0,0.9-0.2,1.6-0.5,2.2c-0.4,0.6-0.8,1.1-1.4,1.4
	C354.4,331.5,353.7,331.7,352.9,331.7z M351.7,340.5l9.6-16.8h2.5l-9.6,16.8H351.7z M352.9,329.9c0.5,0,1-0.2,1.3-0.6
	c0.4-0.4,0.6-1,0.6-1.8s-0.2-1.3-0.6-1.7c-0.4-0.4-0.8-0.6-1.3-0.6c-0.5,0-1,0.2-1.3,0.6c-0.4,0.4-0.6,1-0.6,1.7s0.2,1.4,0.6,1.8
	C352,329.7,352.4,329.9,352.9,329.9z M362.8,340.8c-0.8,0-1.4-0.2-2-0.5c-0.6-0.3-1.1-0.8-1.4-1.4c-0.4-0.6-0.5-1.4-0.5-2.2
	c0-0.8,0.2-1.6,0.5-2.2c0.4-0.6,0.8-1.1,1.4-1.4s1.3-0.5,2-0.5c0.7,0,1.4,0.2,2,0.5c0.6,0.3,1.1,0.8,1.4,1.4
	c0.4,0.6,0.5,1.4,0.5,2.2c0,0.9-0.2,1.6-0.5,2.2c-0.4,0.6-0.8,1.1-1.4,1.4C364.2,340.6,363.6,340.8,362.8,340.8z M362.8,338.9
	c0.5,0,1-0.2,1.3-0.6c0.4-0.4,0.6-1,0.6-1.7c0-0.8-0.2-1.3-0.6-1.7c-0.4-0.4-0.8-0.6-1.3-0.6c-0.5,0-1,0.2-1.3,0.6
	c-0.4,0.4-0.6,1-0.6,1.7c0,0.8,0.2,1.3,0.6,1.7C361.8,338.7,362.3,338.9,362.8,338.9z"/>
<rect x="325.5" y="410.5" class="st22" width="38" height="100"/>
<rect x="363.5" y="435.5" class="st23" width="38" height="75"/>
<rect x="426.5" y="455.5" class="st22" width="38" height="55"/>
<rect x="464.5" y="420.5" class="st23" width="38" height="90"/>
<path class="st24" d="M336.2,497.5v-7h1.3v7H336.2z M338.8,497.5v-7h1.3l3.3,4.9v-4.9h1.3v7h-1.3l-3.3-4.9v4.9H338.8z M349.2,497.6
	c-0.7,0-1.3-0.1-1.8-0.4c-0.5-0.3-0.9-0.7-1.2-1.3c-0.3-0.5-0.4-1.2-0.4-1.9c0-0.7,0.1-1.3,0.4-1.9c0.3-0.5,0.7-1,1.2-1.3
	c0.5-0.3,1.1-0.5,1.8-0.5c0.8,0,1.5,0.2,2.1,0.6c0.5,0.4,0.9,1,1,1.8h-1.4c-0.1-0.4-0.3-0.7-0.6-0.9c-0.3-0.2-0.7-0.3-1.1-0.3
	c-0.6,0-1.2,0.2-1.5,0.7c-0.4,0.4-0.5,1-0.5,1.8s0.2,1.4,0.5,1.8c0.4,0.4,0.9,0.6,1.5,0.6c0.5,0,0.8-0.1,1.1-0.3
	c0.3-0.2,0.5-0.5,0.6-0.9h1.4c-0.1,0.7-0.5,1.3-1,1.7C350.7,497.4,350,497.6,349.2,497.6z"/>
<path class="st24" d="M374.2,497.5v-7h4.6v1h-3.3v1.9h3v1h-3v2h3.3v1H374.2z M379.6,497.5l2.2-3.5l-2.2-3.5h1.5l1.6,2.4l1.4-2.4h1.4
	l-2.2,3.5l2.2,3.5h-1.5l-1.6-2.5l-1.4,2.5H379.6z M386.6,497.5v-7h2.6c0.6,0,1,0.1,1.4,0.3s0.6,0.4,0.8,0.8c0.2,0.3,0.3,0.7,0.3,1.1
	c0,0.4-0.1,0.7-0.3,1.1c-0.2,0.3-0.4,0.6-0.8,0.8c-0.4,0.2-0.8,0.3-1.4,0.3h-1.3v2.7H386.6z M387.8,493.8h1.2c0.4,0,0.8-0.1,1-0.3
	c0.2-0.2,0.3-0.5,0.3-0.8c0-0.3-0.1-0.6-0.3-0.8c-0.2-0.2-0.5-0.3-1-0.3h-1.2V493.8z"/>
<path class="st24" d="M437.2,497.5v-7h1.3v7H437.2z M439.8,497.5v-7h1.3l3.3,4.9v-4.9h1.3v7h-1.3l-3.3-4.9v4.9H439.8z M450.2,497.6
	c-0.7,0-1.3-0.1-1.8-0.4c-0.5-0.3-0.9-0.7-1.2-1.3c-0.3-0.5-0.4-1.2-0.4-1.9c0-0.7,0.1-1.3,0.4-1.9c0.3-0.5,0.7-1,1.2-1.3
	c0.5-0.3,1.1-0.5,1.8-0.5c0.8,0,1.5,0.2,2.1,0.6c0.5,0.4,0.9,1,1,1.8h-1.4c-0.1-0.4-0.3-0.7-0.6-0.9c-0.3-0.2-0.7-0.3-1.1-0.3
	c-0.6,0-1.2,0.2-1.5,0.7c-0.4,0.4-0.5,1-0.5,1.8s0.2,1.4,0.5,1.8c0.4,0.4,0.9,0.6,1.5,0.6c0.5,0,0.8-0.1,1.1-0.3
	c0.3-0.2,0.5-0.5,0.6-0.9h1.4c-0.1,0.7-0.5,1.3-1,1.7C451.7,497.4,451,497.6,450.2,497.6z"/>
<path class="st24" d="M475.2,497.5v-7h4.6v1h-3.3v1.9h3v1h-3v2h3.3v1H475.2z M480.6,497.5l2.2-3.5l-2.2-3.5h1.5l1.6,2.4l1.4-2.4h1.4
	l-2.2,3.5l2.2,3.5h-1.5l-1.6-2.5l-1.4,2.5H480.6z M487.6,497.5v-7h2.6c0.6,0,1,0.1,1.4,0.3s0.6,0.4,0.8,0.8c0.2,0.3,0.3,0.7,0.3,1.1
	c0,0.4-0.1,0.7-0.3,1.1c-0.2,0.3-0.4,0.6-0.8,0.8c-0.4,0.2-0.8,0.3-1.4,0.3h-1.3v2.7H487.6z M488.8,493.8h1.2c0.4,0,0.8-0.1,1-0.3
	c0.2-0.2,0.3-0.5,0.3-0.8c0-0.3-0.1-0.6-0.3-0.8c-0.2-0.2-0.5-0.3-1-0.3h-1.2V493.8z"/>
<path class="st21" d="M289.8,375.7c-0.9,0-1.7-0.2-2.4-0.6c-0.7-0.4-1.2-1-1.6-1.8c-0.4-0.8-0.6-1.6-0.6-2.6c0-1,0.2-1.9,0.6-2.6
	c0.4-0.8,0.9-1.4,1.7-1.8c0.7-0.4,1.6-0.6,2.5-0.6c1.1,0,2,0.3,2.7,0.8c0.7,0.5,1.2,1.3,1.4,2.2h-1.4c-0.1-0.6-0.4-1.1-0.9-1.4
	c-0.5-0.3-1.1-0.5-1.9-0.5c-0.7,0-1.3,0.2-1.9,0.5c-0.5,0.3-0.9,0.8-1.2,1.4c-0.3,0.6-0.4,1.3-0.4,2.1c0,0.8,0.1,1.5,0.4,2.1
	c0.3,0.6,0.7,1.1,1.2,1.4c0.5,0.3,1.1,0.5,1.8,0.5c1,0,1.8-0.3,2.4-0.9c0.5-0.6,0.8-1.5,0.9-2.5h-2.8v-0.9h4v5.2h-1.1l-0.1-1.6
	c-0.4,0.6-0.8,1-1.3,1.3C291.3,375.5,290.6,375.7,289.8,375.7z M299.2,375.7c-0.7,0-1.3-0.1-1.8-0.4c-0.5-0.3-0.9-0.7-1.2-1.3
	c-0.3-0.5-0.4-1.2-0.4-1.9c0-0.7,0.1-1.4,0.4-1.9c0.3-0.6,0.7-1,1.2-1.3c0.5-0.3,1.1-0.5,1.8-0.5c0.7,0,1.3,0.2,1.7,0.5
	c0.5,0.3,0.9,0.7,1.1,1.2c0.3,0.5,0.4,1,0.4,1.6c0,0.1,0,0.2,0,0.3c0,0.1,0,0.2,0,0.4h-5.5c0,0.5,0.1,1,0.4,1.3
	c0.2,0.3,0.5,0.6,0.8,0.8c0.3,0.2,0.7,0.3,1.1,0.3c0.5,0,0.9-0.1,1.2-0.3c0.3-0.2,0.6-0.5,0.7-0.9h1.2c-0.2,0.6-0.5,1.2-1.1,1.6
	C300.7,375.5,300,375.7,299.2,375.7z M299.2,369.4c-0.6,0-1.1,0.2-1.5,0.5c-0.4,0.3-0.7,0.8-0.7,1.5h4.4c0-0.6-0.2-1.1-0.6-1.5
	C300.3,369.6,299.8,369.4,299.2,369.4z M307.2,375.7c-0.7,0-1.3-0.1-1.8-0.4c-0.5-0.3-0.9-0.7-1.2-1.3c-0.3-0.6-0.4-1.2-0.4-1.9
	c0-0.7,0.1-1.4,0.4-1.9c0.3-0.6,0.7-1,1.2-1.3c0.5-0.3,1.1-0.5,1.8-0.5c0.8,0,1.5,0.2,2.1,0.6c0.6,0.4,0.9,1,1.1,1.7h-1.2
	c-0.1-0.4-0.3-0.8-0.7-1c-0.4-0.2-0.8-0.4-1.3-0.4c-0.4,0-0.8,0.1-1.1,0.3c-0.3,0.2-0.6,0.5-0.8,0.9c-0.2,0.4-0.3,0.9-0.3,1.5
	c0,0.6,0.1,1.1,0.3,1.5c0.2,0.4,0.5,0.7,0.8,0.9c0.3,0.2,0.7,0.3,1.1,0.3c0.5,0,0.9-0.1,1.3-0.4c0.4-0.2,0.6-0.6,0.7-1h1.2
	c-0.1,0.7-0.5,1.3-1.1,1.7C308.7,375.4,308,375.7,307.2,375.7z M306.2,379.1v-0.7h1.3c0.6,0,1-0.2,1-0.7c0-0.4-0.3-0.6-1-0.6h-0.7
	v-1.7h0.8v1c0.5,0,1,0.1,1.3,0.3s0.5,0.6,0.5,1c0,0.4-0.2,0.8-0.5,1c-0.3,0.3-0.7,0.4-1.2,0.4H306.2z M315.1,375.7
	c-0.7,0-1.3-0.1-1.8-0.4c-0.5-0.3-0.9-0.7-1.2-1.3c-0.3-0.5-0.4-1.2-0.4-1.9c0-0.7,0.1-1.4,0.4-1.9c0.3-0.6,0.7-1,1.2-1.3
	c0.5-0.3,1.1-0.5,1.8-0.5c0.7,0,1.3,0.2,1.7,0.5c0.5,0.3,0.9,0.7,1.1,1.2c0.3,0.5,0.4,1,0.4,1.6c0,0.1,0,0.2,0,0.3
	c0,0.1,0,0.2,0,0.4h-5.5c0,0.5,0.1,1,0.4,1.3c0.2,0.3,0.5,0.6,0.8,0.8c0.3,0.2,0.7,0.3,1.1,0.3c0.5,0,0.9-0.1,1.2-0.3
	c0.3-0.2,0.6-0.5,0.7-0.9h1.2c-0.2,0.6-0.5,1.2-1.1,1.6C316.6,375.5,316,375.7,315.1,375.7z M315.1,369.4c-0.6,0-1.1,0.2-1.5,0.5
	c-0.4,0.3-0.7,0.8-0.7,1.5h4.4c0-0.6-0.2-1.1-0.6-1.5C316.2,369.6,315.7,369.4,315.1,369.4z M320,375.5v-6.9h1.1l0.1,1.2
	c0.2-0.4,0.5-0.8,1-1c0.4-0.3,0.9-0.4,1.4-0.4c0.8,0,1.5,0.3,2,0.8c0.5,0.5,0.7,1.3,0.7,2.3v4.1H325v-3.9c0-1.4-0.6-2.2-1.8-2.2
	c-0.6,0-1.1,0.2-1.5,0.7c-0.4,0.4-0.6,1-0.6,1.8v3.6H320z M331.7,375.5v-10.1h1.2v4.3c0.2-0.4,0.6-0.8,1-1c0.4-0.2,0.9-0.4,1.4-0.4
	c0.8,0,1.4,0.3,1.9,0.8c0.5,0.5,0.7,1.3,0.7,2.3v4.1h-1.2v-3.9c0-1.4-0.6-2.2-1.8-2.2c-0.6,0-1.1,0.2-1.5,0.7
	c-0.4,0.4-0.6,1-0.6,1.8v3.6H331.7z M342,375.7c-0.6,0-1.1-0.1-1.4-0.3c-0.4-0.2-0.7-0.5-0.9-0.8c-0.2-0.3-0.3-0.7-0.3-1.1
	c0-0.7,0.3-1.3,0.8-1.6c0.5-0.4,1.3-0.6,2.2-0.6h1.9v-0.1c0-0.6-0.2-1.1-0.5-1.4c-0.3-0.3-0.7-0.5-1.3-0.5c-0.5,0-0.9,0.1-1.2,0.4
	c-0.3,0.2-0.5,0.6-0.6,1h-1.2c0-0.5,0.2-0.9,0.5-1.3c0.3-0.3,0.7-0.6,1.1-0.8c0.4-0.2,0.9-0.3,1.4-0.3c1,0,1.7,0.3,2.2,0.8
	c0.5,0.5,0.7,1.2,0.7,2.1v4.3h-1l-0.1-1.2c-0.2,0.4-0.5,0.7-0.9,1C343.2,375.5,342.7,375.7,342,375.7z M342.2,374.7
	c0.4,0,0.8-0.1,1.1-0.4c0.3-0.2,0.6-0.5,0.7-0.9c0.2-0.4,0.3-0.8,0.3-1.2v0h-1.8c-0.7,0-1.2,0.1-1.5,0.4c-0.3,0.2-0.4,0.5-0.4,0.9
	c0,0.4,0.1,0.7,0.4,0.9C341.3,374.6,341.7,374.7,342.2,374.7z M347.7,375.5v-6h-1v-1h1v-1.2c0-0.7,0.2-1.2,0.5-1.5
	c0.3-0.3,0.8-0.5,1.5-0.5h0.7v1h-0.5c-0.4,0-0.6,0.1-0.8,0.2c-0.1,0.1-0.2,0.4-0.2,0.7v1.2h1.7v1h-1.7v6H347.7z M354.7,375.5
	c-0.6,0-1.1-0.2-1.5-0.5c-0.4-0.3-0.5-0.9-0.5-1.7v-3.8h-1.2v-1h1.2l0.2-1.7h1v1.7h2v1h-2v3.8c0,0.4,0.1,0.7,0.3,0.9
	c0.2,0.1,0.5,0.2,0.9,0.2h0.7v1H354.7z M359.7,375.7c-0.6,0-1.1-0.1-1.4-0.3c-0.4-0.2-0.7-0.5-0.9-0.8c-0.2-0.3-0.3-0.7-0.3-1.1
	c0-0.7,0.3-1.3,0.8-1.6c0.5-0.4,1.3-0.6,2.2-0.6h1.9v-0.1c0-0.6-0.2-1.1-0.5-1.4c-0.3-0.3-0.7-0.5-1.3-0.5c-0.5,0-0.9,0.1-1.2,0.4
	c-0.3,0.2-0.5,0.6-0.6,1h-1.2c0-0.5,0.2-0.9,0.5-1.3c0.3-0.3,0.7-0.6,1.1-0.8c0.4-0.2,0.9-0.3,1.4-0.3c1,0,1.7,0.3,2.2,0.8
	c0.5,0.5,0.7,1.2,0.7,2.1v4.3h-1l-0.1-1.2c-0.2,0.4-0.5,0.7-0.9,1C360.8,375.5,360.3,375.7,359.7,375.7z M359.9,374.7
	c0.4,0,0.8-0.1,1.1-0.4c0.3-0.2,0.6-0.5,0.7-0.9c0.2-0.4,0.3-0.8,0.3-1.2v0h-1.8c-0.7,0-1.2,0.1-1.5,0.4c-0.3,0.2-0.4,0.5-0.4,0.9
	c0,0.4,0.1,0.7,0.4,0.9C359,374.6,359.4,374.7,359.9,374.7z M369.4,367c-0.2,0-0.4-0.1-0.6-0.2c-0.1-0.2-0.2-0.4-0.2-0.6
	c0-0.2,0.1-0.4,0.2-0.6c0.2-0.1,0.4-0.2,0.6-0.2c0.2,0,0.4,0.1,0.6,0.2c0.2,0.1,0.2,0.3,0.2,0.6c0,0.2-0.1,0.4-0.2,0.6
	C369.8,366.9,369.6,367,369.4,367z M368.8,375.5v-6.9h1.2v6.9H368.8z M372,375.5v-10.1h1.2v10.1H372z M378.2,375.7
	c-0.7,0-1.3-0.1-1.8-0.4c-0.5-0.3-0.9-0.7-1.2-1.3c-0.3-0.5-0.4-1.2-0.4-1.9c0-0.7,0.1-1.4,0.4-1.9c0.3-0.6,0.7-1,1.2-1.3
	c0.5-0.3,1.1-0.5,1.8-0.5c0.7,0,1.3,0.2,1.7,0.5c0.5,0.3,0.9,0.7,1.1,1.2c0.3,0.5,0.4,1,0.4,1.6c0,0.1,0,0.2,0,0.3
	c0,0.1,0,0.2,0,0.4H376c0,0.5,0.1,1,0.4,1.3c0.2,0.3,0.5,0.6,0.8,0.8c0.3,0.2,0.7,0.3,1.1,0.3c0.5,0,0.9-0.1,1.2-0.3
	c0.3-0.2,0.6-0.5,0.7-0.9h1.2c-0.2,0.6-0.5,1.2-1.1,1.6C379.7,375.5,379,375.7,378.2,375.7z M378.2,369.4c-0.6,0-1.1,0.2-1.5,0.5
	c-0.4,0.3-0.7,0.8-0.7,1.5h4.4c0-0.6-0.2-1.1-0.6-1.5C379.3,369.6,378.8,369.4,378.2,369.4z M386.8,375.5v-10.1h1.2v6.1l2.8-2.9h1.4
	l-3.1,3.1l3.5,3.8h-1.5l-3.2-3.6v3.6H386.8z M396.1,375.7c-0.6,0-1.1-0.1-1.4-0.3c-0.4-0.2-0.7-0.5-0.9-0.8
	c-0.2-0.3-0.3-0.7-0.3-1.1c0-0.7,0.3-1.3,0.8-1.6c0.5-0.4,1.3-0.6,2.2-0.6h1.9v-0.1c0-0.6-0.2-1.1-0.5-1.4c-0.3-0.3-0.7-0.5-1.3-0.5
	c-0.5,0-0.9,0.1-1.2,0.4c-0.3,0.2-0.5,0.6-0.6,1h-1.2c0-0.5,0.2-0.9,0.5-1.3c0.3-0.3,0.7-0.6,1.1-0.8c0.4-0.2,0.9-0.3,1.4-0.3
	c1,0,1.7,0.3,2.2,0.8c0.5,0.5,0.7,1.2,0.7,2.1v4.3h-1l-0.1-1.2c-0.2,0.4-0.5,0.7-0.9,1C397.2,375.5,396.7,375.7,396.1,375.7z
	 M396.3,374.7c0.4,0,0.8-0.1,1.1-0.4c0.3-0.2,0.6-0.5,0.7-0.9c0.2-0.4,0.3-0.8,0.3-1.2v0h-1.8c-0.7,0-1.2,0.1-1.5,0.4
	c-0.3,0.2-0.4,0.5-0.4,0.9c0,0.4,0.1,0.7,0.4,0.9C395.4,374.6,395.8,374.7,396.3,374.7z M401.3,375.5v-6.9h1.1l0.1,1.3
	c0.2-0.5,0.5-0.8,1-1.1c0.4-0.3,1-0.4,1.6-0.4v1.2h-0.3c-0.4,0-0.8,0.1-1.1,0.2c-0.3,0.1-0.6,0.4-0.8,0.7c-0.2,0.3-0.3,0.8-0.3,1.4
	v3.5H401.3z M409.1,375.7c-0.8,0-1.5-0.2-2.1-0.6c-0.6-0.4-0.9-1-1-1.7h1.2c0.1,0.4,0.3,0.7,0.6,1c0.3,0.3,0.7,0.4,1.3,0.4
	c0.5,0,0.9-0.1,1.1-0.3c0.2-0.2,0.4-0.5,0.4-0.8c0-0.4-0.2-0.7-0.5-0.8c-0.3-0.1-0.7-0.3-1.3-0.4c-0.4-0.1-0.7-0.2-1.1-0.3
	c-0.4-0.1-0.7-0.3-0.9-0.6c-0.3-0.3-0.4-0.6-0.4-1c0-0.6,0.2-1.1,0.7-1.5c0.5-0.4,1.1-0.6,1.8-0.6c0.7,0,1.3,0.2,1.8,0.6
	c0.5,0.4,0.8,0.9,0.8,1.6h-1.2c0-0.4-0.2-0.6-0.5-0.8c-0.3-0.2-0.6-0.3-1-0.3c-0.4,0-0.7,0.1-1,0.3c-0.2,0.2-0.3,0.4-0.3,0.7
	c0,0.3,0.1,0.5,0.4,0.7c0.3,0.2,0.7,0.3,1.2,0.4c0.4,0.1,0.8,0.2,1.2,0.4c0.4,0.1,0.7,0.3,1,0.6c0.3,0.3,0.4,0.6,0.4,1.1
	c0,0.6-0.2,1.1-0.7,1.6C410.6,375.5,409.9,375.7,409.1,375.7z M408,379.1v-0.7h1.3c0.6,0,1-0.2,1-0.7c0-0.4-0.3-0.6-1-0.6h-0.7v-1.7
	h0.8v1c0.5,0,1,0.1,1.3,0.3s0.5,0.6,0.5,1c0,0.4-0.2,0.8-0.5,1c-0.3,0.3-0.7,0.4-1.2,0.4H408z M413.4,375.5v-6.9h1.2v6.9H413.4z
	 M416.5,375.5v-10.1h1.2v10.1H416.5z M422,375.7c-0.6,0-1.1-0.1-1.4-0.3c-0.4-0.2-0.7-0.5-0.9-0.8c-0.2-0.3-0.3-0.7-0.3-1.1
	c0-0.7,0.3-1.3,0.8-1.6c0.5-0.4,1.3-0.6,2.2-0.6h1.9v-0.1c0-0.6-0.2-1.1-0.5-1.4c-0.3-0.3-0.7-0.5-1.3-0.5c-0.5,0-0.9,0.1-1.2,0.4
	c-0.3,0.2-0.5,0.6-0.6,1h-1.2c0-0.5,0.2-0.9,0.5-1.3c0.3-0.3,0.7-0.6,1.1-0.8c0.4-0.2,0.9-0.3,1.4-0.3c1,0,1.7,0.3,2.2,0.8
	c0.5,0.5,0.7,1.2,0.7,2.1v4.3h-1l-0.1-1.2c-0.2,0.4-0.5,0.7-0.9,1C423.1,375.5,422.6,375.7,422,375.7z M422.1,374.7
	c0.4,0,0.8-0.1,1.1-0.4c0.3-0.2,0.6-0.5,0.7-0.9c0.2-0.4,0.3-0.8,0.3-1.2v0h-1.8c-0.7,0-1.2,0.1-1.5,0.4c-0.3,0.2-0.4,0.5-0.4,0.9
	c0,0.4,0.1,0.7,0.4,0.9C421.3,374.6,421.6,374.7,422.1,374.7z M429.9,375.7c-0.8,0-1.5-0.2-2.1-0.6c-0.6-0.4-0.9-1-1-1.7h1.2
	c0.1,0.4,0.3,0.7,0.6,1c0.3,0.3,0.7,0.4,1.3,0.4c0.5,0,0.9-0.1,1.1-0.3c0.2-0.2,0.4-0.5,0.4-0.8c0-0.4-0.2-0.7-0.5-0.8
	c-0.3-0.1-0.7-0.3-1.3-0.4c-0.4-0.1-0.7-0.2-1.1-0.3c-0.4-0.1-0.7-0.3-0.9-0.6c-0.3-0.3-0.4-0.6-0.4-1c0-0.6,0.2-1.1,0.7-1.5
	c0.5-0.4,1.1-0.6,1.8-0.6c0.7,0,1.3,0.2,1.8,0.6c0.5,0.4,0.8,0.9,0.8,1.6h-1.2c0-0.4-0.2-0.6-0.5-0.8c-0.3-0.2-0.6-0.3-1-0.3
	c-0.4,0-0.7,0.1-1,0.3c-0.2,0.2-0.3,0.4-0.3,0.7c0,0.3,0.1,0.5,0.4,0.7c0.3,0.2,0.7,0.3,1.2,0.4c0.4,0.1,0.8,0.2,1.2,0.4
	c0.4,0.1,0.7,0.3,1,0.6c0.3,0.3,0.4,0.6,0.4,1.1c0,0.6-0.2,1.1-0.7,1.6C431.3,375.5,430.7,375.7,429.9,375.7z M428.8,379.1v-0.7h1.3
	c0.6,0,1-0.2,1-0.7c0-0.4-0.3-0.6-1-0.6h-0.7v-1.7h0.8v1c0.5,0,1,0.1,1.3,0.3c0.3,0.2,0.5,0.6,0.5,1c0,0.4-0.2,0.8-0.5,1
	c-0.3,0.3-0.7,0.4-1.2,0.4H428.8z M436.6,375.5c-0.6,0-1.1-0.2-1.5-0.5c-0.4-0.3-0.5-0.9-0.5-1.7v-3.8h-1.2v-1h1.2l0.2-1.7h1v1.7h2
	v1h-2v3.8c0,0.4,0.1,0.7,0.3,0.9c0.2,0.1,0.5,0.2,0.9,0.2h0.7v1H436.6z M439.3,375.5v-6.9h1.2v6.9H439.3z M442.4,375.5v-6.9h1.1
	l0.1,1.3c0.2-0.5,0.5-0.8,1-1.1s1-0.4,1.6-0.4v1.2h-0.3c-0.4,0-0.8,0.1-1.1,0.2c-0.3,0.1-0.6,0.4-0.8,0.7c-0.2,0.3-0.3,0.8-0.3,1.4
	v3.5H442.4z M447.5,375.5v-6.9h1.2v6.9H447.5z M450.6,375.5v-10.1h1.2v10.1H450.6z M456.9,375.7c-0.7,0-1.3-0.2-1.8-0.5
	c-0.5-0.3-0.9-0.8-1.2-1.3c-0.3-0.6-0.4-1.2-0.4-1.9c0-0.7,0.1-1.3,0.4-1.9c0.3-0.6,0.7-1,1.2-1.3c0.5-0.3,1.1-0.5,1.8-0.5
	c0.6,0,1.1,0.1,1.5,0.4s0.8,0.6,1,1v-4.3h1.2v10.1h-1.1l-0.1-1.1c-0.2,0.3-0.5,0.6-1,0.9C458,375.5,457.5,375.7,456.9,375.7z
	 M457,374.6c0.5,0,0.9-0.1,1.2-0.3c0.4-0.2,0.6-0.5,0.8-0.9c0.2-0.4,0.3-0.8,0.3-1.4c0-0.5-0.1-1-0.3-1.4c-0.2-0.4-0.5-0.7-0.8-0.9
	c-0.4-0.2-0.8-0.3-1.2-0.3c-0.5,0-0.9,0.1-1.2,0.3c-0.4,0.2-0.6,0.5-0.8,0.9c-0.2,0.4-0.3,0.8-0.3,1.4c0,0.5,0.1,1,0.3,1.4
	c0.2,0.4,0.5,0.7,0.8,0.9C456.1,374.5,456.5,374.6,457,374.6z M462.5,375.5v-6.9h1.2v6.9H462.5z M468.4,373.3
	c-0.4,0-0.8-0.1-1.1-0.2l-0.7,0.7c0.1,0.1,0.2,0.1,0.4,0.2c0.2,0,0.4,0.1,0.7,0.1c0.3,0,0.7,0.1,1.2,0.1c0.9,0.1,1.6,0.3,2,0.6
	c0.4,0.4,0.6,0.8,0.6,1.4c0,0.4-0.1,0.8-0.3,1.1c-0.2,0.4-0.6,0.7-1,0.9c-0.4,0.2-1,0.3-1.7,0.3c-0.6,0-1.2-0.1-1.7-0.3
	c-0.5-0.2-0.9-0.4-1.1-0.7c-0.3-0.3-0.4-0.7-0.4-1.2c0-0.3,0.1-0.5,0.2-0.9c0.1-0.3,0.4-0.6,0.8-0.9c-0.2-0.1-0.4-0.2-0.5-0.3
	c-0.1-0.1-0.3-0.2-0.4-0.3v-0.3l1.2-1.2c-0.6-0.5-0.8-1.1-0.8-1.8c0-0.5,0.1-0.9,0.3-1.2c0.2-0.4,0.5-0.7,0.9-0.9
	c0.4-0.2,0.9-0.3,1.5-0.3c0.4,0,0.8,0.1,1.1,0.2h2.6v0.9l-1.3,0.1c0.3,0.4,0.4,0.8,0.4,1.4c0,0.5-0.1,0.9-0.3,1.2
	c-0.2,0.4-0.5,0.7-0.9,0.9C469.4,373.2,468.9,373.3,468.4,373.3z M468.4,372.4c0.5,0,0.9-0.1,1.2-0.4c0.3-0.3,0.4-0.6,0.4-1.1
	c0-0.5-0.1-0.8-0.4-1.1c-0.3-0.3-0.7-0.4-1.2-0.4c-0.5,0-0.9,0.1-1.2,0.4c-0.3,0.3-0.4,0.6-0.4,1.1c0,0.5,0.1,0.9,0.4,1.1
	C467.4,372.2,467.8,372.4,468.4,372.4z M466.3,376.4c0,0.5,0.2,0.8,0.6,1c0.4,0.2,0.9,0.4,1.5,0.4c0.6,0,1-0.1,1.4-0.4
	c0.4-0.3,0.5-0.6,0.5-1c0-0.3-0.1-0.6-0.4-0.8c-0.2-0.2-0.7-0.3-1.3-0.4c-0.5,0-1-0.1-1.3-0.1c-0.4,0.2-0.6,0.4-0.8,0.7
	C466.4,376,466.3,376.2,466.3,376.4z M468.4,367.8c-0.6,0-1.1-0.2-1.5-0.5c-0.3-0.4-0.5-0.8-0.5-1.3v-0.2h0.7c0,0.3,0.1,0.6,0.3,0.8
	c0.2,0.2,0.5,0.3,1,0.3s0.8-0.1,1-0.3c0.2-0.2,0.3-0.5,0.3-0.8h0.7v0.2c0,0.5-0.2,0.9-0.5,1.3C469.5,367.6,469,367.8,468.4,367.8z
	 M473.3,375.5v-6.9h1.2v6.9H473.3z M476.4,375.5v-6.9h1.1l0.1,1.2c0.2-0.4,0.5-0.8,1-1c0.4-0.3,0.9-0.4,1.4-0.4c0.8,0,1.5,0.3,2,0.8
	c0.5,0.5,0.7,1.3,0.7,2.3v4.1h-1.2v-3.9c0-1.4-0.6-2.2-1.8-2.2c-0.6,0-1.1,0.2-1.5,0.7c-0.4,0.4-0.6,1-0.6,1.8v3.6H476.4z
	 M487.6,375.7c-0.7,0-1.3-0.2-1.8-0.5c-0.5-0.3-0.9-0.8-1.2-1.3c-0.3-0.6-0.4-1.2-0.4-1.9c0-0.7,0.1-1.3,0.4-1.9
	c0.3-0.6,0.7-1,1.2-1.3c0.5-0.3,1.1-0.5,1.8-0.5c0.6,0,1.1,0.1,1.5,0.4c0.4,0.2,0.8,0.6,1,1v-4.3h1.2v10.1h-1.1l-0.1-1.1
	c-0.2,0.3-0.5,0.6-1,0.9C488.8,375.5,488.2,375.7,487.6,375.7z M487.7,374.6c0.5,0,0.9-0.1,1.2-0.3c0.4-0.2,0.6-0.5,0.8-0.9
	c0.2-0.4,0.3-0.8,0.3-1.4c0-0.5-0.1-1-0.3-1.4c-0.2-0.4-0.5-0.7-0.8-0.9c-0.4-0.2-0.8-0.3-1.2-0.3c-0.5,0-0.9,0.1-1.2,0.3
	c-0.4,0.2-0.6,0.5-0.8,0.9c-0.2,0.4-0.3,0.8-0.3,1.4c0,0.5,0.1,1,0.3,1.4c0.2,0.4,0.5,0.7,0.8,0.9
	C486.9,374.5,487.3,374.6,487.7,374.6z M495.5,375.7c-0.6,0-1.1-0.1-1.4-0.3c-0.4-0.2-0.7-0.5-0.9-0.8c-0.2-0.3-0.3-0.7-0.3-1.1
	c0-0.7,0.3-1.3,0.8-1.6c0.5-0.4,1.3-0.6,2.2-0.6h1.9v-0.1c0-0.6-0.2-1.1-0.5-1.4c-0.3-0.3-0.7-0.5-1.3-0.5c-0.5,0-0.9,0.1-1.2,0.4
	c-0.3,0.2-0.5,0.6-0.6,1h-1.2c0-0.5,0.2-0.9,0.5-1.3c0.3-0.3,0.7-0.6,1.1-0.8c0.4-0.2,0.9-0.3,1.4-0.3c1,0,1.7,0.3,2.2,0.8
	c0.5,0.5,0.7,1.2,0.7,2.1v4.3h-1l-0.1-1.2c-0.2,0.4-0.5,0.7-0.9,1C496.7,375.5,496.2,375.7,495.5,375.7z M495.7,374.7
	c0.4,0,0.8-0.1,1.1-0.4c0.3-0.2,0.6-0.5,0.7-0.9c0.2-0.4,0.3-0.8,0.3-1.2v0h-1.8c-0.7,0-1.2,0.1-1.5,0.4c-0.3,0.2-0.4,0.5-0.4,0.9
	c0,0.4,0.1,0.7,0.4,0.9C494.9,374.6,495.2,374.7,495.7,374.7z"/>
</svg>
