<svg width="590" height="450" viewBox="0 0 590 450" fill="none" xmlns="http://www.w3.org/2000/svg">
<g opacity="0.5">
<g clip-path="url(#clip0)">
<path d="M590 396.024H0V396.319H590V396.024Z" fill="#2A2359"/>
<path d="M530.882 415H465.711V415.295H530.882V415Z" fill="#2A2359"/>
<path d="M389.989 408.82H379.734V409.115H389.989V408.82Z" fill="#2A2359"/>
<path d="M462.16 404.056H439.516V404.35H462.16V404.056Z" fill="#2A2359"/>
<path d="M112.867 406.037H61.9023V406.332H112.867V406.037Z" fill="#2A2359"/>
<path d="M308.039 413.644H254.09V413.938H308.039V413.644Z" fill="#2A2359"/>
<path d="M276.285 408.667H165.742V408.962H276.285V408.667Z" fill="#2A2359"/>
<path d="M286.412 336.692C286.412 340.407 283.391 343.426 279.674 343.426H51.8276C48.1106 343.426 45.0898 340.407 45.0898 336.692V16.5838C45.0898 12.8688 48.1106 9.84973 51.8276 9.84973H279.686C283.403 9.84973 286.423 12.8688 286.423 16.5838L286.412 336.692ZM286.117 16.5838C286.117 13.0339 283.226 10.1446 279.674 10.1446H51.8276C48.2758 10.1446 45.3848 13.0339 45.3848 16.5838V336.692C45.3848 340.242 48.2758 343.131 51.8276 343.131H279.686C283.237 343.131 286.128 340.242 286.128 336.692" fill="#2A2359"/>
<path d="M534.904 343.426H307.046C303.329 343.426 300.309 340.407 300.309 336.692V16.5838C300.309 12.8688 303.329 9.84973 307.046 9.84973H534.904C538.621 9.84973 541.642 12.8688 541.642 16.5838V336.692C541.642 340.407 538.621 343.426 534.904 343.426ZM307.046 10.1446C303.495 10.1446 300.604 13.0339 300.604 16.5838V336.692C300.604 340.242 303.495 343.131 307.046 343.131H534.904C538.456 343.131 541.347 340.242 541.347 336.692V16.5838C541.347 13.0339 538.456 10.1446 534.904 10.1446H307.046Z" fill="#2A2359"/>
<path d="M83.3746 396.02H154.352L154.352 246.986H83.3746L83.3746 396.02Z" fill="#201A4B"/>
<path d="M90.5296 396.024H83.3906V375.728H98.0108L90.5296 396.024Z" fill="#2A2359"/>
<path d="M271.05 396.02H342.027V246.986H271.05V396.02Z" fill="#201A4B"/>
<path d="M83.3837 383.566H277.281V246.987L83.3837 246.987L83.3837 383.566Z" fill="#2A2359"/>
<path d="M88.9169 290.502H271.746V253.046L88.9169 253.046V290.502Z" fill="#201A4B"/>
<path d="M167.392 264.681H193.281C204.527 264.681 215.277 260.058 223.006 251.909H137.668C145.397 260.058 156.147 264.681 167.392 264.681Z" fill="#2A2359"/>
<path d="M270.149 396.024H277.288V375.728H262.668L270.149 396.024Z" fill="#2A2359"/>
<path d="M88.9169 334.01H271.746V296.554H88.9169V334.01Z" fill="#201A4B"/>
<path d="M167.392 308.187H193.281C204.527 308.187 215.277 303.564 223.006 295.415H137.668C145.397 303.576 156.147 308.187 167.392 308.187Z" fill="#2A2359"/>
<path d="M88.9169 377.518H271.746V340.062H88.9169V377.518Z" fill="#201A4B"/>
<path d="M167.392 351.693H193.281C204.527 351.693 215.277 347.07 223.006 338.921H137.668C145.397 347.082 156.147 351.693 167.392 351.693Z" fill="#2A2359"/>
<path d="M104.004 246.991H98.954C98.5646 246.991 98.2578 246.673 98.2578 246.295V198.733C98.2578 198.344 98.5764 198.037 98.954 198.037H104.004C104.394 198.037 104.701 198.355 104.701 198.733V246.295C104.701 246.673 104.394 246.991 104.004 246.991Z" fill="#2A2359"/>
<path d="M104.701 203.073H98.2461V220.892H104.701V203.073Z" fill="#17113D"/>
<path d="M104.701 226.376H98.2461V237.368H104.701V226.376Z" fill="#17113D"/>
<path d="M131.497 246.991H105.407C105.018 246.991 104.711 246.673 104.711 246.295V198.733C104.711 198.344 105.03 198.037 105.407 198.037H131.509C131.898 198.037 132.205 198.355 132.205 198.733V246.295C132.205 246.673 131.886 246.991 131.497 246.991Z" fill="#2A2359"/>
<path d="M114.294 246.991H108.712C108.288 246.991 107.945 246.649 107.945 246.225V193.756C107.945 193.331 108.288 192.989 108.712 192.989H114.294C114.719 192.989 115.061 193.331 115.061 193.756V246.225C115.061 246.649 114.719 246.991 114.294 246.991Z" fill="#2A2359"/>
<path d="M115.061 200.03H107.934V204.853H115.061V200.03Z" fill="#17113D"/>
<path d="M115.061 214.029H107.934V218.852H115.061V214.029Z" fill="#17113D"/>
<path d="M115.061 228.027H107.934V232.851H115.061V228.027Z" fill="#17113D"/>
<path d="M144.68 246.991H115.888C115.463 246.991 115.121 246.649 115.121 246.225V193.756C115.121 193.331 115.463 192.989 115.888 192.989H144.68C145.105 192.989 145.447 193.331 145.447 193.756V246.225C145.459 246.649 145.117 246.991 144.68 246.991Z" fill="#2A2359"/>
<path d="M124.063 246.991H119.013C118.623 246.991 118.316 246.673 118.316 246.295V198.733C118.316 198.344 118.635 198.037 119.013 198.037H124.063C124.452 198.037 124.759 198.355 124.759 198.733V246.295C124.771 246.673 124.452 246.991 124.063 246.991Z" fill="#2A2359"/>
<path d="M124.759 207.648H118.305V216.788H124.759V207.648Z" fill="#17113D"/>
<path d="M124.759 219.607H118.305V225.244H124.759V219.607Z" fill="#17113D"/>
<path d="M151.567 246.991H125.466C125.076 246.991 124.77 246.673 124.77 246.295V198.733C124.77 198.344 125.088 198.037 125.466 198.037H151.567C151.957 198.037 152.264 198.355 152.264 198.733V246.295C152.264 246.673 151.957 246.991 151.567 246.991Z" fill="#2A2359"/>
<path d="M133.552 246.991H127.97C127.545 246.991 127.203 246.649 127.203 246.225V205.632C127.203 205.207 127.545 204.865 127.97 204.865H133.552C133.976 204.865 134.319 205.207 134.319 205.632V246.225C134.319 246.649 133.976 246.991 133.552 246.991Z" fill="#2A2359"/>
<path d="M134.319 214.323H127.191V222.119H134.319V214.323Z" fill="#17113D"/>
<path d="M134.319 239.903H127.191V241.755H134.319V239.903Z" fill="#17113D"/>
<path d="M134.319 223.864H127.191V231.66H134.319V223.864Z" fill="#17113D"/>
<path d="M163.95 246.991H135.158C134.733 246.991 134.391 246.649 134.391 246.225V205.632C134.391 205.207 134.733 204.865 135.158 204.865H163.95C164.374 204.865 164.717 205.207 164.717 205.632V246.225C164.717 246.649 164.374 246.991 163.95 246.991Z" fill="#2A2359"/>
<path d="M143.016 246.991H137.978C137.588 246.991 137.27 246.673 137.27 246.284V197.353C137.27 196.964 137.588 196.645 137.978 196.645H143.016C143.406 196.645 143.724 196.964 143.724 197.353V246.284C143.724 246.673 143.406 246.991 143.016 246.991Z" fill="#2A2359"/>
<path d="M143.724 201.823H137.27V220.149H143.724V201.823Z" fill="#17113D"/>
<path d="M143.724 225.799H137.27V237.097H143.724V225.799Z" fill="#17113D"/>
<path d="M170.509 246.991H144.431C144.041 246.991 143.723 246.673 143.723 246.284V197.353C143.723 196.964 144.041 196.645 144.431 196.645H170.509C170.898 196.645 171.217 196.964 171.217 197.353V246.284C171.228 246.673 170.91 246.991 170.509 246.991Z" fill="#2A2359"/>
<path d="M153.376 246.991H147.665C147.276 246.991 146.957 246.673 146.957 246.284V202.66C146.957 202.271 147.276 201.952 147.665 201.952H153.376C153.766 201.952 154.084 202.271 154.084 202.66V246.284C154.084 246.673 153.766 246.991 153.376 246.991Z" fill="#2A2359"/>
<path d="M154.084 207.849H146.957V211.871H154.084V207.849Z" fill="#17113D"/>
<path d="M154.084 219.513H146.957V223.534H154.084V219.513Z" fill="#17113D"/>
<path d="M154.084 231.176H146.957V235.198H154.084V231.176Z" fill="#17113D"/>
<path d="M183.774 246.991H154.853C154.463 246.991 154.145 246.673 154.145 246.284V202.66C154.145 202.271 154.463 201.952 154.853 201.952H183.774C184.164 201.952 184.482 202.271 184.482 202.66V246.284C184.482 246.673 184.164 246.991 183.774 246.991Z" fill="#2A2359"/>
<path d="M163.086 246.991H158.036C157.647 246.991 157.34 246.673 157.34 246.295V198.733C157.34 198.344 157.658 198.037 158.036 198.037H163.086C163.476 198.037 163.783 198.355 163.783 198.733V246.295C163.783 246.673 163.476 246.991 163.086 246.991Z" fill="#2A2359"/>
<path d="M163.783 207.648H157.328V216.788H163.783V207.648Z" fill="#17113D"/>
<path d="M163.783 219.607H157.328V225.244H163.783V219.607Z" fill="#17113D"/>
<path d="M190.579 246.991H164.489C164.1 246.991 163.793 246.673 163.793 246.295V198.733C163.793 198.344 164.112 198.037 164.489 198.037H190.591C190.98 198.037 191.287 198.355 191.287 198.733V246.295C191.287 246.673 190.968 246.991 190.579 246.991Z" fill="#2A2359"/>
<path d="M172.575 246.991H166.994C166.569 246.991 166.227 246.649 166.227 246.225V205.632C166.227 205.207 166.569 204.865 166.994 204.865H172.575C173 204.865 173.342 205.207 173.342 205.632V246.225C173.342 246.649 173 246.991 172.575 246.991Z" fill="#2A2359"/>
<path d="M173.342 214.323H166.215V222.119H173.342V214.323Z" fill="#17113D"/>
<path d="M173.342 239.903H166.215V241.755H173.342V239.903Z" fill="#17113D"/>
<path d="M173.342 223.864H166.215V231.66H173.342V223.864Z" fill="#17113D"/>
<path d="M202.961 246.991H174.169C173.745 246.991 173.402 246.649 173.402 246.225V205.632C173.402 205.207 173.745 204.865 174.169 204.865H202.961C203.386 204.865 203.728 205.207 203.728 205.632V246.225C203.74 246.649 203.398 246.991 202.961 246.991Z" fill="#2A2359"/>
<path d="M81.9489 141.239L340.121 141.239V63.5561L81.9489 63.5561V141.239Z" fill="#201A4B"/>
<path d="M76.4757 141.239L337.562 141.239V63.5561L76.4757 63.5561V141.239Z" fill="#2A2359"/>
<path d="M81.9489 151.401L340.121 151.401V141.235L81.9489 141.235V151.401Z" fill="#201A4B"/>
<path d="M67.3507 151.401L328.438 151.401V141.235L67.3507 141.235V151.401Z" fill="#2A2359"/>
<path d="M329.891 133.574V71.2108L84.132 71.2108V133.574L329.891 133.574Z" fill="#17113D"/>
<path d="M264.861 133.574L219.868 71.2108H173.812L218.818 133.574H264.861Z" fill="#332B68"/>
<path d="M326.34 127.595C326.646 127.595 326.882 127.347 326.882 127.052V76.1994C326.882 75.8927 326.635 75.6569 326.34 75.6569C326.045 75.6569 325.797 75.9045 325.797 76.1994V127.041C325.797 127.347 326.045 127.595 326.34 127.595Z" fill="#2A2359"/>
<path d="M201.509 133.574L156.504 71.2108H140.574L185.579 133.574H201.509Z" fill="#332B68"/>
<path d="M85.1133 133.575L85.1133 71.2111H84.1457L84.1457 133.575H85.1133Z" fill="#201A4B"/>
<path opacity="0.4" d="M74.6602 78.9355H332.832L333.54 74.1827H75.3682L74.6602 78.9355Z" fill="#201A4B"/>
<path opacity="0.4" d="M74.6602 86.7662H332.832L333.54 82.0253H75.3682L74.6602 86.7662Z" fill="#201A4B"/>
<path opacity="0.4" d="M74.6602 94.6088H332.832L333.54 89.8561H75.3682L74.6602 94.6088Z" fill="#201A4B"/>
<path opacity="0.4" d="M74.6602 102.44H332.832L333.54 97.6987H75.3682L74.6602 102.44Z" fill="#201A4B"/>
<path opacity="0.4" d="M74.6602 110.27H332.832L333.54 105.53H75.3682L74.6602 110.27Z" fill="#201A4B"/>
<path opacity="0.4" d="M74.6602 118.113H332.832L333.54 113.36H75.3682L74.6602 118.113Z" fill="#201A4B"/>
<path d="M381.963 239.955H481.566V63.5494H381.963V239.955Z" fill="#201A4B"/>
<path d="M394.248 68.3803C394.389 68.3803 394.543 68.345 394.673 68.2624C394.909 68.1209 418.343 54.1929 425.73 54.1929C433.105 54.1929 455.454 68.1091 455.679 68.2506C456.068 68.4983 456.575 68.3685 456.823 67.9912C457.071 67.602 456.953 67.0949 456.564 66.8472C455.631 66.2575 433.589 52.53 425.742 52.53C417.907 52.53 394.814 66.2457 393.835 66.8354C393.445 67.0713 393.316 67.5784 393.552 67.9676C393.693 68.2388 393.965 68.3803 394.248 68.3803Z" fill="#2A2359"/>
<path d="M371.17 239.955H474.055V63.5494H371.17V239.955Z" fill="#2A2359"/>
<path d="M465.441 231.342L465.441 72.1664L379.797 72.1664V231.342L465.441 231.342Z" fill="#332B68"/>
<path d="M492.201 321.691H430.133V396.024H492.201V321.691Z" fill="#2A2359"/>
<path d="M492.189 321.691H430.133L442.582 299.507H504.65L492.189 321.691Z" fill="#2A2359"/>
<path d="M369.623 299.507H307.555L320.015 321.691H382.083L369.623 299.507Z" fill="#1C1544"/>
<path d="M320.007 396.017H430.125V321.684H320.007V396.017Z" fill="#1C1544"/>
<path d="M395.476 376.169H430.121V341.544H395.476V376.169Z" fill="#2A2359"/>
<path d="M334.863 361.465H354.793V341.546H334.863V361.465Z" fill="#2A2359"/>
<path d="M334.863 386.123H354.793V366.204H334.863V386.123Z" fill="#2A2359"/>
<path d="M448.01 341.539H430.133V376.164H448.01V341.539Z" fill="#201A4B"/>
<path d="M295.001 449.283C421.358 449.283 523.791 443.306 523.791 435.933C523.791 428.56 421.358 422.583 295.001 422.583C168.644 422.583 66.2109 428.56 66.2109 435.933C66.2109 443.306 168.644 449.283 295.001 449.283Z" fill="#1C1544"/>
</g>
</g>
<path d="M201.668 117.89C209.741 112.369 211.808 101.353 206.284 93.2845C200.76 85.2159 189.737 83.1506 181.664 88.6714C173.591 94.1921 171.525 105.208 177.049 113.277C182.573 121.345 193.595 123.411 201.668 117.89Z" fill="#0BCE91"/>
<path d="M294.069 27.0272C296.847 17.6535 291.496 7.80379 282.117 5.02727C272.738 2.25075 262.882 7.59881 260.104 16.9725C257.326 26.3462 262.677 36.1959 272.056 38.9724C281.435 41.7489 291.29 36.4008 294.069 27.0272Z" fill="#0BCE91"/>
<path d="M237.25 56.9922C242.015 48.4534 238.952 37.6709 230.408 32.9088C221.864 28.1467 211.076 31.2083 206.311 39.7471C201.546 48.2858 204.61 59.0683 213.153 63.8305C221.697 68.5926 232.485 65.531 237.25 56.9922Z" fill="#0BCE91"/>
<path d="M347.307 49.7576C356.156 45.5899 359.948 35.042 355.778 26.1982C351.608 17.3544 341.054 13.5637 332.206 17.7314C323.357 21.8991 319.564 32.447 323.734 41.2908C327.904 50.1346 338.458 53.9253 347.307 49.7576Z" fill="#0BCE91"/>
<path d="M391.738 92.9498C399.811 87.429 401.878 76.4127 396.354 68.3442C390.83 60.2756 379.808 58.2103 371.735 63.731C363.662 69.2518 361.595 80.2681 367.119 88.3367C372.643 96.4052 383.665 98.4705 391.738 92.9498Z" fill="#0BCE91"/>
<path d="M399.879 155.031C407.952 149.51 410.019 138.494 404.495 130.425C398.971 122.357 387.948 120.292 379.875 125.812C371.802 131.333 369.736 142.349 375.26 150.418C380.784 158.486 391.806 160.552 399.879 155.031Z" fill="#0BCE91"/>
<g clip-path="url(#clip1)">
<path d="M213 48.9083L222 58.2833L231 48.9083L222 52.0333L213 48.9083ZM217.831 51.9401L221.423 53.1872L222 53.3874V56.2823L217.831 51.9401Z" fill="#17113D"/>
<path d="M231 48.2832L222 38.2832L213 48.2832L222 50.7832L231 48.2832ZM222 47.0332L215.455 47.6393L222 40.3665V47.0332Z" fill="#17113D"/>
</g>
<path d="M284.417 425.767H275.319L274.93 404.704H284.028L284.417 425.767Z" fill="#FFBE9D"/>
<path d="M339.059 425.767H329.962L325.902 404.704H335L339.059 425.767Z" fill="#FFBE9D"/>
<path d="M329.337 424.718H339.568C339.945 424.718 340.252 424.977 340.323 425.343L341.928 433.433C342.093 434.27 341.42 435.06 340.559 435.049C336.995 434.99 335.261 434.777 330.765 434.777C328.004 434.777 322.293 435.06 318.469 435.06C314.729 435.06 314.245 431.286 315.814 430.944C322.859 429.411 325.561 427.3 327.85 425.284C328.263 424.906 328.794 424.718 329.337 424.718Z" fill="#2A2359"/>
<path d="M275.401 424.718H285.337C285.715 424.718 286.021 424.977 286.092 425.343L287.697 433.433C287.862 434.27 287.201 435.06 286.352 435.049C282.765 434.99 277.596 434.777 273.089 434.777C267.814 434.777 263.259 435.06 257.088 435.06C253.347 435.06 252.403 431.286 253.984 430.944C261.147 429.388 266.964 429.223 273.207 425.425C273.867 425.012 274.623 424.718 275.401 424.718Z" fill="#2A2359"/>
<path d="M275.127 140.285L265.416 131.581C265.416 131.581 241.568 153.47 236.884 153.399C230.523 153.304 217.272 152.632 209.885 151.076C208.564 151.877 205.85 154.932 205.578 156.312C214.039 162.987 236.081 167.787 241.615 165.912C254.23 161.642 275.127 140.285 275.127 140.285Z" fill="#FFBE9D"/>
<path d="M280.58 135.225C280.521 143.917 257.393 161.265 257.393 161.265L243.953 145.839C243.953 145.839 252.213 136.004 261.429 129.317C270.893 122.465 280.651 125.684 280.58 135.225Z" fill="#332B68"/>
<path opacity="0.2" d="M257.395 161.277C257.395 161.277 278.741 145.261 280.464 136.298C277.738 133.503 263.177 141.488 257.395 161.277Z" fill="black"/>
<path d="M211.351 151.5L203.292 144.082L196.059 153.363C196.059 153.363 201.133 156.312 207.611 157.527L211.351 151.5Z" fill="#FFBE9D"/>
<path d="M193.685 139.719L191.184 146.724L196.057 153.363L203.29 144.082L193.685 139.719Z" fill="#FFBE9D"/>
<g clip-path="url(#clip2)">
<path d="M198.103 102.896C199.111 101.911 199.742 100.542 199.742 99.0251C199.742 96.3023 197.716 94.0637 195.097 93.684V91.2832H192V93.6058H188.903V91.2832H185.806V93.6058H184.258V96.7026H185.806V109.09H184.258V112.186H185.806V115.283H188.903V112.186H192V115.283H195.097V112.108C197.716 111.728 199.742 109.49 199.742 106.767C199.742 105.25 199.111 103.881 198.103 102.896ZM196.645 99.0251C196.645 100.306 195.603 101.348 194.322 101.348H188.903V96.7026H194.322C195.603 96.7026 196.645 97.7444 196.645 99.0251ZM194.322 109.09H188.903V104.444H194.322C195.603 104.444 196.645 105.486 196.645 106.767C196.645 108.048 195.603 109.09 194.322 109.09Z" fill="#17113D"/>
</g>
<path opacity="0.2" d="M274.93 404.704L275.13 415.566H284.24L284.039 404.704H274.93Z" fill="black"/>
<path opacity="0.2" d="M335.016 404.704H325.906L328.007 415.566H337.104L335.016 404.704Z" fill="black"/>
<path d="M268.78 126.062C268.78 126.062 257.369 153.529 266.314 204.688C280.981 204.688 307.862 204.688 314.989 204.688C315.508 197.223 311.708 160.782 319.78 125.59C319.78 125.59 311.472 123.915 303.531 123.538C297.312 123.243 288.321 123.043 282.834 123.538C275.612 124.198 268.78 126.062 268.78 126.062Z" fill="#332B68"/>
<path opacity="0.2" d="M308.995 134.282C308.039 140.072 309.526 153.929 314.659 169.945C314.977 157.621 316.075 143.339 319.025 129.093V129.022C315.815 128.703 309.903 128.857 308.995 134.282Z" fill="black"/>
<path d="M301.302 104.197C299.838 110.848 298.977 119.104 303.532 123.538C303.532 123.538 300.688 130.284 288.322 130.284C277.017 130.284 282.846 123.538 282.846 123.538C290.316 121.769 290.151 112.594 288.982 107.416L301.302 104.197Z" fill="#FFBE9D"/>
<path d="M287.733 129.753L285.055 132.713C284.866 132.925 284.795 133.22 284.889 133.492L285.751 136.098C285.845 136.393 286.116 136.605 286.435 136.617L289.326 136.758C289.597 136.77 289.869 136.64 290.022 136.404L291.745 133.869C291.946 133.574 291.922 133.185 291.698 132.925L288.913 129.753C288.594 129.399 288.052 129.411 287.733 129.753Z" fill="#0BCE91"/>
<path d="M288.332 129.104C290.515 132.418 290.539 136.688 290.539 136.688C290.539 136.688 306.162 131.227 305.643 123.22C305.643 123.22 303.471 121.911 302.103 120.849C302.103 120.849 301.454 125.897 288.332 129.104Z" fill="#332B68"/>
<path d="M288.332 129.104C285.984 132.418 285.134 136.204 285.134 136.204C285.134 136.204 278.231 131.451 280.532 123.55C280.532 123.55 282.538 122.724 284.532 122.288C284.532 122.276 283.482 127.383 288.332 129.104Z" fill="#332B68"/>
<path d="M287.06 136.204C287.06 136.204 282.635 168.766 282.529 174.438C282.387 182.222 285.031 190.23 285.031 190.23C285.031 190.23 288.075 184.474 288.594 174.191C289.113 164.06 288.476 141.971 288.712 136.204H287.06Z" fill="#0BCE91"/>
<path opacity="0.2" d="M288.971 107.428C289.667 110.459 290.009 114.87 288.652 118.349C289.75 118.184 290.871 117.854 291.992 117.335C296.228 115.365 298.364 112.252 300.629 107.652C300.818 106.473 301.042 105.317 301.302 104.197L288.971 107.428Z" fill="black"/>
<path d="M278.965 98.6421C279.39 101.024 280.877 102.97 282.541 104.043C285.03 105.671 287.237 103.619 287.331 100.765C287.426 98.194 286.234 94.2668 283.355 93.7832C280.499 93.3233 278.47 95.9179 278.965 98.6421Z" fill="#FFBE9D"/>
<path opacity="0.2" d="M278.965 98.6421C279.39 101.024 280.877 102.97 282.541 104.043C285.03 105.671 287.237 103.619 287.331 100.765C287.426 98.194 286.234 94.2668 283.355 93.7832C280.499 93.3233 278.47 95.9179 278.965 98.6421Z" fill="black"/>
<path d="M291.164 81.2587C286.303 81.4827 279.4 92.4152 283.659 97.109C287.919 101.791 300.368 80.8223 291.164 81.2587Z" fill="#2A2359"/>
<path d="M307.708 98.6657C303.861 106.933 302.032 111.945 296.085 114.705C287.152 118.856 278.326 111.131 279.648 101.956C280.839 93.6889 286.928 81.5653 296.451 81.2587C305.844 80.9639 311.543 90.3986 307.708 98.6657Z" fill="#FFBE9D"/>
<path d="M314.139 88.0516C318.835 91.0943 312.18 104.562 306.103 104.197C303.424 104.032 303.932 97.4981 306.61 91.8727C301.725 91.6604 285.63 88.0988 286.149 80.4803C286.314 78.0273 288.839 76.5531 292.438 74.6897C296.037 72.8264 294.846 69.4771 294.846 69.4771C294.846 69.4771 297.571 71.9301 296.203 75.645C294.834 79.3717 302.303 77.8975 306.61 77.7796C314.304 77.5909 318.717 83.3343 314.139 88.0516Z" fill="#2A2359"/>
<path d="M313.078 88.0516C313.078 88.0516 316.866 86.6246 318.152 89.9386C317.338 89.4668 315.922 88.3818 313.078 88.0516Z" fill="#2A2359"/>
<path d="M307.814 109.398C305.855 110.895 303.412 111.379 301.442 111.096C298.468 110.683 298.244 107.735 300.132 105.541C301.831 103.572 305.418 101.414 307.896 102.935C310.327 104.433 310.056 107.676 307.814 109.398Z" fill="#FFBE9D"/>
<path d="M266.316 204.688C266.316 204.688 263.389 272.701 263.708 300.439C264.026 329.297 271.791 413.467 271.791 413.467H287.213C287.213 413.467 290.057 330.984 291.438 302.644C292.948 271.757 298.317 204.688 298.317 204.688H266.316Z" fill="#0BCE91"/>
<path d="M288.346 408.749C288.417 408.749 288.228 413.785 288.228 413.785H270.457L269.844 408.124L288.346 408.749Z" fill="#2A2359"/>
<path opacity="0.2" d="M287.165 222.685C286.634 256.438 288.168 276.935 291.932 293.41C292.864 277.312 294.386 256.025 295.72 238.347L287.165 222.685Z" fill="black"/>
<path d="M283.578 204.688C283.578 204.688 292.204 274.21 297.231 300.25C302.741 328.767 323.804 413.467 323.804 413.467H340.478C340.478 413.467 327.321 331.066 324.477 302.833C321.385 272.182 314.99 204.688 314.99 204.688H283.578Z" fill="#0BCE91"/>
<path d="M340.585 409.127C340.655 409.127 341.304 413.785 341.304 413.785H322.979L321.492 408.443L340.585 409.127Z" fill="#2A2359"/>
<path opacity="0.2" d="M333.998 403.619C333.927 403.619 333.856 403.56 333.844 403.49C333.726 402.652 321.867 329.262 319.295 303.894C316.51 276.369 310.728 215.326 310.681 214.713C310.669 214.63 310.74 214.548 310.823 214.536C310.905 214.524 310.988 214.583 310.988 214.677C311.047 215.291 316.829 276.333 319.602 303.859C322.162 329.227 334.021 402.605 334.139 403.442C334.151 403.525 334.092 403.607 334.01 403.619C334.021 403.619 334.01 403.619 333.998 403.619Z" fill="black"/>
<path d="M294.055 96.2952C293.784 96.9792 293.206 97.4037 292.757 97.2386C292.309 97.0735 292.167 96.3777 292.439 95.6937C292.71 95.0097 293.288 94.5851 293.737 94.7502C294.185 94.9153 294.327 95.6112 294.055 96.2952Z" fill="#2A2359"/>
<path d="M286.352 93.4176C286.081 94.1016 285.502 94.5262 285.054 94.3611C284.606 94.196 284.464 93.5002 284.735 92.8161C285.007 92.1321 285.585 91.7076 286.033 91.8727C286.482 92.0378 286.623 92.7336 286.352 93.4176Z" fill="#2A2359"/>
<path d="M288.663 94.6796C288.663 94.6796 285.548 98.0761 283.082 99.3497C283.837 100.93 286.103 101.178 286.103 101.178L288.663 94.6796Z" fill="#E89368"/>
<path d="M287.341 103.819C287.235 103.784 287.176 103.654 287.223 103.548C287.271 103.442 287.389 103.383 287.507 103.418C290.504 104.539 292.734 102.947 292.758 102.923C292.852 102.852 292.994 102.876 293.053 102.97C293.123 103.065 293.1 103.194 293.005 103.277C292.911 103.359 290.551 105.022 287.341 103.819Z" fill="#2A2359"/>
<path d="M297.372 94.6559C297.254 94.6087 297.148 94.5144 297.113 94.3728C296.605 92.5331 295.095 92.0731 295.071 92.0731C294.859 92.0142 294.717 91.7665 294.788 91.5424C294.859 91.3184 295.107 91.1768 295.331 91.2476C295.413 91.2712 297.301 91.8491 297.939 94.1252C297.998 94.3493 297.868 94.5969 297.644 94.6677C297.549 94.6913 297.455 94.6795 297.372 94.6559Z" fill="#2A2359"/>
<path d="M283.968 89.3725C283.909 89.349 283.862 89.3136 283.815 89.2546C283.661 89.0777 283.697 88.8065 283.886 88.6531C285.75 87.12 287.638 87.6625 287.721 87.6861C287.945 87.745 288.075 87.9927 287.992 88.2168C287.921 88.4409 287.673 88.5706 287.449 88.5116C287.39 88.488 285.903 88.0753 284.417 89.3018C284.287 89.4197 284.11 89.4433 283.968 89.3725Z" fill="#2A2359"/>
<path d="M311.828 140.568L324.478 136.452C324.478 136.452 336.124 166.088 340.431 167.81C346.296 170.157 358.214 176.396 365.624 177.882C366.474 179.132 367.607 182.977 367.253 184.333C356.633 187.092 335.015 181.278 330.755 177.457C321.044 168.754 311.828 140.568 311.828 140.568Z" fill="#FFBE9D"/>
<path d="M319.781 125.59C328.359 126.84 337.493 156.666 337.493 156.666L319.155 166.879C319.155 166.879 311.533 152.691 307.863 142.16C304.028 131.121 310.577 124.257 319.781 125.59Z" fill="#332B68"/>
<path d="M326.293 426.31C325.597 426.31 324.96 426.192 324.547 425.85C324.228 425.579 324.087 425.189 324.134 424.706C324.169 424.352 324.358 424.175 324.523 424.093C325.526 423.574 328.429 425.378 328.759 425.59C328.83 425.638 328.866 425.72 328.854 425.814C328.842 425.897 328.771 425.968 328.689 425.991C328.051 426.133 327.131 426.31 326.293 426.31ZM324.983 424.423C324.865 424.423 324.771 424.435 324.7 424.482C324.641 424.517 324.57 424.564 324.559 424.729C324.523 425.071 324.618 425.331 324.83 425.508C325.314 425.932 326.506 425.98 328.051 425.673C327.048 425.083 325.68 424.423 324.983 424.423Z" fill="#0BCE91"/>
<path d="M328.631 425.979C328.596 425.979 328.56 425.968 328.525 425.956C327.593 425.449 325.823 423.456 326.047 422.441C326.082 422.253 326.224 421.934 326.743 421.875C327.085 421.828 327.38 421.923 327.652 422.147C328.69 423.008 328.843 425.637 328.843 425.744C328.843 425.826 328.808 425.897 328.737 425.944C328.714 425.968 328.678 425.979 328.631 425.979ZM326.885 422.3C326.849 422.3 326.826 422.3 326.79 422.312C326.507 422.347 326.483 422.477 326.472 422.524C326.342 423.125 327.463 424.635 328.383 425.343C328.301 424.576 328.041 423.043 327.38 422.489C327.227 422.359 327.062 422.3 326.885 422.3Z" fill="#0BCE91"/>
<path d="M271.578 426.31C270.669 426.31 269.843 426.168 269.383 425.755C269.088 425.484 268.958 425.13 269.006 424.706C269.029 424.446 269.159 424.246 269.371 424.128C270.492 423.503 274.103 425.366 274.516 425.579C274.599 425.626 274.634 425.708 274.622 425.803C274.611 425.897 274.54 425.968 274.445 425.98C273.678 426.133 272.581 426.31 271.578 426.31ZM269.973 424.423C269.808 424.423 269.666 424.446 269.572 424.505C269.489 424.553 269.442 424.623 269.43 424.741C269.407 425.036 269.478 425.26 269.678 425.437C270.221 425.932 271.72 426.015 273.737 425.685C272.498 425.071 270.835 424.423 269.973 424.423Z" fill="#0BCE91"/>
<path d="M274.408 425.979C274.373 425.979 274.349 425.968 274.326 425.956C273.24 425.461 271.116 423.491 271.305 422.465C271.352 422.229 271.529 421.923 272.119 421.864C272.556 421.805 272.957 421.946 273.311 422.229C274.444 423.184 274.632 425.626 274.632 425.732C274.632 425.803 274.597 425.885 274.538 425.932C274.491 425.968 274.444 425.979 274.408 425.979ZM272.272 422.3C272.225 422.3 272.19 422.3 272.143 422.312C271.753 422.347 271.73 422.5 271.718 422.559C271.6 423.173 273.039 424.718 274.149 425.39C274.054 424.67 273.759 423.208 273.016 422.583C272.792 422.394 272.544 422.3 272.272 422.3Z" fill="#0BCE91"/>
<path d="M366.439 184.522L375.1 184.934L370.498 175.5C370.498 175.5 362.911 175.394 361.66 181.219L366.439 184.522Z" fill="#FFBE9D"/>
<path d="M382.119 180.37L377.529 172.044L370.496 175.5L375.098 184.946L382.119 180.37Z" fill="#FFBE9D"/>
<g clip-path="url(#clip3)">
<path d="M289 22.2832C289 28.9107 283.628 34.2832 277 34.2832C270.372 34.2832 265 28.9107 265 22.2832C265 15.6557 270.372 10.2832 277 10.2832C283.628 10.2832 289 15.6557 289 22.2832Z" fill="#17113D"/>
<path d="M286 20.0332H287.5V21.5332H286V20.0332Z" fill="#0BCE91"/>
<path d="M286 23.0332H287.5V24.5332H286V23.0332Z" fill="#0BCE91"/>
<path d="M278.016 31.0186C277.322 31.0197 276.641 30.8247 276.052 30.4561C275.071 29.8491 274.422 28.8268 274.29 27.6811C274.162 26.5724 274.537 25.4648 275.312 24.6615C275.343 24.3717 275.242 24.0829 275.035 23.8765C274.829 23.6702 274.541 23.5684 274.251 23.5995C272.897 24.9076 270.783 25.0094 269.31 23.8374C267.837 22.6651 267.461 20.5827 268.431 18.9697C269.402 17.3565 271.418 16.7129 273.143 17.4653C274.049 17.8447 274.76 18.5756 275.116 19.4902L275.359 19.7056C275.605 19.9235 275.944 20.0011 276.26 19.9118C276.576 19.8224 276.824 19.5781 276.919 19.2639L277.001 18.9834C276.759 17.806 277.097 16.584 277.91 15.6989C278.724 14.8137 279.913 14.3736 281.106 14.5156C282.26 14.6539 283.286 15.316 283.887 16.3103C284.654 17.5839 284.594 19.1903 283.736 20.4038C282.877 21.617 281.382 22.2075 279.926 21.9083L279.651 21.9909C279.336 22.0856 279.092 22.3341 279.003 22.6499C278.913 22.9658 278.991 23.3054 279.209 23.5508L279.424 23.793C279.89 23.9763 280.314 24.253 280.669 24.606C281.48 25.4122 281.876 26.5455 281.744 27.6811C281.611 28.8268 280.962 29.8491 279.981 30.4561C279.392 30.825 278.711 31.02 278.016 31.0186Z" fill="#0BCE91"/>
</g>
<path d="M345.49 40.409H332.211V37.7838H345.49L345.532 37.5791L347.77 29.9084H334.836V27.2832H347.787C349.237 27.2832 350.412 28.4586 350.412 29.9084C350.412 30.0189 350.406 30.1295 350.393 30.2391L350.35 30.4413L348.077 38.2302C347.86 39.4893 346.768 40.409 345.49 40.409Z" fill="#17113D"/>
<path d="M329.586 32.5334H337.461V35.1586H329.586V32.5334Z" fill="#17113D"/>
<g clip-path="url(#clip4)">
<path d="M394 78.2832C394 84.1593 389.776 89.0489 384.199 90.0819C383.487 90.2142 382.751 90.2832 382 90.2832C381.174 90.2832 380.368 90.2 379.589 90.0408C374.117 88.925 370 84.0848 370 78.2832C370 75.0844 371.252 72.1769 373.293 70.0262C373.411 69.9013 373.532 69.7794 373.655 69.6598C375.815 67.5694 378.757 66.2832 382 66.2832C385.243 66.2832 388.185 67.5694 390.345 69.6598C390.396 69.7088 390.446 69.7588 390.496 69.8087C392.661 71.979 394 74.9751 394 78.2832Z" fill="#17113D"/>
<path d="M384.198 76.4941V73.8198H390.494V69.6599H373.291V73.8197H379.588V76.5043C374.502 76.7644 370.691 77.8302 370.691 79.1056C370.691 80.3811 374.502 81.4469 379.588 81.707V90.0408C380.366 90.2 381.173 90.2833 381.998 90.2833C382.75 90.2833 383.485 90.2142 384.198 90.082V81.7172C389.389 81.4763 393.305 80.3987 393.305 79.1056C393.305 77.8126 389.389 76.735 384.198 76.4941ZM381.998 80.7494C376.325 80.7494 371.726 79.8947 371.726 78.8402C371.726 77.94 375.078 77.1852 379.588 76.9838V80.0416C380.352 80.1518 381.123 80.2072 381.893 80.2072C382.663 80.2072 383.433 80.1518 384.198 80.0416V76.9745C388.814 77.1621 392.27 77.9257 392.27 78.8401C392.27 79.8947 387.671 80.7494 381.998 80.7494Z" fill="#0BCE91"/>
</g>
<g clip-path="url(#clip5)">
<path d="M402 141.283C402 144.046 401.066 146.59 399.498 148.618C398.621 149.752 397.545 150.725 396.323 151.484C394.487 152.625 392.321 153.283 390 153.283C387.679 153.283 385.513 152.625 383.677 151.484C383.151 151.158 382.652 150.791 382.185 150.39C379.623 148.189 378 144.925 378 141.283C378 134.656 383.373 129.283 390 129.283C396.627 129.283 402 134.656 402 141.283Z" fill="#17113D"/>
<path d="M399.796 147.475L399.496 148.618C398.619 149.752 397.543 150.725 396.321 151.484H383.676C383.15 151.158 382.65 150.791 382.183 150.39L383.563 145.123L381.055 146.051L381.896 142.981L384.364 142.067L387.262 131.011H393.661L391.45 139.445L394.609 138.275L393.768 141.345L390.649 142.5L389.345 147.475L399.796 147.475Z" fill="#0BCE91"/>
</g>
<defs>
<clipPath id="clip0">
<rect y="4.2832" width="590" height="445" fill="white"/>
</clipPath>
<clipPath id="clip1">
<rect x="210" y="38.2832" width="24" height="20" fill="white"/>
</clipPath>
<clipPath id="clip2">
<rect x="180" y="91.2832" width="24" height="24" fill="white"/>
</clipPath>
<clipPath id="clip3">
<rect x="265" y="10.2832" width="24" height="24" fill="white"/>
</clipPath>
<clipPath id="clip4">
<rect x="370" y="66.2832" width="24" height="24" fill="white"/>
</clipPath>
<clipPath id="clip5">
<rect x="378" y="129.283" width="24" height="24" fill="white"/>
</clipPath>
</defs>
</svg>
