<svg width="358" height="95" viewBox="0 0 358 95" fill="none" xmlns="http://www.w3.org/2000/svg">
<rect y="7" width="358" height="88" fill="#1C1544"/>
<rect x="179.314" width="16" height="16" transform="rotate(45 179.314 0)" fill="#1C1544"/>
<rect x="25" y="62" width="308" height="3" fill="#2A2359"/>
<rect x="25" y="62" width="124" height="3" fill="#0BCE91"/>
<path d="M25.994 40V30.2H27.478V34.4L31.342 30.2H33.176L29.55 34.106L33.26 40H31.454L28.486 35.24L27.478 36.332V40H25.994ZM34.4966 40V29.92H35.9806V40H34.4966ZM38.6999 31.74C38.4199 31.74 38.1865 31.656 37.9999 31.488C37.8225 31.3107 37.7339 31.0913 37.7339 30.83C37.7339 30.5687 37.8225 30.354 37.9999 30.186C38.1865 30.0087 38.4199 29.92 38.6999 29.92C38.9799 29.92 39.2085 30.0087 39.3859 30.186C39.5725 30.354 39.6659 30.5687 39.6659 30.83C39.6659 31.0913 39.5725 31.3107 39.3859 31.488C39.2085 31.656 38.9799 31.74 38.6999 31.74ZM37.9579 40V33.056H39.4419V40H37.9579ZM44.5649 40.168C43.8929 40.168 43.3002 40.0093 42.7869 39.692C42.2736 39.3747 41.8722 38.9407 41.5829 38.39C41.2936 37.8393 41.1489 37.214 41.1489 36.514C41.1489 35.814 41.2936 35.1933 41.5829 34.652C41.8722 34.1013 42.2736 33.672 42.7869 33.364C43.3096 33.0467 43.9069 32.888 44.5789 32.888C45.1296 32.888 45.6102 32.9953 46.0209 33.21C46.4409 33.4247 46.7676 33.728 47.0009 34.12V29.92H48.4849V40H47.1549L47.0009 38.922C46.7769 39.2487 46.4689 39.538 46.0769 39.79C45.6849 40.042 45.1809 40.168 44.5649 40.168ZM44.8309 38.88C45.4656 38.88 45.9836 38.6607 46.3849 38.222C46.7956 37.7833 47.0009 37.2187 47.0009 36.528C47.0009 35.828 46.7956 35.2633 46.3849 34.834C45.9836 34.3953 45.4656 34.176 44.8309 34.176C44.1962 34.176 43.6736 34.3953 43.2629 34.834C42.8522 35.2633 42.6469 35.828 42.6469 36.528C42.6469 36.9853 42.7402 37.3913 42.9269 37.746C43.1136 38.1007 43.3702 38.3807 43.6969 38.586C44.0329 38.782 44.4109 38.88 44.8309 38.88ZM51.196 31.74C50.916 31.74 50.6826 31.656 50.496 31.488C50.3186 31.3107 50.23 31.0913 50.23 30.83C50.23 30.5687 50.3186 30.354 50.496 30.186C50.6826 30.0087 50.916 29.92 51.196 29.92C51.476 29.92 51.7046 30.0087 51.882 30.186C52.0686 30.354 52.162 30.5687 52.162 30.83C52.162 31.0913 52.0686 31.3107 51.882 31.488C51.7046 31.656 51.476 31.74 51.196 31.74ZM50.454 40V33.056H51.938V40H50.454ZM59.7763 40.168C59.1883 40.168 58.703 40.07 58.3203 39.874C57.9377 39.678 57.653 39.4213 57.4663 39.104C57.2797 38.7773 57.1863 38.4227 57.1863 38.04C57.1863 37.368 57.4477 36.836 57.9703 36.444C58.493 36.052 59.2397 35.856 60.2103 35.856H62.0303V35.73C62.0303 35.1887 61.881 34.7827 61.5823 34.512C61.293 34.2413 60.915 34.106 60.4483 34.106C60.0377 34.106 59.6783 34.2087 59.3703 34.414C59.0717 34.61 58.8897 34.904 58.8243 35.296H57.3403C57.387 34.792 57.555 34.3627 57.8443 34.008C58.143 33.644 58.5163 33.3687 58.9643 33.182C59.4217 32.986 59.921 32.888 60.4623 32.888C61.433 32.888 62.1843 33.1447 62.7163 33.658C63.2483 34.162 63.5143 34.8527 63.5143 35.73V40H62.2263L62.1003 38.81C61.9043 39.1927 61.6197 39.5147 61.2463 39.776C60.873 40.0373 60.383 40.168 59.7763 40.168ZM60.0703 38.964C60.4717 38.964 60.8077 38.8707 61.0783 38.684C61.3583 38.488 61.573 38.2313 61.7223 37.914C61.881 37.5967 61.979 37.2467 62.0163 36.864H60.3643C59.7763 36.864 59.3563 36.9667 59.1043 37.172C58.8617 37.3773 58.7403 37.634 58.7403 37.942C58.7403 38.2593 58.857 38.5113 59.0903 38.698C59.333 38.8753 59.6597 38.964 60.0703 38.964ZM68.5346 40.168C67.8533 40.168 67.242 40.014 66.7006 39.706C66.1686 39.398 65.7486 38.9733 65.4406 38.432C65.142 37.8813 64.9926 37.2467 64.9926 36.528C64.9926 35.8093 65.142 35.1793 65.4406 34.638C65.7486 34.0873 66.1686 33.658 66.7006 33.35C67.242 33.042 67.8533 32.888 68.5346 32.888C69.3933 32.888 70.112 33.112 70.6906 33.56C71.2786 34.008 71.6566 34.6147 71.8246 35.38H70.2706C70.1773 34.9973 69.972 34.6987 69.6546 34.484C69.3373 34.2693 68.964 34.162 68.5346 34.162C68.1706 34.162 67.8346 34.2553 67.5266 34.442C67.2186 34.6193 66.9713 34.8853 66.7846 35.24C66.598 35.5853 66.5046 36.0147 66.5046 36.528C66.5046 37.0413 66.598 37.4753 66.7846 37.83C66.9713 38.1753 67.2186 38.4413 67.5266 38.628C67.8346 38.8147 68.1706 38.908 68.5346 38.908C68.964 38.908 69.3373 38.8007 69.6546 38.586C69.972 38.3713 70.1773 38.068 70.2706 37.676H71.8246C71.666 38.4227 71.2926 39.0247 70.7046 39.482C70.1166 39.9393 69.3933 40.168 68.5346 40.168ZM67.4006 43.682V42.786H68.8286C69.398 42.786 69.6826 42.59 69.6826 42.198C69.6826 41.834 69.398 41.652 68.8286 41.652H68.0586V39.93H69.0106V40.812C69.5146 40.8027 69.9393 40.9147 70.2846 41.148C70.6393 41.3813 70.8166 41.7407 70.8166 42.226C70.8166 42.702 70.644 43.0613 70.2986 43.304C69.9626 43.556 69.552 43.682 69.0666 43.682H67.4006ZM73.4341 40V33.056H74.7501L74.8761 34.036C75.1001 33.6813 75.3941 33.4013 75.7581 33.196C76.1314 32.9907 76.5608 32.888 77.0461 32.888C78.1474 32.888 78.9128 33.322 79.3421 34.19C79.5941 33.7887 79.9301 33.4713 80.3501 33.238C80.7794 33.0047 81.2414 32.888 81.7361 32.888C82.6041 32.888 83.2854 33.1493 83.7801 33.672C84.2748 34.1947 84.5221 34.974 84.5221 36.01V40H83.0381V36.164C83.0381 34.82 82.5248 34.148 81.4981 34.148C80.9754 34.148 80.5461 34.344 80.2101 34.736C79.8834 35.128 79.7201 35.688 79.7201 36.416V40H78.2361V36.164C78.2361 34.82 77.7181 34.148 76.6821 34.148C76.1688 34.148 75.7441 34.344 75.4081 34.736C75.0814 35.128 74.9181 35.688 74.9181 36.416V40H73.4341ZM88.6103 40.168C88.0223 40.168 87.537 40.07 87.1543 39.874C86.7716 39.678 86.487 39.4213 86.3003 39.104C86.1136 38.7773 86.0203 38.4227 86.0203 38.04C86.0203 37.368 86.2816 36.836 86.8043 36.444C87.327 36.052 88.0736 35.856 89.0443 35.856H90.8643V35.73C90.8643 35.1887 90.715 34.7827 90.4163 34.512C90.127 34.2413 89.749 34.106 89.2823 34.106C88.8716 34.106 88.5123 34.2087 88.2043 34.414C87.9056 34.61 87.7236 34.904 87.6583 35.296H86.1743C86.221 34.792 86.389 34.3627 86.6783 34.008C86.977 33.644 87.3503 33.3687 87.7983 33.182C88.2556 32.986 88.755 32.888 89.2963 32.888C90.267 32.888 91.0183 33.1447 91.5503 33.658C92.0823 34.162 92.3483 34.8527 92.3483 35.73V40H91.0603L90.9343 38.81C90.7383 39.1927 90.4536 39.5147 90.0803 39.776C89.707 40.0373 89.217 40.168 88.6103 40.168ZM88.9043 38.964C89.3056 38.964 89.6416 38.8707 89.9123 38.684C90.1923 38.488 90.407 38.2313 90.5563 37.914C90.715 37.5967 90.813 37.2467 90.8503 36.864H89.1983C88.6103 36.864 88.1903 36.9667 87.9383 37.172C87.6956 37.3773 87.5743 37.634 87.5743 37.942C87.5743 38.2593 87.691 38.5113 87.9243 38.698C88.167 38.8753 88.4936 38.964 88.9043 38.964ZM94.0786 40V29.92H95.5626V35.926L98.2226 33.056H100.001L97.0466 36.206L100.435 40H98.5586L95.5626 36.444V40H94.0786ZM105.952 31.74C105.672 31.74 105.438 31.656 105.252 31.488C105.074 31.3107 104.986 31.0913 104.986 30.83C104.986 30.5687 105.074 30.354 105.252 30.186C105.438 30.0087 105.672 29.92 105.952 29.92C106.232 29.92 106.46 30.0087 106.638 30.186C106.824 30.354 106.918 30.5687 106.918 30.83C106.918 31.0913 106.824 31.3107 106.638 31.488C106.46 31.656 106.232 31.74 105.952 31.74ZM105.21 40V33.056H106.694V40H105.21ZM111.943 40.168C111.262 40.168 110.65 40.014 110.109 39.706C109.577 39.398 109.157 38.9733 108.849 38.432C108.55 37.8813 108.401 37.2467 108.401 36.528C108.401 35.8093 108.55 35.1793 108.849 34.638C109.157 34.0873 109.577 33.658 110.109 33.35C110.65 33.042 111.262 32.888 111.943 32.888C112.802 32.888 113.52 33.112 114.099 33.56C114.687 34.008 115.065 34.6147 115.233 35.38H113.679C113.586 34.9973 113.38 34.6987 113.063 34.484C112.746 34.2693 112.372 34.162 111.943 34.162C111.579 34.162 111.243 34.2553 110.935 34.442C110.627 34.6193 110.38 34.8853 110.193 35.24C110.006 35.5853 109.913 36.0147 109.913 36.528C109.913 37.0413 110.006 37.4753 110.193 37.83C110.38 38.1753 110.627 38.4413 110.935 38.628C111.243 38.8147 111.579 38.908 111.943 38.908C112.372 38.908 112.746 38.8007 113.063 38.586C113.38 38.3713 113.586 38.068 113.679 37.676H115.233C115.074 38.4227 114.701 39.0247 114.113 39.482C113.525 39.9393 112.802 40.168 111.943 40.168ZM110.809 43.682V42.786H112.237C112.806 42.786 113.091 42.59 113.091 42.198C113.091 41.834 112.806 41.652 112.237 41.652H111.467V39.93H112.419V40.812C112.923 40.8027 113.348 40.9147 113.693 41.148C114.048 41.3813 114.225 41.7407 114.225 42.226C114.225 42.702 114.052 43.0613 113.707 43.304C113.371 43.556 112.96 43.682 112.475 43.682H110.809ZM117.682 31.74C117.402 31.74 117.169 31.656 116.982 31.488C116.805 31.3107 116.716 31.0913 116.716 30.83C116.716 30.5687 116.805 30.354 116.982 30.186C117.169 30.0087 117.402 29.92 117.682 29.92C117.962 29.92 118.191 30.0087 118.368 30.186C118.555 30.354 118.648 30.5687 118.648 30.83C118.648 31.0913 118.555 31.3107 118.368 31.488C118.191 31.656 117.962 31.74 117.682 31.74ZM116.94 40V33.056H118.424V40H116.94ZM120.383 40V33.056H121.699L121.811 34.274C122.026 33.8447 122.339 33.5087 122.749 33.266C123.169 33.014 123.65 32.888 124.191 32.888C125.031 32.888 125.689 33.1493 126.165 33.672C126.651 34.1947 126.893 34.974 126.893 36.01V40H125.423V36.164C125.423 34.82 124.873 34.148 123.771 34.148C123.221 34.148 122.763 34.344 122.399 34.736C122.045 35.128 121.867 35.688 121.867 36.416V40H120.383Z" fill="white"/>
<path d="M134.73 40.168C133.89 40.168 133.228 39.9067 132.742 39.384C132.266 38.8613 132.028 38.082 132.028 37.046V33.056H133.512V36.892C133.512 38.236 134.063 38.908 135.164 38.908C135.715 38.908 136.168 38.712 136.522 38.32C136.877 37.928 137.054 37.368 137.054 36.64V33.056H138.538V40H137.222L137.11 38.782C136.896 39.2113 136.578 39.552 136.158 39.804C135.748 40.0467 135.272 40.168 134.73 40.168ZM136.452 32.048C136.238 32.048 136.051 31.9733 135.892 31.824C135.743 31.6747 135.668 31.4927 135.668 31.278C135.668 31.054 135.743 30.8673 135.892 30.718C136.051 30.5687 136.238 30.494 136.452 30.494C136.667 30.494 136.849 30.5687 136.998 30.718C137.148 30.8673 137.222 31.054 137.222 31.278C137.222 31.4927 137.148 31.6747 136.998 31.824C136.849 31.9733 136.667 32.048 136.452 32.048ZM134.072 32.048C133.848 32.048 133.662 31.9733 133.512 31.824C133.363 31.6747 133.288 31.4927 133.288 31.278C133.288 31.054 133.363 30.8673 133.512 30.718C133.662 30.5687 133.848 30.494 134.072 30.494C134.287 30.494 134.469 30.5687 134.618 30.718C134.777 30.8673 134.856 31.054 134.856 31.278C134.856 31.4927 134.777 31.6747 134.618 31.824C134.469 31.9733 134.287 32.048 134.072 32.048ZM141.238 43.08L142.904 39.426H142.498L139.754 33.056H141.364L143.492 38.194L145.718 33.056H147.286L142.806 43.08H141.238ZM151.125 40.168C150.444 40.168 149.837 40.0187 149.305 39.72C148.783 39.412 148.372 38.9873 148.073 38.446C147.775 37.9047 147.625 37.2747 147.625 36.556C147.625 35.828 147.77 35.1887 148.059 34.638C148.358 34.0873 148.769 33.658 149.291 33.35C149.823 33.042 150.439 32.888 151.139 32.888C151.821 32.888 152.413 33.042 152.917 33.35C153.421 33.6487 153.813 34.05 154.093 34.554C154.373 35.058 154.513 35.6133 154.513 36.22C154.513 36.3133 154.509 36.416 154.499 36.528C154.499 36.6307 154.495 36.7473 154.485 36.878H149.081C149.128 37.55 149.347 38.0633 149.739 38.418C150.141 38.7633 150.603 38.936 151.125 38.936C151.545 38.936 151.895 38.8427 152.175 38.656C152.465 38.46 152.679 38.1987 152.819 37.872H154.303C154.117 38.5253 153.743 39.0713 153.183 39.51C152.633 39.9487 151.947 40.168 151.125 40.168ZM151.125 34.106C150.631 34.106 150.192 34.2553 149.809 34.554C149.427 34.8433 149.193 35.282 149.109 35.87H153.029C153.001 35.3287 152.81 34.8993 152.455 34.582C152.101 34.2647 151.657 34.106 151.125 34.106ZM162.829 40.168C162.166 40.168 161.569 40.0187 161.037 39.72C160.514 39.412 160.099 38.9873 159.791 38.446C159.483 37.8953 159.329 37.256 159.329 36.528C159.329 35.8 159.483 35.1653 159.791 34.624C160.108 34.0733 160.533 33.6487 161.065 33.35C161.597 33.042 162.189 32.888 162.843 32.888C163.505 32.888 164.098 33.042 164.621 33.35C165.153 33.6487 165.573 34.0733 165.881 34.624C166.198 35.1653 166.357 35.8 166.357 36.528C166.357 37.256 166.198 37.8953 165.881 38.446C165.573 38.9873 165.153 39.412 164.621 39.72C164.089 40.0187 163.491 40.168 162.829 40.168ZM162.829 38.894C163.183 38.894 163.51 38.8053 163.809 38.628C164.117 38.4507 164.364 38.1893 164.551 37.844C164.737 37.4893 164.831 37.0507 164.831 36.528C164.831 36.0053 164.737 35.5713 164.551 35.226C164.373 34.8713 164.131 34.6053 163.823 34.428C163.524 34.2507 163.197 34.162 162.843 34.162C162.488 34.162 162.157 34.2507 161.849 34.428C161.55 34.6053 161.307 34.8713 161.121 35.226C160.934 35.5713 160.841 36.0053 160.841 36.528C160.841 37.0507 160.934 37.4893 161.121 37.844C161.307 38.1893 161.55 38.4507 161.849 38.628C162.147 38.8053 162.474 38.894 162.829 38.894ZM167.961 40V29.92H169.445V40H167.961ZM173.887 40.168C173.047 40.168 172.384 39.9067 171.899 39.384C171.423 38.8613 171.185 38.082 171.185 37.046V33.056H172.669V36.892C172.669 38.236 173.219 38.908 174.321 38.908C174.871 38.908 175.324 38.712 175.679 38.32C176.033 37.928 176.211 37.368 176.211 36.64V33.056H177.695V40H176.379L176.267 38.782C176.052 39.2113 175.735 39.552 175.315 39.804C174.904 40.0467 174.428 40.168 173.887 40.168ZM179.583 40V33.056H180.899L181.011 34.274C181.225 33.8447 181.538 33.5087 181.949 33.266C182.369 33.014 182.849 32.888 183.391 32.888C184.231 32.888 184.889 33.1493 185.365 33.672C185.85 34.1947 186.093 34.974 186.093 36.01V40H184.623V36.164C184.623 34.82 184.072 34.148 182.971 34.148C182.42 34.148 181.963 34.344 181.599 34.736C181.244 35.128 181.067 35.688 181.067 36.416V40H179.583ZM188.148 37.102L187.98 30.2H189.576L189.408 37.102H188.148ZM188.82 40.084C188.531 40.084 188.293 39.9953 188.106 39.818C187.929 39.6313 187.84 39.412 187.84 39.16C187.84 38.8987 187.929 38.6793 188.106 38.502C188.293 38.3153 188.531 38.222 188.82 38.222C189.091 38.222 189.315 38.3153 189.492 38.502C189.679 38.6793 189.772 38.8987 189.772 39.16C189.772 39.412 189.679 39.6313 189.492 39.818C189.315 39.9953 189.091 40.084 188.82 40.084Z" fill="#0BCE91"/>
<circle cx="150" cy="64" r="12" fill="#0BCE91"/>
<path d="M147 61.5V59.25C147 57.5932 148.343 56.25 150 56.25C151.657 56.25 153 57.5932 153 59.25V61.5" stroke="#1C1544" stroke-linecap="round" stroke-linejoin="round"/>
<path d="M150 64.5V66.75" stroke="#1C1544" stroke-linecap="round" stroke-linejoin="round"/>
<path d="M153.75 69.75H146.25C145.421 69.75 144.75 69.0788 144.75 68.25V63C144.75 62.1712 145.421 61.5 146.25 61.5H153.75C154.579 61.5 155.25 62.1712 155.25 63V68.25C155.25 69.0788 154.579 69.75 153.75 69.75Z" stroke="#1C1544" stroke-linecap="round" stroke-linejoin="round"/>
</svg>
