<svg width="64" height="64" viewBox="0 0 64 64" fill="none" xmlns="http://www.w3.org/2000/svg">
<circle opacity="0.1" cx="32" cy="32" r="32" fill="#0BCE91"/>
<path d="M25.168 34.4L21 38.6667L24.3333 40.6667L26.3333 44L31.532 38.54" stroke="#0BCE91" stroke-width="1.5" stroke-linecap="round" stroke-linejoin="round"/>
<path d="M34.4688 38.54L39.6674 44L41.6674 40.6667L45.0007 38.6667L40.8328 34.4" stroke="#0BCE91" stroke-width="1.5" stroke-linecap="round" stroke-linejoin="round"/>
<path d="M39.599 22.7337C43.2439 26.3786 43.2439 32.2881 39.599 35.933C35.9541 39.5779 30.0446 39.5779 26.3997 35.933C22.7548 32.2881 22.7548 26.3786 26.3997 22.7337C30.0446 19.0888 35.9541 19.0888 39.599 22.7337Z" stroke="#0BCE91" stroke-width="1.5" stroke-linecap="round" stroke-linejoin="round"/>
<path d="M32.9979 32.7786L35.3939 34.0373C35.8606 34.2826 36.4059 33.8866 36.3166 33.3666L35.8592 30.6986L37.7979 28.8106C38.1752 28.4426 37.9672 27.8013 37.4459 27.7253L34.7672 27.336L33.5699 24.908C33.3366 24.4346 32.6632 24.4346 32.4299 24.908L31.2326 27.336L28.5526 27.7266C28.0312 27.8026 27.8232 28.444 28.2006 28.812L30.1392 30.7L29.6819 33.368C29.5926 33.888 30.1379 34.284 30.6046 34.0386L33.0006 32.78H32.9979V32.7786Z" stroke="#0BCE91" stroke-width="1.5" stroke-linecap="round" stroke-linejoin="round"/>
</svg>