<?xml version="1.0" encoding="utf-8"?>
<!-- Generator: Adobe Illustrator 22.1.0, SVG Export Plug-In . SVG Version: 6.00 Build 0)  -->
<svg version="1.1" id="Layer_1" xmlns="http://www.w3.org/2000/svg" xmlns:xlink="http://www.w3.org/1999/xlink" x="0px" y="0px"
	 viewBox="0 0 627 629.5" style="enable-background:new 0 0 627 629.5;" xml:space="preserve">
<style type="text/css">
	.st0{fill:#1C1544;}
	.st1{fill:none;stroke:#FFFFFF;stroke-opacity:5.000000e-02;}
	.st2{filter:url(#Adobe_OpacityMaskFilter);}
	.st3{clip-path:url(#SVGID_2_);fill:#2A2359;}
	.st4{mask:url(#mask0_1_);}
	.st5{fill:#2A2359;}
	.st6{fill:#686195;}
	.st7{fill:#332B68;}
	.st8{opacity:0.3;fill:#0BCE91;enable-background:new    ;}
	.st9{fill:#9835FF;}
	.st10{fill:#0BCE91;}
	.st11{fill:#9835FF;fill-opacity:0.16;}
	.st12{fill:#524896;}
	.st13{fill:none;stroke:#0BCE91;stroke-width:2;stroke-linecap:round;stroke-linejoin:round;}
	.st14{fill:#0BCE91;fill-opacity:0.1;}
	.st15{fill:none;stroke:#41397D;}
	.st16{fill:none;stroke:#0BCE91;stroke-width:4;stroke-linecap:round;stroke-linejoin:round;stroke-miterlimit:10;}
	.st17{fill:#2B245C;}
	.st18{fill:#FFFFFF;}
	.st19{opacity:0.1;fill:#0BCE91;enable-background:new    ;}
</style>
<g>
	<path class="st0" d="M0,456L0,0l477,0v456H0z"/>
	<path class="st1" d="M0.5,455.5l0-455l476,0v455H0.5z"/>
</g>
<defs>
	<filter id="Adobe_OpacityMaskFilter" filterUnits="userSpaceOnUse" x="0" y="0" width="477" height="456">
		<feColorMatrix  type="matrix" values="1 0 0 0 0  0 1 0 0 0  0 0 1 0 0  0 0 0 1 0"/>
	</filter>
</defs>
<mask maskUnits="userSpaceOnUse" x="0" y="0" width="477" height="456" id="mask0_1_">
	<g class="st2">
		<defs>
			<rect id="SVGID_1_" width="351" height="456"/>
		</defs>
		<clipPath id="SVGID_2_">
			<use xlink:href="#SVGID_1_"  style="overflow:visible;"/>
		</clipPath>
		<g>
			<path class="st3" d="M237.3,711.1c51.8-44.3,87.9-97.5,104.3-153.7c21.7-74.3,2.3-126.2-20.1-186.3
				c-23.8-63.9-50.8-136.3-30.7-251.8c4.3-24.4,9.7-45.4,14.9-65.7c4.7-18.3,9.2-35.7,12-53l-1-0.2c-2.9,17.3-7.3,34.6-12,52.9
				c-5.2,20.3-10.6,41.3-14.9,65.8c-20.2,115.7,6.9,188.3,30.7,252.3c22.4,60,41.7,111.8,20.1,185.7c-16.3,56-52.3,109-103.9,153.2
				c-47.8,40.9-106.2,72.5-169,91.2l0.3,1C130.9,783.8,189.4,752.1,237.3,711.1z"/>
			<path class="st3" d="M188.9,672.5c55.7-42.5,93.9-95,110.4-151.8c19.5-66.8,2.1-113.6-18.1-167.7
				c-21.5-57.5-45.8-122.7-27.6-226.6c3.8-22,8.7-40.8,13.4-59.1c5.9-22.9,11.4-44.4,13.2-66.8l-1-0.1c-1.8,22.3-7.3,43.8-13.2,66.6
				c-4.7,18.3-9.6,37.2-13.4,59.2c-18.2,104.2,6.2,169.5,27.7,227.1c20.1,54,37.5,100.6,18.1,167.1
				c-16.5,56.6-54.5,108.9-110.1,151.3c-50.8,38.8-113.2,66.7-175.7,78.5l-0.2,0l0.2,1l0.2,0C75.4,739.4,138,711.4,188.9,672.5z"/>
			<path class="st3" d="M162,624.3c50.1-38.3,84.5-85.5,99.4-136.7c17.6-60.2,1.9-102.3-16.3-151c-19.3-51.8-41.2-110.4-24.8-203.9
				c3.5-19.8,7.8-36.8,12.1-53.3c7.1-27.6,13.3-51.5,12.3-79l-1,0c0.9,27.4-5.2,51.2-12.3,78.8c-4.2,16.5-8.6,33.5-12.1,53.4
				c-4,23.1-5.7,44-5.7,63.3c0,59,16.1,102,30.6,141.1c18.1,48.6,33.8,90.5,16.3,150.4c-14.8,50.9-49.1,98-99.1,136.1
				c-45.7,34.9-101.9,60-158.1,70.7c-0.6,0.1-1.5,0.3-2.9,0.5l0.2,1c1.3-0.2,2.3-0.4,2.9-0.5C59.8,684.5,116.2,659.3,162,624.3z"/>
			<path class="st3" d="M227.2,457.9c15.8-54.2,1.7-92.1-14.7-135.9c-17.4-46.6-37.1-99.4-22.4-183.5c3.1-17.8,7-33.1,10.8-47.9
				c7.9-30.6,14.7-57,9.2-90.2l-1,0.2c5.4,33.1-1.4,59.4-9.2,89.8c-3.8,14.8-7.8,30.1-10.9,48c-14.7,84.4,5,137.3,22.4,184
				c16.3,43.7,30.4,81.4,14.7,135.3c-13.1,44.9-43.1,86.7-86.8,120.7c-39.9,31.1-89.3,53.9-139.1,64.3l0.2,1
				c49.9-10.4,99.4-33.3,139.5-64.5C183.9,545,214,503.1,227.2,457.9z"/>
			<path class="st3" d="M196.5,431.2c14.2-48.8,1.5-82.9-13.2-122.4c-15.6-41.9-33.3-89.4-20.1-165.1c2.8-16,6.3-29.8,9.8-43.1
				c8.1-31.5,15.1-58.8,5.1-96.3c-0.3-1-0.7-2.4-1.1-4l-1,0.3c0.5,1.6,0.9,3,1.1,4c10,37.2,3.4,63.1-5.1,95.8
				c-3.4,13.3-7,27.1-9.8,43.2c-13.3,76,4.5,123.6,20.2,165.7c14.7,39.3,27.3,73.3,13.2,121.7c-11.4,39.2-37.3,75.8-74.7,105.9
				c-34.2,27.5-77,48.3-120.4,58.7l0.2,1c43.6-10.4,86.5-31.3,120.8-58.9C159,507.4,185,470.6,196.5,431.2z"/>
			<path class="st3" d="M168.8,407.1c12.8-43.9,1.4-74.6-11.9-110.2c-14.1-37.7-30-80.4-18.1-148.6c2.5-14.4,5.7-26.8,8.8-38.7
				c7.3-28.4,13.6-52.9,4.6-86.7c-1.1-4.1-3.6-12.6-7.7-22.7l-0.9,0.4c4.1,10.1,6.6,18.5,7.7,22.6c9,33.5,3,56.8-4.6,86.2
				c-3.1,12-6.3,24.4-8.8,38.8c-11.9,68.4,4.1,111.3,18.2,149.1c13.2,35.4,24.6,65.9,11.9,109.5c-9.9,34-32,66.1-63.9,92.6
				C74.8,523.7,38,542.7,0.3,552.9l0.3,1c37.8-10.3,74.7-29.3,103.9-53.7C136.6,473.5,158.8,441.4,168.8,407.1z"/>
			<path class="st3" d="M143.9,385.5c11.5-39.5,1.2-67.2-10.7-99.2c-12.7-33.9-27-72.4-16.3-133.7c2.3-13,5.1-24.2,7.9-35
				c6.6-25.5,12.2-47.6,4.1-78c-1.7-6.2-6.6-22.6-16.1-39.5l-0.9,0.5c9.4,16.8,14.3,33,16,39.2c8.1,30.1,2.7,51-4.1,77.5
				c-2.8,10.8-5.7,22-7.9,35c-10.7,61.6,3.7,100.2,16.4,134.2c11.9,31.8,22.1,59.3,10.7,98.5c-8.6,29.4-27.3,57.2-54.2,80.5
				c-24.9,21.6-55.4,38.3-88.3,48.5l0.3,1c33-10.2,63.7-27.1,88.7-48.7C116.4,443.1,135.2,415,143.9,385.5z"/>
			<path class="st3" d="M121.4,366c10.4-35.6,1.1-60.5-9.6-89.3c-11.4-30.5-24.3-65.1-14.7-120.3c2-11.7,4.6-21.7,7.1-31.4
				c5.9-23,11-42.8,3.7-70.2c-2-7.6-10-34.1-27.8-54.6l-0.8,0.6C97,21.1,104.9,47.4,106.9,55c7.3,27.1,2.4,45.9-3.7,69.7
				c-2.5,9.7-5.1,19.8-7.1,31.5c-9.7,55.4,3.3,90.2,14.7,120.8c10.7,28.6,19.9,53.4,9.6,88.7c-14.3,48.9-60.3,92.4-120.2,113.4
				l0.3,0.9C60.8,459,107.1,415.2,121.4,366z"/>
			<path class="st3" d="M101.2,348.4c9.3-32.1,1-54.5-8.7-80.4c-10.2-27.5-21.8-58.6-13.2-108.2c1.8-10.5,4.2-19.5,6.4-28.2
				c5.3-20.7,9.9-38.6,3.3-63.3C85.7,55.8,72.2,14.1,38.7,0l-0.4,0.9c14.5,6.1,27,18.3,36.9,36c7.3,13,11.2,25.4,12.9,31.6
				c6.5,24.4,2.2,41.3-3.3,62.8c-2.3,8.7-4.6,17.8-6.4,28.3c-8.7,49.9,3,81.2,13.3,108.7c9.6,25.8,17.9,48,8.7,79.8
				c-12.2,41.8-49.6,78.8-100,99l0.4,0.9C51.3,427.8,88.9,390.5,101.2,348.4z"/>
			<path class="st3" d="M83,332.7c8.4-28.9,0.9-49.1-7.8-72.4c-9.2-24.7-19.7-52.7-11.9-97.4c1.7-9.4,3.7-17.6,5.8-25.4
				c4.8-18.7,9-34.8,3-57c-1.3-4.8-5.1-17.3-12.4-30C50,33.8,37.8,22.7,23.5,17.8c-7.3-2.5-14.8-3.3-23-2.6l0.1,1
				c8.1-0.8,15.5,0.1,22.6,2.5C37.2,23.6,49.3,34.5,58.9,51c7.3,12.6,11.1,25,12.3,29.8c5.9,21.9,2,37.2-3,56.5
				c-2,7.9-4.1,16-5.8,25.5c-7.8,44.9,2.7,73,11.9,97.9c8.6,23.2,16.1,43.2,7.8,71.8C71.8,367.8,42,399,0.3,418l0.4,0.9
				C42.6,399.8,72.6,368.3,83,332.7z"/>
			<path class="st3" d="M66.7,318.4c7.6-26,0.8-44.2-7-65.2C51.4,231,42,205.8,49,165.6c1.5-8.5,3.4-15.8,5.2-22.8
				c4.3-16.8,8.1-31.3,2.7-51.4c-1.5-5.4-4.8-16-11.2-27c-8.8-15.1-19.8-25-32.7-29.5c-4.1-1.4-8.2-2.2-12.5-2.5l-0.1,1
				c4.2,0.3,8.3,1,12.2,2.4C25.3,40.2,36.2,50,44.8,64.9c6.3,10.9,9.7,21.4,11.1,26.8c5.3,19.8,1.8,33.5-2.7,50.8
				c-1.8,7.1-3.7,14.4-5.2,22.9c-7.1,40.4,2.4,65.8,10.7,88.2c7.8,20.9,14.5,38.9,7,64.6c-8.5,29.1-32.3,55.7-65.5,73.1l0.5,0.9
				C34.1,374.6,58.2,347.8,66.7,318.4z"/>
			<path class="st3" d="M52.1,305.7c6.8-23.4,0.7-39.8-6.3-58.7c-7.5-20-15.9-42.7-9.6-78.9c1.3-7.7,3-14.2,4.7-20.6
				c3.9-15.1,7.3-28.2,2.4-46.2c-2.6-9.6-13.1-41.8-39.5-50.9c-1-0.4-2-0.7-3.1-0.9l-0.2,1c1.1,0.3,2.1,0.6,3.1,0.9
				c11.4,3.9,21.1,12.7,28.9,26.1c5.7,9.8,8.7,19.3,10,24.1c4.7,17.7,1.6,30-2.4,45.6c-1.6,6.4-3.3,13-4.7,20.7
				c-6.4,36.4,2.2,59.3,9.7,79.4c7,18.8,13,35,6.3,58.1c-6.9,23.8-25,45.5-50.9,61.1l0.5,0.9C26.8,351.6,45.1,329.6,52.1,305.7z"/>
			<path class="st3" d="M38.8,294.1c6.1-21.1,0.7-35.8-5.7-52.9c-6.7-18-14.3-38.4-8.6-70.9c1.2-6.9,2.7-12.8,4.2-18.5
				c3.5-13.6,6.5-25.4,2.2-41.6c-2-7.6-10.2-33-30.2-43.5l-0.5,0.9c19.6,10.3,27.7,35.4,29.7,42.9c4.3,16,1.4,27-2.2,41.1
				c-1.5,5.7-3,11.7-4.2,18.6c-5.7,32.8,1.9,53.3,8.7,71.5c6.3,16.9,11.7,31.5,5.7,52.2c-5.5,18.8-18.5,36-37.7,49.7l0.6,0.8
				C20.1,330.5,33.3,313.2,38.8,294.1z"/>
			<path class="st3" d="M26.9,283.8c5.5-19,0.6-32.2-5.1-47.6c-6-16.2-12.9-34.6-7.8-63.8c1.1-6.2,2.4-11.5,3.8-16.7
				c3.1-12.3,5.9-22.8,2-37.4c-1.7-6.5-7.1-22.6-18.9-33.3l-0.7,0.7c12,10.9,17.3,27.9,18.6,32.9c3.8,14.3,1.3,24.3-2,36.9
				c-1.3,5.2-2.7,10.5-3.8,16.8c-5.1,29.5,1.8,48,7.8,64.3c5.7,15.2,10.6,28.3,5.1,47c-4.1,14-13,27.2-25.8,38.3l0.7,0.8
				C13.7,311.3,22.7,297.9,26.9,283.8z"/>
			<path class="st3" d="M11.5,231.6c-5.4-14.6-11.6-31.1-7-57.4c1-5.6,2.2-10.4,3.4-15c2.8-11,5.3-20.6,1.8-33.8
				c-0.9-3.3-3.5-11.9-8.8-20.1L0,105.8c5.2,8.1,7.8,16.6,8.7,19.9c3.5,12.9,1.1,21.9-1.8,33.3c-1.2,4.6-2.4,9.4-3.4,15.1
				c-4.7,26.6,1.6,43.2,7,57.9c5.1,13.7,9.5,25.4,4.6,42.2c-2.7,9.4-7.8,18.3-15.1,26.5l0.8,0.7c7.4-8.3,12.5-17.3,15.3-26.9
				C21.1,257.3,16.7,245.4,11.5,231.6z"/>
			<path class="st3" d="M2.3,227.4c-0.5-1.2-0.9-2.4-1.4-3.7L0,224.1c0.5,1.3,0.9,2.5,1.4,3.7c4.6,12.3,8.5,22.9,4.1,38
				c-1.3,4.3-3.1,8.6-5.5,12.7l0.9,0.5c2.4-4.2,4.3-8.5,5.6-12.9C11,250.6,7,239.9,2.3,227.4z"/>
		</g>
	</g>
</mask>
<g class="st4">
	<g>
		<path class="st5" d="M0,456L0,0l477,0v456H0z"/>
		<path class="st1" d="M0.5,455.5l0-455l476,0v455H0.5z"/>
	</g>
</g>
<path class="st6" d="M80.3,81.3c-1.4,0-2.7-0.3-3.8-0.8c-1.1-0.6-2-1.4-2.7-2.5c-0.7-1.1-1-2.6-1-4.3V61.4h3v12.3
	c0,1.7,0.4,3,1.2,3.8c0.8,0.8,1.9,1.2,3.3,1.2c1.4,0,2.5-0.4,3.3-1.2c0.8-0.8,1.2-2.1,1.2-3.8V61.4h3v12.2c0,1.8-0.3,3.2-1,4.3
	c-0.7,1.1-1.6,2-2.7,2.5C83,81.1,81.7,81.3,80.3,81.3z M82.7,59.4c-0.4,0-0.8-0.1-1.1-0.4c-0.3-0.3-0.4-0.7-0.4-1.1
	c0-0.4,0.1-0.8,0.4-1.1c0.3-0.3,0.7-0.4,1.1-0.4c0.4,0,0.8,0.1,1.1,0.4c0.3,0.3,0.4,0.7,0.4,1.1c0,0.4-0.1,0.8-0.4,1.1
	C83.5,59.2,83.2,59.4,82.7,59.4z M78,59.4c-0.4,0-0.8-0.1-1.1-0.4c-0.3-0.3-0.4-0.7-0.4-1.1c0-0.4,0.1-0.8,0.4-1.1
	c0.3-0.3,0.7-0.4,1.1-0.4c0.4,0,0.8,0.1,1.1,0.4c0.3,0.3,0.5,0.7,0.5,1.1c0,0.4-0.2,0.8-0.5,1.1C78.8,59.2,78.4,59.4,78,59.4z
	 M96.8,81.3c-1.4,0-2.6-0.3-3.7-0.9c-1.1-0.6-1.9-1.5-2.5-2.5c-0.6-1.1-0.9-2.4-0.9-3.8s0.3-2.7,0.9-3.8c0.6-1.1,1.5-2,2.5-2.6
	c1.1-0.6,2.3-0.9,3.7-0.9c1.7,0,3.2,0.4,4.3,1.3c1.2,0.9,1.9,2.1,2.3,3.6h-3.1C100,71,99.6,70.4,99,70c-0.6-0.4-1.4-0.6-2.2-0.6
	c-0.7,0-1.4,0.2-2,0.6c-0.6,0.4-1.1,0.9-1.5,1.6c-0.4,0.7-0.6,1.5-0.6,2.6s0.2,1.9,0.6,2.6c0.4,0.7,0.9,1.2,1.5,1.6
	c0.6,0.4,1.3,0.6,2,0.6c0.9,0,1.6-0.2,2.2-0.6c0.6-0.4,1-1,1.2-1.8h3.1c-0.3,1.5-1.1,2.7-2.2,3.6C99.9,80.9,98.5,81.3,96.8,81.3z
	 M105.2,81V67.1h2.7l0.3,2.6c0.5-0.9,1.2-1.6,2-2.2c0.9-0.5,1.9-0.8,3.2-0.8v3.1h-0.8c-0.8,0-1.6,0.1-2.2,0.4
	c-0.6,0.3-1.1,0.7-1.5,1.4c-0.4,0.6-0.6,1.5-0.6,2.7V81H105.2z M120.5,81.3c-1.4,0-2.6-0.3-3.6-0.9c-1-0.6-1.9-1.5-2.5-2.5
	c-0.6-1.1-0.9-2.3-0.9-3.8c0-1.5,0.3-2.7,0.9-3.8c0.6-1.1,1.4-2,2.5-2.6c1.1-0.6,2.3-0.9,3.7-0.9c1.4,0,2.5,0.3,3.6,0.9
	c1,0.6,1.8,1.4,2.4,2.4c0.6,1,0.8,2.1,0.8,3.3c0,0.2,0,0.4,0,0.6c0,0.2,0,0.4,0,0.7h-10.8c0.1,1.3,0.5,2.4,1.3,3.1
	c0.8,0.7,1.7,1,2.8,1c0.8,0,1.5-0.2,2.1-0.6c0.6-0.4,1-0.9,1.3-1.6h3c-0.4,1.3-1.1,2.4-2.2,3.3C123.5,80.9,122.2,81.3,120.5,81.3z
	 M120.5,69.2c-1,0-1.9,0.3-2.6,0.9c-0.8,0.6-1.2,1.5-1.4,2.6h7.8c-0.1-1.1-0.4-1.9-1.1-2.6C122.5,69.5,121.6,69.2,120.5,69.2z
	 M134.4,81c-1.4,0-2.4-0.3-3.2-1c-0.8-0.7-1.2-1.9-1.2-3.6v-6.9h-2.4v-2.5h2.4l0.4-3.5h2.6v3.5h3.9v2.5h-3.9v6.9
	c0,0.8,0.2,1.3,0.5,1.6c0.3,0.3,0.9,0.4,1.7,0.4h1.6V81H134.4z M144.1,81.3c-1.8,0-3.2-0.4-4.3-1.3c-1.1-0.9-1.8-2-2-3.4h3
	c0.1,0.6,0.5,1.2,1.1,1.7c0.6,0.4,1.3,0.7,2.2,0.7c0.9,0,1.5-0.2,2-0.6c0.4-0.4,0.6-0.8,0.6-1.3c0-0.7-0.3-1.2-0.9-1.4
	c-0.6-0.3-1.3-0.5-2.4-0.7c-0.8-0.2-1.6-0.4-2.4-0.7c-0.8-0.3-1.4-0.7-1.9-1.2c-0.5-0.5-0.8-1.2-0.8-2.1c0-1.2,0.5-2.2,1.4-3
	c0.9-0.8,2.2-1.2,3.9-1.2c1.6,0,2.8,0.4,3.8,1.1c1,0.7,1.5,1.8,1.7,3.2h-2.9c-0.1-0.6-0.4-1.1-0.8-1.4c-0.4-0.3-1.1-0.5-1.8-0.5
	c-0.7,0-1.3,0.2-1.7,0.5c-0.4,0.3-0.6,0.7-0.6,1.2s0.3,0.9,0.8,1.1c0.6,0.3,1.3,0.5,2.3,0.8c0.9,0.2,1.8,0.4,2.6,0.7
	c0.8,0.3,1.4,0.7,1.9,1.2c0.5,0.5,0.7,1.3,0.7,2.3c0,1.3-0.5,2.3-1.5,3.2C147.1,80.9,145.8,81.3,144.1,81.3z M153.1,64.5
	c-0.6,0-1-0.2-1.4-0.5c-0.4-0.4-0.5-0.8-0.5-1.3s0.2-1,0.5-1.3c0.4-0.4,0.8-0.5,1.4-0.5s1,0.2,1.4,0.5c0.4,0.3,0.6,0.8,0.6,1.3
	s-0.2,1-0.6,1.3C154.2,64.3,153.7,64.5,153.1,64.5z M151.7,81V67.1h3V81H151.7z M156.2,81v-2.4l7.4-9h-7.3v-2.5H167v2.4l-7.5,9h7.6
	V81H156.2z M73,113V93.4h7.4c2,0,3.6,0.5,4.6,1.4c1,1,1.6,2.1,1.6,3.6c0,1.3-0.3,2.2-1,3c-0.7,0.7-1.5,1.2-2.4,1.5
	c0.7,0.1,1.4,0.4,2,0.9c0.6,0.4,1.1,1,1.4,1.7c0.3,0.7,0.5,1.4,0.5,2.2c0,1-0.3,1.9-0.8,2.7c-0.5,0.8-1.2,1.4-2.2,1.9
	c-1,0.5-2.1,0.7-3.5,0.7H73z M76,101.8H80c1.1,0,2-0.3,2.6-0.8c0.6-0.5,0.9-1.3,0.9-2.2c0-0.9-0.3-1.6-0.9-2.2
	c-0.6-0.5-1.5-0.8-2.7-0.8h-4V101.8z M76,110.6h4.3c1.2,0,2.1-0.3,2.8-0.8c0.7-0.6,1-1.3,1-2.4c0-1-0.3-1.8-1-2.4
	c-0.7-0.6-1.6-0.9-2.8-0.9H76V110.6z M93.5,113.3c-1.2,0-2.1-0.2-2.9-0.6c-0.8-0.4-1.3-0.9-1.7-1.5c-0.4-0.7-0.6-1.4-0.6-2.1
	c0-1.3,0.5-2.4,1.6-3.2c1-0.8,2.5-1.2,4.5-1.2H98v-0.3c0-1.1-0.3-1.9-0.9-2.4c-0.6-0.5-1.3-0.8-2.3-0.8c-0.8,0-1.5,0.2-2.2,0.6
	c-0.6,0.4-1,1-1.1,1.8h-3c0.1-1,0.4-1.9,1-2.6c0.6-0.7,1.3-1.3,2.2-1.7c0.9-0.4,1.9-0.6,3-0.6c1.9,0,3.4,0.5,4.5,1.5
	c1.1,1,1.6,2.4,1.6,4.1v8.5h-2.6l-0.3-2.4c-0.4,0.8-1,1.4-1.7,1.9C95.7,113.1,94.7,113.3,93.5,113.3z M94,110.9c0.8,0,1.5-0.2,2-0.6
	c0.6-0.4,1-0.9,1.3-1.5c0.3-0.6,0.5-1.3,0.6-2.1h-3.3c-1.2,0-2,0.2-2.5,0.6c-0.5,0.4-0.7,0.9-0.7,1.5c0,0.6,0.2,1.1,0.7,1.5
	C92.6,110.8,93.2,110.9,94,110.9z M108.5,113.3c-1.8,0-3.2-0.4-4.3-1.3c-1.1-0.9-1.8-2-2-3.4h3c0.1,0.6,0.5,1.2,1.1,1.7
	c0.6,0.4,1.3,0.7,2.2,0.7c0.9,0,1.5-0.2,2-0.6c0.4-0.4,0.6-0.8,0.6-1.3c0-0.7-0.3-1.2-0.9-1.4c-0.6-0.3-1.3-0.5-2.4-0.7
	c-0.8-0.2-1.6-0.4-2.4-0.7c-0.8-0.3-1.4-0.7-1.9-1.2c-0.5-0.5-0.8-1.2-0.8-2.1c0-1.2,0.5-2.2,1.4-3c0.9-0.8,2.2-1.2,3.9-1.2
	c1.5,0,2.8,0.4,3.8,1.1c1,0.7,1.5,1.8,1.7,3.2h-2.9c-0.1-0.6-0.4-1.1-0.8-1.4c-0.4-0.3-1.1-0.5-1.8-0.5c-0.7,0-1.3,0.2-1.7,0.5
	c-0.4,0.3-0.6,0.7-0.6,1.2s0.3,0.9,0.8,1.1c0.6,0.3,1.3,0.5,2.3,0.8c0.9,0.2,1.8,0.4,2.6,0.7c0.8,0.3,1.4,0.7,1.9,1.2
	c0.5,0.5,0.7,1.3,0.7,2.3c0,1.3-0.5,2.3-1.5,3.2C111.6,112.9,110.3,113.3,108.5,113.3z M106.1,120.3v-1.8h2.9c1.1,0,1.7-0.4,1.7-1.2
	c0-0.7-0.6-1.1-1.7-1.1h-1.5v-3.4h1.9v1.8c1,0,1.9,0.2,2.5,0.7c0.7,0.5,1.1,1.2,1.1,2.2c0,1-0.3,1.7-1,2.2c-0.7,0.5-1.5,0.8-2.5,0.8
	H106.1z M120.6,113.3c-1.2,0-2.1-0.2-2.9-0.6s-1.3-0.9-1.7-1.5c-0.4-0.7-0.6-1.4-0.6-2.1c0-1.3,0.5-2.4,1.6-3.2
	c1-0.8,2.5-1.2,4.5-1.2h3.6v-0.3c0-1.1-0.3-1.9-0.9-2.4c-0.6-0.5-1.3-0.8-2.3-0.8c-0.8,0-1.5,0.2-2.2,0.6c-0.6,0.4-1,1-1.1,1.8h-3
	c0.1-1,0.4-1.9,1-2.6c0.6-0.7,1.3-1.3,2.2-1.7c0.9-0.4,1.9-0.6,3-0.6c1.9,0,3.4,0.5,4.5,1.5c1.1,1,1.6,2.4,1.6,4.1v8.5h-2.6
	l-0.3-2.4c-0.4,0.8-1,1.4-1.7,1.9C122.8,113.1,121.8,113.3,120.6,113.3z M121.2,110.9c0.8,0,1.5-0.2,2-0.6c0.6-0.4,1-0.9,1.3-1.5
	c0.3-0.6,0.5-1.3,0.6-2.1h-3.3c-1.2,0-2,0.2-2.5,0.6c-0.5,0.4-0.7,0.9-0.7,1.5c0,0.6,0.2,1.1,0.7,1.5
	C119.7,110.8,120.4,110.9,121.2,110.9z M130.2,113V99.1h2.7l0.3,2.6c0.5-0.9,1.2-1.6,2-2.2c0.9-0.5,1.9-0.8,3.2-0.8v3.1h-0.8
	c-0.8,0-1.6,0.1-2.2,0.4c-0.6,0.3-1.1,0.7-1.5,1.4c-0.4,0.6-0.6,1.5-0.6,2.7v6.7H130.2z M139.4,113V99.1h3V113H139.4z M157,113.3
	c-1.4,0-2.7-0.3-3.8-0.8c-1.1-0.5-1.9-1.2-2.5-2.2c-0.6-0.9-0.9-2-0.9-3.3h3.1c0,1,0.4,1.9,1.1,2.7c0.7,0.7,1.7,1.1,3,1.1
	c1.1,0,2-0.3,2.7-0.8c0.7-0.6,1-1.3,1-2.1c0-0.7-0.2-1.3-0.5-1.7c-0.3-0.4-0.7-0.8-1.3-1.1c-0.5-0.3-1.1-0.5-1.8-0.8
	c-0.7-0.2-1.4-0.5-2.2-0.7c-1.5-0.5-2.7-1.2-3.4-2c-0.7-0.8-1.1-1.9-1.1-3.2c0-1.1,0.2-2.1,0.8-2.9c0.5-0.8,1.3-1.5,2.2-1.9
	c1-0.5,2.1-0.7,3.4-0.7c1.3,0,2.4,0.2,3.3,0.7c1,0.5,1.7,1.1,2.3,2c0.5,0.8,0.8,1.8,0.8,2.9H160c0-0.5-0.1-1-0.4-1.4
	c-0.3-0.5-0.6-0.8-1.1-1.1c-0.5-0.3-1.1-0.4-1.8-0.4c-0.9,0-1.7,0.2-2.3,0.7c-0.6,0.5-0.9,1.2-0.9,2c0,0.8,0.2,1.4,0.7,1.8
	c0.4,0.4,1.1,0.8,1.8,1c0.8,0.3,1.7,0.6,2.7,0.9c1,0.3,1.8,0.7,2.6,1.1c0.8,0.4,1.4,1,1.8,1.8c0.5,0.7,0.7,1.7,0.7,2.8
	c0,1-0.3,1.9-0.8,2.8c-0.5,0.8-1.3,1.5-2.3,2.1C159.7,113.1,158.4,113.3,157,113.3z M171.9,113.3c-1.4,0-2.6-0.3-3.6-0.9
	c-1-0.6-1.9-1.5-2.5-2.5c-0.6-1.1-0.9-2.3-0.9-3.8c0-1.5,0.3-2.7,0.9-3.8c0.6-1.1,1.4-2,2.5-2.6c1.1-0.6,2.3-0.9,3.7-0.9
	c1.4,0,2.5,0.3,3.6,0.9c1,0.6,1.8,1.4,2.4,2.4c0.6,1,0.8,2.1,0.8,3.3c0,0.2,0,0.4,0,0.6c0,0.2,0,0.4,0,0.7h-10.8
	c0.1,1.3,0.5,2.4,1.3,3.1c0.8,0.7,1.7,1,2.8,1c0.8,0,1.5-0.2,2.1-0.6c0.6-0.4,1-0.9,1.3-1.6h3c-0.4,1.3-1.1,2.4-2.2,3.3
	C175,112.9,173.6,113.3,171.9,113.3z M171.9,101.2c-1,0-1.9,0.3-2.6,0.9c-0.8,0.6-1.2,1.5-1.4,2.6h7.8c-0.1-1.1-0.4-1.9-1.1-2.6
	C173.9,101.5,173,101.2,171.9,101.2z M180.4,113V99.1h2.7l0.3,2.6c0.5-0.9,1.2-1.6,2-2.2c0.9-0.5,1.9-0.8,3.2-0.8v3.1h-0.8
	c-0.8,0-1.6,0.1-2.2,0.4c-0.6,0.3-1.1,0.7-1.5,1.4c-0.4,0.6-0.6,1.5-0.6,2.7v6.7H180.4z M195.5,113c-1.4,0-2.4-0.3-3.2-1
	c-0.8-0.7-1.2-1.9-1.2-3.6v-6.9h-2.4v-2.5h2.4l0.4-3.5h2.6v3.5h3.9v2.5H194v6.9c0,0.8,0.2,1.3,0.5,1.6c0.3,0.3,0.9,0.4,1.7,0.4h1.6
	v2.5H195.5z M201.2,96.5c-0.6,0-1-0.2-1.4-0.5c-0.4-0.4-0.5-0.8-0.5-1.3c0-0.5,0.2-1,0.5-1.3c0.4-0.4,0.8-0.5,1.4-0.5
	c0.6,0,1,0.2,1.4,0.5c0.4,0.3,0.6,0.8,0.6,1.3c0,0.5-0.2,1-0.6,1.3C202.3,96.3,201.8,96.5,201.2,96.5z M199.8,113V99.1h3V113H199.8z
	 M205.9,113v-11.4h-2v-2.5h2v-2c0-1.5,0.4-2.6,1.1-3.2c0.8-0.7,1.8-1,3.2-1h1.5v2.5h-1c-0.7,0-1.1,0.1-1.4,0.4
	c-0.3,0.3-0.4,0.7-0.4,1.3v2h8.8V113h-3v-11.4h-5.8V113H205.9z M216.2,96.8c-0.6,0-1-0.2-1.4-0.5c-0.4-0.4-0.5-0.8-0.5-1.3
	c0-0.5,0.2-1,0.5-1.3c0.4-0.3,0.8-0.5,1.4-0.5c0.6,0,1,0.2,1.4,0.5c0.4,0.3,0.6,0.8,0.6,1.3c0,0.5-0.2,1-0.6,1.3
	C217.3,96.6,216.8,96.8,216.2,96.8z M220.2,113V92.8h3v12l5.3-5.7h3.6l-5.9,6.3l6.8,7.6h-3.8l-6-7.1v7.1H220.2z M238.3,113.3
	c-1.2,0-2.1-0.2-2.9-0.6c-0.8-0.4-1.3-0.9-1.7-1.5c-0.4-0.7-0.6-1.4-0.6-2.1c0-1.3,0.5-2.4,1.6-3.2c1-0.8,2.5-1.2,4.5-1.2h3.6v-0.3
	c0-1.1-0.3-1.9-0.9-2.4c-0.6-0.5-1.3-0.8-2.3-0.8c-0.8,0-1.5,0.2-2.2,0.6c-0.6,0.4-1,1-1.1,1.8h-3c0.1-1,0.4-1.9,1-2.6
	c0.6-0.7,1.3-1.3,2.2-1.7c0.9-0.4,1.9-0.6,3-0.6c1.9,0,3.4,0.5,4.5,1.5c1.1,1,1.6,2.4,1.6,4.1v8.5h-2.6l-0.3-2.4
	c-0.4,0.8-1,1.4-1.7,1.9C240.5,113.1,239.5,113.3,238.3,113.3z M238.8,110.9c0.8,0,1.5-0.2,2-0.6c0.6-0.4,1-0.9,1.3-1.5
	c0.3-0.6,0.5-1.3,0.6-2.1h-3.3c-1.2,0-2,0.2-2.5,0.6c-0.5,0.4-0.7,0.9-0.7,1.5c0,0.6,0.2,1.1,0.7,1.5
	C237.4,110.8,238,110.9,238.8,110.9z M253.3,113.3c-1.8,0-3.2-0.4-4.3-1.3c-1.1-0.9-1.8-2-2-3.4h3c0.1,0.6,0.5,1.2,1.1,1.7
	c0.6,0.4,1.3,0.7,2.2,0.7c0.9,0,1.5-0.2,2-0.6c0.4-0.4,0.6-0.8,0.6-1.3c0-0.7-0.3-1.2-0.9-1.4c-0.6-0.3-1.3-0.5-2.4-0.7
	c-0.8-0.2-1.6-0.4-2.4-0.7c-0.8-0.3-1.4-0.7-1.9-1.2c-0.5-0.5-0.8-1.2-0.8-2.1c0-1.2,0.5-2.2,1.4-3c0.9-0.8,2.2-1.2,3.9-1.2
	c1.5,0,2.8,0.4,3.8,1.1c1,0.7,1.5,1.8,1.7,3.2h-2.9c-0.1-0.6-0.4-1.1-0.8-1.4c-0.4-0.3-1.1-0.5-1.8-0.5c-0.7,0-1.3,0.2-1.7,0.5
	c-0.4,0.3-0.6,0.7-0.6,1.2s0.3,0.9,0.8,1.1c0.6,0.3,1.3,0.5,2.3,0.8c0.9,0.2,1.8,0.4,2.6,0.7c0.8,0.3,1.4,0.7,1.9,1.2
	c0.5,0.5,0.7,1.3,0.7,2.3c0,1.3-0.5,2.3-1.5,3.2C256.4,112.9,255.1,113.3,253.3,113.3z M260.7,113V99.1h3V113H260.7z M266.7,107.2
	l-0.3-13.8h3.2l-0.3,13.8H266.7z M268,113.2c-0.6,0-1.1-0.2-1.4-0.5c-0.4-0.4-0.5-0.8-0.5-1.3c0-0.5,0.2-1,0.5-1.3
	c0.4-0.4,0.8-0.6,1.4-0.6c0.5,0,1,0.2,1.3,0.6c0.4,0.4,0.6,0.8,0.6,1.3c0,0.5-0.2,0.9-0.6,1.3C269,113,268.5,113.2,268,113.2z"/>
<rect x="71" y="161" class="st5" width="268" height="469"/>
<rect x="71.5" y="161.5" class="st1" width="267" height="468"/>
<path class="st7" d="M155,578h100v4H155V578z"/>
<path class="st7" d="M155,586h100v4H155V586z"/>
<path class="st7" d="M155,594h100v4H155V594z"/>
<path class="st8" d="M116.8,214.1c3.9,0,7-3.2,7-7.1c0-3.9-3.1-7.1-7-7.1c-3.9,0-7,3.2-7,7.1C109.8,210.9,112.9,214.1,116.8,214.1z"
	/>
<path class="st9" d="M117.2,195.1c4.9,0.2,9,3.3,10.6,7.7h4.3c-1.8-6.6-7.6-11.5-14.7-11.8c-7.5-0.3-13.9,4.8-15.8,11.8h4.3
	C107.5,198.2,112,194.9,117.2,195.1z"/>
<path class="st10" d="M116.8,207l8.3,8.4c-2.2,2.3-5.3,3.6-8.7,3.5c-6.3-0.2-11.3-5.5-11.3-11.9H101c0,8.6,6.7,15.7,15.3,16
	c8.7,0.3,16-6.6,16.3-15.5c0-0.2,0-0.4,0-0.6L116.8,207L116.8,207z"/>
<path class="st11" d="M215,191h94v32h-94V191z"/>
<path class="st9" d="M236.3,212.2c-0.8,0-1.5-0.2-2.2-0.5c-0.6-0.3-1.2-0.8-1.5-1.5c-0.4-0.7-0.6-1.5-0.6-2.5v-7h1.7v7
	c0,1,0.2,1.7,0.7,2.2c0.5,0.5,1.1,0.7,1.9,0.7c0.8,0,1.4-0.2,1.9-0.7s0.7-1.2,0.7-2.2v-7h1.7v7c0,1-0.2,1.8-0.6,2.5
	c-0.4,0.7-0.9,1.1-1.6,1.5C237.8,212,237.1,212.2,236.3,212.2z M237.7,199.6c-0.2,0-0.5-0.1-0.6-0.3c-0.2-0.2-0.3-0.4-0.3-0.6
	c0-0.3,0.1-0.5,0.3-0.6c0.2-0.2,0.4-0.3,0.6-0.3c0.2,0,0.5,0.1,0.6,0.3c0.2,0.2,0.3,0.4,0.3,0.6c0,0.2-0.1,0.5-0.3,0.6
	C238.2,199.6,237.9,199.6,237.7,199.6z M235,199.6c-0.3,0-0.5-0.1-0.6-0.3c-0.2-0.2-0.3-0.4-0.3-0.6c0-0.3,0.1-0.5,0.3-0.6
	c0.2-0.2,0.4-0.3,0.6-0.3c0.2,0,0.5,0.1,0.6,0.3c0.2,0.2,0.3,0.4,0.3,0.6c0,0.2-0.1,0.5-0.3,0.6C235.4,199.6,235.2,199.6,235,199.6z
	 M246.5,212.2c-0.8,0-1.5-0.2-2.1-0.5c-0.6-0.4-1.1-0.8-1.4-1.5c-0.3-0.6-0.5-1.4-0.5-2.2s0.2-1.5,0.5-2.2c0.4-0.6,0.8-1.1,1.4-1.5
	c0.6-0.4,1.3-0.5,2.1-0.5c1,0,1.8,0.3,2.5,0.8c0.7,0.5,1.1,1.2,1.3,2.1h-1.8c-0.1-0.4-0.3-0.8-0.7-1c-0.4-0.2-0.8-0.4-1.3-0.4
	c-0.4,0-0.8,0.1-1.2,0.3c-0.4,0.2-0.6,0.5-0.8,0.9c-0.2,0.4-0.3,0.9-0.3,1.5c0,0.6,0.1,1.1,0.3,1.5c0.2,0.4,0.5,0.7,0.8,0.9
	c0.4,0.2,0.7,0.3,1.2,0.3c0.5,0,0.9-0.1,1.3-0.4c0.4-0.2,0.6-0.6,0.7-1h1.8c-0.2,0.9-0.6,1.5-1.3,2.1
	C248.3,211.9,247.5,212.2,246.5,212.2z M252.1,212v-7.9h1.5l0.1,1.5c0.3-0.5,0.7-0.9,1.2-1.2c0.5-0.3,1.1-0.5,1.8-0.5v1.8h-0.5
	c-0.5,0-0.9,0.1-1.3,0.2c-0.4,0.1-0.7,0.4-0.9,0.8c-0.2,0.4-0.3,0.9-0.3,1.5v3.8H252.1z M261.7,212.2c-0.8,0-1.5-0.2-2.1-0.5
	c-0.6-0.4-1.1-0.8-1.4-1.5c-0.3-0.6-0.5-1.3-0.5-2.2c0-0.8,0.2-1.6,0.5-2.2c0.3-0.6,0.8-1.1,1.4-1.5c0.6-0.4,1.3-0.5,2.1-0.5
	c0.8,0,1.5,0.2,2,0.5c0.6,0.3,1,0.8,1.3,1.4s0.5,1.2,0.5,1.9c0,0.1,0,0.2,0,0.4c0,0.1,0,0.3,0,0.4h-6.2c0.1,0.8,0.3,1.4,0.8,1.8
	c0.5,0.4,1,0.6,1.6,0.6c0.5,0,0.9-0.1,1.2-0.3c0.3-0.2,0.6-0.5,0.7-0.9h1.7c-0.2,0.7-0.6,1.4-1.3,1.9
	C263.4,211.9,262.6,212.2,261.7,212.2z M261.7,205.3c-0.6,0-1.1,0.2-1.5,0.5c-0.4,0.3-0.7,0.8-0.8,1.5h4.5c0-0.6-0.3-1.1-0.7-1.5
	C262.8,205.4,262.3,205.3,261.7,205.3z M270.4,212c-0.8,0-1.4-0.2-1.9-0.6c-0.5-0.4-0.7-1.1-0.7-2v-3.9h-1.4v-1.4h1.4l0.2-2h1.5v2
	h2.2v1.4h-2.2v3.9c0,0.4,0.1,0.7,0.3,0.9c0.2,0.2,0.5,0.2,1,0.2h0.9v1.4H270.4z M276.8,212.2c-1,0-1.8-0.2-2.5-0.7
	c-0.7-0.5-1-1.1-1.1-2h1.7c0.1,0.4,0.3,0.7,0.6,0.9c0.3,0.3,0.7,0.4,1.3,0.4c0.5,0,0.9-0.1,1.1-0.3c0.2-0.2,0.4-0.5,0.4-0.7
	c0-0.4-0.2-0.7-0.5-0.8c-0.3-0.1-0.8-0.3-1.3-0.4c-0.4-0.1-0.9-0.2-1.3-0.4c-0.4-0.2-0.8-0.4-1.1-0.7c-0.3-0.3-0.4-0.7-0.4-1.2
	c0-0.7,0.3-1.3,0.8-1.7c0.5-0.5,1.3-0.7,2.2-0.7c0.9,0,1.6,0.2,2.1,0.6c0.6,0.4,0.9,1,1,1.8H278c-0.1-0.3-0.2-0.6-0.5-0.8
	c-0.3-0.2-0.6-0.3-1-0.3c-0.4,0-0.8,0.1-1,0.3c-0.2,0.2-0.4,0.4-0.4,0.7c0,0.3,0.2,0.5,0.5,0.7c0.3,0.2,0.8,0.3,1.3,0.4
	c0.5,0.1,1,0.3,1.5,0.4c0.5,0.1,0.8,0.4,1.1,0.7c0.3,0.3,0.4,0.7,0.4,1.3c0,0.7-0.3,1.3-0.8,1.8C278.5,212,277.7,212.2,276.8,212.2z
	 M282.7,202.6c-0.3,0-0.6-0.1-0.8-0.3c-0.2-0.2-0.3-0.5-0.3-0.8c0-0.3,0.1-0.5,0.3-0.7c0.2-0.2,0.5-0.3,0.8-0.3
	c0.3,0,0.6,0.1,0.8,0.3c0.2,0.2,0.3,0.4,0.3,0.7c0,0.3-0.1,0.5-0.3,0.8C283.3,202.5,283.1,202.6,282.7,202.6z M281.9,212v-7.9h1.7
	v7.9H281.9z M285.3,212v-1.4l4.2-5.2h-4.2v-1.4h6.1v1.4l-4.3,5.2h4.4v1.4H285.3z"/>
<path class="st7" d="M103,506h204v8H103V506z"/>
<path class="st7" d="M103,522h204v8H103V522z"/>
<path class="st7" d="M103,538h204v8H103V538z"/>
<path class="st7" d="M181.5,387h47.1v8h-47.1V387z"/>
<path class="st12" d="M160.9,423.3L156,426l1.1-5.5l-4.1-3.8l5.5-0.7l2.3-5.1l2.3,5.1l5.5,0.7l-4.1,3.8l1.1,5.5L160.9,423.3z"/>
<path class="st12" d="M181.5,423.3l-4.8,2.7l1.1-5.5l-4.1-3.8l5.5-0.7l2.3-5.1l2.3,5.1l5.5,0.7l-4.1,3.8l1.1,5.5L181.5,423.3z"/>
<path class="st12" d="M202.1,423.3l-4.8,2.7l1.1-5.5l-4.1-3.8l5.5-0.7l2.3-5.1l2.3,5.1l5.5,0.7l-4.1,3.8l1.1,5.5L202.1,423.3z"/>
<path class="st12" d="M222.7,423.3l-4.8,2.7l1.1-5.5l-4.1-3.8l5.5-0.7l2.3-5.1l2.3,5.1l5.5,0.7l-4.1,3.8l1.1,5.5L222.7,423.3z"/>
<path class="st12" d="M243.3,423.3l-4.8,2.7l1.1-5.5l-4.1-3.8l5.5-0.7l2.3-5.1l2.3,5.1l5.5,0.7l-4.1,3.8l1.1,5.5L243.3,423.3z"/>
<path class="st13" d="M225.4,349.2h-40.8c-3.2,0-5.8-2.6-5.8-5.8v-46.7c0-3.2,2.6-5.8,5.8-5.8h40.8c3.2,0,5.8,2.6,5.8,5.8v46.7
	C231.3,346.6,228.6,349.2,225.4,349.2z"/>
<path class="st13" d="M216.7,328.8h-23.3"/>
<path class="st13" d="M210.8,337.5h-11.7"/>
<path class="st13" d="M205,316.1l4.4,2.3c0.9,0.4,1.9-0.3,1.7-1.2l-0.8-4.9l3.5-3.5c0.7-0.7,0.3-1.8-0.6-2l-4.9-0.7l-2.2-4.4
	c-0.4-0.9-1.7-0.9-2.1,0l-2.2,4.4l-4.9,0.7c-1,0.1-1.3,1.3-0.6,2l3.5,3.5l-0.8,4.9c-0.2,1,0.8,1.7,1.7,1.2L205,316.1"/>
<g>
	<rect x="359" y="73" class="st5" width="268" height="469"/>
	<rect x="359.5" y="73.5" class="st1" width="267" height="468"/>
</g>
<path class="st8" d="M404.8,126.1c3.9,0,7-3.2,7-7.1c0-3.9-3.1-7.1-7-7.1c-3.9,0-7,3.2-7,7.1C397.8,122.9,400.9,126.1,404.8,126.1z"
	/>
<path class="st9" d="M405.2,107.1c4.9,0.2,9,3.3,10.6,7.7h4.3c-1.8-6.6-7.6-11.5-14.7-11.8c-7.5-0.3-13.9,4.8-15.8,11.8h4.3
	C395.5,110.2,400,106.9,405.2,107.1z"/>
<path class="st10" d="M404.8,119l8.3,8.4c-2.2,2.3-5.3,3.6-8.7,3.5c-6.3-0.2-11.4-5.5-11.3-11.9H389c0,8.6,6.7,15.7,15.3,16
	c8.7,0.3,16-6.6,16.3-15.5c0-0.2,0-0.4,0-0.6L404.8,119L404.8,119z"/>
<path class="st14" d="M519,103h78v32h-78V103z"/>
<path class="st10" d="M536.1,124v-11.2h4.2c1.2,0,2,0.3,2.6,0.8c0.6,0.5,0.9,1.2,0.9,2c0,0.7-0.2,1.3-0.6,1.7
	c-0.4,0.4-0.8,0.7-1.4,0.8c0.4,0.1,0.8,0.3,1.1,0.5c0.3,0.3,0.6,0.6,0.8,1s0.3,0.8,0.3,1.2c0,0.6-0.1,1.1-0.4,1.6
	c-0.3,0.5-0.7,0.8-1.2,1.1s-1.2,0.4-2,0.4H536.1z M537.8,117.6h2.3c0.7,0,1.1-0.1,1.5-0.4c0.3-0.3,0.5-0.7,0.5-1.3
	c0-0.5-0.2-0.9-0.5-1.2c-0.3-0.3-0.8-0.5-1.5-0.5h-2.3V117.6z M537.8,122.6h2.4c0.7,0,1.2-0.2,1.6-0.5c0.4-0.3,0.6-0.8,0.6-1.3
	c0-0.6-0.2-1-0.6-1.4c-0.4-0.3-0.9-0.5-1.6-0.5h-2.4V122.6z M548.6,124.2c-0.7,0-1.2-0.1-1.7-0.3s-0.8-0.5-1-0.9
	c-0.2-0.4-0.3-0.8-0.3-1.2c0-0.8,0.3-1.4,0.9-1.8c0.6-0.4,1.5-0.7,2.6-0.7h2.1v-0.1c0-0.6-0.2-1.1-0.5-1.4c-0.3-0.3-0.8-0.5-1.3-0.5
	c-0.5,0-0.9,0.1-1.2,0.4c-0.3,0.2-0.5,0.6-0.6,1h-1.7c0.1-0.6,0.2-1.1,0.6-1.5c0.3-0.4,0.8-0.7,1.3-0.9c0.5-0.2,1.1-0.3,1.7-0.3
	c1.1,0,2,0.3,2.6,0.9c0.6,0.6,0.9,1.4,0.9,2.4v4.9h-1.5l-0.1-1.4c-0.2,0.4-0.5,0.8-1,1.1C549.9,124,549.3,124.2,548.6,124.2z
	 M549,122.8c0.5,0,0.8-0.1,1.2-0.3c0.3-0.2,0.6-0.5,0.7-0.9c0.2-0.4,0.3-0.8,0.3-1.2h-1.9c-0.7,0-1.2,0.1-1.4,0.4
	c-0.3,0.2-0.4,0.5-0.4,0.9c0,0.4,0.1,0.7,0.4,0.9C548.1,122.7,548.5,122.8,549,122.8z M558.1,124.2c-1,0-1.8-0.2-2.5-0.7
	c-0.7-0.5-1-1.1-1.1-2h1.7c0.1,0.4,0.3,0.7,0.6,0.9c0.3,0.3,0.7,0.4,1.3,0.4c0.5,0,0.9-0.1,1.1-0.3c0.2-0.2,0.4-0.5,0.4-0.7
	c0-0.4-0.2-0.7-0.5-0.8c-0.3-0.1-0.8-0.3-1.3-0.4c-0.4-0.1-0.9-0.2-1.3-0.4c-0.4-0.2-0.8-0.4-1.1-0.7c-0.3-0.3-0.4-0.7-0.4-1.2
	c0-0.7,0.3-1.3,0.8-1.7c0.5-0.5,1.3-0.7,2.2-0.7c0.9,0,1.6,0.2,2.1,0.6c0.6,0.4,0.9,1,1,1.8h-1.6c-0.1-0.3-0.2-0.6-0.5-0.8
	c-0.3-0.2-0.6-0.3-1-0.3c-0.4,0-0.8,0.1-1,0.3c-0.2,0.2-0.4,0.4-0.4,0.7s0.2,0.5,0.5,0.7c0.3,0.2,0.8,0.3,1.3,0.4
	c0.5,0.1,1,0.3,1.5,0.4c0.5,0.1,0.8,0.4,1.1,0.7c0.3,0.3,0.4,0.7,0.4,1.3c0,0.7-0.3,1.3-0.8,1.8C559.8,124,559,124.2,558.1,124.2z
	 M556.7,128.2v-1h1.6c0.6,0,1-0.2,1-0.7c0-0.4-0.3-0.6-1-0.6h-0.9v-2h1.1v1c0.6,0,1.1,0.1,1.5,0.4c0.4,0.3,0.6,0.7,0.6,1.2
	c0,0.5-0.2,1-0.6,1.2c-0.4,0.3-0.9,0.4-1.4,0.4H556.7z M565.8,124.2c-0.7,0-1.2-0.1-1.7-0.3s-0.8-0.5-1-0.9
	c-0.2-0.4-0.3-0.8-0.3-1.2c0-0.8,0.3-1.4,0.9-1.8c0.6-0.4,1.5-0.7,2.6-0.7h2.1v-0.1c0-0.6-0.2-1.1-0.5-1.4c-0.3-0.3-0.8-0.5-1.3-0.5
	c-0.5,0-0.9,0.1-1.2,0.4c-0.3,0.2-0.5,0.6-0.6,1H563c0.1-0.6,0.2-1.1,0.6-1.5c0.3-0.4,0.8-0.7,1.3-0.9c0.5-0.2,1.1-0.3,1.7-0.3
	c1.1,0,2,0.3,2.6,0.9c0.6,0.6,0.9,1.4,0.9,2.4v4.9h-1.5l-0.1-1.4c-0.2,0.4-0.5,0.8-1,1.1C567,124,566.5,124.2,565.8,124.2z
	 M566.1,122.8c0.5,0,0.8-0.1,1.2-0.3c0.3-0.2,0.6-0.5,0.7-0.9c0.2-0.4,0.3-0.8,0.3-1.2h-1.9c-0.7,0-1.2,0.1-1.4,0.4
	c-0.3,0.2-0.4,0.5-0.4,0.9c0,0.4,0.1,0.7,0.4,0.9C565.3,122.7,565.6,122.8,566.1,122.8z M572,124v-7.9h1.5l0.1,1.5
	c0.3-0.5,0.7-0.9,1.2-1.2c0.5-0.3,1.1-0.5,1.8-0.5v1.8h-0.5c-0.5,0-0.9,0.1-1.3,0.2c-0.4,0.1-0.7,0.4-0.9,0.8
	c-0.2,0.4-0.3,0.9-0.3,1.5v3.8H572z M578.1,124v-7.9h1.7v7.9H578.1z"/>
<path class="st12" d="M469.5,299h47.1v8h-47.1V299z"/>
<path class="st10" d="M448.9,335.3L444,338l1.1-5.5l-4.1-3.8l5.5-0.7l2.3-5.1l2.3,5.1l5.5,0.7l-4.1,3.8l1.1,5.5L448.9,335.3z"/>
<path class="st10" d="M469.5,335.3l-4.8,2.7l1.1-5.5l-4.1-3.8l5.5-0.7l2.3-5.1l2.3,5.1l5.5,0.7l-4.1,3.8l1.1,5.5L469.5,335.3z"/>
<path class="st10" d="M490.1,335.3l-4.8,2.7l1.1-5.5l-4.1-3.8l5.5-0.7l2.3-5.1l2.3,5.1l5.5,0.7l-4.1,3.8l1.1,5.5L490.1,335.3z"/>
<path class="st10" d="M510.7,335.3l-4.8,2.7l1.1-5.5l-4.1-3.8l5.5-0.7l2.3-5.1l2.3,5.1l5.5,0.7l-4.1,3.8l1.1,5.5L510.7,335.3z"/>
<path class="st10" d="M531.3,335.3l-4.8,2.7l1.1-5.5l-4.1-3.8l5.5-0.7l2.3-5.1l2.3,5.1l5.5,0.7l-4.1,3.8l1.1,5.5L531.3,335.3z"/>
<path class="st13" d="M507.6,217.4h5.8c3.2,0,5.8,2.6,5.8,5.8v29.2c0,3.2-2.6,5.8-5.8,5.8h-40.8c-3.2,0-5.8-2.6-5.8-5.8v-29.2
	c0-3.2,2.6-5.8,5.8-5.8h5.8"/>
<path class="st13" d="M481.6,225.5l-0.4-3.2c0,0,0,0,0,0l-1.9-2.5c-1.1-1.4-1.1-3.3,0-4.7l1.9-2.5c0,0,0,0,0,0l0.4-3.2
	c0.2-1.7,1.6-3.1,3.3-3.3l3.2-0.4c0,0,0,0,0,0l2.5-1.9c1.4-1.1,3.3-1.1,4.7,0l2.5,1.9c0,0,0,0,0,0l3.2,0.4c1.7,0.2,3.1,1.6,3.3,3.3
	l0.4,3.2c0,0,0,0,0,0l1.9,2.5c1.1,1.4,1.1,3.3,0,4.7l-1.9,2.5c0,0,0,0,0,0l-0.4,3.2c-0.2,1.7-1.6,3.1-3.3,3.3l-3.2,0.4c0,0,0,0,0,0
	l-2.5,1.9c-1.4,1.1-3.3,1.1-4.7,0l-2.5-1.9c0,0,0,0,0,0l-3.2-0.4C483.2,228.6,481.8,227.2,481.6,225.5L481.6,225.5z"/>
<path class="st13" d="M497.5,215.1l-5.7,5.7l-3.4-3.4"/>
<path class="st13" d="M478.4,240.8h29.2"/>
<path class="st13" d="M484.3,249.5h17.5"/>
<line class="st15" x1="389.6" y1="417.5" x2="601.5" y2="417.5"/>
<line class="st15" x1="389.6" y1="452.5" x2="601.5" y2="452.5"/>
<line class="st15" x1="389.6" y1="487.5" x2="601.5" y2="487.5"/>
<line class="st15" x1="389.6" y1="522.5" x2="601.5" y2="522.5"/>
<path class="st16" d="M381,514c12.5-7.7,3.6-30.1,17.9-40.7c12.8-9.5,26.8,3.4,47.5-2.1c20.9-5.6,17.4-27.8,37.8-34.8
	c17.4-6,24.7,6.3,38.3-0.5c18.3-9.3,12.8-35.7,29.1-46.1c8.1-5.1,23.1-7.4,53.6,10.7"/>
<ellipse class="st17" cx="539.2" cy="410" rx="12.2" ry="12"/>
<ellipse class="st18" cx="539.2" cy="410" rx="7.1" ry="7"/>
<rect x="433" y="370" class="st19" width="90" height="32"/>
<path class="st10" d="M452.3,391v-8.6h-2.9v-1.2h7.3v1.2h-2.9v8.6H452.3z M460,391.2c-0.7,0-1.3-0.1-1.8-0.4
	c-0.5-0.3-0.9-0.7-1.2-1.3c-0.3-0.5-0.4-1.2-0.4-1.9c0-0.7,0.1-1.4,0.4-1.9c0.3-0.6,0.7-1,1.2-1.3c0.5-0.3,1.1-0.5,1.8-0.5
	c0.7,0,1.3,0.2,1.8,0.5c0.5,0.3,0.9,0.7,1.2,1.2c0.3,0.5,0.4,1.1,0.4,1.7c0,0.1,0,0.2,0,0.3c0,0.1,0,0.2,0,0.3h-5.4
	c0,0.7,0.3,1.2,0.7,1.5c0.4,0.3,0.9,0.5,1.4,0.5c0.4,0,0.8-0.1,1.1-0.3c0.3-0.2,0.5-0.5,0.6-0.8h1.5c-0.2,0.7-0.6,1.2-1.1,1.6
	C461.5,390.9,460.8,391.2,460,391.2z M460,385.1c-0.5,0-0.9,0.1-1.3,0.4c-0.4,0.3-0.6,0.7-0.7,1.3h3.9c0-0.5-0.2-1-0.6-1.3
	C461,385.3,460.5,385.1,460,385.1z M468.8,391.2c-0.5,0-1-0.1-1.4-0.3c-0.4-0.2-0.7-0.5-1-0.9l-0.2,1.1h-1.3v-10.1h1.5v4.2
	c0.2-0.3,0.5-0.6,0.9-0.9c0.4-0.3,0.9-0.4,1.5-0.4c0.7,0,1.3,0.2,1.8,0.5c0.5,0.3,0.9,0.8,1.2,1.3c0.3,0.6,0.4,1.2,0.4,1.9
	c0,0.7-0.1,1.3-0.4,1.9c-0.3,0.5-0.7,1-1.2,1.3C470.1,391,469.5,391.2,468.8,391.2z M468.6,389.9c0.6,0,1.2-0.2,1.6-0.6
	c0.4-0.4,0.6-1,0.6-1.7c0-0.5-0.1-0.9-0.3-1.2c-0.2-0.4-0.4-0.6-0.8-0.8c-0.3-0.2-0.7-0.3-1.1-0.3c-0.6,0-1.2,0.2-1.6,0.7
	c-0.4,0.4-0.6,1-0.6,1.7c0,0.7,0.2,1.3,0.6,1.7C467.4,389.7,467.9,389.9,468.6,389.9z M473.9,391v-6.9h1.3l0.1,1.3
	c0.2-0.5,0.6-0.8,1-1.1c0.4-0.3,1-0.4,1.6-0.4v1.6h-0.4c-0.4,0-0.8,0.1-1.1,0.2c-0.3,0.1-0.6,0.4-0.8,0.7c-0.2,0.3-0.3,0.8-0.3,1.3
	v3.3H473.9z M480,382.7c-0.3,0-0.5-0.1-0.7-0.3c-0.2-0.2-0.3-0.4-0.3-0.7c0-0.3,0.1-0.5,0.3-0.6c0.2-0.2,0.4-0.3,0.7-0.3
	s0.5,0.1,0.7,0.3c0.2,0.2,0.3,0.4,0.3,0.6c0,0.3-0.1,0.5-0.3,0.7C480.5,382.7,480.3,382.7,480,382.7z M479.3,391v-6.9h1.5v6.9H479.3
	z M482.7,391v-10.1h1.5v6l2.7-2.9h1.8l-3,3.1l3.4,3.8h-1.9l-3-3.6v3.6H482.7z M490.2,391v-10.1h1.5V391H490.2z M496.8,391.2
	c-0.7,0-1.3-0.1-1.8-0.4c-0.5-0.3-0.9-0.7-1.2-1.3c-0.3-0.5-0.4-1.2-0.4-1.9c0-0.7,0.1-1.4,0.4-1.9c0.3-0.6,0.7-1,1.2-1.3
	c0.5-0.3,1.1-0.5,1.8-0.5c0.7,0,1.3,0.2,1.8,0.5c0.5,0.3,0.9,0.7,1.2,1.2c0.3,0.5,0.4,1.1,0.4,1.7c0,0.1,0,0.2,0,0.3
	c0,0.1,0,0.2,0,0.3h-5.4c0,0.7,0.3,1.2,0.7,1.5c0.4,0.3,0.9,0.5,1.4,0.5c0.4,0,0.8-0.1,1.1-0.3c0.3-0.2,0.5-0.5,0.6-0.8h1.5
	c-0.2,0.7-0.6,1.2-1.1,1.6C498.3,390.9,497.7,391.2,496.8,391.2z M496.8,385.1c-0.5,0-0.9,0.1-1.3,0.4c-0.4,0.3-0.6,0.7-0.7,1.3h3.9
	c0-0.5-0.2-1-0.6-1.3C497.8,385.3,497.4,385.1,496.8,385.1z M501.8,391v-6.9h1.3l0.1,1.3c0.2-0.5,0.6-0.8,1-1.1
	c0.4-0.3,1-0.4,1.6-0.4v1.6h-0.4c-0.4,0-0.8,0.1-1.1,0.2c-0.3,0.1-0.6,0.4-0.8,0.7c-0.2,0.3-0.3,0.8-0.3,1.3v3.3H501.8z
	 M507.4,388.1l-0.2-6.9h1.6l-0.2,6.9H507.4z M508.1,391.1c-0.3,0-0.5-0.1-0.7-0.3c-0.2-0.2-0.3-0.4-0.3-0.7c0-0.3,0.1-0.5,0.3-0.7
	c0.2-0.2,0.4-0.3,0.7-0.3c0.3,0,0.5,0.1,0.7,0.3c0.2,0.2,0.3,0.4,0.3,0.7c0,0.3-0.1,0.5-0.3,0.7C508.6,391,508.3,391.1,508.1,391.1z
	"/>
</svg>
