<?xml version="1.0" encoding="utf-8"?>
<!-- Generator: Adobe Illustrator 22.1.0, SVG Export Plug-In . SVG Version: 6.00 Build 0)  -->
<svg version="1.1" id="Layer_1" xmlns="http://www.w3.org/2000/svg" xmlns:xlink="http://www.w3.org/1999/xlink" x="0px" y="0px"
	 viewBox="0 0 714 589.5" style="enable-background:new 0 0 714 589.5;" xml:space="preserve">
<style type="text/css">
	.st0{fill:#231C50;}
	.st1{fill:#1C1544;}
	.st2{fill:none;stroke:#FFFFFF;stroke-opacity:5.000000e-02;}
	.st3{fill:#2A2359;}
	.st4{fill:#332B68;}
	.st5{fill:#524896;}
	.st6{fill:#41397D;}
	.st7{filter:url(#Adobe_OpacityMaskFilter);}
	.st8{clip-path:url(#SVGID_2_);fill:#2A2359;}
	.st9{mask:url(#mask0_1_);}
	.st10{fill:none;stroke:#332B68;stroke-width:3;stroke-linecap:round;stroke-linejoin:round;stroke-dasharray:10,10;}
	.st11{fill:#FFFFFF;}
	.st12{fill:#0BCE91;}
	.st13{clip-path:url(#SVGID_4_);}
	.st14{fill:#9835FF;}
	.st15{fill:#686195;}
</style>
<circle class="st0" cx="2" cy="58.5" r="2"/>
<circle class="st0" cx="2" cy="72.5" r="2"/>
<circle class="st0" cx="2" cy="86.5" r="2"/>
<circle class="st0" cx="2" cy="100.5" r="2"/>
<circle class="st0" cx="2" cy="114.5" r="2"/>
<circle class="st0" cx="2" cy="128.5" r="2"/>
<circle class="st0" cx="2" cy="142.5" r="2"/>
<circle class="st0" cx="2" cy="156.5" r="2"/>
<circle class="st0" cx="2" cy="170.5" r="2"/>
<circle class="st0" cx="2" cy="184.5" r="2"/>
<circle class="st0" cx="2" cy="198.5" r="2"/>
<circle class="st0" cx="18" cy="58.5" r="2"/>
<circle class="st0" cx="18" cy="72.5" r="2"/>
<circle class="st0" cx="18" cy="86.5" r="2"/>
<circle class="st0" cx="18" cy="100.5" r="2"/>
<circle class="st0" cx="18" cy="114.5" r="2"/>
<circle class="st0" cx="18" cy="128.5" r="2"/>
<circle class="st0" cx="18" cy="142.5" r="2"/>
<circle class="st0" cx="18" cy="156.5" r="2"/>
<circle class="st0" cx="18" cy="170.5" r="2"/>
<circle class="st0" cx="18" cy="184.5" r="2"/>
<circle class="st0" cx="18" cy="198.5" r="2"/>
<circle class="st0" cx="34" cy="58.5" r="2"/>
<circle class="st0" cx="34" cy="72.5" r="2"/>
<circle class="st0" cx="34" cy="86.5" r="2"/>
<circle class="st0" cx="34" cy="100.5" r="2"/>
<circle class="st0" cx="34" cy="114.5" r="2"/>
<circle class="st0" cx="34" cy="128.5" r="2"/>
<circle class="st0" cx="34" cy="142.5" r="2"/>
<circle class="st0" cx="34" cy="156.5" r="2"/>
<circle class="st0" cx="34" cy="170.5" r="2"/>
<circle class="st0" cx="34" cy="184.5" r="2"/>
<circle class="st0" cx="34" cy="198.5" r="2"/>
<circle class="st0" cx="50" cy="58.5" r="2"/>
<circle class="st0" cx="50" cy="72.5" r="2"/>
<circle class="st0" cx="50" cy="86.5" r="2"/>
<circle class="st0" cx="50" cy="100.5" r="2"/>
<circle class="st0" cx="50" cy="114.5" r="2"/>
<circle class="st0" cx="50" cy="128.5" r="2"/>
<circle class="st0" cx="50" cy="142.5" r="2"/>
<circle class="st0" cx="50" cy="156.5" r="2"/>
<circle class="st0" cx="50" cy="170.5" r="2"/>
<circle class="st0" cx="50" cy="184.5" r="2"/>
<circle class="st0" cx="50" cy="198.5" r="2"/>
<circle class="st0" cx="66" cy="58.5" r="2"/>
<circle class="st0" cx="66" cy="72.5" r="2"/>
<circle class="st0" cx="66" cy="86.5" r="2"/>
<circle class="st0" cx="66" cy="100.5" r="2"/>
<circle class="st0" cx="66" cy="114.5" r="2"/>
<circle class="st0" cx="66" cy="128.5" r="2"/>
<circle class="st0" cx="66" cy="142.5" r="2"/>
<circle class="st0" cx="66" cy="156.5" r="2"/>
<circle class="st0" cx="66" cy="170.5" r="2"/>
<circle class="st0" cx="66" cy="184.5" r="2"/>
<circle class="st0" cx="66" cy="198.5" r="2"/>
<circle class="st0" cx="82" cy="58.5" r="2"/>
<circle class="st0" cx="82" cy="72.5" r="2"/>
<circle class="st0" cx="82" cy="86.5" r="2"/>
<circle class="st0" cx="82" cy="100.5" r="2"/>
<circle class="st0" cx="82" cy="114.5" r="2"/>
<circle class="st0" cx="82" cy="128.5" r="2"/>
<circle class="st0" cx="82" cy="142.5" r="2"/>
<circle class="st0" cx="82" cy="156.5" r="2"/>
<circle class="st0" cx="82" cy="170.5" r="2"/>
<circle class="st0" cx="82" cy="184.5" r="2"/>
<circle class="st0" cx="82" cy="198.5" r="2"/>
<circle class="st0" cx="98" cy="58.5" r="2"/>
<circle class="st0" cx="98" cy="72.5" r="2"/>
<circle class="st0" cx="98" cy="86.5" r="2"/>
<circle class="st0" cx="98" cy="100.5" r="2"/>
<circle class="st0" cx="98" cy="114.5" r="2"/>
<circle class="st0" cx="98" cy="128.5" r="2"/>
<circle class="st0" cx="98" cy="142.5" r="2"/>
<circle class="st0" cx="98" cy="156.5" r="2"/>
<circle class="st0" cx="98" cy="170.5" r="2"/>
<circle class="st0" cx="98" cy="184.5" r="2"/>
<circle class="st0" cx="98" cy="198.5" r="2"/>
<circle class="st0" cx="114" cy="58.5" r="2"/>
<circle class="st0" cx="114" cy="72.5" r="2"/>
<circle class="st0" cx="114" cy="86.5" r="2"/>
<circle class="st0" cx="114" cy="100.5" r="2"/>
<circle class="st0" cx="114" cy="114.5" r="2"/>
<circle class="st0" cx="114" cy="128.5" r="2"/>
<circle class="st0" cx="114" cy="142.5" r="2"/>
<circle class="st0" cx="114" cy="156.5" r="2"/>
<circle class="st0" cx="114" cy="170.5" r="2"/>
<circle class="st0" cx="114" cy="184.5" r="2"/>
<circle class="st0" cx="114" cy="198.5" r="2"/>
<circle class="st0" cx="130" cy="58.5" r="2"/>
<circle class="st0" cx="130" cy="72.5" r="2"/>
<circle class="st0" cx="130" cy="86.5" r="2"/>
<circle class="st0" cx="130" cy="100.5" r="2"/>
<circle class="st0" cx="130" cy="114.5" r="2"/>
<circle class="st0" cx="130" cy="128.5" r="2"/>
<circle class="st0" cx="130" cy="142.5" r="2"/>
<circle class="st0" cx="130" cy="156.5" r="2"/>
<circle class="st0" cx="130" cy="170.5" r="2"/>
<circle class="st0" cx="130" cy="184.5" r="2"/>
<circle class="st0" cx="130" cy="198.5" r="2"/>
<circle class="st0" cx="146" cy="58.5" r="2"/>
<circle class="st0" cx="146" cy="72.5" r="2"/>
<circle class="st0" cx="146" cy="86.5" r="2"/>
<circle class="st0" cx="146" cy="100.5" r="2"/>
<circle class="st0" cx="146" cy="114.5" r="2"/>
<circle class="st0" cx="146" cy="128.5" r="2"/>
<circle class="st0" cx="146" cy="142.5" r="2"/>
<circle class="st0" cx="146" cy="156.5" r="2"/>
<circle class="st0" cx="146" cy="170.5" r="2"/>
<circle class="st0" cx="146" cy="184.5" r="2"/>
<circle class="st0" cx="146" cy="198.5" r="2"/>
<g>
	<path class="st1" d="M251,0.5v530h463V0.5L251,0.5z"/>
	<path class="st2" d="M251.5,1v529h462V1L251.5,1z"/>
</g>
<g>
	<path class="st3" d="M69,128.5v462h376v-462H69z"/>
	<path class="st2" d="M69.5,129v461h375V129H69.5z"/>
</g>
<path class="st4" d="M144,426.5h222v8H144V426.5z"/>
<path class="st4" d="M203,362.5h104v40H203V362.5z"/>
<path class="st4" d="M144,444.5h222v8H144V444.5z"/>
<path class="st4" d="M144,462.5h222v8H144V462.5z"/>
<path class="st5" d="M203.8,502.5h102.5v40H203.8V502.5z"/>
<circle class="st6" cx="257" cy="282.5" r="50"/>
<circle class="st2" cx="257" cy="282.5" r="49.5"/>
<defs>
	<filter id="Adobe_OpacityMaskFilter" filterUnits="userSpaceOnUse" x="251" y="0.5" width="463" height="530">
		<feColorMatrix  type="matrix" values="1 0 0 0 0  0 1 0 0 0  0 0 1 0 0  0 0 0 1 0"/>
	</filter>
</defs>
<mask maskUnits="userSpaceOnUse" x="251" y="0.5" width="463" height="530" id="mask0_1_">
	<g class="st7">
		<defs>
			<rect id="SVGID_1_" x="363" y="0.5" width="351" height="530"/>
		</defs>
		<clipPath id="SVGID_2_">
			<use xlink:href="#SVGID_1_"  style="overflow:visible;"/>
		</clipPath>
		<g>
			<path class="st8" d="M476.7-181.1c-51.8,44.4-87.9,97.5-104.3,153.7c-21.7,74.3-2.3,126.2,20.1,186.3
				c23.8,63.9,50.8,136.3,30.7,251.8c-4.3,24.4-9.7,45.4-14.9,65.7c-4.7,18.3-9.2,35.7-12,53l1,0.2c2.9-17.3,7.3-34.6,12-52.9
				c5.2-20.3,10.6-41.3,14.9-65.8c20.2-115.7-6.9-188.3-30.7-252.3c-22.4-60-41.7-111.8-20.1-185.7c16.3-56,52.3-109,104-153.2
				c47.8-40.9,106.2-72.5,169-91.2l-0.3-1C583.2-253.7,524.6-222.1,476.7-181.1z"/>
			<path class="st8" d="M525.1-142.5c-55.7,42.6-93.9,95-110.4,151.8c-19.5,66.8-2.1,113.6,18.1,167.7
				c21.4,57.5,45.8,122.7,27.6,226.6c-3.8,22-8.7,40.8-13.4,59.1c-5.9,22.9-11.4,44.4-13.2,66.8l1,0.1c1.8-22.3,7.3-43.8,13.2-66.6
				c4.7-18.3,9.6-37.2,13.4-59.2c18.2-104.2-6.2-169.5-27.7-227.1c-20.1-54-37.5-100.6-18.1-167.1C432.1-47,470.2-99.3,525.7-141.7
				c50.8-38.8,113.2-66.7,175.7-78.5l0.2,0l-0.2-1l-0.2,0C638.6-209.4,576-181.4,525.1-142.5z"/>
			<path class="st8" d="M552-94.3C501.9-56,467.5-8.7,452.6,42.4c-17.6,60.2-1.9,102.3,16.3,151c19.3,51.8,41.2,110.4,24.8,203.9
				c-3.5,19.8-7.8,36.8-12.1,53.3c-7.1,27.6-13.3,51.5-12.3,79.1l1,0c-0.9-27.4,5.2-51.2,12.3-78.8c4.2-16.5,8.6-33.5,12.1-53.4
				c4-23.1,5.7-44,5.7-63.3c0-59-16-102-30.6-141.1c-18.1-48.6-33.8-90.5-16.3-150.4c14.8-50.9,49.1-98,99.1-136.1
				c45.7-34.9,101.9-60,158.1-70.7c0.6-0.1,1.5-0.3,2.9-0.5l-0.2-1c-1.3,0.2-2.3,0.4-2.9,0.5C654.2-154.5,597.9-129.3,552-94.3z"/>
			<path class="st8" d="M486.8,72.1c-15.8,54.2-1.7,92.1,14.7,135.9c17.4,46.6,37,99.4,22.4,183.5c-3.1,17.8-7,33.1-10.8,47.9
				c-7.9,30.6-14.7,57-9.2,90.2l1-0.2c-5.4-33.1,1.4-59.4,9.2-89.8c3.8-14.8,7.8-30.1,10.9-48c14.7-84.4-5-137.3-22.4-184
				c-16.3-43.7-30.4-81.5-14.7-135.3c13.1-44.9,43.1-86.7,86.8-120.7c39.9-31.1,89.3-53.9,139.1-64.3l-0.2-1
				C663.6-103.2,614-80.3,574-49.1C530.1-14.9,500,27,486.8,72.1z"/>
			<path class="st8" d="M517.6,98.8c-14.2,48.8-1.5,82.9,13.2,122.3c15.6,41.9,33.3,89.4,20.1,165.1c-2.8,16-6.3,29.8-9.8,43.1
				c-8.1,31.5-15.1,58.8-5.1,96.3c0.3,1,0.7,2.4,1.1,4l1-0.3c-0.5-1.6-0.9-3-1.1-4c-10-37.2-3.3-63.1,5.1-95.8
				c3.4-13.3,7-27.1,9.8-43.2c13.3-76-4.5-123.6-20.2-165.7c-14.7-39.3-27.3-73.3-13.2-121.7C530,59.9,555.8,23.3,593.3-6.8
				c34.2-27.5,77-48.4,120.4-58.7l-0.2-1C669.9-56.1,627-35.2,592.7-7.6C555,22.6,529.1,59.4,517.6,98.8z"/>
			<path class="st8" d="M545.3,122.9c-12.8,43.9-1.4,74.6,11.9,110.2c14.1,37.7,30,80.4,18.1,148.6c-2.5,14.4-5.7,26.8-8.8,38.7
				c-7.3,28.4-13.6,52.9-4.6,86.7c1.1,4.1,3.6,12.6,7.7,22.7l0.9-0.4c-4.1-10.1-6.6-18.5-7.7-22.6c-9-33.5-3-56.8,4.6-86.2
				c3.1-12,6.3-24.4,8.8-38.8c11.9-68.4-4-111.3-18.2-149.1c-13.2-35.4-24.6-65.9-11.9-109.5c9.9-34,32-66.1,63.9-92.6
				C639.3,6.4,676-12.6,713.7-22.9l-0.3-1c-37.8,10.3-74.7,29.3-103.9,53.7C577.5,56.5,555.2,88.7,545.3,122.9z"/>
			<path class="st8" d="M570.2,144.6c-11.5,39.5-1.2,67.2,10.7,99.2c12.7,33.9,27,72.4,16.3,133.7c-2.3,13-5.1,24.2-7.9,35
				c-6.6,25.5-12.3,47.6-4.1,78c1.7,6.2,6.6,22.6,16.1,39.5l0.9-0.5c-9.5-16.8-14.3-33-16-39.2c-8.1-30.1-2.7-51,4.1-77.4
				c2.8-10.8,5.7-22,7.9-35.1c10.7-61.6-3.6-100.2-16.3-134.2c-11.9-31.8-22.1-59.3-10.7-98.5c8.6-29.4,27.3-57.2,54.3-80.5
				c24.9-21.6,55.4-38.3,88.3-48.5l-0.3-1c-33,10.2-63.7,27.1-88.7,48.7C597.7,87,578.8,115,570.2,144.6z"/>
			<path class="st8" d="M592.6,164c-10.4,35.6-1.1,60.5,9.6,89.3c11.4,30.5,24.3,65.1,14.7,120.3c-2,11.7-4.6,21.7-7.1,31.4
				c-5.9,23-11,42.9-3.7,70.2c2,7.6,10.1,34.1,27.8,54.6l0.8-0.6c-17.6-20.3-25.5-46.7-27.5-54.2c-7.3-27.1-2.4-45.9,3.7-69.7
				c2.5-9.7,5.1-19.8,7.1-31.5c9.7-55.4-3.3-90.2-14.7-120.8c-10.7-28.6-19.9-53.4-9.6-88.7c14.3-48.9,60.3-92.4,120.2-113.4
				l-0.3-0.9C653.2,71.1,606.9,114.8,592.6,164z"/>
			<path class="st8" d="M612.8,181.6c-9.3,32.1-1,54.5,8.7,80.4c10.2,27.5,21.9,58.6,13.2,108.2c-1.8,10.5-4.2,19.5-6.4,28.2
				c-5.3,20.7-9.9,38.6-3.3,63.3c3.3,12.5,16.9,54.2,50.4,68.3l0.4-0.9c-14.5-6.1-27-18.3-36.9-36c-7.3-13-11.2-25.4-12.9-31.6
				c-6.5-24.4-2.2-41.3,3.3-62.8c2.3-8.7,4.6-17.8,6.4-28.3c8.7-49.9-3-81.2-13.3-108.7c-9.6-25.8-17.9-48-8.7-79.8
				c12.2-41.8,49.6-78.8,100-99l-0.4-0.9C662.7,102.3,625.1,139.5,612.8,181.6z"/>
			<path class="st8" d="M631,197.4c-8.4,28.9-0.9,49.1,7.8,72.4c9.2,24.7,19.7,52.7,11.9,97.4c-1.6,9.4-3.7,17.6-5.8,25.4
				c-4.8,18.7-9,34.8-3,57c1.3,4.8,5.1,17.3,12.4,30c9.7,16.8,21.9,27.8,36.3,32.8c7.3,2.5,14.8,3.3,23,2.6l-0.1-1
				c-8.1,0.8-15.5,0-22.6-2.5c-14.1-4.9-26.1-15.8-35.7-32.3c-7.3-12.6-11-25-12.3-29.8c-5.9-22-2-37.2,3-56.5
				c2-7.9,4.1-16,5.8-25.5c7.8-44.9-2.7-73-11.9-97.9c-8.7-23.2-16.1-43.2-7.8-71.8c10.3-35.4,40.1-66.6,81.8-85.6l-0.4-0.9
				C671.4,130.3,641.4,161.7,631,197.4z"/>
			<path class="st8" d="M647.3,211.6c-7.6,26-0.8,44.2,7,65.2c8.3,22.2,17.7,47.5,10.7,87.6c-1.5,8.5-3.4,15.8-5.2,22.8
				c-4.3,16.8-8.1,31.3-2.7,51.3c1.5,5.4,4.8,16,11.2,27c8.8,15.1,19.8,25,32.7,29.5c4.1,1.4,8.2,2.2,12.5,2.5l0.1-1
				c-4.3-0.3-8.3-1-12.2-2.4c-12.7-4.4-23.5-14.2-32.1-29.1c-6.3-10.9-9.7-21.4-11.1-26.8c-5.3-19.8-1.8-33.5,2.7-50.8
				c1.8-7.1,3.7-14.4,5.2-22.9c7.1-40.4-2.4-65.8-10.7-88.1c-7.8-20.9-14.5-38.9-7-64.6c8.5-29.1,32.3-55.7,65.5-73.1l-0.5-0.9
				C679.9,155.4,655.8,182.3,647.3,211.6z"/>
			<path class="st8" d="M662,224.4c-6.8,23.4-0.7,39.8,6.3,58.7c7.5,20,15.9,42.7,9.6,78.9c-1.3,7.7-3,14.2-4.7,20.6
				c-3.9,15.1-7.3,28.2-2.4,46.1c2.6,9.6,13.1,41.8,39.5,50.9c1,0.4,2,0.7,3.1,0.9l0.3-1c-1.1-0.3-2.1-0.6-3.1-0.9
				c-11.4-3.9-21.1-12.7-28.9-26.1c-5.7-9.8-8.7-19.3-10-24.1c-4.7-17.7-1.6-30,2.4-45.6c1.6-6.4,3.3-13,4.7-20.7
				c6.3-36.4-2.2-59.3-9.7-79.4c-7-18.8-13-35-6.3-58c6.9-23.8,25-45.5,50.9-61.1l-0.5-0.9C687.2,178.5,669,200.4,662,224.4z"/>
			<path class="st8" d="M675.2,235.9c-6.1,21.1-0.7,35.8,5.7,52.9c6.7,18,14.3,38.4,8.7,70.9c-1.2,6.9-2.7,12.8-4.2,18.5
				c-3.5,13.6-6.5,25.4-2.2,41.6c2,7.5,10.2,33,30.2,43.5l0.5-0.9c-19.6-10.3-27.7-35.4-29.7-42.9c-4.3-16-1.4-27,2.2-41.1
				c1.5-5.7,3-11.7,4.2-18.6c5.7-32.8-1.9-53.3-8.7-71.5c-6.3-16.9-11.7-31.5-5.7-52.2c5.5-18.8,18.5-36,37.7-49.7l-0.6-0.8
				C693.9,199.5,680.8,216.9,675.2,235.9z"/>
			<path class="st8" d="M687.2,246.3c-5.5,19-0.6,32.2,5.1,47.6c6,16.2,12.9,34.6,7.8,63.8c-1.1,6.2-2.5,11.5-3.8,16.7
				c-3.2,12.3-5.9,22.8-2,37.4c1.7,6.4,7.1,22.6,18.9,33.4l0.7-0.7c-12-10.9-17.3-27.9-18.6-32.9c-3.8-14.3-1.3-24.3,2-36.9
				c1.3-5.2,2.7-10.5,3.8-16.8c5.1-29.5-1.8-48-7.8-64.3c-5.7-15.2-10.5-28.3-5.1-47c4.1-14,13-27.2,25.8-38.3l-0.7-0.8
				C700.3,218.7,691.3,232.1,687.2,246.3z"/>
			<path class="st8" d="M702.5,298.5c5.4,14.6,11.6,31.1,7,57.4c-1,5.6-2.2,10.4-3.4,15c-2.8,11-5.3,20.6-1.8,33.8
				c0.9,3.3,3.5,11.9,8.8,20.1l0.8-0.5c-5.2-8.1-7.8-16.6-8.7-19.9c-3.5-12.9-1.2-21.9,1.8-33.3c1.2-4.6,2.4-9.5,3.4-15.1
				c4.7-26.6-1.6-43.2-7-57.9c-5.1-13.7-9.5-25.4-4.6-42.2c2.7-9.4,7.8-18.3,15.1-26.5l-0.8-0.7c-7.4,8.3-12.5,17.3-15.3,26.9
				C692.9,272.7,697.4,284.7,702.5,298.5z"/>
			<path class="st8" d="M711.7,302.6c0.5,1.2,0.9,2.5,1.4,3.7l0.9-0.3c-0.5-1.3-0.9-2.5-1.4-3.7c-4.6-12.3-8.5-22.9-4.1-38
				c1.3-4.3,3.1-8.6,5.5-12.7l-0.9-0.5c-2.4,4.2-4.3,8.5-5.6,12.9C703.1,279.4,707.1,290.2,711.7,302.6z"/>
		</g>
	</g>
</mask>
<g class="st9">
	<g>
		<path class="st3" d="M251,0.5v530h463V0.5L251,0.5z"/>
		<path class="st2" d="M251.5,1v529h462V1L251.5,1z"/>
	</g>
</g>
<path class="st10" d="M172.4,164c-12.7,25.8-26.6,84.6,19,113"/>
<path class="st10" d="M341.4,164c12.7,25.8,26.6,84.6-19,113"/>
<path class="st11" d="M278.7,286.8V277c0-0.6-0.4-1.2-1-1.4l-21.4-6.9c-0.3-0.1-0.6-0.1-0.9,0l-21.4,6.9c-0.6,0.2-1,0.7-1,1.4
	c0,0.6,0.4,1.2,1,1.4l10.7,3.5v5.4c0,0,0,0,0,0.1c0,1.4,1.4,2.7,3.7,3.7c2.2,0.9,4.8,1.4,7.4,1.4c2.6,0,5.3-0.5,7.4-1.4
	c2.4-1,3.7-2.4,3.7-3.8v-5.4l8.9-2.9v7.9c-1.3,0.6-2.3,1.9-2.3,3.4v4.8c0,0.8,0.6,1.4,1.4,1.4h4.5c0.8,0,1.4-0.6,1.4-1.4v-4.8
	C281,288.7,280.1,287.4,278.7,286.8z M261.7,288.5c-1.7,0.7-3.8,1-5.9,1s-4.1-0.4-5.9-1c-1.5-0.6-2.3-1.2-2.4-1.5v-4.3l7.8,2.5
	c0.1,0,0.3,0.1,0.4,0.1s0.3,0,0.4-0.1l7.8-2.5v4.3C264,287.3,263.2,287.9,261.7,288.5z M255.9,282.4l-16.8-5.4l16.8-5.4l16.8,5.4
	L255.9,282.4z M278.1,293.6h-1.7v-3.4c0-0.5,0.4-0.8,0.8-0.8c0.5,0,0.8,0.4,0.8,0.8V293.6z"/>
<circle class="st12" cx="257" cy="128.5" r="74"/>
<circle class="st2" cx="257" cy="128.5" r="73.5"/>
<g>
	<defs>
		<rect id="SVGID_3_" x="225" y="96.5" width="64" height="64"/>
	</defs>
	<clipPath id="SVGID_4_">
		<use xlink:href="#SVGID_3_"  style="overflow:visible;"/>
	</clipPath>
	<g class="st13">
		<path class="st11" d="M255.4,123.4h-16.1c-2.3,0-4.2,1.9-4.2,4.2v11.1c0,2.3,1.9,4.2,4.2,4.2h16.1c2.3,0,4.2-1.9,4.2-4.2v-11.1
			C259.5,125.3,257.7,123.4,255.4,123.4z M257,138.7c0,0.9-0.8,1.7-1.7,1.7h-16.1c-0.9,0-1.7-0.8-1.7-1.7v-11.1
			c0-0.9,0.8-1.7,1.7-1.7h16.1c0.9,0,1.7,0.8,1.7,1.7V138.7z"/>
		<path class="st11" d="M249.6,132l-3.3-1.9c-0.4-0.2-0.9-0.2-1.3,0c-0.4,0.2-0.6,0.6-0.6,1.1v3.8c0,0.4,0.2,0.9,0.6,1.1
			c0.2,0.1,0.4,0.2,0.6,0.2s0.4-0.1,0.6-0.2l3.3-1.9c0.4-0.2,0.6-0.6,0.6-1.1C250.2,132.7,250,132.3,249.6,132z"/>
		<path class="st11" d="M288.3,108.1l-15.6-8.1c-0.4-0.2-0.8-0.2-1.2,0l-15.6,8.1c-0.4,0.2-0.7,0.6-0.7,1.1c0,0.5,0.3,0.9,0.7,1.1
			l6,3.1v2.6h-25.1c-4.6,0-8.4,3.8-8.4,8.4v23.1h-2.3c-0.7,0-1.3,0.6-1.3,1.3c0,4.6,3.7,8.3,8.3,8.3H274c4.5,0,8.3-3.7,8.3-8.3
			c0-0.7-0.6-1.3-1.3-1.3h-2.3v-23.1c0-0.2,0-0.3,0-0.5l2.8-1.2c0.5-0.2,0.8-0.6,0.8-1.2v-8.1l4.2-2.2v7.7c0,0.7,0.6,1.3,1.3,1.3
			s1.3-0.6,1.3-1.3v-9.7C289,108.8,288.7,108.4,288.3,108.1z M276.3,147.6h-17c-0.7,0-1.3,0.6-1.3,1.3c0,0.7,0.6,1.3,1.3,1.3h20.4
			c-0.6,2.6-2.9,4.5-5.6,4.5h-40.8c-2.7,0-5-1.9-5.6-4.5H248c0.7,0,1.3-0.6,1.3-1.3c0-0.7-0.6-1.3-1.3-1.3h-17v-23.1
			c0-3.2,2.6-5.9,5.9-5.9H262v3c0,0.5,0.3,1,0.8,1.2l8.9,3.8c0.2,0.1,0.3,0.1,0.5,0.1s0.3,0,0.5-0.1l3.6-1.5V147.6z M279.8,120.8
			l-7.7,3.3l-7.7-3.3v-6l7.1,3.7c0.2,0.1,0.4,0.1,0.6,0.1s0.4,0,0.6-0.1l7.1-3.7V120.8z M272.1,116l-12.9-6.7l12.9-6.7l12.9,6.7
			L272.1,116z"/>
		<path class="st11" d="M271.3,108.4c-0.2,0.2-0.4,0.6-0.4,0.9s0.1,0.7,0.4,0.9c0.2,0.2,0.6,0.4,0.9,0.4c0.3,0,0.7-0.1,0.9-0.4
			c0.2-0.2,0.4-0.6,0.4-0.9s-0.1-0.7-0.4-0.9c-0.2-0.2-0.6-0.4-0.9-0.4C271.8,108,271.5,108.1,271.3,108.4z"/>
		<path class="st11" d="M271.5,140.4h-6.8c-0.7,0-1.3,0.6-1.3,1.3c0,0.7,0.6,1.3,1.3,1.3h6.8c0.7,0,1.3-0.6,1.3-1.3
			C272.7,140.9,272.1,140.4,271.5,140.4z"/>
		<path class="st11" d="M271.5,134.4h-6.8c-0.7,0-1.3,0.6-1.3,1.3c0,0.7,0.6,1.3,1.3,1.3h6.8c0.7,0,1.3-0.6,1.3-1.3
			C272.7,134.9,272.1,134.4,271.5,134.4z"/>
		<path class="st11" d="M253.6,147.6c-0.3,0-0.7,0.1-0.9,0.4c-0.2,0.2-0.4,0.6-0.4,0.9c0,0.3,0.1,0.7,0.4,0.9
			c0.2,0.2,0.6,0.4,0.9,0.4s0.7-0.1,0.9-0.4c0.2-0.2,0.4-0.6,0.4-0.9c0-0.3-0.1-0.7-0.4-0.9C254.3,147.8,254,147.6,253.6,147.6z"/>
	</g>
</g>
<g>
	<path class="st3" d="M413,440.5h196v60H413V440.5z"/>
	<path class="st2" d="M413.5,441h195v59h-195V441z"/>
</g>
<path class="st12" d="M440.3,478.8c-1.1,0-2.1-0.2-3-0.6c-0.9-0.4-1.6-1.1-2.1-2c-0.5-0.9-0.8-2-0.8-3.4v-9.6h2.3v9.6
	c0,1.3,0.3,2.3,1,3c0.6,0.6,1.5,0.9,2.6,0.9c1.1,0,2-0.3,2.6-0.9c0.6-0.6,1-1.6,1-3v-9.6h2.3v9.6c0,1.4-0.3,2.5-0.8,3.4
	c-0.5,0.9-1.2,1.6-2.2,2C442.4,478.6,441.4,478.8,440.3,478.8z M448,478.5v-1.9l5.8-7.1h-5.7v-1.9h8.4v1.9l-5.9,7.1h6v1.9H448z
	 M462.2,478.8c-0.9,0-1.7-0.2-2.3-0.5c-0.6-0.3-1-0.7-1.3-1.2c-0.3-0.5-0.4-1.1-0.4-1.7c0-1.1,0.4-1.9,1.2-2.5
	c0.8-0.6,2-0.9,3.5-0.9h2.9v-0.2c0-0.9-0.2-1.5-0.7-1.9c-0.5-0.4-1-0.6-1.8-0.6c-0.6,0-1.2,0.2-1.7,0.5c-0.5,0.3-0.8,0.8-0.9,1.4
	h-2.3c0.1-0.8,0.3-1.5,0.8-2c0.5-0.6,1.1-1,1.8-1.3c0.7-0.3,1.5-0.5,2.4-0.5c1.5,0,2.7,0.4,3.5,1.2c0.8,0.8,1.3,1.9,1.3,3.3v6.7h-2
	l-0.2-1.9c-0.3,0.6-0.8,1.1-1.3,1.5C464,478.6,463.2,478.8,462.2,478.8z M462.7,476.9c0.6,0,1.2-0.1,1.6-0.4c0.4-0.3,0.8-0.7,1-1.2
	c0.3-0.5,0.4-1,0.5-1.6h-2.6c-0.9,0-1.6,0.2-2,0.5c-0.4,0.3-0.6,0.7-0.6,1.2c0,0.5,0.2,0.9,0.6,1.2
	C461.5,476.7,462,476.9,462.7,476.9z M470.4,478.5v-15.8h2.3v9.4l4.2-4.5h2.8l-4.6,4.9l5.3,6h-2.9l-4.7-5.6v5.6H470.4z M486.3,478.5
	c-1.1,0-1.9-0.3-2.6-0.8c-0.6-0.5-0.9-1.5-0.9-2.8v-5.4h-1.9v-2h1.9l0.3-2.8h2v2.8h3.1v2h-3.1v5.4c0,0.6,0.1,1,0.4,1.3
	c0.3,0.2,0.7,0.3,1.3,0.3h1.3v2H486.3z M493.9,478.8c-0.9,0-1.7-0.2-2.3-0.5c-0.6-0.3-1-0.7-1.3-1.2c-0.3-0.5-0.4-1.1-0.4-1.7
	c0-1.1,0.4-1.9,1.2-2.5c0.8-0.6,2-0.9,3.5-0.9h2.9v-0.2c0-0.9-0.2-1.5-0.7-1.9c-0.5-0.4-1-0.6-1.8-0.6c-0.6,0-1.2,0.2-1.7,0.5
	c-0.5,0.3-0.8,0.8-0.9,1.4h-2.3c0.1-0.8,0.3-1.5,0.8-2c0.5-0.6,1.1-1,1.8-1.3c0.7-0.3,1.5-0.5,2.4-0.5c1.5,0,2.7,0.4,3.5,1.2
	c0.8,0.8,1.3,1.9,1.3,3.3v6.7h-2l-0.2-1.9c-0.3,0.6-0.8,1.1-1.3,1.5C495.6,478.6,494.8,478.8,493.9,478.8z M494.4,476.9
	c0.6,0,1.2-0.1,1.6-0.4c0.4-0.3,0.8-0.7,1-1.2c0.2-0.5,0.4-1,0.5-1.6h-2.6c-0.9,0-1.6,0.2-2,0.5c-0.4,0.3-0.6,0.7-0.6,1.2
	c0,0.5,0.2,0.9,0.6,1.2C493.2,476.7,493.7,476.9,494.4,476.9z M502,478.5v-10.9h2.1l0.2,1.9c0.3-0.7,0.8-1.2,1.5-1.6
	c0.7-0.4,1.4-0.6,2.3-0.6c1.3,0,2.4,0.4,3.1,1.2c0.8,0.8,1.1,2,1.1,3.7v6.3H510v-6c0-2.1-0.9-3.2-2.6-3.2c-0.9,0-1.6,0.3-2.2,0.9
	c-0.6,0.6-0.8,1.5-0.8,2.6v5.6H502z M519.8,478.5v-15.4h9.8v1.9h-7.5v4.8h6.8v1.8h-6.8v5h7.5v1.9H519.8z M536.3,475.2
	c-0.6,0-1.1-0.1-1.6-0.2l-0.9,0.9c0.2,0.1,0.4,0.2,0.6,0.3c0.2,0.1,0.6,0.1,1,0.2c0.4,0.1,1,0.1,1.7,0.2c1.5,0.1,2.5,0.5,3.1,1.1
	c0.6,0.6,1,1.3,1,2.2c0,0.6-0.2,1.3-0.5,1.8c-0.3,0.6-0.9,1.1-1.6,1.4c-0.7,0.4-1.6,0.6-2.8,0.6c-1.5,0-2.8-0.3-3.7-0.9
	c-0.9-0.6-1.4-1.4-1.4-2.6c0-0.5,0.1-0.9,0.4-1.4c0.2-0.4,0.6-0.9,1.2-1.3c-0.3-0.1-0.6-0.3-0.8-0.4c-0.2-0.2-0.4-0.3-0.6-0.5v-0.5
	l1.9-1.9c-0.9-0.7-1.3-1.7-1.3-2.9c0-0.7,0.2-1.4,0.5-2c0.4-0.6,0.9-1.1,1.5-1.4c0.7-0.4,1.5-0.5,2.4-0.5c0.6,0,1.2,0.1,1.7,0.3h4.1
	v1.5l-1.9,0.1c0.4,0.6,0.5,1.3,0.5,2s-0.2,1.4-0.5,2c-0.3,0.6-0.8,1.1-1.5,1.4C538,475,537.2,475.2,536.3,475.2z M536.3,473.3
	c0.7,0,1.2-0.2,1.6-0.5c0.4-0.4,0.6-0.9,0.6-1.5c0-0.7-0.2-1.2-0.6-1.5c-0.4-0.4-1-0.5-1.6-0.5c-0.7,0-1.2,0.2-1.7,0.5
	c-0.4,0.4-0.6,0.9-0.6,1.5c0,0.7,0.2,1.2,0.6,1.5C535,473.2,535.6,473.3,536.3,473.3z M533.4,479.9c0,0.6,0.3,1.1,0.8,1.4
	c0.6,0.3,1.3,0.5,2.1,0.5c0.8,0,1.5-0.2,2-0.5c0.5-0.3,0.7-0.8,0.7-1.4c0-0.4-0.2-0.8-0.5-1.1c-0.3-0.3-1-0.5-1.9-0.6
	c-0.7,0-1.3-0.1-1.9-0.2c-0.5,0.3-0.9,0.6-1.1,0.9C533.4,479.3,533.4,479.6,533.4,479.9z M536.3,466.4c-1,0-1.8-0.3-2.4-0.9
	c-0.6-0.6-0.8-1.3-0.8-2.2V463h1.3c0,0.5,0.1,0.9,0.4,1.2c0.3,0.3,0.8,0.4,1.5,0.4c0.7,0,1.2-0.1,1.5-0.4c0.3-0.3,0.4-0.7,0.4-1.2
	h1.3v0.3c0,0.9-0.3,1.7-0.9,2.2S537.3,466.4,536.3,466.4z M545,465.5c-0.4,0-0.8-0.1-1.1-0.4c-0.3-0.3-0.4-0.6-0.4-1s0.1-0.7,0.4-1
	c0.3-0.3,0.7-0.4,1.1-0.4s0.8,0.1,1.1,0.4c0.3,0.3,0.4,0.6,0.4,1s-0.1,0.8-0.4,1C545.8,465.4,545.5,465.5,545,465.5z M543.9,478.5
	v-10.9h2.3v10.9H543.9z M553.4,478.5c-1.1,0-1.9-0.3-2.6-0.8c-0.6-0.5-0.9-1.5-0.9-2.8v-5.4H548v-2h1.9l0.3-2.8h2v2.8h3.1v2h-3.1
	v5.4c0,0.6,0.1,1,0.4,1.3c0.3,0.2,0.7,0.3,1.3,0.3h1.3v2H553.4z M558.6,465.5c-0.4,0-0.8-0.1-1.1-0.4c-0.3-0.3-0.4-0.6-0.4-1
	s0.1-0.7,0.4-1c0.3-0.3,0.7-0.4,1.1-0.4s0.8,0.1,1.1,0.4c0.3,0.3,0.4,0.6,0.4,1s-0.1,0.8-0.4,1C559.4,465.4,559,465.5,558.6,465.5z
	 M557.4,478.5v-10.9h2.3v10.9H557.4z M562.4,478.5v-10.9h2.1l0.2,1.5c0.4-0.6,0.8-1,1.4-1.3c0.6-0.3,1.3-0.5,2-0.5
	c1.7,0,2.9,0.7,3.6,2c0.4-0.6,0.9-1.1,1.6-1.5c0.7-0.4,1.4-0.5,2.2-0.5c1.4,0,2.4,0.4,3.2,1.2c0.8,0.8,1.2,2,1.2,3.7v6.3h-2.3v-6
	c0-2.1-0.8-3.2-2.4-3.2c-0.8,0-1.5,0.3-2,0.9c-0.5,0.6-0.8,1.5-0.8,2.6v5.6H570v-6c0-2.1-0.8-3.2-2.4-3.2c-0.8,0-1.5,0.3-2,0.9
	c-0.5,0.6-0.8,1.5-0.8,2.6v5.6H562.4z"/>
<g>
	<path class="st3" d="M374,354.5h196v60H374V354.5z"/>
	<path class="st2" d="M374.5,355h195v59h-195V355z"/>
</g>
<path class="st14" d="M399.5,392.5v-5.7l-5.1-9.7h2.6l3.6,7.4l3.6-7.4h2.6l-5.1,9.7v5.7H399.5z M411.7,392.8c-1.3,0-2.4-0.4-3.1-1.2
	c-0.7-0.8-1.1-2-1.1-3.7v-6.3h2.3v6c0,2.1,0.9,3.2,2.6,3.2c0.9,0,1.6-0.3,2.1-0.9c0.6-0.6,0.8-1.5,0.8-2.6v-5.6h2.3v10.9h-2.1
	l-0.2-1.9c-0.3,0.7-0.8,1.2-1.5,1.6C413.3,392.6,412.5,392.8,411.7,392.8z M414.4,380c-0.3,0-0.6-0.1-0.9-0.4
	c-0.2-0.2-0.4-0.5-0.4-0.9c0-0.4,0.1-0.6,0.4-0.9c0.2-0.2,0.5-0.4,0.9-0.4c0.3,0,0.6,0.1,0.9,0.4c0.2,0.2,0.4,0.5,0.4,0.9
	c0,0.3-0.1,0.6-0.4,0.9C415,379.9,414.7,380,414.4,380z M410.7,380c-0.4,0-0.6-0.1-0.9-0.4c-0.2-0.2-0.4-0.5-0.4-0.9
	c0-0.4,0.1-0.6,0.4-0.9c0.2-0.2,0.5-0.4,0.9-0.4c0.3,0,0.6,0.1,0.9,0.4c0.2,0.2,0.4,0.5,0.4,0.9c0,0.3-0.1,0.6-0.4,0.9
	C411.3,379.9,411,380,410.7,380z M419.5,392.5v-1.9l5.8-7.1h-5.7v-1.9h8.4v1.9l-5.9,7.1h6v1.9H419.5z M439.1,392.5v-5.7l-5.1-9.7
	h2.6l3.6,7.4l3.6-7.4h2.6l-5.1,9.7v5.7H439.1z M451.3,392.8c-1.3,0-2.4-0.4-3.1-1.2c-0.7-0.8-1.1-2-1.1-3.7v-6.3h2.3v6
	c0,2.1,0.9,3.2,2.6,3.2c0.9,0,1.6-0.3,2.1-0.9c0.6-0.6,0.8-1.5,0.8-2.6v-5.6h2.3v10.9h-2.1l-0.2-1.9c-0.3,0.7-0.8,1.2-1.5,1.6
	C452.9,392.6,452.2,392.8,451.3,392.8z M454,380c-0.3,0-0.6-0.1-0.9-0.4c-0.2-0.2-0.4-0.5-0.4-0.9c0-0.4,0.1-0.6,0.4-0.9
	c0.3-0.2,0.5-0.4,0.9-0.4c0.3,0,0.6,0.1,0.9,0.4c0.2,0.2,0.4,0.5,0.4,0.9c0,0.3-0.1,0.6-0.4,0.9C454.7,379.9,454.4,380,454,380z
	 M450.3,380c-0.4,0-0.6-0.1-0.9-0.4c-0.2-0.2-0.4-0.5-0.4-0.9c0-0.4,0.1-0.6,0.4-0.9c0.2-0.2,0.5-0.4,0.9-0.4c0.3,0,0.6,0.1,0.9,0.4
	c0.3,0.2,0.4,0.5,0.4,0.9c0,0.3-0.1,0.6-0.4,0.9C450.9,379.9,450.6,380,450.3,380z M459.1,392.5v-1.9l5.8-7.1h-5.7v-1.9h8.4v1.9
	l-5.9,7.1h6v1.9H459.1z M474.8,392.8c-1.1,0-2-0.2-2.9-0.7c-0.8-0.5-1.5-1.2-1.9-2c-0.5-0.9-0.7-1.8-0.7-3c0-1.1,0.2-2.1,0.7-3
	c0.5-0.9,1.1-1.5,1.9-2c0.8-0.5,1.8-0.7,2.9-0.7c1.1,0,2,0.2,2.8,0.7c0.8,0.5,1.4,1.1,1.8,1.9c0.4,0.8,0.7,1.7,0.7,2.6
	c0,0.1,0,0.3,0,0.5c0,0.2,0,0.3,0,0.5h-8.5c0.1,1.1,0.4,1.9,1,2.4c0.6,0.5,1.4,0.8,2.2,0.8c0.7,0,1.2-0.1,1.7-0.4
	c0.5-0.3,0.8-0.7,1-1.2h2.3c-0.3,1-0.9,1.9-1.8,2.6C477.1,392.4,476,392.8,474.8,392.8z M474.8,383.2c-0.8,0-1.5,0.2-2.1,0.7
	c-0.6,0.5-1,1.1-1.1,2.1h6.2c0-0.9-0.3-1.5-0.9-2C476.3,383.5,475.6,383.2,474.8,383.2z M487.3,392.5v-15.4h9.8v1.9h-7.5v4.8h6.8
	v1.8h-6.8v5h7.5v1.9H487.3z M503.8,389.2c-0.6,0-1.1-0.1-1.6-0.2l-0.9,0.9c0.2,0.1,0.4,0.2,0.6,0.3c0.2,0.1,0.6,0.1,1,0.2
	c0.4,0.1,1,0.1,1.7,0.2c1.5,0.1,2.5,0.5,3.1,1.1c0.6,0.6,1,1.3,1,2.2c0,0.6-0.2,1.3-0.5,1.8c-0.3,0.6-0.9,1.1-1.6,1.4
	c-0.7,0.4-1.6,0.6-2.8,0.6c-1.5,0-2.8-0.3-3.7-0.9c-0.9-0.6-1.4-1.4-1.4-2.6c0-0.5,0.1-0.9,0.4-1.4c0.2-0.4,0.6-0.9,1.2-1.3
	c-0.3-0.1-0.6-0.3-0.8-0.4c-0.2-0.2-0.4-0.3-0.6-0.5v-0.5l1.9-1.9c-0.9-0.7-1.3-1.7-1.3-2.9c0-0.7,0.2-1.4,0.5-2
	c0.4-0.6,0.9-1.1,1.5-1.4c0.7-0.4,1.5-0.5,2.4-0.5c0.6,0,1.2,0.1,1.7,0.3h4.1v1.5l-1.9,0.1c0.4,0.6,0.5,1.3,0.5,2s-0.2,1.4-0.5,2
	c-0.3,0.6-0.8,1.1-1.5,1.4C505.5,389,504.7,389.2,503.8,389.2z M503.8,387.3c0.7,0,1.2-0.2,1.6-0.5c0.4-0.4,0.6-0.9,0.6-1.5
	c0-0.7-0.2-1.2-0.6-1.5c-0.4-0.4-1-0.5-1.6-0.5c-0.7,0-1.2,0.2-1.7,0.5c-0.4,0.4-0.6,0.9-0.6,1.5c0,0.7,0.2,1.2,0.6,1.5
	C502.5,387.2,503.1,387.3,503.8,387.3z M500.8,393.9c0,0.6,0.3,1.1,0.8,1.4c0.6,0.3,1.3,0.5,2.1,0.5c0.8,0,1.5-0.2,2-0.5
	c0.5-0.3,0.7-0.8,0.7-1.4c0-0.4-0.2-0.8-0.5-1.1c-0.3-0.3-1-0.5-1.9-0.6c-0.7,0-1.3-0.1-1.9-0.2c-0.5,0.3-0.9,0.6-1.1,0.9
	C500.9,393.3,500.8,393.6,500.8,393.9z M503.7,380.4c-1,0-1.8-0.3-2.4-0.9c-0.6-0.6-0.8-1.3-0.8-2.2V377h1.3c0,0.5,0.1,0.9,0.4,1.2
	c0.3,0.3,0.8,0.4,1.5,0.4c0.7,0,1.2-0.1,1.5-0.4c0.3-0.3,0.4-0.7,0.4-1.2h1.3v0.3c0,0.9-0.3,1.7-0.9,2.2
	C505.6,380.1,504.8,380.4,503.7,380.4z M512.5,379.5c-0.4,0-0.8-0.1-1.1-0.4c-0.3-0.3-0.4-0.6-0.4-1s0.1-0.7,0.4-1
	c0.3-0.3,0.7-0.4,1.1-0.4s0.8,0.1,1.1,0.4c0.3,0.3,0.4,0.6,0.4,1s-0.1,0.8-0.4,1C513.3,379.4,512.9,379.5,512.5,379.5z M511.3,392.5
	v-10.9h2.3v10.9H511.3z M520.9,392.5c-1.1,0-1.9-0.3-2.6-0.8c-0.6-0.5-0.9-1.5-0.9-2.8v-5.4h-1.9v-2h1.9l0.3-2.8h2v2.8h3.1v2h-3.1
	v5.4c0,0.6,0.1,1,0.4,1.3c0.3,0.2,0.7,0.3,1.3,0.3h1.3v2H520.9z M526.1,379.5c-0.4,0-0.8-0.1-1.1-0.4c-0.3-0.3-0.4-0.6-0.4-1
	s0.1-0.7,0.4-1c0.3-0.3,0.7-0.4,1.1-0.4c0.4,0,0.8,0.1,1.1,0.4c0.3,0.3,0.4,0.6,0.4,1s-0.1,0.8-0.4,1
	C526.9,379.4,526.5,379.5,526.1,379.5z M524.9,392.5v-10.9h2.3v10.9H524.9z M529.9,392.5v-10.9h2.1l0.2,1.5c0.4-0.6,0.8-1,1.4-1.3
	c0.6-0.3,1.3-0.5,2-0.5c1.7,0,2.9,0.7,3.6,2c0.4-0.6,0.9-1.1,1.6-1.5c0.7-0.4,1.4-0.5,2.2-0.5c1.4,0,2.4,0.4,3.2,1.2
	c0.8,0.8,1.2,2,1.2,3.7v6.3H545v-6c0-2.1-0.8-3.2-2.4-3.2c-0.8,0-1.5,0.3-2,0.9c-0.5,0.6-0.8,1.5-0.8,2.6v5.6h-2.3v-6
	c0-2.1-0.8-3.2-2.4-3.2c-0.8,0-1.5,0.3-2,0.9c-0.5,0.6-0.8,1.5-0.8,2.6v5.6H529.9z"/>
<g>
	<path class="st3" d="M413,268.5h196v60H413V268.5z"/>
	<path class="st2" d="M413.5,269h195v59h-195V269z"/>
</g>
<path class="st12" d="M447,304l-6.2,3.5l1.4-6.9l-5.2-4.8l7-0.8l3-6.4l3,6.4l7,0.8l-5.2,4.8l1.4,6.9L447,304z"/>
<path class="st12" d="M479,304l-6.2,3.5l1.4-6.9l-5.2-4.8l7-0.8l3-6.4l3,6.4l7,0.8l-5.2,4.8l1.4,6.9L479,304z"/>
<path class="st12" d="M511,304l-6.2,3.5l1.4-6.9l-5.2-4.8l7-0.8l3-6.4l3,6.4l7,0.8l-5.2,4.8l1.4,6.9L511,304z"/>
<path class="st5" d="M543,304l-6.2,3.5l1.4-6.9l-5.2-4.8l7-0.8l3-6.4l3,6.4l7,0.8l-5.2,4.8l1.4,6.9L543,304z"/>
<path class="st5" d="M575,304l-6.2,3.5l1.4-6.9l-5.2-4.8l7-0.8l3-6.4l3,6.4l7,0.8l-5.2,4.8l1.4,6.9L575,304z"/>
<path class="st15" d="M492,174.3v-7.2l-6.5-12.4h3.4l4.6,9.5l4.6-9.5h3.3l-6.4,12.4v7.2H492z M506.7,174.6c-1.7,0-3-0.5-4-1.6
	c-1-1-1.4-2.6-1.4-4.7v-8h3v7.7c0,2.7,1.1,4,3.3,4c1.1,0,2-0.4,2.7-1.2c0.7-0.8,1.1-1.9,1.1-3.4v-7.2h3v13.9h-2.6l-0.2-2.4
	c-0.4,0.9-1.1,1.5-1.9,2C508.7,174.4,507.8,174.6,506.7,174.6z M510.1,158.4c-0.4,0-0.8-0.1-1.1-0.4c-0.3-0.3-0.4-0.7-0.4-1.1
	c0-0.4,0.1-0.8,0.4-1.1c0.3-0.3,0.7-0.4,1.1-0.4c0.4,0,0.8,0.1,1.1,0.4c0.3,0.3,0.4,0.7,0.4,1.1c0,0.4-0.1,0.8-0.4,1.1
	C510.9,158.2,510.6,158.4,510.1,158.4z M505.4,158.4c-0.4,0-0.8-0.1-1.1-0.4c-0.3-0.3-0.4-0.7-0.4-1.1c0-0.4,0.1-0.8,0.4-1.1
	c0.3-0.3,0.7-0.4,1.1-0.4c0.4,0,0.8,0.1,1.1,0.4c0.3,0.3,0.5,0.7,0.5,1.1c0,0.4-0.2,0.8-0.5,1.1
	C506.2,158.2,505.8,158.4,505.4,158.4z M515.8,174.3v-2.4l7.4-9h-7.3v-2.5h10.7v2.4l-7.5,9h7.6v2.5H515.8z M539.1,174.3v-7.2
	l-6.5-12.4h3.4l4.6,9.5l4.6-9.5h3.3l-6.4,12.4v7.2H539.1z M553.8,174.6c-1.7,0-3-0.5-4-1.6c-1-1-1.4-2.6-1.4-4.7v-8h3v7.7
	c0,2.7,1.1,4,3.3,4c1.1,0,2-0.4,2.7-1.2c0.7-0.8,1.1-1.9,1.1-3.4v-7.2h3v13.9h-2.6l-0.2-2.4c-0.4,0.9-1.1,1.5-1.9,2
	C555.8,174.4,554.9,174.6,553.8,174.6z M557.2,158.4c-0.4,0-0.8-0.1-1.1-0.4c-0.3-0.3-0.4-0.7-0.4-1.1c0-0.4,0.1-0.8,0.4-1.1
	c0.3-0.3,0.7-0.4,1.1-0.4c0.4,0,0.8,0.1,1.1,0.4c0.3,0.3,0.4,0.7,0.4,1.1c0,0.4-0.1,0.8-0.4,1.1C558,158.2,557.7,158.4,557.2,158.4z
	 M552.5,158.4c-0.4,0-0.8-0.1-1.1-0.4c-0.3-0.3-0.4-0.7-0.4-1.1c0-0.4,0.1-0.8,0.4-1.1c0.3-0.3,0.7-0.4,1.1-0.4
	c0.4,0,0.8,0.1,1.1,0.4c0.3,0.3,0.5,0.7,0.5,1.1c0,0.4-0.2,0.8-0.5,1.1C553.3,158.2,552.9,158.4,552.5,158.4z M562.9,174.3v-2.4
	l7.4-9H563v-2.5h10.7v2.4l-7.5,9h7.6v2.5H562.9z M581.9,174.6c-1.4,0-2.6-0.3-3.6-0.9c-1-0.6-1.9-1.5-2.5-2.5
	c-0.6-1.1-0.9-2.3-0.9-3.8c0-1.5,0.3-2.7,0.9-3.8c0.6-1.1,1.4-2,2.5-2.6c1.1-0.6,2.3-0.9,3.7-0.9c1.4,0,2.5,0.3,3.6,0.9
	c1,0.6,1.8,1.4,2.4,2.4c0.6,1,0.8,2.1,0.8,3.3c0,0.2,0,0.4,0,0.6c0,0.2,0,0.4,0,0.7h-10.8c0.1,1.3,0.5,2.4,1.3,3.1
	c0.8,0.7,1.7,1,2.8,1c0.8,0,1.5-0.2,2.1-0.6c0.6-0.4,1-0.9,1.3-1.6h3c-0.4,1.3-1.1,2.4-2.2,3.3C584.9,174.2,583.6,174.6,581.9,174.6
	z M581.9,162.5c-1,0-1.9,0.3-2.6,0.9c-0.8,0.6-1.2,1.5-1.4,2.6h7.8c-0.1-1.1-0.4-1.9-1.1-2.6C583.9,162.8,583,162.5,581.9,162.5z
	 M602.2,174.6c-1.4,0-2.6-0.2-3.7-0.7c-1-0.5-1.8-1.2-2.4-2.1c-0.6-0.9-0.9-1.9-0.9-3.1c0-1.3,0.4-2.5,1.1-3.5
	c0.7-1,1.8-1.8,3.3-2.5c-0.6-0.7-1-1.3-1.3-1.9c-0.3-0.6-0.4-1.3-0.4-2c0-1.3,0.5-2.4,1.4-3.2c0.9-0.9,2.2-1.3,3.9-1.3
	c1.1,0,2,0.2,2.8,0.6c0.8,0.4,1.4,1,1.8,1.7c0.4,0.7,0.6,1.5,0.6,2.4h-2.9c0-0.7-0.2-1.3-0.7-1.7c-0.5-0.4-1-0.6-1.6-0.6
	c-0.7,0-1.3,0.2-1.7,0.6c-0.4,0.4-0.6,0.9-0.6,1.5c0,0.5,0.2,1.1,0.4,1.6c0.3,0.5,0.8,1.1,1.4,1.8l5.8,5.9c0.5-0.7,1-1.5,1.5-2.5
	l0.7-1.4h3.1l-1.1,2c-0.8,1.5-1.5,2.7-2.3,3.8l4.4,4.4h-3.6l-2.4-2.4c-1,1-2,1.6-3.1,2.1C604.7,174.4,603.5,174.6,602.2,174.6z
	 M598.1,168.5c0,1,0.4,1.9,1.1,2.6c0.8,0.7,1.8,1,3,1c0.9,0,1.7-0.2,2.5-0.5c0.7-0.3,1.5-0.9,2.2-1.6l-5.6-5.6
	c-1.1,0.4-1.9,1-2.4,1.7C598.4,166.8,598.1,167.6,598.1,168.5z M494.3,206.6c-1.4,0-2.7-0.3-3.8-0.8c-1.1-0.6-2-1.4-2.7-2.5
	c-0.7-1.1-1-2.6-1-4.3v-12.2h3V199c0,1.7,0.4,3,1.2,3.8s1.9,1.2,3.3,1.2c1.4,0,2.5-0.4,3.3-1.2c0.8-0.8,1.2-2.1,1.2-3.8v-12.3h3
	v12.2c0,1.8-0.3,3.2-1,4.3c-0.7,1.1-1.6,2-2.7,2.5C497,206.4,495.7,206.6,494.3,206.6z M503.3,206.3v-2.4l7.4-9h-7.3v-2.5h10.7v2.4
	l-7.5,9h7.6v2.5H503.3z M520.5,206.6c-1.2,0-2.1-0.2-2.9-0.6s-1.3-0.9-1.7-1.5c-0.4-0.7-0.6-1.4-0.6-2.1c0-1.3,0.5-2.4,1.6-3.2
	s2.5-1.2,4.5-1.2h3.6v-0.3c0-1.1-0.3-1.9-0.9-2.4c-0.6-0.5-1.3-0.8-2.3-0.8c-0.8,0-1.5,0.2-2.2,0.6c-0.6,0.4-1,1-1.1,1.8h-3
	c0.1-1,0.4-1.9,1-2.6c0.6-0.7,1.3-1.3,2.2-1.7c0.9-0.4,1.9-0.6,3-0.6c1.9,0,3.4,0.5,4.5,1.5c1.1,1,1.6,2.4,1.6,4.1v8.5h-2.6
	l-0.3-2.4c-0.4,0.8-1,1.4-1.7,1.9C522.7,206.4,521.8,206.6,520.5,206.6z M521.1,204.2c0.8,0,1.5-0.2,2-0.6c0.6-0.4,1-0.9,1.3-1.5
	c0.3-0.6,0.5-1.3,0.6-2.1h-3.3c-1.2,0-2,0.2-2.5,0.6c-0.5,0.4-0.7,0.9-0.7,1.5c0,0.6,0.2,1.1,0.7,1.5
	C519.7,204,520.3,204.2,521.1,204.2z M530.1,206.3v-20.2h3v12l5.3-5.7h3.6l-5.9,6.3l6.8,7.6H539l-6-7.1v7.1H530.1z M549.5,206.3
	c-1.4,0-2.4-0.3-3.2-1c-0.8-0.7-1.2-1.9-1.2-3.6v-6.9h-2.4v-2.5h2.4l0.4-3.5h2.6v3.5h3.9v2.5H548v6.9c0,0.8,0.2,1.3,0.5,1.6
	c0.3,0.3,0.9,0.4,1.7,0.4h1.6v2.5H549.5z M558.3,206.6c-1.2,0-2.1-0.2-2.9-0.6c-0.8-0.4-1.3-0.9-1.7-1.5c-0.4-0.7-0.6-1.4-0.6-2.1
	c0-1.3,0.5-2.4,1.6-3.2c1-0.8,2.5-1.2,4.5-1.2h3.6v-0.3c0-1.1-0.3-1.9-0.9-2.4c-0.6-0.5-1.3-0.8-2.3-0.8c-0.8,0-1.5,0.2-2.2,0.6
	c-0.6,0.4-1,1-1.1,1.8h-3c0.1-1,0.4-1.9,1-2.6c0.6-0.7,1.3-1.3,2.2-1.7c0.9-0.4,1.9-0.6,3-0.6c1.9,0,3.4,0.5,4.5,1.5
	c1.1,1,1.6,2.4,1.6,4.1v8.5h-2.6l-0.3-2.4c-0.4,0.8-1,1.4-1.7,1.9C560.5,206.4,559.5,206.6,558.3,206.6z M558.9,204.2
	c0.8,0,1.5-0.2,2-0.6c0.6-0.4,1-0.9,1.3-1.5c0.3-0.6,0.5-1.3,0.6-2.1h-3.3c-1.2,0-2,0.2-2.5,0.6c-0.5,0.4-0.7,0.9-0.7,1.5
	c0,0.6,0.2,1.1,0.7,1.5C557.4,204,558.1,204.2,558.9,204.2z M567.9,206.3v-13.9h2.6l0.2,2.4c0.4-0.9,1.1-1.5,1.9-2
	c0.8-0.5,1.8-0.8,2.9-0.8c1.7,0,3,0.5,3.9,1.6c1,1,1.5,2.6,1.5,4.7v8h-2.9v-7.7c0-2.7-1.1-4-3.3-4c-1.1,0-2,0.4-2.7,1.2
	c-0.7,0.8-1.1,1.9-1.1,3.4v7.2H567.9z M588.7,206.3v-19.6h12.5v2.4h-9.5v6.1h8.7v2.4h-8.7v6.3h9.5v2.4H588.7z M608.9,202
	c-0.7,0-1.4-0.1-2-0.3l-1.2,1.2c0.2,0.1,0.5,0.2,0.8,0.3c0.3,0.1,0.7,0.2,1.3,0.3c0.5,0.1,1.3,0.1,2.2,0.2c1.8,0.2,3.2,0.6,4,1.3
	c0.8,0.7,1.2,1.7,1.2,2.9c0,0.8-0.2,1.6-0.7,2.3c-0.4,0.7-1.1,1.3-2,1.8c-0.9,0.5-2.1,0.7-3.5,0.7c-1.9,0-3.5-0.4-4.7-1.1
	c-1.2-0.7-1.8-1.8-1.8-3.3c0-0.6,0.1-1.2,0.4-1.7c0.3-0.6,0.8-1.1,1.5-1.6c-0.4-0.2-0.7-0.3-1-0.5c-0.3-0.2-0.5-0.4-0.8-0.6v-0.7
	l2.4-2.5c-1.1-0.9-1.6-2.2-1.6-3.7c0-0.9,0.2-1.7,0.6-2.5c0.4-0.8,1.1-1.4,1.9-1.8c0.8-0.4,1.8-0.7,3-0.7c0.8,0,1.5,0.1,2.2,0.3h5.2
	v2l-2.5,0.1c0.4,0.8,0.7,1.6,0.7,2.5s-0.2,1.8-0.7,2.5c-0.4,0.7-1.1,1.3-1.9,1.8C611.1,201.8,610.1,202,608.9,202z M608.9,199.7
	c0.9,0,1.5-0.2,2.1-0.7c0.5-0.5,0.8-1.1,0.8-2c0-0.9-0.3-1.5-0.8-2c-0.5-0.4-1.2-0.7-2.1-0.7c-0.9,0-1.6,0.2-2.1,0.7
	c-0.5,0.4-0.8,1.1-0.8,2c0,0.8,0.3,1.5,0.8,2C607.3,199.5,608,199.7,608.9,199.7z M605.2,208.1c0,0.8,0.4,1.4,1.1,1.8
	c0.7,0.4,1.6,0.6,2.7,0.6c1,0,1.9-0.2,2.5-0.7c0.6-0.4,1-1,1-1.7c0-0.5-0.2-1-0.6-1.4c-0.4-0.4-1.2-0.6-2.4-0.7
	c-0.9-0.1-1.7-0.1-2.4-0.3c-0.7,0.4-1.1,0.7-1.3,1.1C605.3,207.3,605.2,207.7,605.2,208.1z M608.9,190.9c-1.3,0-2.3-0.4-3.1-1.1
	c-0.7-0.7-1.1-1.7-1.1-2.9v-0.4h1.7c0,0.7,0.2,1.2,0.6,1.6c0.4,0.4,1,0.5,1.9,0.5c0.9,0,1.6-0.2,1.9-0.5c0.4-0.4,0.6-0.9,0.6-1.6
	h1.7v0.4c0,1.2-0.4,2.1-1.1,2.9C611.2,190.6,610.2,190.9,608.9,190.9z M619.2,189.8c-0.6,0-1-0.2-1.4-0.5c-0.4-0.4-0.5-0.8-0.5-1.3
	c0-0.5,0.2-1,0.5-1.3c0.4-0.4,0.8-0.5,1.4-0.5s1,0.2,1.4,0.5c0.4,0.3,0.6,0.8,0.6,1.3c0,0.5-0.2,1-0.6,1.3
	C620.2,189.6,619.8,189.8,619.2,189.8z M617.7,206.3v-13.9h3v13.9H617.7z M629,206.3c-1.4,0-2.4-0.3-3.2-1c-0.8-0.7-1.2-1.9-1.2-3.6
	v-6.9h-2.4v-2.5h2.4l0.4-3.5h2.6v3.5h3.9v2.5h-3.9v6.9c0,0.8,0.2,1.3,0.5,1.6c0.3,0.3,0.9,0.4,1.7,0.4h1.6v2.5H629z M634.8,189.8
	c-0.6,0-1-0.2-1.4-0.5c-0.4-0.4-0.5-0.8-0.5-1.3c0-0.5,0.2-1,0.5-1.3c0.4-0.4,0.8-0.5,1.4-0.5s1,0.2,1.4,0.5
	c0.4,0.3,0.6,0.8,0.6,1.3c0,0.5-0.2,1-0.6,1.3C635.8,189.6,635.4,189.8,634.8,189.8z M633.3,206.3v-13.9h3v13.9H633.3z M638.8,206.3
	v-13.9h2.6l0.3,2c0.4-0.7,1-1.3,1.8-1.7c0.7-0.4,1.6-0.6,2.6-0.6c2.2,0,3.7,0.9,4.6,2.6c0.5-0.8,1.2-1.4,2-1.9
	c0.9-0.5,1.8-0.7,2.8-0.7c1.7,0,3.1,0.5,4.1,1.6c1,1,1.5,2.6,1.5,4.7v8h-3v-7.7c0-2.7-1-4-3.1-4c-1,0-1.9,0.4-2.6,1.2
	c-0.7,0.8-1,1.9-1,3.4v7.2h-3v-7.7c0-2.7-1-4-3.1-4c-1,0-1.9,0.4-2.5,1.2c-0.7,0.8-1,1.9-1,3.4v7.2H638.8z M663.7,200.5l-0.3-13.8
	h3.2l-0.3,13.8H663.7z M665,206.5c-0.6,0-1.1-0.2-1.4-0.5c-0.4-0.4-0.5-0.8-0.5-1.3c0-0.5,0.2-1,0.5-1.3c0.4-0.4,0.8-0.6,1.4-0.6
	c0.5,0,1,0.2,1.3,0.6c0.4,0.4,0.6,0.8,0.6,1.3c0,0.5-0.2,0.9-0.6,1.3C666,206.3,665.6,206.5,665,206.5z"/>
</svg>
