<svg width="358" height="95" viewBox="0 0 358 95" fill="none" xmlns="http://www.w3.org/2000/svg">
<rect y="7" width="358" height="88" fill="#1C1544"/>
<rect x="179.314" width="16" height="16" transform="rotate(45 179.314 0)" fill="#1C1544"/>
<rect x="25" y="62" width="308" height="3" fill="#2A2359"/>
<rect x="25" y="62" width="124" height="3" fill="#0BCE91"/>
<path d="M25.994 40V30.2H27.478V40H25.994ZM26.736 29.29C26.5213 29.29 26.3347 29.2153 26.176 29.066C26.0267 28.9073 25.952 28.7207 25.952 28.506C25.952 28.2913 26.0267 28.1093 26.176 27.96C26.3347 27.8013 26.5213 27.722 26.736 27.722C26.9507 27.722 27.1327 27.8013 27.282 27.96C27.4407 28.1093 27.52 28.2913 27.52 28.506C27.52 28.7207 27.4407 28.9073 27.282 29.066C27.1327 29.2153 26.9507 29.29 26.736 29.29ZM29.4107 40V29.92H30.8947V40H29.4107ZM36.0219 40.168C35.3406 40.168 34.7339 40.0187 34.2019 39.72C33.6793 39.412 33.2686 38.9873 32.9699 38.446C32.6713 37.9047 32.5219 37.2747 32.5219 36.556C32.5219 35.828 32.6666 35.1887 32.9559 34.638C33.2546 34.0873 33.6653 33.658 34.1879 33.35C34.7199 33.042 35.3359 32.888 36.0359 32.888C36.7173 32.888 37.3099 33.042 37.8139 33.35C38.3179 33.6487 38.7099 34.05 38.9899 34.554C39.2699 35.058 39.4099 35.6133 39.4099 36.22C39.4099 36.3133 39.4053 36.416 39.3959 36.528C39.3959 36.6307 39.3913 36.7473 39.3819 36.878H33.9779C34.0246 37.55 34.2439 38.0633 34.6359 38.418C35.0373 38.7633 35.4993 38.936 36.0219 38.936C36.4419 38.936 36.7919 38.8427 37.0719 38.656C37.3613 38.46 37.5759 38.1987 37.7159 37.872H39.1999C39.0133 38.5253 38.6399 39.0713 38.0799 39.51C37.5293 39.9487 36.8433 40.168 36.0219 40.168ZM36.0219 34.106C35.5273 34.106 35.0886 34.2553 34.7059 34.554C34.3233 34.8433 34.0899 35.282 34.0059 35.87H37.9259C37.8979 35.3287 37.7066 34.8993 37.3519 34.582C36.9973 34.2647 36.5539 34.106 36.0219 34.106ZM40.9497 40V33.056H42.2797L42.4057 34.372C42.6484 33.9147 42.9844 33.5553 43.4137 33.294C43.8524 33.0233 44.3797 32.888 44.9957 32.888V34.442H44.5897C44.1791 34.442 43.8104 34.512 43.4837 34.652C43.1664 34.7827 42.9097 35.0113 42.7137 35.338C42.5271 35.6553 42.4337 36.0987 42.4337 36.668V40H40.9497ZM46.2681 40V29.92H47.7521V40H46.2681ZM52.8794 40.168C52.198 40.168 51.5914 40.0187 51.0594 39.72C50.5367 39.412 50.126 38.9873 49.8274 38.446C49.5287 37.9047 49.3794 37.2747 49.3794 36.556C49.3794 35.828 49.524 35.1887 49.8134 34.638C50.112 34.0873 50.5227 33.658 51.0454 33.35C51.5774 33.042 52.1934 32.888 52.8934 32.888C53.5747 32.888 54.1674 33.042 54.6714 33.35C55.1754 33.6487 55.5674 34.05 55.8474 34.554C56.1274 35.058 56.2674 35.6133 56.2674 36.22C56.2674 36.3133 56.2627 36.416 56.2534 36.528C56.2534 36.6307 56.2487 36.7473 56.2394 36.878H50.8354C50.882 37.55 51.1014 38.0633 51.4934 38.418C51.8947 38.7633 52.3567 38.936 52.8794 38.936C53.2994 38.936 53.6494 38.8427 53.9294 38.656C54.2187 38.46 54.4334 38.1987 54.5734 37.872H56.0574C55.8707 38.5253 55.4974 39.0713 54.9374 39.51C54.3867 39.9487 53.7007 40.168 52.8794 40.168ZM52.8794 34.106C52.3847 34.106 51.946 34.2553 51.5634 34.554C51.1807 34.8433 50.9474 35.282 50.8634 35.87H54.7834C54.7554 35.3287 54.564 34.8993 54.2094 34.582C53.8547 34.2647 53.4114 34.106 52.8794 34.106ZM57.8071 40V33.056H59.1231L59.2491 34.036C59.4731 33.6813 59.7671 33.4013 60.1311 33.196C60.5045 32.9907 60.9338 32.888 61.4191 32.888C62.5205 32.888 63.2858 33.322 63.7151 34.19C63.9671 33.7887 64.3031 33.4713 64.7231 33.238C65.1525 33.0047 65.6145 32.888 66.1091 32.888C66.9771 32.888 67.6585 33.1493 68.1531 33.672C68.6478 34.1947 68.8951 34.974 68.8951 36.01V40H67.4111V36.164C67.4111 34.82 66.8978 34.148 65.8711 34.148C65.3485 34.148 64.9191 34.344 64.5831 34.736C64.2565 35.128 64.0931 35.688 64.0931 36.416V40H62.6091V36.164C62.6091 34.82 62.0911 34.148 61.0551 34.148C60.5418 34.148 60.1171 34.344 59.7811 34.736C59.4545 35.128 59.2911 35.688 59.2911 36.416V40H57.8071ZM73.8794 40.168C73.198 40.168 72.5914 40.0187 72.0594 39.72C71.5367 39.412 71.126 38.9873 70.8274 38.446C70.5287 37.9047 70.3794 37.2747 70.3794 36.556C70.3794 35.828 70.524 35.1887 70.8134 34.638C71.112 34.0873 71.5227 33.658 72.0454 33.35C72.5774 33.042 73.1934 32.888 73.8934 32.888C74.5747 32.888 75.1674 33.042 75.6714 33.35C76.1754 33.6487 76.5674 34.05 76.8474 34.554C77.1274 35.058 77.2674 35.6133 77.2674 36.22C77.2674 36.3133 77.2627 36.416 77.2534 36.528C77.2534 36.6307 77.2487 36.7473 77.2394 36.878H71.8354C71.882 37.55 72.1014 38.0633 72.4934 38.418C72.8947 38.7633 73.3567 38.936 73.8794 38.936C74.2994 38.936 74.6494 38.8427 74.9294 38.656C75.2187 38.46 75.4334 38.1987 75.5734 37.872H77.0574C76.8707 38.5253 76.4974 39.0713 75.9374 39.51C75.3867 39.9487 74.7007 40.168 73.8794 40.168ZM73.8794 34.106C73.3847 34.106 72.946 34.2553 72.5634 34.554C72.1807 34.8433 71.9474 35.282 71.8634 35.87H75.7834C75.7554 35.3287 75.564 34.8993 75.2094 34.582C74.8547 34.2647 74.4114 34.106 73.8794 34.106ZM78.8071 40V33.056H80.1231L80.2351 34.274C80.4498 33.8447 80.7625 33.5087 81.1731 33.266C81.5931 33.014 82.0738 32.888 82.6151 32.888C83.4551 32.888 84.1131 33.1493 84.5891 33.672C85.0745 34.1947 85.3171 34.974 85.3171 36.01V40H83.8471V36.164C83.8471 34.82 83.2965 34.148 82.1951 34.148C81.6445 34.148 81.1871 34.344 80.8231 34.736C80.4685 35.128 80.2911 35.688 80.2911 36.416V40H78.8071ZM87.905 31.74C87.625 31.74 87.3916 31.656 87.205 31.488C87.0276 31.3107 86.939 31.0913 86.939 30.83C86.939 30.5687 87.0276 30.354 87.205 30.186C87.3916 30.0087 87.625 29.92 87.905 29.92C88.185 29.92 88.4136 30.0087 88.591 30.186C88.7776 30.354 88.871 30.5687 88.871 30.83C88.871 31.0913 88.7776 31.3107 88.591 31.488C88.4136 31.656 88.185 31.74 87.905 31.74ZM87.163 40V33.056H88.647V40H87.163ZM90.144 40V38.796L93.854 34.288H90.2V33.056H95.534V34.26L91.796 38.768H95.604V40H90.144Z" fill="white"/>
<path d="M314.786 40V38.936C315.421 38.432 316.028 37.9233 316.606 37.41C317.185 36.8967 317.698 36.3927 318.146 35.898C318.604 35.394 318.963 34.904 319.224 34.428C319.486 33.9427 319.616 33.476 319.616 33.028C319.616 32.7293 319.565 32.4493 319.462 32.188C319.36 31.9173 319.192 31.7027 318.958 31.544C318.725 31.376 318.412 31.292 318.02 31.292C317.432 31.292 316.989 31.4787 316.69 31.852C316.401 32.2253 316.261 32.6733 316.27 33.196H314.828C314.838 32.5053 314.982 31.9267 315.262 31.46C315.552 30.9933 315.934 30.6387 316.41 30.396C316.896 30.1533 317.442 30.032 318.048 30.032C318.972 30.032 319.71 30.2933 320.26 30.816C320.82 31.3293 321.1 32.048 321.1 32.972C321.1 33.5227 320.965 34.0687 320.694 34.61C320.433 35.1513 320.088 35.674 319.658 36.178C319.238 36.6727 318.786 37.1393 318.3 37.578C317.815 38.0167 317.353 38.4133 316.914 38.768H321.394V40H314.786ZM322.364 41.442L325.864 29.206H327.32L323.806 41.442H322.364ZM331.658 40.168C331.005 40.168 330.412 40.0513 329.88 39.818C329.358 39.5753 328.938 39.2393 328.62 38.81C328.312 38.3807 328.158 37.8767 328.158 37.298C328.158 36.71 328.322 36.1827 328.648 35.716C328.984 35.2493 329.428 34.932 329.978 34.764C329.484 34.568 329.101 34.2833 328.83 33.91C328.56 33.5273 328.424 33.1073 328.424 32.65C328.424 32.174 328.55 31.74 328.802 31.348C329.054 30.9467 329.418 30.6293 329.894 30.396C330.38 30.1533 330.968 30.032 331.658 30.032C332.349 30.032 332.932 30.1533 333.408 30.396C333.894 30.6293 334.262 30.9467 334.514 31.348C334.766 31.74 334.892 32.174 334.892 32.65C334.892 33.098 334.752 33.518 334.472 33.91C334.202 34.2927 333.819 34.5773 333.324 34.764C333.875 34.9413 334.314 35.2633 334.64 35.73C334.976 36.1873 335.144 36.71 335.144 37.298C335.144 37.8767 334.99 38.3807 334.682 38.81C334.374 39.2393 333.954 39.5753 333.422 39.818C332.9 40.0513 332.312 40.168 331.658 40.168ZM331.658 34.288C332.2 34.288 332.624 34.148 332.932 33.868C333.25 33.588 333.408 33.2287 333.408 32.79C333.408 32.2953 333.254 31.9173 332.946 31.656C332.638 31.3947 332.209 31.264 331.658 31.264C331.108 31.264 330.678 31.3947 330.37 31.656C330.062 31.9173 329.908 32.2953 329.908 32.79C329.908 33.2287 330.062 33.588 330.37 33.868C330.678 34.148 331.108 34.288 331.658 34.288ZM331.658 38.908C332.33 38.908 332.834 38.7493 333.17 38.432C333.506 38.1053 333.674 37.69 333.674 37.186C333.674 36.626 333.492 36.1967 333.128 35.898C332.774 35.59 332.284 35.436 331.658 35.436C331.033 35.436 330.538 35.59 330.174 35.898C329.81 36.1967 329.628 36.626 329.628 37.186C329.628 37.69 329.796 38.1053 330.132 38.432C330.478 38.7493 330.986 38.908 331.658 38.908Z" fill="#686195"/>
<circle cx="150" cy="64" r="12" fill="#0BCE91"/>
</svg>
