<svg width="803" height="282" viewBox="0 0 803 282" fill="none" xmlns="http://www.w3.org/2000/svg">
<path d="M711.12 167.31C666.77 219.12 613.61 255.17 557.4 271.57C483.15 293.24 431.2 273.86 371.06 251.43C307.16 227.6 234.74 200.59 119.27 220.75C94.8301 225.02 73.8401 230.42 53.5501 235.64C35.2201 240.36 17.9001 244.81 0.550132 247.68L0.390132 246.69C17.7001 243.82 35.0001 239.37 53.3101 234.66C73.6201 229.43 94.6301 224.03 119.11 219.75C234.84 199.55 307.4 226.61 371.42 250.48C431.4 272.85 483.19 292.17 557.13 270.59C613.15 254.25 666.14 218.3 710.37 166.64C751.3 118.84 782.84 60.4099 801.59 -2.32007L802.55 -2.03006C783.75 60.8599 752.14 119.41 711.12 167.31Z" fill="#332B68"/>
<path d="M672.54 118.92C629.99 174.63 577.5 212.82 520.73 229.37C453.89 248.88 407.13 231.44 352.99 211.25C295.48 189.8 230.3 165.49 126.4 183.64C104.42 187.47 85.5499 192.32 67.3099 197.02C44.4499 202.9 22.8599 208.45 0.499918 210.23L0.419918 209.23C22.6899 207.46 44.2399 201.91 67.0599 196.05C85.3299 191.35 104.21 186.49 126.23 182.64C230.4 164.45 295.72 188.81 353.35 210.3C407.32 230.43 453.94 247.81 520.46 228.4C577.02 211.91 629.34 173.85 671.76 118.31C710.57 67.4899 738.46 5.08986 750.28 -57.4101L750.32 -57.6402L751.3 -57.4701L751.26 -57.2302C739.4 5.42985 711.44 67.9799 672.54 118.92Z" fill="#332B68"/>
<path d="M624.33 91.9999C586.04 142.13 538.79 176.51 487.68 191.42C427.51 208.98 385.41 193.28 336.68 175.11C284.93 155.81 226.27 133.93 132.77 150.27C112.96 153.73 95.9502 158.1 79.5002 162.33C51.8602 169.44 27.9902 175.58 0.450192 174.67L0.480192 173.67C27.8702 174.58 51.6802 168.45 79.2502 161.36C95.7202 157.12 112.75 152.74 132.6 149.28C155.68 145.25 176.64 143.54 195.9 143.54C254.89 143.54 297.93 159.59 337.03 174.17C385.6 192.28 427.54 207.92 487.4 190.46C538.3 175.61 585.38 141.36 623.54 91.3999C658.46 45.6799 683.55 -10.4801 694.2 -66.7301C694.31 -67.3001 694.49 -68.2701 694.71 -69.6001L695.7 -69.4301C695.47 -68.0901 695.29 -67.1101 695.18 -66.5401C684.51 -10.1501 659.35 46.1599 624.33 91.9999Z" fill="#332B68"/>
<path d="M457.94 157.2C403.77 173.01 365.88 158.88 322.01 142.52C275.44 125.15 222.65 105.47 138.53 120.16C120.72 123.27 105.43 127.2 90.6299 131.01C60.0599 138.87 33.6699 145.66 0.37988 140.24L0.53988 139.25C33.6199 144.64 59.9199 137.87 90.3799 130.04C105.19 126.23 120.5 122.29 138.35 119.18C222.74 104.45 275.66 124.18 322.35 141.59C366.06 157.89 403.8 171.96 457.65 156.25C502.58 143.14 544.31 113.12 578.33 69.4301C609.43 29.4901 632.26 -19.8999 642.62 -69.6299L643.6 -69.4299C633.21 -19.5499 610.32 29.9801 579.12 70.0401C544.98 113.89 503.08 144.03 457.94 157.2Z" fill="#332B68"/>
<path d="M431.21 126.46C382.44 140.68 348.34 127.96 308.86 113.24C266.95 97.61 219.45 79.9 143.72 93.12C127.7 95.92 113.94 99.46 100.64 102.88C69.1001 110.99 41.8701 118 4.37007 107.94C3.34007 107.66 1.97007 107.28 0.330075 106.8L0.610075 105.84C2.25007 106.32 3.61007 106.7 4.63007 106.97C41.8801 116.96 67.7001 110.32 100.39 101.9C113.71 98.47 127.49 94.93 143.55 92.12C219.55 78.85 267.19 96.61 309.22 112.28C348.54 126.94 382.49 139.6 430.95 125.48C470.15 114.04 506.77 88.1999 536.87 50.7399C564.37 16.5199 585.22 -26.2401 595.57 -69.6601L596.54 -69.4301C586.16 -25.8701 565.24 17.0299 537.65 51.3699C507.4 88.9999 470.6 114.96 431.21 126.46Z" fill="#332B68"/>
<path d="M407.13 98.7701C363.22 111.59 332.51 100.13 296.96 86.8701C259.25 72.8001 216.51 56.8601 148.39 68.7602C133.99 71.2802 121.61 74.4602 109.65 77.5402C81.2598 84.8502 56.7398 91.1602 22.9598 82.1202C18.8298 81.0202 10.3998 78.5502 0.279781 74.4202L0.659781 73.4902C10.7298 77.6002 19.1198 80.0502 23.2198 81.1502C56.7398 90.1302 79.9798 84.1402 109.4 76.5702C121.39 73.4802 133.78 70.2901 148.22 67.7701C216.61 55.8301 259.49 71.8201 297.32 85.9301C332.7 99.1301 363.26 110.52 406.86 97.8001C440.89 87.8701 472.92 65.7701 499.46 33.8801C523.69 4.77006 542.68 -31.9999 552.93 -69.6699L553.89 -69.4099C543.61 -31.6099 524.55 5.30007 500.23 34.5101C473.54 66.5701 441.35 88.7801 407.13 98.7701Z" fill="#332B68"/>
<path d="M385.48 73.85C345.95 85.38 318.31 75.08 286.3 63.14C252.37 50.4901 213.9 36.1501 152.6 46.8401C139.59 49.1101 128.43 51.9801 117.63 54.7601C92.1 61.3301 70.05 67.0101 39.67 58.8701C33.44 57.2001 17.11 52.2901 0.209956 42.7801L0.699956 41.9101C17.5 51.3601 33.73 56.2401 39.92 57.9001C70.04 65.9701 90.93 60.5901 117.37 53.7901C128.19 51.0101 139.37 48.1301 152.42 45.8601C213.99 35.1201 252.59 49.5101 286.64 62.21C318.48 74.08 345.97 84.33 385.19 72.89C414.58 64.32 442.43 45.56 465.73 18.64C487.29 -6.26001 504.07 -36.8 514.25 -69.68L515.21 -69.38C504.99 -36.37 488.14 -5.71 466.49 19.3C443.07 46.36 415.05 65.22 385.48 73.85Z" fill="#332B68"/>
<path d="M366 51.4502C330.39 61.8302 305.51 52.5502 276.7 41.8002C246.17 30.4102 211.56 17.5002 156.4 27.1202C144.71 29.1602 134.67 31.7402 124.96 34.2302C101.97 40.1403 82.1101 45.2502 54.7601 37.9203C47.1201 35.8903 20.6201 27.8703 0.120111 10.1603L0.770111 9.40027C21.1001 26.9803 47.4301 34.9303 55.0101 36.9502C82.1001 44.2102 100.9 39.3803 124.7 33.2602C134.43 30.7602 144.48 28.1702 156.21 26.1302C211.64 16.4702 246.38 29.4202 277.03 40.8602C305.67 51.5402 330.41 60.7702 365.7 50.4802C414.63 36.2102 458.1 -9.84984 479.14 -69.7098L480.08 -69.3798C458.96 -9.19983 415.23 37.0902 366 51.4502Z" fill="#332B68"/>
<path d="M348.41 31.2201C316.35 40.5701 293.95 32.2101 268.01 22.5401C240.54 12.3001 209.41 0.690096 159.8 9.34011C149.31 11.1801 140.29 13.5001 131.58 15.7401C110.86 21.0701 92.96 25.6801 68.3 19.0601C55.84 15.7201 14.14 2.19013 -8.89e-06 -31.2899L0.919991 -31.6799C7.05999 -17.1399 19.17 -4.71988 36.91 5.23012C49.91 12.5201 62.31 16.4301 68.54 18.1101C92.95 24.6601 109.88 20.3001 131.32 14.7901C140.06 12.5401 149.09 10.2201 159.62 8.37011C209.5 -0.329905 240.77 11.3301 268.36 21.6201C294.13 31.2301 316.39 39.5301 348.14 30.2701C389.96 18.07 426.97 -19.31 447.15 -69.71L448.08 -69.34C427.78 -18.6599 390.52 18.94 348.41 31.2201Z" fill="#332B68"/>
<path d="M332.67 13.0501C303.79 21.4701 283.62 13.9501 260.26 5.24015C235.55 -3.97985 207.54 -14.4198 162.91 -6.63983C153.46 -4.98983 145.34 -2.89984 137.49 -0.86984C118.84 3.93016 102.73 8.08018 80.5202 2.14018C75.7302 0.850185 63.2102 -2.93981 50.5302 -10.2898C33.7502 -20.0198 22.7302 -32.2198 17.7702 -46.5498C15.2602 -53.7998 14.4302 -61.3298 15.2102 -69.5598L16.2102 -69.4598C15.4402 -61.3798 16.2602 -53.9898 18.7202 -46.8698C23.6002 -32.7698 34.4702 -20.7498 51.0402 -11.1398C63.6102 -3.84981 76.0302 -0.0897967 80.7902 1.1902C102.74 7.0702 117.97 3.15018 137.25 -1.81982C145.12 -3.84982 153.26 -5.93982 162.75 -7.59983C207.65 -15.4298 235.79 -4.92985 260.63 4.33014C283.82 12.9801 303.85 20.4501 332.41 12.1201C367.79 1.80013 398.99 -28.0199 418 -69.6999L418.91 -69.2799C399.76 -27.3699 368.33 2.65012 332.67 13.0501Z" fill="#332B68"/>
<path d="M318.43 -3.29004C292.43 4.28997 274.26 -2.48003 253.23 -10.32C230.99 -18.61 205.78 -28.01 165.6 -21C157.12 -19.51 149.83 -17.64 142.78 -15.83C125.97 -11.5 111.45 -7.77 91.4302 -13.14C86.0602 -14.59 75.4002 -17.97 64.4202 -24.34C49.3102 -33.1 39.3802 -44.09 34.9002 -57.01C33.4902 -61.08 32.6802 -65.17 32.4302 -69.52L33.4302 -69.58C33.6802 -65.33 34.4702 -61.32 35.8502 -57.34C40.2402 -44.66 50.0202 -33.85 64.9202 -25.21C75.8002 -18.9 86.3602 -15.55 91.6902 -14.11C111.45 -8.81 125.16 -12.34 142.53 -16.8C149.6 -18.62 156.91 -20.5 165.43 -21.99C205.87 -29.05 231.22 -19.6 253.58 -11.26C274.44 -3.48003 292.46 3.23996 318.15 -4.26004C347.23 -12.73 373.86 -36.6101 391.2 -69.7701L392.09 -69.31C374.62 -35.89 347.77 -11.83 318.43 -3.29004Z" fill="#332B68"/>
</svg>
