<svg width="477" height="456" viewBox="0 0 477 456" fill="none" xmlns="http://www.w3.org/2000/svg">
<g filter="url(#filter0_b)">
<path d="M0 456L5.43775e-06 0L477 5.68817e-06L477 456L0 456Z" fill="#1C1544"/>
<path d="M0.5 455.5L0.500005 0.5L476.5 0.500006L476.5 455.5L0.5 455.5Z" stroke="white" stroke-opacity="0.05"/>
</g>
<mask id="mask0" mask-type="alpha" maskUnits="userSpaceOnUse" x="0" y="0" width="351" height="456">
<g clip-path="url(#clip0)">
<path d="M237.31 711.12C289.12 666.77 325.17 613.61 341.57 557.4C363.24 483.15 343.86 431.2 321.43 371.06C297.6 307.16 270.59 234.74 290.75 119.27C295.02 94.8301 300.42 73.8401 305.64 53.5501C310.36 35.2201 314.81 17.9001 317.68 0.550135L316.69 0.390135C313.82 17.7001 309.37 35.0001 304.66 53.3101C299.43 73.6201 294.03 94.6301 289.75 119.11C269.55 234.84 296.61 307.4 320.48 371.42C342.85 431.4 362.17 483.19 340.59 557.13C324.25 613.15 288.3 666.14 236.64 710.37C188.84 751.3 130.41 782.84 67.6801 801.59L67.9701 802.55C130.86 783.75 189.41 752.14 237.31 711.12Z" fill="#2A2359"/>
<path d="M188.92 672.54C244.63 629.99 282.82 577.5 299.37 520.73C318.88 453.89 301.44 407.13 281.25 352.99C259.8 295.48 235.49 230.3 253.64 126.4C257.47 104.42 262.32 85.5499 267.02 67.3099C272.9 44.4499 278.45 22.8599 280.23 0.499921L279.23 0.419921C277.46 22.6899 271.91 44.2399 266.05 67.0599C261.35 85.3299 256.49 104.21 252.64 126.23C234.45 230.4 258.81 295.72 280.3 353.35C300.43 407.32 317.81 453.94 298.4 520.46C281.91 577.02 243.85 629.34 188.31 671.76C137.49 710.57 75.09 738.46 12.59 750.28L12.36 750.32L12.53 751.3L12.77 751.26C75.43 739.4 137.98 711.44 188.92 672.54Z" fill="#2A2359"/>
<path d="M162 624.33C212.13 586.04 246.51 538.79 261.42 487.68C278.98 427.51 263.28 385.41 245.11 336.68C225.81 284.93 203.93 226.27 220.27 132.77C223.73 112.96 228.1 95.9502 232.33 79.5002C239.44 51.8602 245.58 27.9902 244.67 0.450194L243.67 0.480194C244.58 27.8702 238.45 51.6802 231.36 79.2502C227.12 95.7202 222.74 112.75 219.28 132.6C215.25 155.68 213.54 176.64 213.54 195.9C213.54 254.89 229.59 297.93 244.17 337.03C262.28 385.6 277.92 427.54 260.46 487.4C245.61 538.3 211.36 585.38 161.4 623.54C115.68 658.46 59.52 683.55 3.27002 694.2C2.70001 694.31 1.73001 694.49 0.400025 694.71L0.570007 695.7C1.91 695.47 2.89001 695.29 3.46002 695.18C59.85 684.51 116.16 659.35 162 624.33Z" fill="#2A2359"/>
<path d="M227.2 457.94C243.01 403.77 228.88 365.88 212.52 322.01C195.15 275.44 175.47 222.65 190.16 138.53C193.27 120.72 197.2 105.43 201.01 90.6299C208.87 60.0599 215.66 33.6699 210.24 0.379882L209.25 0.539882C214.64 33.6199 207.87 59.9199 200.04 90.3799C196.23 105.19 192.29 120.5 189.18 138.35C174.45 222.74 194.18 275.66 211.59 322.35C227.89 366.06 241.96 403.8 226.25 457.65C213.14 502.58 183.12 544.31 139.43 578.33C99.4902 609.43 50.1002 632.26 0.370242 642.62L0.570223 643.6C50.4502 633.21 99.9802 610.32 140.04 579.12C183.89 544.98 214.03 503.08 227.2 457.94Z" fill="#2A2359"/>
<path d="M196.46 431.21C210.68 382.44 197.96 348.34 183.24 308.86C167.61 266.95 149.9 219.45 163.12 143.72C165.92 127.7 169.46 113.94 172.88 100.64C180.99 69.1001 188 41.8701 177.94 4.37008C177.66 3.34008 177.28 1.97008 176.8 0.330077L175.84 0.610077C176.32 2.25008 176.7 3.61008 176.97 4.63008C186.96 41.8801 180.32 67.7001 171.9 100.39C168.47 113.71 164.93 127.49 162.12 143.55C148.85 219.55 166.61 267.19 182.28 309.22C196.94 348.54 209.6 382.49 195.48 430.95C184.04 470.15 158.2 506.77 120.74 536.87C86.52 564.37 43.76 585.22 0.340031 595.57L0.570012 596.54C44.13 586.16 87.03 565.24 121.37 537.65C159 507.4 184.96 470.6 196.46 431.21Z" fill="#2A2359"/>
<path d="M168.77 407.13C181.59 363.22 170.13 332.51 156.87 296.96C142.8 259.25 126.86 216.51 138.76 148.39C141.28 133.99 144.46 121.61 147.54 109.65C154.85 81.2598 161.16 56.7398 152.12 22.9598C151.02 18.8298 148.55 10.3998 144.42 0.279784L143.49 0.659784C147.6 10.7298 150.05 19.1198 151.15 23.2198C160.13 56.7398 154.14 79.9798 146.57 109.4C143.48 121.39 140.29 133.78 137.77 148.22C125.83 216.61 141.82 259.49 155.93 297.32C169.13 332.7 180.52 363.26 167.8 406.86C157.87 440.89 135.77 472.92 103.88 499.46C74.7702 523.69 38.0002 542.68 0.330161 552.93L0.590171 553.89C38.3902 543.61 75.3002 524.55 104.51 500.23C136.57 473.54 158.78 441.35 168.77 407.13Z" fill="#2A2359"/>
<path d="M143.85 385.48C155.38 345.95 145.08 318.31 133.14 286.3C120.49 252.37 106.15 213.9 116.84 152.6C119.11 139.59 121.98 128.43 124.76 117.63C131.33 92.1 137.01 70.05 128.87 39.67C127.2 33.44 122.29 17.11 112.78 0.209959L111.91 0.699959C121.36 17.5 126.24 33.73 127.9 39.92C135.97 70.04 130.59 90.93 123.79 117.37C121.01 128.19 118.13 139.37 115.86 152.42C105.12 213.99 119.51 252.59 132.21 286.64C144.08 318.48 154.33 345.97 142.89 385.19C134.32 414.58 115.56 442.43 88.6403 465.73C63.7403 487.29 33.2003 504.07 0.320321 514.25L0.620339 515.21C33.6303 504.99 64.2903 488.14 89.3003 466.49C116.36 443.07 135.22 415.05 143.85 385.48Z" fill="#2A2359"/>
<path d="M121.45 366C131.83 330.39 122.55 305.51 111.8 276.7C100.41 246.17 87.5 211.56 97.12 156.4C99.16 144.71 101.74 134.67 104.23 124.96C110.14 101.97 115.25 82.1101 107.92 54.7601C105.89 47.1201 97.87 20.6201 80.16 0.120115L79.4 0.770115C96.98 21.1001 104.93 47.4301 106.95 55.0101C114.21 82.1001 109.38 100.9 103.26 124.7C100.76 134.43 98.17 144.48 96.13 156.21C86.47 211.64 99.42 246.38 110.86 277.03C121.54 305.67 130.77 330.41 120.48 365.7C106.21 414.63 60.15 458.1 0.289995 479.14L0.620012 480.08C60.8 458.96 107.09 415.23 121.45 366Z" fill="#2A2359"/>
<path d="M101.22 348.41C110.57 316.35 102.21 293.95 92.5399 268.01C82.2999 240.54 70.6899 209.41 79.3399 159.8C81.1799 149.31 83.4999 140.29 85.7399 131.58C91.0699 110.86 95.6799 92.96 89.0599 68.3C85.7199 55.84 72.1899 14.14 38.7099 -2.91067e-06L38.3199 0.919997C52.8599 7.06 65.2799 19.17 75.2299 36.91C82.5199 49.91 86.4299 62.31 88.1099 68.54C94.6599 92.95 90.2999 109.88 84.7899 131.32C82.5399 140.06 80.2199 149.09 78.3699 159.62C69.6699 209.5 81.3299 240.77 91.6199 268.36C101.23 294.13 109.53 316.39 100.27 348.14C88.0699 389.96 50.6899 426.97 0.289859 447.15L0.659885 448.08C51.3399 427.78 88.9399 390.52 101.22 348.41Z" fill="#2A2359"/>
<path d="M83.0499 332.67C91.4699 303.79 83.9499 283.62 75.2399 260.26C66.02 235.55 55.5799 207.54 63.3599 162.91C65.0099 153.46 67.0999 145.34 69.1299 137.49C73.9299 118.84 78.08 102.73 72.14 80.5202C70.85 75.7302 67.06 63.2102 59.71 50.5302C49.98 33.7502 37.78 22.7302 23.45 17.7702C16.2 15.2602 8.66997 14.4302 0.439972 15.2102L0.539947 16.2102C8.61995 15.4402 16.0099 16.2602 23.1299 18.7202C37.2299 23.6002 49.25 34.4702 58.86 51.0402C66.15 63.6102 69.91 76.0302 71.19 80.7902C77.07 102.74 73.15 117.97 68.18 137.25C66.15 145.12 64.06 153.26 62.4 162.75C54.57 207.65 65.0699 235.79 74.3299 260.63C82.9799 283.82 90.45 303.85 82.12 332.41C71.8 367.79 41.9799 398.99 0.29994 418L0.719953 418.91C42.63 399.76 72.6499 368.33 83.0499 332.67Z" fill="#2A2359"/>
<path d="M66.71 318.43C74.29 292.43 67.52 274.26 59.68 253.23C51.39 230.99 41.99 205.78 49 165.6C50.49 157.12 52.36 149.83 54.17 142.78C58.5 125.97 62.23 111.45 56.86 91.4302C55.41 86.0602 52.03 75.4002 45.66 64.4202C36.9 49.3102 25.91 39.3802 12.99 34.9002C8.92002 33.4902 4.83001 32.6802 0.480011 32.4302L0.420013 33.4302C4.67001 33.6802 8.68004 34.4702 12.66 35.8502C25.34 40.2402 36.15 50.0202 44.79 64.9202C51.1 75.8002 54.45 86.3602 55.89 91.6902C61.19 111.45 57.66 125.16 53.2 142.53C51.38 149.6 49.5 156.91 48.01 165.43C40.95 205.87 50.4 231.22 58.74 253.58C66.52 274.44 73.24 292.46 65.74 318.15C57.27 347.23 33.39 373.86 0.229995 391.2L0.690017 392.09C34.11 374.62 58.17 347.77 66.71 318.43Z" fill="#2A2359"/>
<path d="M52.0602 305.66C58.8802 282.25 52.7901 265.91 45.7301 246.98C38.2701 226.96 29.8102 204.28 36.1202 168.11C37.4602 160.45 39.1501 153.87 40.7901 147.5C44.6801 132.38 48.0401 119.33 43.2301 101.35C40.6301 91.7098 30.1102 59.5598 3.72017 50.4498C2.71017 50.0998 1.69014 49.7898 0.60014 49.5098L0.35014 50.4798C1.42014 50.7598 2.42016 51.0598 3.40016 51.3998C14.8102 55.3398 24.5302 64.1298 32.3002 77.5298C37.9702 87.3198 40.9902 96.8198 42.2802 101.61C47.0202 119.33 43.8502 131.65 39.8402 147.25C38.2002 153.64 36.5002 160.24 35.1502 167.94C28.8002 204.37 37.3002 227.19 44.8102 247.33C51.8102 266.09 57.8502 282.29 51.1201 305.38C44.1801 329.13 26.1101 350.84 0.230131 366.51L0.75015 367.37C26.8302 351.56 45.0602 329.65 52.0602 305.66Z" fill="#2A2359"/>
<path d="M38.8202 294.13C44.9702 273.05 39.4803 258.33 33.1203 241.27C26.4103 223.26 18.8003 202.84 24.4703 170.33C25.6703 163.44 27.1903 157.53 28.6703 151.8C32.1703 138.19 35.2003 126.43 30.8603 110.22C28.8403 102.67 20.6903 77.2197 0.710266 66.7397L0.250275 67.6297C19.8703 77.9197 27.9103 103.03 29.9003 110.48C34.1703 126.44 31.3203 137.53 27.7103 151.56C26.2303 157.3 24.7103 163.24 23.5003 170.16C17.7803 202.94 25.4402 223.49 32.2002 241.62C38.4902 258.51 43.9303 273.09 37.8703 293.85C32.3703 312.69 19.3403 329.86 0.190265 343.52L0.770252 344.33C20.0903 330.54 33.2502 313.18 38.8202 294.13Z" fill="#2A2359"/>
<path d="M26.87 283.75C32.4 264.76 27.46 251.51 21.74 236.16C15.7 219.96 8.85003 201.59 13.96 172.34C15.04 166.13 16.41 160.8 17.74 155.64C20.89 143.39 23.61 132.81 19.71 118.22C17.97 111.77 12.63 95.6101 0.810041 84.8701L0.140028 85.6101C12.1 96.4701 17.41 113.51 18.75 118.48C22.58 132.82 20.02 142.78 16.77 155.39C15.44 160.57 14.06 165.92 12.97 172.17C7.82004 201.69 14.72 220.19 20.8 236.51C26.46 251.69 31.35 264.81 25.91 283.47C21.83 297.43 12.92 310.67 0.140018 321.77L0.800021 322.53C13.72 311.3 22.74 297.9 26.87 283.75Z" fill="#2A2359"/>
<path d="M11.5101 231.55C6.0801 216.97 -0.0798858 200.45 4.52012 174.14C5.49012 168.57 6.73011 163.79 7.92011 159.16C10.7701 148.12 13.2201 138.58 9.69013 125.4C8.80013 122.09 6.1501 113.5 0.880104 105.27L0.0401077 105.81C5.23011 113.92 7.84013 122.39 8.72013 125.66C12.1801 138.58 9.87013 147.55 6.94013 158.91C5.74013 163.56 4.50012 168.36 3.52012 173.97C-1.12989 200.55 5.08012 217.21 10.5601 231.9C15.6501 245.55 20.0501 257.34 15.1501 274.13C12.4201 283.52 7.35011 292.43 0.0801077 300.6L0.830108 301.26C8.20011 292.97 13.3401 283.94 16.1101 274.4C21.1101 257.31 16.6601 245.37 11.5101 231.55Z" fill="#2A2359"/>
<path d="M2.31008 227.42C1.85008 226.2 1.39009 224.97 0.940089 223.71L8.67695e-05 224.05C0.460087 225.31 0.920061 226.54 1.38006 227.76C5.96006 240.04 9.92006 250.65 5.51006 265.75C4.25006 270.05 2.41006 274.31 0.0400624 278.42L0.910088 278.92C3.33009 274.74 5.20007 270.41 6.48007 266.03C10.9701 250.62 6.96008 239.87 2.31008 227.42Z" fill="#2A2359"/>
</g>
</mask>
<g mask="url(#mask0)">
<g filter="url(#filter1_b)">
<path d="M0 456L5.43775e-06 0L477 5.68817e-06L477 456L0 456Z" fill="#2A2359"/>
<path d="M0.5 455.5L0.500005 0.5L476.5 0.500006L476.5 455.5L0.5 455.5Z" stroke="white" stroke-opacity="0.05"/>
</g>
</g>
<defs>
<filter id="filter0_b" x="-64" y="-64" width="605" height="584" filterUnits="userSpaceOnUse" color-interpolation-filters="sRGB">
<feFlood flood-opacity="0" result="BackgroundImageFix"/>
<feGaussianBlur in="BackgroundImage" stdDeviation="32"/>
<feComposite in2="SourceAlpha" operator="in" result="effect1_backgroundBlur"/>
<feBlend mode="normal" in="SourceGraphic" in2="effect1_backgroundBlur" result="shape"/>
</filter>
<filter id="filter1_b" x="-64" y="-64" width="605" height="584" filterUnits="userSpaceOnUse" color-interpolation-filters="sRGB">
<feFlood flood-opacity="0" result="BackgroundImageFix"/>
<feGaussianBlur in="BackgroundImage" stdDeviation="32"/>
<feComposite in2="SourceAlpha" operator="in" result="effect1_backgroundBlur"/>
<feBlend mode="normal" in="SourceGraphic" in2="effect1_backgroundBlur" result="shape"/>
</filter>
<clipPath id="clip0">
<rect x="351" width="456" height="351" transform="rotate(90 351 0)" fill="white"/>
</clipPath>
</defs>
</svg>
